<?xml version="1.0" encoding="utf-8" standalone="no"?>
<!DOCTYPE svg PUBLIC "-//W3C//DTD SVG 1.1//EN"
  "http://www.w3.org/Graphics/SVG/1.1/DTD/svg11.dtd">
<svg xmlns:xlink="http://www.w3.org/1999/xlink" width="460.8pt" height="345.6pt" viewBox="0 0 460.8 345.6" xmlns="http://www.w3.org/2000/svg" version="1.1">
 <metadata>
  <rdf:RDF xmlns:dc="http://purl.org/dc/elements/1.1/" xmlns:cc="http://creativecommons.org/ns#" xmlns:rdf="http://www.w3.org/1999/02/22-rdf-syntax-ns#">
   <cc:Work>
    <dc:type rdf:resource="http://purl.org/dc/dcmitype/StillImage"/>
    <dc:date>2025-11-26T22:58:45.313694</dc:date>
    <dc:format>image/svg+xml</dc:format>
    <dc:creator>
     <cc:Agent>
      <dc:title>Matplotlib v3.10.7, https://matplotlib.org/</dc:title>
     </cc:Agent>
    </dc:creator>
   </cc:Work>
  </rdf:RDF>
 </metadata>
 <defs>
  <style type="text/css">*{stroke-linejoin: round; stroke-linecap: butt}</style>
 </defs>
 <g id="figure_1">
  <g id="patch_1">
   <path d="M 0 345.6 
L 460.8 345.6 
L 460.8 0 
L 0 0 
z
" style="fill: #ffffff"/>
  </g>
  <g id="axes_1">
   <g id="patch_2">
    <path d="M 57.6 307.584 
L 414.72 307.584 
L 414.72 41.472 
L 57.6 41.472 
z
" style="fill: #ffffff"/>
   </g>
   <g id="patch_3">
    <path d="M 73.832727 307.584 
L 80.325813 307.584 
L 80.325813 305.380174 
L 73.832727 305.380174 
z
" clip-path="url(#p0829447727)" style="fill: #1f77b4"/>
   </g>
   <g id="patch_4">
    <path d="M 80.325813 307.584 
L 86.818913 307.584 
L 86.818913 307.584 
L 80.325813 307.584 
z
" clip-path="url(#p0829447727)" style="fill: #1f77b4"/>
   </g>
   <g id="patch_5">
    <path d="M 86.818913 307.584 
L 93.311999 307.584 
L 93.311999 307.584 
L 86.818913 307.584 
z
" clip-path="url(#p0829447727)" style="fill: #1f77b4"/>
   </g>
   <g id="patch_6">
    <path d="M 93.311999 307.584 
L 99.805099 307.584 
L 99.805099 307.584 
L 93.311999 307.584 
z
" clip-path="url(#p0829447727)" style="fill: #1f77b4"/>
   </g>
   <g id="patch_7">
    <path d="M 99.805099 307.584 
L 106.298185 307.584 
L 106.298185 306.482087 
L 99.805099 306.482087 
z
" clip-path="url(#p0829447727)" style="fill: #1f77b4"/>
   </g>
   <g id="patch_8">
    <path d="M 106.298185 307.584 
L 112.79127 307.584 
L 112.79127 305.380174 
L 106.298185 305.380174 
z
" clip-path="url(#p0829447727)" style="fill: #1f77b4"/>
   </g>
   <g id="patch_9">
    <path d="M 112.79127 307.584 
L 119.284371 307.584 
L 119.284371 302.074435 
L 112.79127 302.074435 
z
" clip-path="url(#p0829447727)" style="fill: #1f77b4"/>
   </g>
   <g id="patch_10">
    <path d="M 119.284371 307.584 
L 125.777456 307.584 
L 125.777456 306.482087 
L 119.284371 306.482087 
z
" clip-path="url(#p0829447727)" style="fill: #1f77b4"/>
   </g>
   <g id="patch_11">
    <path d="M 125.777456 307.584 
L 132.270542 307.584 
L 132.270542 302.074435 
L 125.777456 302.074435 
z
" clip-path="url(#p0829447727)" style="fill: #1f77b4"/>
   </g>
   <g id="patch_12">
    <path d="M 132.270542 307.584 
L 138.763642 307.584 
L 138.763642 303.176348 
L 132.270542 303.176348 
z
" clip-path="url(#p0829447727)" style="fill: #1f77b4"/>
   </g>
   <g id="patch_13">
    <path d="M 138.763642 307.584 
L 145.256728 307.584 
L 145.256728 295.462957 
L 138.763642 295.462957 
z
" clip-path="url(#p0829447727)" style="fill: #1f77b4"/>
   </g>
   <g id="patch_14">
    <path d="M 145.256728 307.584 
L 151.749813 307.584 
L 151.749813 296.56487 
L 145.256728 296.56487 
z
" clip-path="url(#p0829447727)" style="fill: #1f77b4"/>
   </g>
   <g id="patch_15">
    <path d="M 151.749813 307.584 
L 158.242914 307.584 
L 158.242914 288.851478 
L 151.749813 288.851478 
z
" clip-path="url(#p0829447727)" style="fill: #1f77b4"/>
   </g>
   <g id="patch_16">
    <path d="M 158.242914 307.584 
L 164.735999 307.584 
L 164.735999 282.24 
L 158.242914 282.24 
z
" clip-path="url(#p0829447727)" style="fill: #1f77b4"/>
   </g>
   <g id="patch_17">
    <path d="M 164.735999 307.584 
L 171.229092 307.584 
L 171.229092 280.036174 
L 164.735999 280.036174 
z
" clip-path="url(#p0829447727)" style="fill: #1f77b4"/>
   </g>
   <g id="patch_18">
    <path d="M 171.229092 307.584 
L 177.722185 307.584 
L 177.722185 277.832348 
L 171.229092 277.832348 
z
" clip-path="url(#p0829447727)" style="fill: #1f77b4"/>
   </g>
   <g id="patch_19">
    <path d="M 177.722185 307.584 
L 184.215278 307.584 
L 184.215278 271.22087 
L 177.722185 271.22087 
z
" clip-path="url(#p0829447727)" style="fill: #1f77b4"/>
   </g>
   <g id="patch_20">
    <path d="M 184.215278 307.584 
L 190.708371 307.584 
L 190.708371 253.590261 
L 184.215278 253.590261 
z
" clip-path="url(#p0829447727)" style="fill: #1f77b4"/>
   </g>
   <g id="patch_21">
    <path d="M 190.708371 307.584 
L 197.201457 307.584 
L 197.201457 233.755826 
L 190.708371 233.755826 
z
" clip-path="url(#p0829447727)" style="fill: #1f77b4"/>
   </g>
   <g id="patch_22">
    <path d="M 197.201457 307.584 
L 203.694557 307.584 
L 203.694557 219.430957 
L 197.201457 219.430957 
z
" clip-path="url(#p0829447727)" style="fill: #1f77b4"/>
   </g>
   <g id="patch_23">
    <path d="M 203.694557 307.584 
L 210.187643 307.584 
L 210.187643 177.558261 
L 203.694557 177.558261 
z
" clip-path="url(#p0829447727)" style="fill: #1f77b4"/>
   </g>
   <g id="patch_24">
    <path d="M 210.187643 307.584 
L 216.680728 307.584 
L 216.680728 157.723826 
L 210.187643 157.723826 
z
" clip-path="url(#p0829447727)" style="fill: #1f77b4"/>
   </g>
   <g id="patch_25">
    <path d="M 216.680728 307.584 
L 223.173829 307.584 
L 223.173829 84.997565 
L 216.680728 84.997565 
z
" clip-path="url(#p0829447727)" style="fill: #1f77b4"/>
   </g>
   <g id="patch_26">
    <path d="M 223.173829 307.584 
L 229.666914 307.584 
L 229.666914 84.997565 
L 223.173829 84.997565 
z
" clip-path="url(#p0829447727)" style="fill: #1f77b4"/>
   </g>
   <g id="patch_27">
    <path d="M 229.666914 307.584 
L 236.16 307.584 
L 236.16 54.144 
L 229.666914 54.144 
z
" clip-path="url(#p0829447727)" style="fill: #1f77b4"/>
   </g>
   <g id="patch_28">
    <path d="M 236.16 307.584 
L 242.6531 307.584 
L 242.6531 101.526261 
L 236.16 101.526261 
z
" clip-path="url(#p0829447727)" style="fill: #1f77b4"/>
   </g>
   <g id="patch_29">
    <path d="M 242.6531 307.584 
L 249.146186 307.584 
L 249.146186 101.526261 
L 242.6531 101.526261 
z
" clip-path="url(#p0829447727)" style="fill: #1f77b4"/>
   </g>
   <g id="patch_30">
    <path d="M 249.146186 307.584 
L 255.639272 307.584 
L 255.639272 169.84487 
L 249.146186 169.84487 
z
" clip-path="url(#p0829447727)" style="fill: #1f77b4"/>
   </g>
   <g id="patch_31">
    <path d="M 255.639272 307.584 
L 262.132372 307.584 
L 262.132372 222.736696 
L 255.639272 222.736696 
z
" clip-path="url(#p0829447727)" style="fill: #1f77b4"/>
   </g>
   <g id="patch_32">
    <path d="M 262.132372 307.584 
L 268.625458 307.584 
L 268.625458 241.469217 
L 262.132372 241.469217 
z
" clip-path="url(#p0829447727)" style="fill: #1f77b4"/>
   </g>
   <g id="patch_33">
    <path d="M 268.625458 307.584 
L 275.118558 307.584 
L 275.118558 256.896 
L 268.625458 256.896 
z
" clip-path="url(#p0829447727)" style="fill: #1f77b4"/>
   </g>
   <g id="patch_34">
    <path d="M 275.118558 307.584 
L 281.611643 307.584 
L 281.611643 266.813217 
L 275.118558 266.813217 
z
" clip-path="url(#p0829447727)" style="fill: #1f77b4"/>
   </g>
   <g id="patch_35">
    <path d="M 281.611643 307.584 
L 288.104729 307.584 
L 288.104729 292.157217 
L 281.611643 292.157217 
z
" clip-path="url(#p0829447727)" style="fill: #1f77b4"/>
   </g>
   <g id="patch_36">
    <path d="M 288.104729 307.584 
L 294.597829 307.584 
L 294.597829 291.055304 
L 288.104729 291.055304 
z
" clip-path="url(#p0829447727)" style="fill: #1f77b4"/>
   </g>
   <g id="patch_37">
    <path d="M 294.597829 307.584 
L 301.090915 307.584 
L 301.090915 292.157217 
L 294.597829 292.157217 
z
" clip-path="url(#p0829447727)" style="fill: #1f77b4"/>
   </g>
   <g id="patch_38">
    <path d="M 301.090915 307.584 
L 307.584015 307.584 
L 307.584015 299.870609 
L 301.090915 299.870609 
z
" clip-path="url(#p0829447727)" style="fill: #1f77b4"/>
   </g>
   <g id="patch_39">
    <path d="M 307.584015 307.584 
L 314.077101 307.584 
L 314.077101 297.666783 
L 307.584015 297.666783 
z
" clip-path="url(#p0829447727)" style="fill: #1f77b4"/>
   </g>
   <g id="patch_40">
    <path d="M 314.077101 307.584 
L 320.570187 307.584 
L 320.570187 302.074435 
L 314.077101 302.074435 
z
" clip-path="url(#p0829447727)" style="fill: #1f77b4"/>
   </g>
   <g id="patch_41">
    <path d="M 320.570187 307.584 
L 327.063287 307.584 
L 327.063287 305.380174 
L 320.570187 305.380174 
z
" clip-path="url(#p0829447727)" style="fill: #1f77b4"/>
   </g>
   <g id="patch_42">
    <path d="M 327.063287 307.584 
L 333.556387 307.584 
L 333.556387 304.278261 
L 327.063287 304.278261 
z
" clip-path="url(#p0829447727)" style="fill: #1f77b4"/>
   </g>
   <g id="patch_43">
    <path d="M 333.556387 307.584 
L 340.049458 307.584 
L 340.049458 305.380174 
L 333.556387 305.380174 
z
" clip-path="url(#p0829447727)" style="fill: #1f77b4"/>
   </g>
   <g id="patch_44">
    <path d="M 340.049458 307.584 
L 346.542559 307.584 
L 346.542559 305.380174 
L 340.049458 305.380174 
z
" clip-path="url(#p0829447727)" style="fill: #1f77b4"/>
   </g>
   <g id="patch_45">
    <path d="M 346.542559 307.584 
L 353.035659 307.584 
L 353.035659 306.482087 
L 346.542559 306.482087 
z
" clip-path="url(#p0829447727)" style="fill: #1f77b4"/>
   </g>
   <g id="patch_46">
    <path d="M 353.035659 307.584 
L 359.52873 307.584 
L 359.52873 306.482087 
L 353.035659 306.482087 
z
" clip-path="url(#p0829447727)" style="fill: #1f77b4"/>
   </g>
   <g id="patch_47">
    <path d="M 359.52873 307.584 
L 366.02183 307.584 
L 366.02183 306.482087 
L 359.52873 306.482087 
z
" clip-path="url(#p0829447727)" style="fill: #1f77b4"/>
   </g>
   <g id="patch_48">
    <path d="M 366.02183 307.584 
L 372.51493 307.584 
L 372.51493 306.482087 
L 366.02183 306.482087 
z
" clip-path="url(#p0829447727)" style="fill: #1f77b4"/>
   </g>
   <g id="patch_49">
    <path d="M 372.51493 307.584 
L 379.008001 307.584 
L 379.008001 307.584 
L 372.51493 307.584 
z
" clip-path="url(#p0829447727)" style="fill: #1f77b4"/>
   </g>
   <g id="patch_50">
    <path d="M 379.008001 307.584 
L 385.501102 307.584 
L 385.501102 307.584 
L 379.008001 307.584 
z
" clip-path="url(#p0829447727)" style="fill: #1f77b4"/>
   </g>
   <g id="patch_51">
    <path d="M 385.501102 307.584 
L 391.994202 307.584 
L 391.994202 306.482087 
L 385.501102 306.482087 
z
" clip-path="url(#p0829447727)" style="fill: #1f77b4"/>
   </g>
   <g id="patch_52">
    <path d="M 391.994202 307.584 
L 398.487273 307.584 
L 398.487273 306.482087 
L 391.994202 306.482087 
z
" clip-path="url(#p0829447727)" style="fill: #1f77b4"/>
   </g>
   <g id="matplotlib.axis_1">
    <g id="xtick_1">
     <g id="line2d_1">
      <path d="M 84.032985 307.584 
L 84.032985 41.472 
" clip-path="url(#p0829447727)" style="fill: none; stroke: #b0b0b0; stroke-width: 0.8; stroke-linecap: square"/>
     </g>
     <g id="line2d_2">
      <defs>
       <path id="mbe8acf0d8d" d="M 0 0 
L 0 3.5 
" style="stroke: #000000; stroke-width: 0.8"/>
      </defs>
      <g>
       <use xlink:href="#mbe8acf0d8d" x="84.032985" y="307.584" style="stroke: #000000; stroke-width: 0.8"/>
      </g>
     </g>
     <g id="text_1">
      <!-- −0.4 -->
      <g transform="translate(71.891579 322.182437) scale(0.1 -0.1)">
       <defs>
        <path id="DejaVuSans-2212" d="M 678 2272 
L 4684 2272 
L 4684 1741 
L 678 1741 
L 678 2272 
z
" transform="scale(0.015625)"/>
        <path id="DejaVuSans-30" d="M 2034 4250 
Q 1547 4250 1301 3770 
Q 1056 3291 1056 2328 
Q 1056 1369 1301 889 
Q 1547 409 2034 409 
Q 2525 409 2770 889 
Q 3016 1369 3016 2328 
Q 3016 3291 2770 3770 
Q 2525 4250 2034 4250 
z
M 2034 4750 
Q 2819 4750 3233 4129 
Q 3647 3509 3647 2328 
Q 3647 1150 3233 529 
Q 2819 -91 2034 -91 
Q 1250 -91 836 529 
Q 422 1150 422 2328 
Q 422 3509 836 4129 
Q 1250 4750 2034 4750 
z
" transform="scale(0.015625)"/>
        <path id="DejaVuSans-2e" d="M 684 794 
L 1344 794 
L 1344 0 
L 684 0 
L 684 794 
z
" transform="scale(0.015625)"/>
        <path id="DejaVuSans-34" d="M 2419 4116 
L 825 1625 
L 2419 1625 
L 2419 4116 
z
M 2253 4666 
L 3047 4666 
L 3047 1625 
L 3713 1625 
L 3713 1100 
L 3047 1100 
L 3047 0 
L 2419 0 
L 2419 1100 
L 313 1100 
L 313 1709 
L 2253 4666 
z
" transform="scale(0.015625)"/>
       </defs>
       <use xlink:href="#DejaVuSans-2212"/>
       <use xlink:href="#DejaVuSans-30" transform="translate(83.789062 0)"/>
       <use xlink:href="#DejaVuSans-2e" transform="translate(147.412109 0)"/>
       <use xlink:href="#DejaVuSans-34" transform="translate(179.199219 0)"/>
      </g>
     </g>
    </g>
    <g id="xtick_2">
     <g id="line2d_3">
      <path d="M 133.867906 307.584 
L 133.867906 41.472 
" clip-path="url(#p0829447727)" style="fill: none; stroke: #b0b0b0; stroke-width: 0.8; stroke-linecap: square"/>
     </g>
     <g id="line2d_4">
      <g>
       <use xlink:href="#mbe8acf0d8d" x="133.867906" y="307.584" style="stroke: #000000; stroke-width: 0.8"/>
      </g>
     </g>
     <g id="text_2">
      <!-- −0.3 -->
      <g transform="translate(121.7265 322.182437) scale(0.1 -0.1)">
       <defs>
        <path id="DejaVuSans-33" d="M 2597 2516 
Q 3050 2419 3304 2112 
Q 3559 1806 3559 1356 
Q 3559 666 3084 287 
Q 2609 -91 1734 -91 
Q 1441 -91 1130 -33 
Q 819 25 488 141 
L 488 750 
Q 750 597 1062 519 
Q 1375 441 1716 441 
Q 2309 441 2620 675 
Q 2931 909 2931 1356 
Q 2931 1769 2642 2001 
Q 2353 2234 1838 2234 
L 1294 2234 
L 1294 2753 
L 1863 2753 
Q 2328 2753 2575 2939 
Q 2822 3125 2822 3475 
Q 2822 3834 2567 4026 
Q 2313 4219 1838 4219 
Q 1578 4219 1281 4162 
Q 984 4106 628 3988 
L 628 4550 
Q 988 4650 1302 4700 
Q 1616 4750 1894 4750 
Q 2613 4750 3031 4423 
Q 3450 4097 3450 3541 
Q 3450 3153 3228 2886 
Q 3006 2619 2597 2516 
z
" transform="scale(0.015625)"/>
       </defs>
       <use xlink:href="#DejaVuSans-2212"/>
       <use xlink:href="#DejaVuSans-30" transform="translate(83.789062 0)"/>
       <use xlink:href="#DejaVuSans-2e" transform="translate(147.412109 0)"/>
       <use xlink:href="#DejaVuSans-33" transform="translate(179.199219 0)"/>
      </g>
     </g>
    </g>
    <g id="xtick_3">
     <g id="line2d_5">
      <path d="M 183.702828 307.584 
L 183.702828 41.472 
" clip-path="url(#p0829447727)" style="fill: none; stroke: #b0b0b0; stroke-width: 0.8; stroke-linecap: square"/>
     </g>
     <g id="line2d_6">
      <g>
       <use xlink:href="#mbe8acf0d8d" x="183.702828" y="307.584" style="stroke: #000000; stroke-width: 0.8"/>
      </g>
     </g>
     <g id="text_3">
      <!-- −0.2 -->
      <g transform="translate(171.561421 322.182437) scale(0.1 -0.1)">
       <defs>
        <path id="DejaVuSans-32" d="M 1228 531 
L 3431 531 
L 3431 0 
L 469 0 
L 469 531 
Q 828 903 1448 1529 
Q 2069 2156 2228 2338 
Q 2531 2678 2651 2914 
Q 2772 3150 2772 3378 
Q 2772 3750 2511 3984 
Q 2250 4219 1831 4219 
Q 1534 4219 1204 4116 
Q 875 4013 500 3803 
L 500 4441 
Q 881 4594 1212 4672 
Q 1544 4750 1819 4750 
Q 2544 4750 2975 4387 
Q 3406 4025 3406 3419 
Q 3406 3131 3298 2873 
Q 3191 2616 2906 2266 
Q 2828 2175 2409 1742 
Q 1991 1309 1228 531 
z
" transform="scale(0.015625)"/>
       </defs>
       <use xlink:href="#DejaVuSans-2212"/>
       <use xlink:href="#DejaVuSans-30" transform="translate(83.789062 0)"/>
       <use xlink:href="#DejaVuSans-2e" transform="translate(147.412109 0)"/>
       <use xlink:href="#DejaVuSans-32" transform="translate(179.199219 0)"/>
      </g>
     </g>
    </g>
    <g id="xtick_4">
     <g id="line2d_7">
      <path d="M 233.537749 307.584 
L 233.537749 41.472 
" clip-path="url(#p0829447727)" style="fill: none; stroke: #b0b0b0; stroke-width: 0.8; stroke-linecap: square"/>
     </g>
     <g id="line2d_8">
      <g>
       <use xlink:href="#mbe8acf0d8d" x="233.537749" y="307.584" style="stroke: #000000; stroke-width: 0.8"/>
      </g>
     </g>
     <g id="text_4">
      <!-- −0.1 -->
      <g transform="translate(221.396343 322.182437) scale(0.1 -0.1)">
       <defs>
        <path id="DejaVuSans-31" d="M 794 531 
L 1825 531 
L 1825 4091 
L 703 3866 
L 703 4441 
L 1819 4666 
L 2450 4666 
L 2450 531 
L 3481 531 
L 3481 0 
L 794 0 
L 794 531 
z
" transform="scale(0.015625)"/>
       </defs>
       <use xlink:href="#DejaVuSans-2212"/>
       <use xlink:href="#DejaVuSans-30" transform="translate(83.789062 0)"/>
       <use xlink:href="#DejaVuSans-2e" transform="translate(147.412109 0)"/>
       <use xlink:href="#DejaVuSans-31" transform="translate(179.199219 0)"/>
      </g>
     </g>
    </g>
    <g id="xtick_5">
     <g id="line2d_9">
      <path d="M 283.372671 307.584 
L 283.372671 41.472 
" clip-path="url(#p0829447727)" style="fill: none; stroke: #b0b0b0; stroke-width: 0.8; stroke-linecap: square"/>
     </g>
     <g id="line2d_10">
      <g>
       <use xlink:href="#mbe8acf0d8d" x="283.372671" y="307.584" style="stroke: #000000; stroke-width: 0.8"/>
      </g>
     </g>
     <g id="text_5">
      <!-- 0.0 -->
      <g transform="translate(275.421108 322.182437) scale(0.1 -0.1)">
       <use xlink:href="#DejaVuSans-30"/>
       <use xlink:href="#DejaVuSans-2e" transform="translate(63.623047 0)"/>
       <use xlink:href="#DejaVuSans-30" transform="translate(95.410156 0)"/>
      </g>
     </g>
    </g>
    <g id="xtick_6">
     <g id="line2d_11">
      <path d="M 333.207592 307.584 
L 333.207592 41.472 
" clip-path="url(#p0829447727)" style="fill: none; stroke: #b0b0b0; stroke-width: 0.8; stroke-linecap: square"/>
     </g>
     <g id="line2d_12">
      <g>
       <use xlink:href="#mbe8acf0d8d" x="333.207592" y="307.584" style="stroke: #000000; stroke-width: 0.8"/>
      </g>
     </g>
     <g id="text_6">
      <!-- 0.1 -->
      <g transform="translate(325.256029 322.182437) scale(0.1 -0.1)">
       <use xlink:href="#DejaVuSans-30"/>
       <use xlink:href="#DejaVuSans-2e" transform="translate(63.623047 0)"/>
       <use xlink:href="#DejaVuSans-31" transform="translate(95.410156 0)"/>
      </g>
     </g>
    </g>
    <g id="xtick_7">
     <g id="line2d_13">
      <path d="M 383.042513 307.584 
L 383.042513 41.472 
" clip-path="url(#p0829447727)" style="fill: none; stroke: #b0b0b0; stroke-width: 0.8; stroke-linecap: square"/>
     </g>
     <g id="line2d_14">
      <g>
       <use xlink:href="#mbe8acf0d8d" x="383.042513" y="307.584" style="stroke: #000000; stroke-width: 0.8"/>
      </g>
     </g>
     <g id="text_7">
      <!-- 0.2 -->
      <g transform="translate(375.090951 322.182437) scale(0.1 -0.1)">
       <use xlink:href="#DejaVuSans-30"/>
       <use xlink:href="#DejaVuSans-2e" transform="translate(63.623047 0)"/>
       <use xlink:href="#DejaVuSans-32" transform="translate(95.410156 0)"/>
      </g>
     </g>
    </g>
   </g>
   <g id="matplotlib.axis_2">
    <g id="ytick_1">
     <g id="line2d_15">
      <path d="M 57.6 307.584 
L 414.72 307.584 
" clip-path="url(#p0829447727)" style="fill: none; stroke: #b0b0b0; stroke-width: 0.8; stroke-linecap: square"/>
     </g>
     <g id="line2d_16">
      <defs>
       <path id="m6afef7a68c" d="M 0 0 
L -3.5 0 
" style="stroke: #000000; stroke-width: 0.8"/>
      </defs>
      <g>
       <use xlink:href="#m6afef7a68c" x="57.6" y="307.584" style="stroke: #000000; stroke-width: 0.8"/>
      </g>
     </g>
     <g id="text_8">
      <!-- 0 -->
      <g transform="translate(44.2375 311.383219) scale(0.1 -0.1)">
       <use xlink:href="#DejaVuSans-30"/>
      </g>
     </g>
    </g>
    <g id="ytick_2">
     <g id="line2d_17">
      <path d="M 57.6 252.488348 
L 414.72 252.488348 
" clip-path="url(#p0829447727)" style="fill: none; stroke: #b0b0b0; stroke-width: 0.8; stroke-linecap: square"/>
     </g>
     <g id="line2d_18">
      <g>
       <use xlink:href="#m6afef7a68c" x="57.6" y="252.488348" style="stroke: #000000; stroke-width: 0.8"/>
      </g>
     </g>
     <g id="text_9">
      <!-- 50 -->
      <g transform="translate(37.875 256.287567) scale(0.1 -0.1)">
       <defs>
        <path id="DejaVuSans-35" d="M 691 4666 
L 3169 4666 
L 3169 4134 
L 1269 4134 
L 1269 2991 
Q 1406 3038 1543 3061 
Q 1681 3084 1819 3084 
Q 2600 3084 3056 2656 
Q 3513 2228 3513 1497 
Q 3513 744 3044 326 
Q 2575 -91 1722 -91 
Q 1428 -91 1123 -41 
Q 819 9 494 109 
L 494 744 
Q 775 591 1075 516 
Q 1375 441 1709 441 
Q 2250 441 2565 725 
Q 2881 1009 2881 1497 
Q 2881 1984 2565 2268 
Q 2250 2553 1709 2553 
Q 1456 2553 1204 2497 
Q 953 2441 691 2322 
L 691 4666 
z
" transform="scale(0.015625)"/>
       </defs>
       <use xlink:href="#DejaVuSans-35"/>
       <use xlink:href="#DejaVuSans-30" transform="translate(63.623047 0)"/>
      </g>
     </g>
    </g>
    <g id="ytick_3">
     <g id="line2d_19">
      <path d="M 57.6 197.392696 
L 414.72 197.392696 
" clip-path="url(#p0829447727)" style="fill: none; stroke: #b0b0b0; stroke-width: 0.8; stroke-linecap: square"/>
     </g>
     <g id="line2d_20">
      <g>
       <use xlink:href="#m6afef7a68c" x="57.6" y="197.392696" style="stroke: #000000; stroke-width: 0.8"/>
      </g>
     </g>
     <g id="text_10">
      <!-- 100 -->
      <g transform="translate(31.5125 201.191914) scale(0.1 -0.1)">
       <use xlink:href="#DejaVuSans-31"/>
       <use xlink:href="#DejaVuSans-30" transform="translate(63.623047 0)"/>
       <use xlink:href="#DejaVuSans-30" transform="translate(127.246094 0)"/>
      </g>
     </g>
    </g>
    <g id="ytick_4">
     <g id="line2d_21">
      <path d="M 57.6 142.297043 
L 414.72 142.297043 
" clip-path="url(#p0829447727)" style="fill: none; stroke: #b0b0b0; stroke-width: 0.8; stroke-linecap: square"/>
     </g>
     <g id="line2d_22">
      <g>
       <use xlink:href="#m6afef7a68c" x="57.6" y="142.297043" style="stroke: #000000; stroke-width: 0.8"/>
      </g>
     </g>
     <g id="text_11">
      <!-- 150 -->
      <g transform="translate(31.5125 146.096262) scale(0.1 -0.1)">
       <use xlink:href="#DejaVuSans-31"/>
       <use xlink:href="#DejaVuSans-35" transform="translate(63.623047 0)"/>
       <use xlink:href="#DejaVuSans-30" transform="translate(127.246094 0)"/>
      </g>
     </g>
    </g>
    <g id="ytick_5">
     <g id="line2d_23">
      <path d="M 57.6 87.201391 
L 414.72 87.201391 
" clip-path="url(#p0829447727)" style="fill: none; stroke: #b0b0b0; stroke-width: 0.8; stroke-linecap: square"/>
     </g>
     <g id="line2d_24">
      <g>
       <use xlink:href="#m6afef7a68c" x="57.6" y="87.201391" style="stroke: #000000; stroke-width: 0.8"/>
      </g>
     </g>
     <g id="text_12">
      <!-- 200 -->
      <g transform="translate(31.5125 91.00061) scale(0.1 -0.1)">
       <use xlink:href="#DejaVuSans-32"/>
       <use xlink:href="#DejaVuSans-30" transform="translate(63.623047 0)"/>
       <use xlink:href="#DejaVuSans-30" transform="translate(127.246094 0)"/>
      </g>
     </g>
    </g>
   </g>
   <g id="patch_53">
    <path d="M 57.6 307.584 
L 57.6 41.472 
" style="fill: none; stroke: #000000; stroke-width: 0.8; stroke-linejoin: miter; stroke-linecap: square"/>
   </g>
   <g id="patch_54">
    <path d="M 414.72 307.584 
L 414.72 41.472 
" style="fill: none; stroke: #000000; stroke-width: 0.8; stroke-linejoin: miter; stroke-linecap: square"/>
   </g>
   <g id="patch_55">
    <path d="M 57.6 307.584 
L 414.72 307.584 
" style="fill: none; stroke: #000000; stroke-width: 0.8; stroke-linejoin: miter; stroke-linecap: square"/>
   </g>
   <g id="patch_56">
    <path d="M 57.6 41.472 
L 414.72 41.472 
" style="fill: none; stroke: #000000; stroke-width: 0.8; stroke-linejoin: miter; stroke-linecap: square"/>
   </g>
   <g id="text_13">
    <!-- Histogram of residuals -->
    <g transform="translate(168.540937 35.472) scale(0.12 -0.12)">
     <defs>
      <path id="DejaVuSans-48" d="M 628 4666 
L 1259 4666 
L 1259 2753 
L 3553 2753 
L 3553 4666 
L 4184 4666 
L 4184 0 
L 3553 0 
L 3553 2222 
L 1259 2222 
L 1259 0 
L 628 0 
L 628 4666 
z
" transform="scale(0.015625)"/>
      <path id="DejaVuSans-69" d="M 603 3500 
L 1178 3500 
L 1178 0 
L 603 0 
L 603 3500 
z
M 603 4863 
L 1178 4863 
L 1178 4134 
L 603 4134 
L 603 4863 
z
" transform="scale(0.015625)"/>
      <path id="DejaVuSans-73" d="M 2834 3397 
L 2834 2853 
Q 2591 2978 2328 3040 
Q 2066 3103 1784 3103 
Q 1356 3103 1142 2972 
Q 928 2841 928 2578 
Q 928 2378 1081 2264 
Q 1234 2150 1697 2047 
L 1894 2003 
Q 2506 1872 2764 1633 
Q 3022 1394 3022 966 
Q 3022 478 2636 193 
Q 2250 -91 1575 -91 
Q 1294 -91 989 -36 
Q 684 19 347 128 
L 347 722 
Q 666 556 975 473 
Q 1284 391 1588 391 
Q 1994 391 2212 530 
Q 2431 669 2431 922 
Q 2431 1156 2273 1281 
Q 2116 1406 1581 1522 
L 1381 1569 
Q 847 1681 609 1914 
Q 372 2147 372 2553 
Q 372 3047 722 3315 
Q 1072 3584 1716 3584 
Q 2034 3584 2315 3537 
Q 2597 3491 2834 3397 
z
" transform="scale(0.015625)"/>
      <path id="DejaVuSans-74" d="M 1172 4494 
L 1172 3500 
L 2356 3500 
L 2356 3053 
L 1172 3053 
L 1172 1153 
Q 1172 725 1289 603 
Q 1406 481 1766 481 
L 2356 481 
L 2356 0 
L 1766 0 
Q 1100 0 847 248 
Q 594 497 594 1153 
L 594 3053 
L 172 3053 
L 172 3500 
L 594 3500 
L 594 4494 
L 1172 4494 
z
" transform="scale(0.015625)"/>
      <path id="DejaVuSans-6f" d="M 1959 3097 
Q 1497 3097 1228 2736 
Q 959 2375 959 1747 
Q 959 1119 1226 758 
Q 1494 397 1959 397 
Q 2419 397 2687 759 
Q 2956 1122 2956 1747 
Q 2956 2369 2687 2733 
Q 2419 3097 1959 3097 
z
M 1959 3584 
Q 2709 3584 3137 3096 
Q 3566 2609 3566 1747 
Q 3566 888 3137 398 
Q 2709 -91 1959 -91 
Q 1206 -91 779 398 
Q 353 888 353 1747 
Q 353 2609 779 3096 
Q 1206 3584 1959 3584 
z
" transform="scale(0.015625)"/>
      <path id="DejaVuSans-67" d="M 2906 1791 
Q 2906 2416 2648 2759 
Q 2391 3103 1925 3103 
Q 1463 3103 1205 2759 
Q 947 2416 947 1791 
Q 947 1169 1205 825 
Q 1463 481 1925 481 
Q 2391 481 2648 825 
Q 2906 1169 2906 1791 
z
M 3481 434 
Q 3481 -459 3084 -895 
Q 2688 -1331 1869 -1331 
Q 1566 -1331 1297 -1286 
Q 1028 -1241 775 -1147 
L 775 -588 
Q 1028 -725 1275 -790 
Q 1522 -856 1778 -856 
Q 2344 -856 2625 -561 
Q 2906 -266 2906 331 
L 2906 616 
Q 2728 306 2450 153 
Q 2172 0 1784 0 
Q 1141 0 747 490 
Q 353 981 353 1791 
Q 353 2603 747 3093 
Q 1141 3584 1784 3584 
Q 2172 3584 2450 3431 
Q 2728 3278 2906 2969 
L 2906 3500 
L 3481 3500 
L 3481 434 
z
" transform="scale(0.015625)"/>
      <path id="DejaVuSans-72" d="M 2631 2963 
Q 2534 3019 2420 3045 
Q 2306 3072 2169 3072 
Q 1681 3072 1420 2755 
Q 1159 2438 1159 1844 
L 1159 0 
L 581 0 
L 581 3500 
L 1159 3500 
L 1159 2956 
Q 1341 3275 1631 3429 
Q 1922 3584 2338 3584 
Q 2397 3584 2469 3576 
Q 2541 3569 2628 3553 
L 2631 2963 
z
" transform="scale(0.015625)"/>
      <path id="DejaVuSans-61" d="M 2194 1759 
Q 1497 1759 1228 1600 
Q 959 1441 959 1056 
Q 959 750 1161 570 
Q 1363 391 1709 391 
Q 2188 391 2477 730 
Q 2766 1069 2766 1631 
L 2766 1759 
L 2194 1759 
z
M 3341 1997 
L 3341 0 
L 2766 0 
L 2766 531 
Q 2569 213 2275 61 
Q 1981 -91 1556 -91 
Q 1019 -91 701 211 
Q 384 513 384 1019 
Q 384 1609 779 1909 
Q 1175 2209 1959 2209 
L 2766 2209 
L 2766 2266 
Q 2766 2663 2505 2880 
Q 2244 3097 1772 3097 
Q 1472 3097 1187 3025 
Q 903 2953 641 2809 
L 641 3341 
Q 956 3463 1253 3523 
Q 1550 3584 1831 3584 
Q 2591 3584 2966 3190 
Q 3341 2797 3341 1997 
z
" transform="scale(0.015625)"/>
      <path id="DejaVuSans-6d" d="M 3328 2828 
Q 3544 3216 3844 3400 
Q 4144 3584 4550 3584 
Q 5097 3584 5394 3201 
Q 5691 2819 5691 2113 
L 5691 0 
L 5113 0 
L 5113 2094 
Q 5113 2597 4934 2840 
Q 4756 3084 4391 3084 
Q 3944 3084 3684 2787 
Q 3425 2491 3425 1978 
L 3425 0 
L 2847 0 
L 2847 2094 
Q 2847 2600 2669 2842 
Q 2491 3084 2119 3084 
Q 1678 3084 1418 2786 
Q 1159 2488 1159 1978 
L 1159 0 
L 581 0 
L 581 3500 
L 1159 3500 
L 1159 2956 
Q 1356 3278 1631 3431 
Q 1906 3584 2284 3584 
Q 2666 3584 2933 3390 
Q 3200 3197 3328 2828 
z
" transform="scale(0.015625)"/>
      <path id="DejaVuSans-20" transform="scale(0.015625)"/>
      <path id="DejaVuSans-66" d="M 2375 4863 
L 2375 4384 
L 1825 4384 
Q 1516 4384 1395 4259 
Q 1275 4134 1275 3809 
L 1275 3500 
L 2222 3500 
L 2222 3053 
L 1275 3053 
L 1275 0 
L 697 0 
L 697 3053 
L 147 3053 
L 147 3500 
L 697 3500 
L 697 3744 
Q 697 4328 969 4595 
Q 1241 4863 1831 4863 
L 2375 4863 
z
" transform="scale(0.015625)"/>
      <path id="DejaVuSans-65" d="M 3597 1894 
L 3597 1613 
L 953 1613 
Q 991 1019 1311 708 
Q 1631 397 2203 397 
Q 2534 397 2845 478 
Q 3156 559 3463 722 
L 3463 178 
Q 3153 47 2828 -22 
Q 2503 -91 2169 -91 
Q 1331 -91 842 396 
Q 353 884 353 1716 
Q 353 2575 817 3079 
Q 1281 3584 2069 3584 
Q 2775 3584 3186 3129 
Q 3597 2675 3597 1894 
z
M 3022 2063 
Q 3016 2534 2758 2815 
Q 2500 3097 2075 3097 
Q 1594 3097 1305 2825 
Q 1016 2553 972 2059 
L 3022 2063 
z
" transform="scale(0.015625)"/>
      <path id="DejaVuSans-64" d="M 2906 2969 
L 2906 4863 
L 3481 4863 
L 3481 0 
L 2906 0 
L 2906 525 
Q 2725 213 2448 61 
Q 2172 -91 1784 -91 
Q 1150 -91 751 415 
Q 353 922 353 1747 
Q 353 2572 751 3078 
Q 1150 3584 1784 3584 
Q 2172 3584 2448 3432 
Q 2725 3281 2906 2969 
z
M 947 1747 
Q 947 1113 1208 752 
Q 1469 391 1925 391 
Q 2381 391 2643 752 
Q 2906 1113 2906 1747 
Q 2906 2381 2643 2742 
Q 2381 3103 1925 3103 
Q 1469 3103 1208 2742 
Q 947 2381 947 1747 
z
" transform="scale(0.015625)"/>
      <path id="DejaVuSans-75" d="M 544 1381 
L 544 3500 
L 1119 3500 
L 1119 1403 
Q 1119 906 1312 657 
Q 1506 409 1894 409 
Q 2359 409 2629 706 
Q 2900 1003 2900 1516 
L 2900 3500 
L 3475 3500 
L 3475 0 
L 2900 0 
L 2900 538 
Q 2691 219 2414 64 
Q 2138 -91 1772 -91 
Q 1169 -91 856 284 
Q 544 659 544 1381 
z
M 1991 3584 
L 1991 3584 
z
" transform="scale(0.015625)"/>
      <path id="DejaVuSans-6c" d="M 603 4863 
L 1178 4863 
L 1178 0 
L 603 0 
L 603 4863 
z
" transform="scale(0.015625)"/>
     </defs>
     <use xlink:href="#DejaVuSans-48"/>
     <use xlink:href="#DejaVuSans-69" transform="translate(75.195312 0)"/>
     <use xlink:href="#DejaVuSans-73" transform="translate(102.978516 0)"/>
     <use xlink:href="#DejaVuSans-74" transform="translate(155.078125 0)"/>
     <use xlink:href="#DejaVuSans-6f" transform="translate(194.287109 0)"/>
     <use xlink:href="#DejaVuSans-67" transform="translate(255.46875 0)"/>
     <use xlink:href="#DejaVuSans-72" transform="translate(318.945312 0)"/>
     <use xlink:href="#DejaVuSans-61" transform="translate(360.058594 0)"/>
     <use xlink:href="#DejaVuSans-6d" transform="translate(421.337891 0)"/>
     <use xlink:href="#DejaVuSans-20" transform="translate(518.75 0)"/>
     <use xlink:href="#DejaVuSans-6f" transform="translate(550.537109 0)"/>
     <use xlink:href="#DejaVuSans-66" transform="translate(611.71875 0)"/>
     <use xlink:href="#DejaVuSans-20" transform="translate(646.923828 0)"/>
     <use xlink:href="#DejaVuSans-72" transform="translate(678.710938 0)"/>
     <use xlink:href="#DejaVuSans-65" transform="translate(717.574219 0)"/>
     <use xlink:href="#DejaVuSans-73" transform="translate(779.097656 0)"/>
     <use xlink:href="#DejaVuSans-69" transform="translate(831.197266 0)"/>
     <use xlink:href="#DejaVuSans-64" transform="translate(858.980469 0)"/>
     <use xlink:href="#DejaVuSans-75" transform="translate(922.457031 0)"/>
     <use xlink:href="#DejaVuSans-61" transform="translate(985.835938 0)"/>
     <use xlink:href="#DejaVuSans-6c" transform="translate(1047.115234 0)"/>
     <use xlink:href="#DejaVuSans-73" transform="translate(1074.898438 0)"/>
    </g>
   </g>
  </g>
 </g>
 <defs>
  <clipPath id="p0829447727">
   <rect x="57.6" y="41.472" width="357.12" height="266.112"/>
  </clipPath>
 </defs>
</svg>
