<?xml version="1.0" encoding="utf-8" standalone="no"?>
<!DOCTYPE svg PUBLIC "-//W3C//DTD SVG 1.1//EN"
  "http://www.w3.org/Graphics/SVG/1.1/DTD/svg11.dtd">
<svg xmlns:xlink="http://www.w3.org/1999/xlink" width="460.8pt" height="345.6pt" viewBox="0 0 460.8 345.6" xmlns="http://www.w3.org/2000/svg" version="1.1">
 <metadata>
  <rdf:RDF xmlns:dc="http://purl.org/dc/elements/1.1/" xmlns:cc="http://creativecommons.org/ns#" xmlns:rdf="http://www.w3.org/1999/02/22-rdf-syntax-ns#">
   <cc:Work>
    <dc:type rdf:resource="http://purl.org/dc/dcmitype/StillImage"/>
    <dc:date>2025-11-22T15:18:04.783157</dc:date>
    <dc:format>image/svg+xml</dc:format>
    <dc:creator>
     <cc:Agent>
      <dc:title>Matplotlib v3.10.7, https://matplotlib.org/</dc:title>
     </cc:Agent>
    </dc:creator>
   </cc:Work>
  </rdf:RDF>
 </metadata>
 <defs>
  <style type="text/css">*{stroke-linejoin: round; stroke-linecap: butt}</style>
 </defs>
 <g id="figure_1">
  <g id="patch_1">
   <path d="M 0 345.6 
L 460.8 345.6 
L 460.8 0 
L 0 0 
z
" style="fill: #ffffff"/>
  </g>
  <g id="axes_1">
   <g id="patch_2">
    <path d="M 57.6 307.584 
L 414.72 307.584 
L 414.72 41.472 
L 57.6 41.472 
z
" style="fill: #ffffff"/>
   </g>
   <g id="patch_3">
    <path d="M 73.832727 307.584 
L 80.325811 307.584 
L 80.325811 304.873412 
L 73.832727 304.873412 
z
" clip-path="url(#p32de0b28a1)" style="fill: #1f77b4"/>
   </g>
   <g id="patch_4">
    <path d="M 80.325811 307.584 
L 86.818911 307.584 
L 86.818911 304.873412 
L 80.325811 304.873412 
z
" clip-path="url(#p32de0b28a1)" style="fill: #1f77b4"/>
   </g>
   <g id="patch_5">
    <path d="M 86.818911 307.584 
L 93.311995 307.584 
L 93.311995 307.584 
L 86.818911 307.584 
z
" clip-path="url(#p32de0b28a1)" style="fill: #1f77b4"/>
   </g>
   <g id="patch_6">
    <path d="M 93.311995 307.584 
L 99.805095 307.584 
L 99.805095 306.228706 
L 93.311995 306.228706 
z
" clip-path="url(#p32de0b28a1)" style="fill: #1f77b4"/>
   </g>
   <g id="patch_7">
    <path d="M 99.805095 307.584 
L 106.298179 307.584 
L 106.298179 304.873412 
L 99.805095 304.873412 
z
" clip-path="url(#p32de0b28a1)" style="fill: #1f77b4"/>
   </g>
   <g id="patch_8">
    <path d="M 106.298179 307.584 
L 112.791271 307.584 
L 112.791271 304.873412 
L 106.298179 304.873412 
z
" clip-path="url(#p32de0b28a1)" style="fill: #1f77b4"/>
   </g>
   <g id="patch_9">
    <path d="M 112.791271 307.584 
L 119.284362 307.584 
L 119.284362 304.873412 
L 112.791271 304.873412 
z
" clip-path="url(#p32de0b28a1)" style="fill: #1f77b4"/>
   </g>
   <g id="patch_10">
    <path d="M 119.284362 307.584 
L 125.777454 307.584 
L 125.777454 304.873412 
L 119.284362 304.873412 
z
" clip-path="url(#p32de0b28a1)" style="fill: #1f77b4"/>
   </g>
   <g id="patch_11">
    <path d="M 125.777454 307.584 
L 132.270546 307.584 
L 132.270546 299.452235 
L 125.777454 299.452235 
z
" clip-path="url(#p32de0b28a1)" style="fill: #1f77b4"/>
   </g>
   <g id="patch_12">
    <path d="M 132.270546 307.584 
L 138.763638 307.584 
L 138.763638 298.096941 
L 132.270546 298.096941 
z
" clip-path="url(#p32de0b28a1)" style="fill: #1f77b4"/>
   </g>
   <g id="patch_13">
    <path d="M 138.763638 307.584 
L 145.25673 307.584 
L 145.25673 294.031059 
L 138.763638 294.031059 
z
" clip-path="url(#p32de0b28a1)" style="fill: #1f77b4"/>
   </g>
   <g id="patch_14">
    <path d="M 145.25673 307.584 
L 151.749814 307.584 
L 151.749814 288.609882 
L 145.25673 288.609882 
z
" clip-path="url(#p32de0b28a1)" style="fill: #1f77b4"/>
   </g>
   <g id="patch_15">
    <path d="M 151.749814 307.584 
L 158.242906 307.584 
L 158.242906 287.254588 
L 151.749814 287.254588 
z
" clip-path="url(#p32de0b28a1)" style="fill: #1f77b4"/>
   </g>
   <g id="patch_16">
    <path d="M 158.242906 307.584 
L 164.735997 307.584 
L 164.735997 276.412235 
L 158.242906 276.412235 
z
" clip-path="url(#p32de0b28a1)" style="fill: #1f77b4"/>
   </g>
   <g id="patch_17">
    <path d="M 164.735997 307.584 
L 171.229089 307.584 
L 171.229089 261.504 
L 164.735997 261.504 
z
" clip-path="url(#p32de0b28a1)" style="fill: #1f77b4"/>
   </g>
   <g id="patch_18">
    <path d="M 171.229089 307.584 
L 177.722181 307.584 
L 177.722181 262.859294 
L 171.229089 262.859294 
z
" clip-path="url(#p32de0b28a1)" style="fill: #1f77b4"/>
   </g>
   <g id="patch_19">
    <path d="M 177.722181 307.584 
L 184.215273 307.584 
L 184.215273 253.372235 
L 177.722181 253.372235 
z
" clip-path="url(#p32de0b28a1)" style="fill: #1f77b4"/>
   </g>
   <g id="patch_20">
    <path d="M 184.215273 307.584 
L 190.708365 307.584 
L 190.708365 226.266353 
L 184.215273 226.266353 
z
" clip-path="url(#p32de0b28a1)" style="fill: #1f77b4"/>
   </g>
   <g id="patch_21">
    <path d="M 190.708365 307.584 
L 197.201457 307.584 
L 197.201457 238.464 
L 190.708365 238.464 
z
" clip-path="url(#p32de0b28a1)" style="fill: #1f77b4"/>
   </g>
   <g id="patch_22">
    <path d="M 197.201457 307.584 
L 203.694549 307.584 
L 203.694549 195.094588 
L 197.201457 195.094588 
z
" clip-path="url(#p32de0b28a1)" style="fill: #1f77b4"/>
   </g>
   <g id="patch_23">
    <path d="M 203.694549 307.584 
L 210.187633 307.584 
L 210.187633 155.791059 
L 203.694549 155.791059 
z
" clip-path="url(#p32de0b28a1)" style="fill: #1f77b4"/>
   </g>
   <g id="patch_24">
    <path d="M 210.187633 307.584 
L 216.680732 307.584 
L 216.680732 135.461647 
L 210.187633 135.461647 
z
" clip-path="url(#p32de0b28a1)" style="fill: #1f77b4"/>
   </g>
   <g id="patch_25">
    <path d="M 216.680732 307.584 
L 223.173816 307.584 
L 223.173816 121.908706 
L 216.680732 121.908706 
z
" clip-path="url(#p32de0b28a1)" style="fill: #1f77b4"/>
   </g>
   <g id="patch_26">
    <path d="M 223.173816 307.584 
L 229.6669 307.584 
L 229.6669 85.315765 
L 223.173816 85.315765 
z
" clip-path="url(#p32de0b28a1)" style="fill: #1f77b4"/>
   </g>
   <g id="patch_27">
    <path d="M 229.6669 307.584 
L 236.16 307.584 
L 236.16 54.144 
L 229.6669 54.144 
z
" clip-path="url(#p32de0b28a1)" style="fill: #1f77b4"/>
   </g>
   <g id="patch_28">
    <path d="M 236.16 307.584 
L 242.653084 307.584 
L 242.653084 102.934588 
L 236.16 102.934588 
z
" clip-path="url(#p32de0b28a1)" style="fill: #1f77b4"/>
   </g>
   <g id="patch_29">
    <path d="M 242.653084 307.584 
L 249.146184 307.584 
L 249.146184 79.894588 
L 242.653084 79.894588 
z
" clip-path="url(#p32de0b28a1)" style="fill: #1f77b4"/>
   </g>
   <g id="patch_30">
    <path d="M 249.146184 307.584 
L 255.639268 307.584 
L 255.639268 117.842824 
L 249.146184 117.842824 
z
" clip-path="url(#p32de0b28a1)" style="fill: #1f77b4"/>
   </g>
   <g id="patch_31">
    <path d="M 255.639268 307.584 
L 262.132367 307.584 
L 262.132367 146.304 
L 255.639268 146.304 
z
" clip-path="url(#p32de0b28a1)" style="fill: #1f77b4"/>
   </g>
   <g id="patch_32">
    <path d="M 262.132367 307.584 
L 268.625451 307.584 
L 268.625451 177.475765 
L 262.132367 177.475765 
z
" clip-path="url(#p32de0b28a1)" style="fill: #1f77b4"/>
   </g>
   <g id="patch_33">
    <path d="M 268.625451 307.584 
L 275.118551 307.584 
L 275.118551 241.174588 
L 268.625451 241.174588 
z
" clip-path="url(#p32de0b28a1)" style="fill: #1f77b4"/>
   </g>
   <g id="patch_34">
    <path d="M 275.118551 307.584 
L 281.611635 307.584 
L 281.611635 239.819294 
L 275.118551 239.819294 
z
" clip-path="url(#p32de0b28a1)" style="fill: #1f77b4"/>
   </g>
   <g id="patch_35">
    <path d="M 281.611635 307.584 
L 288.104719 307.584 
L 288.104719 254.727529 
L 281.611635 254.727529 
z
" clip-path="url(#p32de0b28a1)" style="fill: #1f77b4"/>
   </g>
   <g id="patch_36">
    <path d="M 288.104719 307.584 
L 294.597819 307.584 
L 294.597819 264.214588 
L 288.104719 264.214588 
z
" clip-path="url(#p32de0b28a1)" style="fill: #1f77b4"/>
   </g>
   <g id="patch_37">
    <path d="M 294.597819 307.584 
L 301.090903 307.584 
L 301.090903 273.701647 
L 294.597819 273.701647 
z
" clip-path="url(#p32de0b28a1)" style="fill: #1f77b4"/>
   </g>
   <g id="patch_38">
    <path d="M 301.090903 307.584 
L 307.584003 307.584 
L 307.584003 292.675765 
L 301.090903 292.675765 
z
" clip-path="url(#p32de0b28a1)" style="fill: #1f77b4"/>
   </g>
   <g id="patch_39">
    <path d="M 307.584003 307.584 
L 314.077087 307.584 
L 314.077087 289.965176 
L 307.584003 289.965176 
z
" clip-path="url(#p32de0b28a1)" style="fill: #1f77b4"/>
   </g>
   <g id="patch_40">
    <path d="M 314.077087 307.584 
L 320.570186 307.584 
L 320.570186 298.096941 
L 314.077087 298.096941 
z
" clip-path="url(#p32de0b28a1)" style="fill: #1f77b4"/>
   </g>
   <g id="patch_41">
    <path d="M 320.570186 307.584 
L 327.06327 307.584 
L 327.06327 296.741647 
L 320.570186 296.741647 
z
" clip-path="url(#p32de0b28a1)" style="fill: #1f77b4"/>
   </g>
   <g id="patch_42">
    <path d="M 327.06327 307.584 
L 333.55637 307.584 
L 333.55637 303.518118 
L 327.06327 303.518118 
z
" clip-path="url(#p32de0b28a1)" style="fill: #1f77b4"/>
   </g>
   <g id="patch_43">
    <path d="M 333.55637 307.584 
L 340.049438 307.584 
L 340.049438 302.162824 
L 333.55637 302.162824 
z
" clip-path="url(#p32de0b28a1)" style="fill: #1f77b4"/>
   </g>
   <g id="patch_44">
    <path d="M 340.049438 307.584 
L 346.542538 307.584 
L 346.542538 303.518118 
L 340.049438 303.518118 
z
" clip-path="url(#p32de0b28a1)" style="fill: #1f77b4"/>
   </g>
   <g id="patch_45">
    <path d="M 346.542538 307.584 
L 353.035638 307.584 
L 353.035638 303.518118 
L 346.542538 303.518118 
z
" clip-path="url(#p32de0b28a1)" style="fill: #1f77b4"/>
   </g>
   <g id="patch_46">
    <path d="M 353.035638 307.584 
L 359.528737 307.584 
L 359.528737 302.162824 
L 353.035638 302.162824 
z
" clip-path="url(#p32de0b28a1)" style="fill: #1f77b4"/>
   </g>
   <g id="patch_47">
    <path d="M 359.528737 307.584 
L 366.021806 307.584 
L 366.021806 307.584 
L 359.528737 307.584 
z
" clip-path="url(#p32de0b28a1)" style="fill: #1f77b4"/>
   </g>
   <g id="patch_48">
    <path d="M 366.021806 307.584 
L 372.514905 307.584 
L 372.514905 304.873412 
L 366.021806 304.873412 
z
" clip-path="url(#p32de0b28a1)" style="fill: #1f77b4"/>
   </g>
   <g id="patch_49">
    <path d="M 372.514905 307.584 
L 379.008005 307.584 
L 379.008005 303.518118 
L 372.514905 303.518118 
z
" clip-path="url(#p32de0b28a1)" style="fill: #1f77b4"/>
   </g>
   <g id="patch_50">
    <path d="M 379.008005 307.584 
L 385.501073 307.584 
L 385.501073 307.584 
L 379.008005 307.584 
z
" clip-path="url(#p32de0b28a1)" style="fill: #1f77b4"/>
   </g>
   <g id="patch_51">
    <path d="M 385.501073 307.584 
L 391.994173 307.584 
L 391.994173 306.228706 
L 385.501073 306.228706 
z
" clip-path="url(#p32de0b28a1)" style="fill: #1f77b4"/>
   </g>
   <g id="patch_52">
    <path d="M 391.994173 307.584 
L 398.487273 307.584 
L 398.487273 306.228706 
L 391.994173 306.228706 
z
" clip-path="url(#p32de0b28a1)" style="fill: #1f77b4"/>
   </g>
   <g id="matplotlib.axis_1">
    <g id="xtick_1">
     <g id="line2d_1">
      <path d="M 68.648698 307.584 
L 68.648698 41.472 
" clip-path="url(#p32de0b28a1)" style="fill: none; stroke: #b0b0b0; stroke-width: 0.8; stroke-linecap: square"/>
     </g>
     <g id="line2d_2">
      <defs>
       <path id="m88027c2edb" d="M 0 0 
L 0 3.5 
" style="stroke: #000000; stroke-width: 0.8"/>
      </defs>
      <g>
       <use xlink:href="#m88027c2edb" x="68.648698" y="307.584" style="stroke: #000000; stroke-width: 0.8"/>
      </g>
     </g>
     <g id="text_1">
      <!-- −0.3 -->
      <g transform="translate(56.507292 322.182437) scale(0.1 -0.1)">
       <defs>
        <path id="DejaVuSans-2212" d="M 678 2272 
L 4684 2272 
L 4684 1741 
L 678 1741 
L 678 2272 
z
" transform="scale(0.015625)"/>
        <path id="DejaVuSans-30" d="M 2034 4250 
Q 1547 4250 1301 3770 
Q 1056 3291 1056 2328 
Q 1056 1369 1301 889 
Q 1547 409 2034 409 
Q 2525 409 2770 889 
Q 3016 1369 3016 2328 
Q 3016 3291 2770 3770 
Q 2525 4250 2034 4250 
z
M 2034 4750 
Q 2819 4750 3233 4129 
Q 3647 3509 3647 2328 
Q 3647 1150 3233 529 
Q 2819 -91 2034 -91 
Q 1250 -91 836 529 
Q 422 1150 422 2328 
Q 422 3509 836 4129 
Q 1250 4750 2034 4750 
z
" transform="scale(0.015625)"/>
        <path id="DejaVuSans-2e" d="M 684 794 
L 1344 794 
L 1344 0 
L 684 0 
L 684 794 
z
" transform="scale(0.015625)"/>
        <path id="DejaVuSans-33" d="M 2597 2516 
Q 3050 2419 3304 2112 
Q 3559 1806 3559 1356 
Q 3559 666 3084 287 
Q 2609 -91 1734 -91 
Q 1441 -91 1130 -33 
Q 819 25 488 141 
L 488 750 
Q 750 597 1062 519 
Q 1375 441 1716 441 
Q 2309 441 2620 675 
Q 2931 909 2931 1356 
Q 2931 1769 2642 2001 
Q 2353 2234 1838 2234 
L 1294 2234 
L 1294 2753 
L 1863 2753 
Q 2328 2753 2575 2939 
Q 2822 3125 2822 3475 
Q 2822 3834 2567 4026 
Q 2313 4219 1838 4219 
Q 1578 4219 1281 4162 
Q 984 4106 628 3988 
L 628 4550 
Q 988 4650 1302 4700 
Q 1616 4750 1894 4750 
Q 2613 4750 3031 4423 
Q 3450 4097 3450 3541 
Q 3450 3153 3228 2886 
Q 3006 2619 2597 2516 
z
" transform="scale(0.015625)"/>
       </defs>
       <use xlink:href="#DejaVuSans-2212"/>
       <use xlink:href="#DejaVuSans-30" transform="translate(83.789062 0)"/>
       <use xlink:href="#DejaVuSans-2e" transform="translate(147.412109 0)"/>
       <use xlink:href="#DejaVuSans-33" transform="translate(179.199219 0)"/>
      </g>
     </g>
    </g>
    <g id="xtick_2">
     <g id="line2d_3">
      <path d="M 121.396145 307.584 
L 121.396145 41.472 
" clip-path="url(#p32de0b28a1)" style="fill: none; stroke: #b0b0b0; stroke-width: 0.8; stroke-linecap: square"/>
     </g>
     <g id="line2d_4">
      <g>
       <use xlink:href="#m88027c2edb" x="121.396145" y="307.584" style="stroke: #000000; stroke-width: 0.8"/>
      </g>
     </g>
     <g id="text_2">
      <!-- −0.2 -->
      <g transform="translate(109.254738 322.182437) scale(0.1 -0.1)">
       <defs>
        <path id="DejaVuSans-32" d="M 1228 531 
L 3431 531 
L 3431 0 
L 469 0 
L 469 531 
Q 828 903 1448 1529 
Q 2069 2156 2228 2338 
Q 2531 2678 2651 2914 
Q 2772 3150 2772 3378 
Q 2772 3750 2511 3984 
Q 2250 4219 1831 4219 
Q 1534 4219 1204 4116 
Q 875 4013 500 3803 
L 500 4441 
Q 881 4594 1212 4672 
Q 1544 4750 1819 4750 
Q 2544 4750 2975 4387 
Q 3406 4025 3406 3419 
Q 3406 3131 3298 2873 
Q 3191 2616 2906 2266 
Q 2828 2175 2409 1742 
Q 1991 1309 1228 531 
z
" transform="scale(0.015625)"/>
       </defs>
       <use xlink:href="#DejaVuSans-2212"/>
       <use xlink:href="#DejaVuSans-30" transform="translate(83.789062 0)"/>
       <use xlink:href="#DejaVuSans-2e" transform="translate(147.412109 0)"/>
       <use xlink:href="#DejaVuSans-32" transform="translate(179.199219 0)"/>
      </g>
     </g>
    </g>
    <g id="xtick_3">
     <g id="line2d_5">
      <path d="M 174.143591 307.584 
L 174.143591 41.472 
" clip-path="url(#p32de0b28a1)" style="fill: none; stroke: #b0b0b0; stroke-width: 0.8; stroke-linecap: square"/>
     </g>
     <g id="line2d_6">
      <g>
       <use xlink:href="#m88027c2edb" x="174.143591" y="307.584" style="stroke: #000000; stroke-width: 0.8"/>
      </g>
     </g>
     <g id="text_3">
      <!-- −0.1 -->
      <g transform="translate(162.002185 322.182437) scale(0.1 -0.1)">
       <defs>
        <path id="DejaVuSans-31" d="M 794 531 
L 1825 531 
L 1825 4091 
L 703 3866 
L 703 4441 
L 1819 4666 
L 2450 4666 
L 2450 531 
L 3481 531 
L 3481 0 
L 794 0 
L 794 531 
z
" transform="scale(0.015625)"/>
       </defs>
       <use xlink:href="#DejaVuSans-2212"/>
       <use xlink:href="#DejaVuSans-30" transform="translate(83.789062 0)"/>
       <use xlink:href="#DejaVuSans-2e" transform="translate(147.412109 0)"/>
       <use xlink:href="#DejaVuSans-31" transform="translate(179.199219 0)"/>
      </g>
     </g>
    </g>
    <g id="xtick_4">
     <g id="line2d_7">
      <path d="M 226.891038 307.584 
L 226.891038 41.472 
" clip-path="url(#p32de0b28a1)" style="fill: none; stroke: #b0b0b0; stroke-width: 0.8; stroke-linecap: square"/>
     </g>
     <g id="line2d_8">
      <g>
       <use xlink:href="#m88027c2edb" x="226.891038" y="307.584" style="stroke: #000000; stroke-width: 0.8"/>
      </g>
     </g>
     <g id="text_4">
      <!-- 0.0 -->
      <g transform="translate(218.939475 322.182437) scale(0.1 -0.1)">
       <use xlink:href="#DejaVuSans-30"/>
       <use xlink:href="#DejaVuSans-2e" transform="translate(63.623047 0)"/>
       <use xlink:href="#DejaVuSans-30" transform="translate(95.410156 0)"/>
      </g>
     </g>
    </g>
    <g id="xtick_5">
     <g id="line2d_9">
      <path d="M 279.638484 307.584 
L 279.638484 41.472 
" clip-path="url(#p32de0b28a1)" style="fill: none; stroke: #b0b0b0; stroke-width: 0.8; stroke-linecap: square"/>
     </g>
     <g id="line2d_10">
      <g>
       <use xlink:href="#m88027c2edb" x="279.638484" y="307.584" style="stroke: #000000; stroke-width: 0.8"/>
      </g>
     </g>
     <g id="text_5">
      <!-- 0.1 -->
      <g transform="translate(271.686922 322.182437) scale(0.1 -0.1)">
       <use xlink:href="#DejaVuSans-30"/>
       <use xlink:href="#DejaVuSans-2e" transform="translate(63.623047 0)"/>
       <use xlink:href="#DejaVuSans-31" transform="translate(95.410156 0)"/>
      </g>
     </g>
    </g>
    <g id="xtick_6">
     <g id="line2d_11">
      <path d="M 332.385931 307.584 
L 332.385931 41.472 
" clip-path="url(#p32de0b28a1)" style="fill: none; stroke: #b0b0b0; stroke-width: 0.8; stroke-linecap: square"/>
     </g>
     <g id="line2d_12">
      <g>
       <use xlink:href="#m88027c2edb" x="332.385931" y="307.584" style="stroke: #000000; stroke-width: 0.8"/>
      </g>
     </g>
     <g id="text_6">
      <!-- 0.2 -->
      <g transform="translate(324.434368 322.182437) scale(0.1 -0.1)">
       <use xlink:href="#DejaVuSans-30"/>
       <use xlink:href="#DejaVuSans-2e" transform="translate(63.623047 0)"/>
       <use xlink:href="#DejaVuSans-32" transform="translate(95.410156 0)"/>
      </g>
     </g>
    </g>
    <g id="xtick_7">
     <g id="line2d_13">
      <path d="M 385.133377 307.584 
L 385.133377 41.472 
" clip-path="url(#p32de0b28a1)" style="fill: none; stroke: #b0b0b0; stroke-width: 0.8; stroke-linecap: square"/>
     </g>
     <g id="line2d_14">
      <g>
       <use xlink:href="#m88027c2edb" x="385.133377" y="307.584" style="stroke: #000000; stroke-width: 0.8"/>
      </g>
     </g>
     <g id="text_7">
      <!-- 0.3 -->
      <g transform="translate(377.181815 322.182437) scale(0.1 -0.1)">
       <use xlink:href="#DejaVuSans-30"/>
       <use xlink:href="#DejaVuSans-2e" transform="translate(63.623047 0)"/>
       <use xlink:href="#DejaVuSans-33" transform="translate(95.410156 0)"/>
      </g>
     </g>
    </g>
   </g>
   <g id="matplotlib.axis_2">
    <g id="ytick_1">
     <g id="line2d_15">
      <path d="M 57.6 307.584 
L 414.72 307.584 
" clip-path="url(#p32de0b28a1)" style="fill: none; stroke: #b0b0b0; stroke-width: 0.8; stroke-linecap: square"/>
     </g>
     <g id="line2d_16">
      <defs>
       <path id="mff1ee8d9ab" d="M 0 0 
L -3.5 0 
" style="stroke: #000000; stroke-width: 0.8"/>
      </defs>
      <g>
       <use xlink:href="#mff1ee8d9ab" x="57.6" y="307.584" style="stroke: #000000; stroke-width: 0.8"/>
      </g>
     </g>
     <g id="text_8">
      <!-- 0 -->
      <g transform="translate(44.2375 311.383219) scale(0.1 -0.1)">
       <use xlink:href="#DejaVuSans-30"/>
      </g>
     </g>
    </g>
    <g id="ytick_2">
     <g id="line2d_17">
      <path d="M 57.6 273.701647 
L 414.72 273.701647 
" clip-path="url(#p32de0b28a1)" style="fill: none; stroke: #b0b0b0; stroke-width: 0.8; stroke-linecap: square"/>
     </g>
     <g id="line2d_18">
      <g>
       <use xlink:href="#mff1ee8d9ab" x="57.6" y="273.701647" style="stroke: #000000; stroke-width: 0.8"/>
      </g>
     </g>
     <g id="text_9">
      <!-- 25 -->
      <g transform="translate(37.875 277.500866) scale(0.1 -0.1)">
       <defs>
        <path id="DejaVuSans-35" d="M 691 4666 
L 3169 4666 
L 3169 4134 
L 1269 4134 
L 1269 2991 
Q 1406 3038 1543 3061 
Q 1681 3084 1819 3084 
Q 2600 3084 3056 2656 
Q 3513 2228 3513 1497 
Q 3513 744 3044 326 
Q 2575 -91 1722 -91 
Q 1428 -91 1123 -41 
Q 819 9 494 109 
L 494 744 
Q 775 591 1075 516 
Q 1375 441 1709 441 
Q 2250 441 2565 725 
Q 2881 1009 2881 1497 
Q 2881 1984 2565 2268 
Q 2250 2553 1709 2553 
Q 1456 2553 1204 2497 
Q 953 2441 691 2322 
L 691 4666 
z
" transform="scale(0.015625)"/>
       </defs>
       <use xlink:href="#DejaVuSans-32"/>
       <use xlink:href="#DejaVuSans-35" transform="translate(63.623047 0)"/>
      </g>
     </g>
    </g>
    <g id="ytick_3">
     <g id="line2d_19">
      <path d="M 57.6 239.819294 
L 414.72 239.819294 
" clip-path="url(#p32de0b28a1)" style="fill: none; stroke: #b0b0b0; stroke-width: 0.8; stroke-linecap: square"/>
     </g>
     <g id="line2d_20">
      <g>
       <use xlink:href="#mff1ee8d9ab" x="57.6" y="239.819294" style="stroke: #000000; stroke-width: 0.8"/>
      </g>
     </g>
     <g id="text_10">
      <!-- 50 -->
      <g transform="translate(37.875 243.618513) scale(0.1 -0.1)">
       <use xlink:href="#DejaVuSans-35"/>
       <use xlink:href="#DejaVuSans-30" transform="translate(63.623047 0)"/>
      </g>
     </g>
    </g>
    <g id="ytick_4">
     <g id="line2d_21">
      <path d="M 57.6 205.936941 
L 414.72 205.936941 
" clip-path="url(#p32de0b28a1)" style="fill: none; stroke: #b0b0b0; stroke-width: 0.8; stroke-linecap: square"/>
     </g>
     <g id="line2d_22">
      <g>
       <use xlink:href="#mff1ee8d9ab" x="57.6" y="205.936941" style="stroke: #000000; stroke-width: 0.8"/>
      </g>
     </g>
     <g id="text_11">
      <!-- 75 -->
      <g transform="translate(37.875 209.73616) scale(0.1 -0.1)">
       <defs>
        <path id="DejaVuSans-37" d="M 525 4666 
L 3525 4666 
L 3525 4397 
L 1831 0 
L 1172 0 
L 2766 4134 
L 525 4134 
L 525 4666 
z
" transform="scale(0.015625)"/>
       </defs>
       <use xlink:href="#DejaVuSans-37"/>
       <use xlink:href="#DejaVuSans-35" transform="translate(63.623047 0)"/>
      </g>
     </g>
    </g>
    <g id="ytick_5">
     <g id="line2d_23">
      <path d="M 57.6 172.054588 
L 414.72 172.054588 
" clip-path="url(#p32de0b28a1)" style="fill: none; stroke: #b0b0b0; stroke-width: 0.8; stroke-linecap: square"/>
     </g>
     <g id="line2d_24">
      <g>
       <use xlink:href="#mff1ee8d9ab" x="57.6" y="172.054588" style="stroke: #000000; stroke-width: 0.8"/>
      </g>
     </g>
     <g id="text_12">
      <!-- 100 -->
      <g transform="translate(31.5125 175.853807) scale(0.1 -0.1)">
       <use xlink:href="#DejaVuSans-31"/>
       <use xlink:href="#DejaVuSans-30" transform="translate(63.623047 0)"/>
       <use xlink:href="#DejaVuSans-30" transform="translate(127.246094 0)"/>
      </g>
     </g>
    </g>
    <g id="ytick_6">
     <g id="line2d_25">
      <path d="M 57.6 138.172235 
L 414.72 138.172235 
" clip-path="url(#p32de0b28a1)" style="fill: none; stroke: #b0b0b0; stroke-width: 0.8; stroke-linecap: square"/>
     </g>
     <g id="line2d_26">
      <g>
       <use xlink:href="#mff1ee8d9ab" x="57.6" y="138.172235" style="stroke: #000000; stroke-width: 0.8"/>
      </g>
     </g>
     <g id="text_13">
      <!-- 125 -->
      <g transform="translate(31.5125 141.971454) scale(0.1 -0.1)">
       <use xlink:href="#DejaVuSans-31"/>
       <use xlink:href="#DejaVuSans-32" transform="translate(63.623047 0)"/>
       <use xlink:href="#DejaVuSans-35" transform="translate(127.246094 0)"/>
      </g>
     </g>
    </g>
    <g id="ytick_7">
     <g id="line2d_27">
      <path d="M 57.6 104.289882 
L 414.72 104.289882 
" clip-path="url(#p32de0b28a1)" style="fill: none; stroke: #b0b0b0; stroke-width: 0.8; stroke-linecap: square"/>
     </g>
     <g id="line2d_28">
      <g>
       <use xlink:href="#mff1ee8d9ab" x="57.6" y="104.289882" style="stroke: #000000; stroke-width: 0.8"/>
      </g>
     </g>
     <g id="text_14">
      <!-- 150 -->
      <g transform="translate(31.5125 108.089101) scale(0.1 -0.1)">
       <use xlink:href="#DejaVuSans-31"/>
       <use xlink:href="#DejaVuSans-35" transform="translate(63.623047 0)"/>
       <use xlink:href="#DejaVuSans-30" transform="translate(127.246094 0)"/>
      </g>
     </g>
    </g>
    <g id="ytick_8">
     <g id="line2d_29">
      <path d="M 57.6 70.407529 
L 414.72 70.407529 
" clip-path="url(#p32de0b28a1)" style="fill: none; stroke: #b0b0b0; stroke-width: 0.8; stroke-linecap: square"/>
     </g>
     <g id="line2d_30">
      <g>
       <use xlink:href="#mff1ee8d9ab" x="57.6" y="70.407529" style="stroke: #000000; stroke-width: 0.8"/>
      </g>
     </g>
     <g id="text_15">
      <!-- 175 -->
      <g transform="translate(31.5125 74.206748) scale(0.1 -0.1)">
       <use xlink:href="#DejaVuSans-31"/>
       <use xlink:href="#DejaVuSans-37" transform="translate(63.623047 0)"/>
       <use xlink:href="#DejaVuSans-35" transform="translate(127.246094 0)"/>
      </g>
     </g>
    </g>
   </g>
   <g id="patch_53">
    <path d="M 57.6 307.584 
L 57.6 41.472 
" style="fill: none; stroke: #000000; stroke-width: 0.8; stroke-linejoin: miter; stroke-linecap: square"/>
   </g>
   <g id="patch_54">
    <path d="M 414.72 307.584 
L 414.72 41.472 
" style="fill: none; stroke: #000000; stroke-width: 0.8; stroke-linejoin: miter; stroke-linecap: square"/>
   </g>
   <g id="patch_55">
    <path d="M 57.6 307.584 
L 414.72 307.584 
" style="fill: none; stroke: #000000; stroke-width: 0.8; stroke-linejoin: miter; stroke-linecap: square"/>
   </g>
   <g id="patch_56">
    <path d="M 57.6 41.472 
L 414.72 41.472 
" style="fill: none; stroke: #000000; stroke-width: 0.8; stroke-linejoin: miter; stroke-linecap: square"/>
   </g>
   <g id="text_16">
    <!-- Histogram of residuals -->
    <g transform="translate(168.540937 35.472) scale(0.12 -0.12)">
     <defs>
      <path id="DejaVuSans-48" d="M 628 4666 
L 1259 4666 
L 1259 2753 
L 3553 2753 
L 3553 4666 
L 4184 4666 
L 4184 0 
L 3553 0 
L 3553 2222 
L 1259 2222 
L 1259 0 
L 628 0 
L 628 4666 
z
" transform="scale(0.015625)"/>
      <path id="DejaVuSans-69" d="M 603 3500 
L 1178 3500 
L 1178 0 
L 603 0 
L 603 3500 
z
M 603 4863 
L 1178 4863 
L 1178 4134 
L 603 4134 
L 603 4863 
z
" transform="scale(0.015625)"/>
      <path id="DejaVuSans-73" d="M 2834 3397 
L 2834 2853 
Q 2591 2978 2328 3040 
Q 2066 3103 1784 3103 
Q 1356 3103 1142 2972 
Q 928 2841 928 2578 
Q 928 2378 1081 2264 
Q 1234 2150 1697 2047 
L 1894 2003 
Q 2506 1872 2764 1633 
Q 3022 1394 3022 966 
Q 3022 478 2636 193 
Q 2250 -91 1575 -91 
Q 1294 -91 989 -36 
Q 684 19 347 128 
L 347 722 
Q 666 556 975 473 
Q 1284 391 1588 391 
Q 1994 391 2212 530 
Q 2431 669 2431 922 
Q 2431 1156 2273 1281 
Q 2116 1406 1581 1522 
L 1381 1569 
Q 847 1681 609 1914 
Q 372 2147 372 2553 
Q 372 3047 722 3315 
Q 1072 3584 1716 3584 
Q 2034 3584 2315 3537 
Q 2597 3491 2834 3397 
z
" transform="scale(0.015625)"/>
      <path id="DejaVuSans-74" d="M 1172 4494 
L 1172 3500 
L 2356 3500 
L 2356 3053 
L 1172 3053 
L 1172 1153 
Q 1172 725 1289 603 
Q 1406 481 1766 481 
L 2356 481 
L 2356 0 
L 1766 0 
Q 1100 0 847 248 
Q 594 497 594 1153 
L 594 3053 
L 172 3053 
L 172 3500 
L 594 3500 
L 594 4494 
L 1172 4494 
z
" transform="scale(0.015625)"/>
      <path id="DejaVuSans-6f" d="M 1959 3097 
Q 1497 3097 1228 2736 
Q 959 2375 959 1747 
Q 959 1119 1226 758 
Q 1494 397 1959 397 
Q 2419 397 2687 759 
Q 2956 1122 2956 1747 
Q 2956 2369 2687 2733 
Q 2419 3097 1959 3097 
z
M 1959 3584 
Q 2709 3584 3137 3096 
Q 3566 2609 3566 1747 
Q 3566 888 3137 398 
Q 2709 -91 1959 -91 
Q 1206 -91 779 398 
Q 353 888 353 1747 
Q 353 2609 779 3096 
Q 1206 3584 1959 3584 
z
" transform="scale(0.015625)"/>
      <path id="DejaVuSans-67" d="M 2906 1791 
Q 2906 2416 2648 2759 
Q 2391 3103 1925 3103 
Q 1463 3103 1205 2759 
Q 947 2416 947 1791 
Q 947 1169 1205 825 
Q 1463 481 1925 481 
Q 2391 481 2648 825 
Q 2906 1169 2906 1791 
z
M 3481 434 
Q 3481 -459 3084 -895 
Q 2688 -1331 1869 -1331 
Q 1566 -1331 1297 -1286 
Q 1028 -1241 775 -1147 
L 775 -588 
Q 1028 -725 1275 -790 
Q 1522 -856 1778 -856 
Q 2344 -856 2625 -561 
Q 2906 -266 2906 331 
L 2906 616 
Q 2728 306 2450 153 
Q 2172 0 1784 0 
Q 1141 0 747 490 
Q 353 981 353 1791 
Q 353 2603 747 3093 
Q 1141 3584 1784 3584 
Q 2172 3584 2450 3431 
Q 2728 3278 2906 2969 
L 2906 3500 
L 3481 3500 
L 3481 434 
z
" transform="scale(0.015625)"/>
      <path id="DejaVuSans-72" d="M 2631 2963 
Q 2534 3019 2420 3045 
Q 2306 3072 2169 3072 
Q 1681 3072 1420 2755 
Q 1159 2438 1159 1844 
L 1159 0 
L 581 0 
L 581 3500 
L 1159 3500 
L 1159 2956 
Q 1341 3275 1631 3429 
Q 1922 3584 2338 3584 
Q 2397 3584 2469 3576 
Q 2541 3569 2628 3553 
L 2631 2963 
z
" transform="scale(0.015625)"/>
      <path id="DejaVuSans-61" d="M 2194 1759 
Q 1497 1759 1228 1600 
Q 959 1441 959 1056 
Q 959 750 1161 570 
Q 1363 391 1709 391 
Q 2188 391 2477 730 
Q 2766 1069 2766 1631 
L 2766 1759 
L 2194 1759 
z
M 3341 1997 
L 3341 0 
L 2766 0 
L 2766 531 
Q 2569 213 2275 61 
Q 1981 -91 1556 -91 
Q 1019 -91 701 211 
Q 384 513 384 1019 
Q 384 1609 779 1909 
Q 1175 2209 1959 2209 
L 2766 2209 
L 2766 2266 
Q 2766 2663 2505 2880 
Q 2244 3097 1772 3097 
Q 1472 3097 1187 3025 
Q 903 2953 641 2809 
L 641 3341 
Q 956 3463 1253 3523 
Q 1550 3584 1831 3584 
Q 2591 3584 2966 3190 
Q 3341 2797 3341 1997 
z
" transform="scale(0.015625)"/>
      <path id="DejaVuSans-6d" d="M 3328 2828 
Q 3544 3216 3844 3400 
Q 4144 3584 4550 3584 
Q 5097 3584 5394 3201 
Q 5691 2819 5691 2113 
L 5691 0 
L 5113 0 
L 5113 2094 
Q 5113 2597 4934 2840 
Q 4756 3084 4391 3084 
Q 3944 3084 3684 2787 
Q 3425 2491 3425 1978 
L 3425 0 
L 2847 0 
L 2847 2094 
Q 2847 2600 2669 2842 
Q 2491 3084 2119 3084 
Q 1678 3084 1418 2786 
Q 1159 2488 1159 1978 
L 1159 0 
L 581 0 
L 581 3500 
L 1159 3500 
L 1159 2956 
Q 1356 3278 1631 3431 
Q 1906 3584 2284 3584 
Q 2666 3584 2933 3390 
Q 3200 3197 3328 2828 
z
" transform="scale(0.015625)"/>
      <path id="DejaVuSans-20" transform="scale(0.015625)"/>
      <path id="DejaVuSans-66" d="M 2375 4863 
L 2375 4384 
L 1825 4384 
Q 1516 4384 1395 4259 
Q 1275 4134 1275 3809 
L 1275 3500 
L 2222 3500 
L 2222 3053 
L 1275 3053 
L 1275 0 
L 697 0 
L 697 3053 
L 147 3053 
L 147 3500 
L 697 3500 
L 697 3744 
Q 697 4328 969 4595 
Q 1241 4863 1831 4863 
L 2375 4863 
z
" transform="scale(0.015625)"/>
      <path id="DejaVuSans-65" d="M 3597 1894 
L 3597 1613 
L 953 1613 
Q 991 1019 1311 708 
Q 1631 397 2203 397 
Q 2534 397 2845 478 
Q 3156 559 3463 722 
L 3463 178 
Q 3153 47 2828 -22 
Q 2503 -91 2169 -91 
Q 1331 -91 842 396 
Q 353 884 353 1716 
Q 353 2575 817 3079 
Q 1281 3584 2069 3584 
Q 2775 3584 3186 3129 
Q 3597 2675 3597 1894 
z
M 3022 2063 
Q 3016 2534 2758 2815 
Q 2500 3097 2075 3097 
Q 1594 3097 1305 2825 
Q 1016 2553 972 2059 
L 3022 2063 
z
" transform="scale(0.015625)"/>
      <path id="DejaVuSans-64" d="M 2906 2969 
L 2906 4863 
L 3481 4863 
L 3481 0 
L 2906 0 
L 2906 525 
Q 2725 213 2448 61 
Q 2172 -91 1784 -91 
Q 1150 -91 751 415 
Q 353 922 353 1747 
Q 353 2572 751 3078 
Q 1150 3584 1784 3584 
Q 2172 3584 2448 3432 
Q 2725 3281 2906 2969 
z
M 947 1747 
Q 947 1113 1208 752 
Q 1469 391 1925 391 
Q 2381 391 2643 752 
Q 2906 1113 2906 1747 
Q 2906 2381 2643 2742 
Q 2381 3103 1925 3103 
Q 1469 3103 1208 2742 
Q 947 2381 947 1747 
z
" transform="scale(0.015625)"/>
      <path id="DejaVuSans-75" d="M 544 1381 
L 544 3500 
L 1119 3500 
L 1119 1403 
Q 1119 906 1312 657 
Q 1506 409 1894 409 
Q 2359 409 2629 706 
Q 2900 1003 2900 1516 
L 2900 3500 
L 3475 3500 
L 3475 0 
L 2900 0 
L 2900 538 
Q 2691 219 2414 64 
Q 2138 -91 1772 -91 
Q 1169 -91 856 284 
Q 544 659 544 1381 
z
M 1991 3584 
L 1991 3584 
z
" transform="scale(0.015625)"/>
      <path id="DejaVuSans-6c" d="M 603 4863 
L 1178 4863 
L 1178 0 
L 603 0 
L 603 4863 
z
" transform="scale(0.015625)"/>
     </defs>
     <use xlink:href="#DejaVuSans-48"/>
     <use xlink:href="#DejaVuSans-69" transform="translate(75.195312 0)"/>
     <use xlink:href="#DejaVuSans-73" transform="translate(102.978516 0)"/>
     <use xlink:href="#DejaVuSans-74" transform="translate(155.078125 0)"/>
     <use xlink:href="#DejaVuSans-6f" transform="translate(194.287109 0)"/>
     <use xlink:href="#DejaVuSans-67" transform="translate(255.46875 0)"/>
     <use xlink:href="#DejaVuSans-72" transform="translate(318.945312 0)"/>
     <use xlink:href="#DejaVuSans-61" transform="translate(360.058594 0)"/>
     <use xlink:href="#DejaVuSans-6d" transform="translate(421.337891 0)"/>
     <use xlink:href="#DejaVuSans-20" transform="translate(518.75 0)"/>
     <use xlink:href="#DejaVuSans-6f" transform="translate(550.537109 0)"/>
     <use xlink:href="#DejaVuSans-66" transform="translate(611.71875 0)"/>
     <use xlink:href="#DejaVuSans-20" transform="translate(646.923828 0)"/>
     <use xlink:href="#DejaVuSans-72" transform="translate(678.710938 0)"/>
     <use xlink:href="#DejaVuSans-65" transform="translate(717.574219 0)"/>
     <use xlink:href="#DejaVuSans-73" transform="translate(779.097656 0)"/>
     <use xlink:href="#DejaVuSans-69" transform="translate(831.197266 0)"/>
     <use xlink:href="#DejaVuSans-64" transform="translate(858.980469 0)"/>
     <use xlink:href="#DejaVuSans-75" transform="translate(922.457031 0)"/>
     <use xlink:href="#DejaVuSans-61" transform="translate(985.835938 0)"/>
     <use xlink:href="#DejaVuSans-6c" transform="translate(1047.115234 0)"/>
     <use xlink:href="#DejaVuSans-73" transform="translate(1074.898438 0)"/>
    </g>
   </g>
  </g>
 </g>
 <defs>
  <clipPath id="p32de0b28a1">
   <rect x="57.6" y="41.472" width="357.12" height="266.112"/>
  </clipPath>
 </defs>
</svg>
