<?xml version="1.0" encoding="utf-8" standalone="no"?>
<!DOCTYPE svg PUBLIC "-//W3C//DTD SVG 1.1//EN"
  "http://www.w3.org/Graphics/SVG/1.1/DTD/svg11.dtd">
<svg xmlns:xlink="http://www.w3.org/1999/xlink" width="460.8pt" height="345.6pt" viewBox="0 0 460.8 345.6" xmlns="http://www.w3.org/2000/svg" version="1.1">
 <metadata>
  <rdf:RDF xmlns:dc="http://purl.org/dc/elements/1.1/" xmlns:cc="http://creativecommons.org/ns#" xmlns:rdf="http://www.w3.org/1999/02/22-rdf-syntax-ns#">
   <cc:Work>
    <dc:type rdf:resource="http://purl.org/dc/dcmitype/StillImage"/>
    <dc:date>2025-11-20T17:35:17.087672</dc:date>
    <dc:format>image/svg+xml</dc:format>
    <dc:creator>
     <cc:Agent>
      <dc:title>Matplotlib v3.10.7, https://matplotlib.org/</dc:title>
     </cc:Agent>
    </dc:creator>
   </cc:Work>
  </rdf:RDF>
 </metadata>
 <defs>
  <style type="text/css">*{stroke-linejoin: round; stroke-linecap: butt}</style>
 </defs>
 <g id="figure_1">
  <g id="patch_1">
   <path d="M 0 345.6 
L 460.8 345.6 
L 460.8 0 
L 0 0 
z
" style="fill: #ffffff"/>
  </g>
  <g id="axes_1">
   <g id="patch_2">
    <path d="M 57.6 307.584 
L 414.72 307.584 
L 414.72 41.472 
L 57.6 41.472 
z
" style="fill: #ffffff"/>
   </g>
   <g id="patch_3">
    <path d="M 73.832727 307.584 
L 80.325814 307.584 
L 80.325814 306.594 
L 73.832727 306.594 
z
" clip-path="url(#pbd07091a30)" style="fill: #1f77b4"/>
   </g>
   <g id="patch_4">
    <path d="M 80.325814 307.584 
L 86.818909 307.584 
L 86.818909 307.584 
L 80.325814 307.584 
z
" clip-path="url(#pbd07091a30)" style="fill: #1f77b4"/>
   </g>
   <g id="patch_5">
    <path d="M 86.818909 307.584 
L 93.311997 307.584 
L 93.311997 307.584 
L 86.818909 307.584 
z
" clip-path="url(#pbd07091a30)" style="fill: #1f77b4"/>
   </g>
   <g id="patch_6">
    <path d="M 93.311997 307.584 
L 99.805092 307.584 
L 99.805092 304.614 
L 93.311997 304.614 
z
" clip-path="url(#pbd07091a30)" style="fill: #1f77b4"/>
   </g>
   <g id="patch_7">
    <path d="M 99.805092 307.584 
L 106.298179 307.584 
L 106.298179 305.604 
L 99.805092 305.604 
z
" clip-path="url(#pbd07091a30)" style="fill: #1f77b4"/>
   </g>
   <g id="patch_8">
    <path d="M 106.298179 307.584 
L 112.791266 307.584 
L 112.791266 306.594 
L 106.298179 306.594 
z
" clip-path="url(#pbd07091a30)" style="fill: #1f77b4"/>
   </g>
   <g id="patch_9">
    <path d="M 112.791266 307.584 
L 119.284361 307.584 
L 119.284361 305.604 
L 112.791266 305.604 
z
" clip-path="url(#pbd07091a30)" style="fill: #1f77b4"/>
   </g>
   <g id="patch_10">
    <path d="M 119.284361 307.584 
L 125.777452 307.584 
L 125.777452 299.664 
L 119.284361 299.664 
z
" clip-path="url(#pbd07091a30)" style="fill: #1f77b4"/>
   </g>
   <g id="patch_11">
    <path d="M 125.777452 307.584 
L 132.270543 307.584 
L 132.270543 301.644 
L 125.777452 301.644 
z
" clip-path="url(#pbd07091a30)" style="fill: #1f77b4"/>
   </g>
   <g id="patch_12">
    <path d="M 132.270543 307.584 
L 138.763634 307.584 
L 138.763634 299.664 
L 132.270543 299.664 
z
" clip-path="url(#pbd07091a30)" style="fill: #1f77b4"/>
   </g>
   <g id="patch_13">
    <path d="M 138.763634 307.584 
L 145.256725 307.584 
L 145.256725 288.774 
L 138.763634 288.774 
z
" clip-path="url(#pbd07091a30)" style="fill: #1f77b4"/>
   </g>
   <g id="patch_14">
    <path d="M 145.256725 307.584 
L 151.749812 307.584 
L 151.749812 281.844 
L 145.256725 281.844 
z
" clip-path="url(#pbd07091a30)" style="fill: #1f77b4"/>
   </g>
   <g id="patch_15">
    <path d="M 151.749812 307.584 
L 158.242907 307.584 
L 158.242907 266.994 
L 151.749812 266.994 
z
" clip-path="url(#pbd07091a30)" style="fill: #1f77b4"/>
   </g>
   <g id="patch_16">
    <path d="M 158.242907 307.584 
L 164.735994 307.584 
L 164.735994 223.434 
L 158.242907 223.434 
z
" clip-path="url(#pbd07091a30)" style="fill: #1f77b4"/>
   </g>
   <g id="patch_17">
    <path d="M 164.735994 307.584 
L 171.229089 307.584 
L 171.229089 189.774 
L 164.735994 189.774 
z
" clip-path="url(#pbd07091a30)" style="fill: #1f77b4"/>
   </g>
   <g id="patch_18">
    <path d="M 171.229089 307.584 
L 177.722177 307.584 
L 177.722177 113.544 
L 171.229089 113.544 
z
" clip-path="url(#pbd07091a30)" style="fill: #1f77b4"/>
   </g>
   <g id="patch_19">
    <path d="M 177.722177 307.584 
L 184.215264 307.584 
L 184.215264 69.984 
L 177.722177 69.984 
z
" clip-path="url(#pbd07091a30)" style="fill: #1f77b4"/>
   </g>
   <g id="patch_20">
    <path d="M 184.215264 307.584 
L 190.708359 307.584 
L 190.708359 74.934 
L 184.215264 74.934 
z
" clip-path="url(#pbd07091a30)" style="fill: #1f77b4"/>
   </g>
   <g id="patch_21">
    <path d="M 190.708359 307.584 
L 197.201446 307.584 
L 197.201446 54.144 
L 190.708359 54.144 
z
" clip-path="url(#pbd07091a30)" style="fill: #1f77b4"/>
   </g>
   <g id="patch_22">
    <path d="M 197.201446 307.584 
L 203.694541 307.584 
L 203.694541 73.944 
L 197.201446 73.944 
z
" clip-path="url(#pbd07091a30)" style="fill: #1f77b4"/>
   </g>
   <g id="patch_23">
    <path d="M 203.694541 307.584 
L 210.187628 307.584 
L 210.187628 145.224 
L 203.694541 145.224 
z
" clip-path="url(#pbd07091a30)" style="fill: #1f77b4"/>
   </g>
   <g id="patch_24">
    <path d="M 210.187628 307.584 
L 216.680723 307.584 
L 216.680723 202.644 
L 210.187628 202.644 
z
" clip-path="url(#pbd07091a30)" style="fill: #1f77b4"/>
   </g>
   <g id="patch_25">
    <path d="M 216.680723 307.584 
L 223.173818 307.584 
L 223.173818 214.524 
L 216.680723 214.524 
z
" clip-path="url(#pbd07091a30)" style="fill: #1f77b4"/>
   </g>
   <g id="patch_26">
    <path d="M 223.173818 307.584 
L 229.666897 307.584 
L 229.666897 251.154 
L 223.173818 251.154 
z
" clip-path="url(#pbd07091a30)" style="fill: #1f77b4"/>
   </g>
   <g id="patch_27">
    <path d="M 229.666897 307.584 
L 236.159992 307.584 
L 236.159992 267.984 
L 229.666897 267.984 
z
" clip-path="url(#pbd07091a30)" style="fill: #1f77b4"/>
   </g>
   <g id="patch_28">
    <path d="M 236.159992 307.584 
L 242.653087 307.584 
L 242.653087 289.764 
L 236.159992 289.764 
z
" clip-path="url(#pbd07091a30)" style="fill: #1f77b4"/>
   </g>
   <g id="patch_29">
    <path d="M 242.653087 307.584 
L 249.146167 307.584 
L 249.146167 290.754 
L 242.653087 290.754 
z
" clip-path="url(#pbd07091a30)" style="fill: #1f77b4"/>
   </g>
   <g id="patch_30">
    <path d="M 249.146167 307.584 
L 255.639261 307.584 
L 255.639261 296.694 
L 249.146167 296.694 
z
" clip-path="url(#pbd07091a30)" style="fill: #1f77b4"/>
   </g>
   <g id="patch_31">
    <path d="M 255.639261 307.584 
L 262.132356 307.584 
L 262.132356 301.644 
L 255.639261 301.644 
z
" clip-path="url(#pbd07091a30)" style="fill: #1f77b4"/>
   </g>
   <g id="patch_32">
    <path d="M 262.132356 307.584 
L 268.625451 307.584 
L 268.625451 301.644 
L 262.132356 301.644 
z
" clip-path="url(#pbd07091a30)" style="fill: #1f77b4"/>
   </g>
   <g id="patch_33">
    <path d="M 268.625451 307.584 
L 275.118531 307.584 
L 275.118531 299.664 
L 268.625451 299.664 
z
" clip-path="url(#pbd07091a30)" style="fill: #1f77b4"/>
   </g>
   <g id="patch_34">
    <path d="M 275.118531 307.584 
L 281.611626 307.584 
L 281.611626 303.624 
L 275.118531 303.624 
z
" clip-path="url(#pbd07091a30)" style="fill: #1f77b4"/>
   </g>
   <g id="patch_35">
    <path d="M 281.611626 307.584 
L 288.104721 307.584 
L 288.104721 305.604 
L 281.611626 305.604 
z
" clip-path="url(#pbd07091a30)" style="fill: #1f77b4"/>
   </g>
   <g id="patch_36">
    <path d="M 288.104721 307.584 
L 294.5978 307.584 
L 294.5978 305.604 
L 288.104721 305.604 
z
" clip-path="url(#pbd07091a30)" style="fill: #1f77b4"/>
   </g>
   <g id="patch_37">
    <path d="M 294.5978 307.584 
L 301.090895 307.584 
L 301.090895 302.634 
L 294.5978 302.634 
z
" clip-path="url(#pbd07091a30)" style="fill: #1f77b4"/>
   </g>
   <g id="patch_38">
    <path d="M 301.090895 307.584 
L 307.58399 307.584 
L 307.58399 305.604 
L 301.090895 305.604 
z
" clip-path="url(#pbd07091a30)" style="fill: #1f77b4"/>
   </g>
   <g id="patch_39">
    <path d="M 307.58399 307.584 
L 314.077085 307.584 
L 314.077085 304.614 
L 307.58399 304.614 
z
" clip-path="url(#pbd07091a30)" style="fill: #1f77b4"/>
   </g>
   <g id="patch_40">
    <path d="M 314.077085 307.584 
L 320.570164 307.584 
L 320.570164 304.614 
L 314.077085 304.614 
z
" clip-path="url(#pbd07091a30)" style="fill: #1f77b4"/>
   </g>
   <g id="patch_41">
    <path d="M 320.570164 307.584 
L 327.063259 307.584 
L 327.063259 307.584 
L 320.570164 307.584 
z
" clip-path="url(#pbd07091a30)" style="fill: #1f77b4"/>
   </g>
   <g id="patch_42">
    <path d="M 327.063259 307.584 
L 333.556354 307.584 
L 333.556354 306.594 
L 327.063259 306.594 
z
" clip-path="url(#pbd07091a30)" style="fill: #1f77b4"/>
   </g>
   <g id="patch_43">
    <path d="M 333.556354 307.584 
L 340.049449 307.584 
L 340.049449 304.614 
L 333.556354 304.614 
z
" clip-path="url(#pbd07091a30)" style="fill: #1f77b4"/>
   </g>
   <g id="patch_44">
    <path d="M 340.049449 307.584 
L 346.542529 307.584 
L 346.542529 305.604 
L 340.049449 305.604 
z
" clip-path="url(#pbd07091a30)" style="fill: #1f77b4"/>
   </g>
   <g id="patch_45">
    <path d="M 346.542529 307.584 
L 353.035608 307.584 
L 353.035608 306.594 
L 346.542529 306.594 
z
" clip-path="url(#pbd07091a30)" style="fill: #1f77b4"/>
   </g>
   <g id="patch_46">
    <path d="M 353.035608 307.584 
L 359.528719 307.584 
L 359.528719 306.594 
L 353.035608 306.594 
z
" clip-path="url(#pbd07091a30)" style="fill: #1f77b4"/>
   </g>
   <g id="patch_47">
    <path d="M 359.528719 307.584 
L 366.021798 307.584 
L 366.021798 305.604 
L 359.528719 305.604 
z
" clip-path="url(#pbd07091a30)" style="fill: #1f77b4"/>
   </g>
   <g id="patch_48">
    <path d="M 366.021798 307.584 
L 372.514908 307.584 
L 372.514908 307.584 
L 366.021798 307.584 
z
" clip-path="url(#pbd07091a30)" style="fill: #1f77b4"/>
   </g>
   <g id="patch_49">
    <path d="M 372.514908 307.584 
L 379.007988 307.584 
L 379.007988 305.604 
L 372.514908 305.604 
z
" clip-path="url(#pbd07091a30)" style="fill: #1f77b4"/>
   </g>
   <g id="patch_50">
    <path d="M 379.007988 307.584 
L 385.501067 307.584 
L 385.501067 304.614 
L 379.007988 304.614 
z
" clip-path="url(#pbd07091a30)" style="fill: #1f77b4"/>
   </g>
   <g id="patch_51">
    <path d="M 385.501067 307.584 
L 391.994178 307.584 
L 391.994178 307.584 
L 385.501067 307.584 
z
" clip-path="url(#pbd07091a30)" style="fill: #1f77b4"/>
   </g>
   <g id="patch_52">
    <path d="M 391.994178 307.584 
L 398.487273 307.584 
L 398.487273 306.594 
L 391.994178 306.594 
z
" clip-path="url(#pbd07091a30)" style="fill: #1f77b4"/>
   </g>
   <g id="matplotlib.axis_1">
    <g id="xtick_1">
     <g id="line2d_1">
      <path d="M 121.245764 307.584 
L 121.245764 41.472 
" clip-path="url(#pbd07091a30)" style="fill: none; stroke: #b0b0b0; stroke-width: 0.8; stroke-linecap: square"/>
     </g>
     <g id="line2d_2">
      <defs>
       <path id="mfb9eb5dff8" d="M 0 0 
L 0 3.5 
" style="stroke: #000000; stroke-width: 0.8"/>
      </defs>
      <g>
       <use xlink:href="#mfb9eb5dff8" x="121.245764" y="307.584" style="stroke: #000000; stroke-width: 0.8"/>
      </g>
     </g>
     <g id="text_1">
      <!-- −0.5 -->
      <g transform="translate(109.104358 322.182437) scale(0.1 -0.1)">
       <defs>
        <path id="DejaVuSans-2212" d="M 678 2272 
L 4684 2272 
L 4684 1741 
L 678 1741 
L 678 2272 
z
" transform="scale(0.015625)"/>
        <path id="DejaVuSans-30" d="M 2034 4250 
Q 1547 4250 1301 3770 
Q 1056 3291 1056 2328 
Q 1056 1369 1301 889 
Q 1547 409 2034 409 
Q 2525 409 2770 889 
Q 3016 1369 3016 2328 
Q 3016 3291 2770 3770 
Q 2525 4250 2034 4250 
z
M 2034 4750 
Q 2819 4750 3233 4129 
Q 3647 3509 3647 2328 
Q 3647 1150 3233 529 
Q 2819 -91 2034 -91 
Q 1250 -91 836 529 
Q 422 1150 422 2328 
Q 422 3509 836 4129 
Q 1250 4750 2034 4750 
z
" transform="scale(0.015625)"/>
        <path id="DejaVuSans-2e" d="M 684 794 
L 1344 794 
L 1344 0 
L 684 0 
L 684 794 
z
" transform="scale(0.015625)"/>
        <path id="DejaVuSans-35" d="M 691 4666 
L 3169 4666 
L 3169 4134 
L 1269 4134 
L 1269 2991 
Q 1406 3038 1543 3061 
Q 1681 3084 1819 3084 
Q 2600 3084 3056 2656 
Q 3513 2228 3513 1497 
Q 3513 744 3044 326 
Q 2575 -91 1722 -91 
Q 1428 -91 1123 -41 
Q 819 9 494 109 
L 494 744 
Q 775 591 1075 516 
Q 1375 441 1709 441 
Q 2250 441 2565 725 
Q 2881 1009 2881 1497 
Q 2881 1984 2565 2268 
Q 2250 2553 1709 2553 
Q 1456 2553 1204 2497 
Q 953 2441 691 2322 
L 691 4666 
z
" transform="scale(0.015625)"/>
       </defs>
       <use xlink:href="#DejaVuSans-2212"/>
       <use xlink:href="#DejaVuSans-30" transform="translate(83.789062 0)"/>
       <use xlink:href="#DejaVuSans-2e" transform="translate(147.412109 0)"/>
       <use xlink:href="#DejaVuSans-35" transform="translate(179.199219 0)"/>
      </g>
     </g>
    </g>
    <g id="xtick_2">
     <g id="line2d_3">
      <path d="M 186.757656 307.584 
L 186.757656 41.472 
" clip-path="url(#pbd07091a30)" style="fill: none; stroke: #b0b0b0; stroke-width: 0.8; stroke-linecap: square"/>
     </g>
     <g id="line2d_4">
      <g>
       <use xlink:href="#mfb9eb5dff8" x="186.757656" y="307.584" style="stroke: #000000; stroke-width: 0.8"/>
      </g>
     </g>
     <g id="text_2">
      <!-- 0.0 -->
      <g transform="translate(178.806094 322.182437) scale(0.1 -0.1)">
       <use xlink:href="#DejaVuSans-30"/>
       <use xlink:href="#DejaVuSans-2e" transform="translate(63.623047 0)"/>
       <use xlink:href="#DejaVuSans-30" transform="translate(95.410156 0)"/>
      </g>
     </g>
    </g>
    <g id="xtick_3">
     <g id="line2d_5">
      <path d="M 252.269548 307.584 
L 252.269548 41.472 
" clip-path="url(#pbd07091a30)" style="fill: none; stroke: #b0b0b0; stroke-width: 0.8; stroke-linecap: square"/>
     </g>
     <g id="line2d_6">
      <g>
       <use xlink:href="#mfb9eb5dff8" x="252.269548" y="307.584" style="stroke: #000000; stroke-width: 0.8"/>
      </g>
     </g>
     <g id="text_3">
      <!-- 0.5 -->
      <g transform="translate(244.317986 322.182437) scale(0.1 -0.1)">
       <use xlink:href="#DejaVuSans-30"/>
       <use xlink:href="#DejaVuSans-2e" transform="translate(63.623047 0)"/>
       <use xlink:href="#DejaVuSans-35" transform="translate(95.410156 0)"/>
      </g>
     </g>
    </g>
    <g id="xtick_4">
     <g id="line2d_7">
      <path d="M 317.781441 307.584 
L 317.781441 41.472 
" clip-path="url(#pbd07091a30)" style="fill: none; stroke: #b0b0b0; stroke-width: 0.8; stroke-linecap: square"/>
     </g>
     <g id="line2d_8">
      <g>
       <use xlink:href="#mfb9eb5dff8" x="317.781441" y="307.584" style="stroke: #000000; stroke-width: 0.8"/>
      </g>
     </g>
     <g id="text_4">
      <!-- 1.0 -->
      <g transform="translate(309.829878 322.182437) scale(0.1 -0.1)">
       <defs>
        <path id="DejaVuSans-31" d="M 794 531 
L 1825 531 
L 1825 4091 
L 703 3866 
L 703 4441 
L 1819 4666 
L 2450 4666 
L 2450 531 
L 3481 531 
L 3481 0 
L 794 0 
L 794 531 
z
" transform="scale(0.015625)"/>
       </defs>
       <use xlink:href="#DejaVuSans-31"/>
       <use xlink:href="#DejaVuSans-2e" transform="translate(63.623047 0)"/>
       <use xlink:href="#DejaVuSans-30" transform="translate(95.410156 0)"/>
      </g>
     </g>
    </g>
    <g id="xtick_5">
     <g id="line2d_9">
      <path d="M 383.293333 307.584 
L 383.293333 41.472 
" clip-path="url(#pbd07091a30)" style="fill: none; stroke: #b0b0b0; stroke-width: 0.8; stroke-linecap: square"/>
     </g>
     <g id="line2d_10">
      <g>
       <use xlink:href="#mfb9eb5dff8" x="383.293333" y="307.584" style="stroke: #000000; stroke-width: 0.8"/>
      </g>
     </g>
     <g id="text_5">
      <!-- 1.5 -->
      <g transform="translate(375.34177 322.182437) scale(0.1 -0.1)">
       <use xlink:href="#DejaVuSans-31"/>
       <use xlink:href="#DejaVuSans-2e" transform="translate(63.623047 0)"/>
       <use xlink:href="#DejaVuSans-35" transform="translate(95.410156 0)"/>
      </g>
     </g>
    </g>
   </g>
   <g id="matplotlib.axis_2">
    <g id="ytick_1">
     <g id="line2d_11">
      <path d="M 57.6 307.584 
L 414.72 307.584 
" clip-path="url(#pbd07091a30)" style="fill: none; stroke: #b0b0b0; stroke-width: 0.8; stroke-linecap: square"/>
     </g>
     <g id="line2d_12">
      <defs>
       <path id="m09c1b4111c" d="M 0 0 
L -3.5 0 
" style="stroke: #000000; stroke-width: 0.8"/>
      </defs>
      <g>
       <use xlink:href="#m09c1b4111c" x="57.6" y="307.584" style="stroke: #000000; stroke-width: 0.8"/>
      </g>
     </g>
     <g id="text_6">
      <!-- 0 -->
      <g transform="translate(44.2375 311.383219) scale(0.1 -0.1)">
       <use xlink:href="#DejaVuSans-30"/>
      </g>
     </g>
    </g>
    <g id="ytick_2">
     <g id="line2d_13">
      <path d="M 57.6 258.084 
L 414.72 258.084 
" clip-path="url(#pbd07091a30)" style="fill: none; stroke: #b0b0b0; stroke-width: 0.8; stroke-linecap: square"/>
     </g>
     <g id="line2d_14">
      <g>
       <use xlink:href="#m09c1b4111c" x="57.6" y="258.084" style="stroke: #000000; stroke-width: 0.8"/>
      </g>
     </g>
     <g id="text_7">
      <!-- 50 -->
      <g transform="translate(37.875 261.883219) scale(0.1 -0.1)">
       <use xlink:href="#DejaVuSans-35"/>
       <use xlink:href="#DejaVuSans-30" transform="translate(63.623047 0)"/>
      </g>
     </g>
    </g>
    <g id="ytick_3">
     <g id="line2d_15">
      <path d="M 57.6 208.584 
L 414.72 208.584 
" clip-path="url(#pbd07091a30)" style="fill: none; stroke: #b0b0b0; stroke-width: 0.8; stroke-linecap: square"/>
     </g>
     <g id="line2d_16">
      <g>
       <use xlink:href="#m09c1b4111c" x="57.6" y="208.584" style="stroke: #000000; stroke-width: 0.8"/>
      </g>
     </g>
     <g id="text_8">
      <!-- 100 -->
      <g transform="translate(31.5125 212.383219) scale(0.1 -0.1)">
       <use xlink:href="#DejaVuSans-31"/>
       <use xlink:href="#DejaVuSans-30" transform="translate(63.623047 0)"/>
       <use xlink:href="#DejaVuSans-30" transform="translate(127.246094 0)"/>
      </g>
     </g>
    </g>
    <g id="ytick_4">
     <g id="line2d_17">
      <path d="M 57.6 159.084 
L 414.72 159.084 
" clip-path="url(#pbd07091a30)" style="fill: none; stroke: #b0b0b0; stroke-width: 0.8; stroke-linecap: square"/>
     </g>
     <g id="line2d_18">
      <g>
       <use xlink:href="#m09c1b4111c" x="57.6" y="159.084" style="stroke: #000000; stroke-width: 0.8"/>
      </g>
     </g>
     <g id="text_9">
      <!-- 150 -->
      <g transform="translate(31.5125 162.883219) scale(0.1 -0.1)">
       <use xlink:href="#DejaVuSans-31"/>
       <use xlink:href="#DejaVuSans-35" transform="translate(63.623047 0)"/>
       <use xlink:href="#DejaVuSans-30" transform="translate(127.246094 0)"/>
      </g>
     </g>
    </g>
    <g id="ytick_5">
     <g id="line2d_19">
      <path d="M 57.6 109.584 
L 414.72 109.584 
" clip-path="url(#pbd07091a30)" style="fill: none; stroke: #b0b0b0; stroke-width: 0.8; stroke-linecap: square"/>
     </g>
     <g id="line2d_20">
      <g>
       <use xlink:href="#m09c1b4111c" x="57.6" y="109.584" style="stroke: #000000; stroke-width: 0.8"/>
      </g>
     </g>
     <g id="text_10">
      <!-- 200 -->
      <g transform="translate(31.5125 113.383219) scale(0.1 -0.1)">
       <defs>
        <path id="DejaVuSans-32" d="M 1228 531 
L 3431 531 
L 3431 0 
L 469 0 
L 469 531 
Q 828 903 1448 1529 
Q 2069 2156 2228 2338 
Q 2531 2678 2651 2914 
Q 2772 3150 2772 3378 
Q 2772 3750 2511 3984 
Q 2250 4219 1831 4219 
Q 1534 4219 1204 4116 
Q 875 4013 500 3803 
L 500 4441 
Q 881 4594 1212 4672 
Q 1544 4750 1819 4750 
Q 2544 4750 2975 4387 
Q 3406 4025 3406 3419 
Q 3406 3131 3298 2873 
Q 3191 2616 2906 2266 
Q 2828 2175 2409 1742 
Q 1991 1309 1228 531 
z
" transform="scale(0.015625)"/>
       </defs>
       <use xlink:href="#DejaVuSans-32"/>
       <use xlink:href="#DejaVuSans-30" transform="translate(63.623047 0)"/>
       <use xlink:href="#DejaVuSans-30" transform="translate(127.246094 0)"/>
      </g>
     </g>
    </g>
    <g id="ytick_6">
     <g id="line2d_21">
      <path d="M 57.6 60.084 
L 414.72 60.084 
" clip-path="url(#pbd07091a30)" style="fill: none; stroke: #b0b0b0; stroke-width: 0.8; stroke-linecap: square"/>
     </g>
     <g id="line2d_22">
      <g>
       <use xlink:href="#m09c1b4111c" x="57.6" y="60.084" style="stroke: #000000; stroke-width: 0.8"/>
      </g>
     </g>
     <g id="text_11">
      <!-- 250 -->
      <g transform="translate(31.5125 63.883219) scale(0.1 -0.1)">
       <use xlink:href="#DejaVuSans-32"/>
       <use xlink:href="#DejaVuSans-35" transform="translate(63.623047 0)"/>
       <use xlink:href="#DejaVuSans-30" transform="translate(127.246094 0)"/>
      </g>
     </g>
    </g>
   </g>
   <g id="patch_53">
    <path d="M 57.6 307.584 
L 57.6 41.472 
" style="fill: none; stroke: #000000; stroke-width: 0.8; stroke-linejoin: miter; stroke-linecap: square"/>
   </g>
   <g id="patch_54">
    <path d="M 414.72 307.584 
L 414.72 41.472 
" style="fill: none; stroke: #000000; stroke-width: 0.8; stroke-linejoin: miter; stroke-linecap: square"/>
   </g>
   <g id="patch_55">
    <path d="M 57.6 307.584 
L 414.72 307.584 
" style="fill: none; stroke: #000000; stroke-width: 0.8; stroke-linejoin: miter; stroke-linecap: square"/>
   </g>
   <g id="patch_56">
    <path d="M 57.6 41.472 
L 414.72 41.472 
" style="fill: none; stroke: #000000; stroke-width: 0.8; stroke-linejoin: miter; stroke-linecap: square"/>
   </g>
   <g id="text_12">
    <!-- Residuals -->
    <g transform="translate(207.695625 35.472) scale(0.12 -0.12)">
     <defs>
      <path id="DejaVuSans-52" d="M 2841 2188 
Q 3044 2119 3236 1894 
Q 3428 1669 3622 1275 
L 4263 0 
L 3584 0 
L 2988 1197 
Q 2756 1666 2539 1819 
Q 2322 1972 1947 1972 
L 1259 1972 
L 1259 0 
L 628 0 
L 628 4666 
L 2053 4666 
Q 2853 4666 3247 4331 
Q 3641 3997 3641 3322 
Q 3641 2881 3436 2590 
Q 3231 2300 2841 2188 
z
M 1259 4147 
L 1259 2491 
L 2053 2491 
Q 2509 2491 2742 2702 
Q 2975 2913 2975 3322 
Q 2975 3731 2742 3939 
Q 2509 4147 2053 4147 
L 1259 4147 
z
" transform="scale(0.015625)"/>
      <path id="DejaVuSans-65" d="M 3597 1894 
L 3597 1613 
L 953 1613 
Q 991 1019 1311 708 
Q 1631 397 2203 397 
Q 2534 397 2845 478 
Q 3156 559 3463 722 
L 3463 178 
Q 3153 47 2828 -22 
Q 2503 -91 2169 -91 
Q 1331 -91 842 396 
Q 353 884 353 1716 
Q 353 2575 817 3079 
Q 1281 3584 2069 3584 
Q 2775 3584 3186 3129 
Q 3597 2675 3597 1894 
z
M 3022 2063 
Q 3016 2534 2758 2815 
Q 2500 3097 2075 3097 
Q 1594 3097 1305 2825 
Q 1016 2553 972 2059 
L 3022 2063 
z
" transform="scale(0.015625)"/>
      <path id="DejaVuSans-73" d="M 2834 3397 
L 2834 2853 
Q 2591 2978 2328 3040 
Q 2066 3103 1784 3103 
Q 1356 3103 1142 2972 
Q 928 2841 928 2578 
Q 928 2378 1081 2264 
Q 1234 2150 1697 2047 
L 1894 2003 
Q 2506 1872 2764 1633 
Q 3022 1394 3022 966 
Q 3022 478 2636 193 
Q 2250 -91 1575 -91 
Q 1294 -91 989 -36 
Q 684 19 347 128 
L 347 722 
Q 666 556 975 473 
Q 1284 391 1588 391 
Q 1994 391 2212 530 
Q 2431 669 2431 922 
Q 2431 1156 2273 1281 
Q 2116 1406 1581 1522 
L 1381 1569 
Q 847 1681 609 1914 
Q 372 2147 372 2553 
Q 372 3047 722 3315 
Q 1072 3584 1716 3584 
Q 2034 3584 2315 3537 
Q 2597 3491 2834 3397 
z
" transform="scale(0.015625)"/>
      <path id="DejaVuSans-69" d="M 603 3500 
L 1178 3500 
L 1178 0 
L 603 0 
L 603 3500 
z
M 603 4863 
L 1178 4863 
L 1178 4134 
L 603 4134 
L 603 4863 
z
" transform="scale(0.015625)"/>
      <path id="DejaVuSans-64" d="M 2906 2969 
L 2906 4863 
L 3481 4863 
L 3481 0 
L 2906 0 
L 2906 525 
Q 2725 213 2448 61 
Q 2172 -91 1784 -91 
Q 1150 -91 751 415 
Q 353 922 353 1747 
Q 353 2572 751 3078 
Q 1150 3584 1784 3584 
Q 2172 3584 2448 3432 
Q 2725 3281 2906 2969 
z
M 947 1747 
Q 947 1113 1208 752 
Q 1469 391 1925 391 
Q 2381 391 2643 752 
Q 2906 1113 2906 1747 
Q 2906 2381 2643 2742 
Q 2381 3103 1925 3103 
Q 1469 3103 1208 2742 
Q 947 2381 947 1747 
z
" transform="scale(0.015625)"/>
      <path id="DejaVuSans-75" d="M 544 1381 
L 544 3500 
L 1119 3500 
L 1119 1403 
Q 1119 906 1312 657 
Q 1506 409 1894 409 
Q 2359 409 2629 706 
Q 2900 1003 2900 1516 
L 2900 3500 
L 3475 3500 
L 3475 0 
L 2900 0 
L 2900 538 
Q 2691 219 2414 64 
Q 2138 -91 1772 -91 
Q 1169 -91 856 284 
Q 544 659 544 1381 
z
M 1991 3584 
L 1991 3584 
z
" transform="scale(0.015625)"/>
      <path id="DejaVuSans-61" d="M 2194 1759 
Q 1497 1759 1228 1600 
Q 959 1441 959 1056 
Q 959 750 1161 570 
Q 1363 391 1709 391 
Q 2188 391 2477 730 
Q 2766 1069 2766 1631 
L 2766 1759 
L 2194 1759 
z
M 3341 1997 
L 3341 0 
L 2766 0 
L 2766 531 
Q 2569 213 2275 61 
Q 1981 -91 1556 -91 
Q 1019 -91 701 211 
Q 384 513 384 1019 
Q 384 1609 779 1909 
Q 1175 2209 1959 2209 
L 2766 2209 
L 2766 2266 
Q 2766 2663 2505 2880 
Q 2244 3097 1772 3097 
Q 1472 3097 1187 3025 
Q 903 2953 641 2809 
L 641 3341 
Q 956 3463 1253 3523 
Q 1550 3584 1831 3584 
Q 2591 3584 2966 3190 
Q 3341 2797 3341 1997 
z
" transform="scale(0.015625)"/>
      <path id="DejaVuSans-6c" d="M 603 4863 
L 1178 4863 
L 1178 0 
L 603 0 
L 603 4863 
z
" transform="scale(0.015625)"/>
     </defs>
     <use xlink:href="#DejaVuSans-52"/>
     <use xlink:href="#DejaVuSans-65" transform="translate(64.982422 0)"/>
     <use xlink:href="#DejaVuSans-73" transform="translate(126.505859 0)"/>
     <use xlink:href="#DejaVuSans-69" transform="translate(178.605469 0)"/>
     <use xlink:href="#DejaVuSans-64" transform="translate(206.388672 0)"/>
     <use xlink:href="#DejaVuSans-75" transform="translate(269.865234 0)"/>
     <use xlink:href="#DejaVuSans-61" transform="translate(333.244141 0)"/>
     <use xlink:href="#DejaVuSans-6c" transform="translate(394.523438 0)"/>
     <use xlink:href="#DejaVuSans-73" transform="translate(422.306641 0)"/>
    </g>
   </g>
  </g>
 </g>
 <defs>
  <clipPath id="pbd07091a30">
   <rect x="57.6" y="41.472" width="357.12" height="266.112"/>
  </clipPath>
 </defs>
</svg>
