<?xml version="1.0" encoding="utf-8" standalone="no"?>
<!DOCTYPE svg PUBLIC "-//W3C//DTD SVG 1.1//EN"
  "http://www.w3.org/Graphics/SVG/1.1/DTD/svg11.dtd">
<svg xmlns:xlink="http://www.w3.org/1999/xlink" width="460.8pt" height="345.6pt" viewBox="0 0 460.8 345.6" xmlns="http://www.w3.org/2000/svg" version="1.1">
 <metadata>
  <rdf:RDF xmlns:dc="http://purl.org/dc/elements/1.1/" xmlns:cc="http://creativecommons.org/ns#" xmlns:rdf="http://www.w3.org/1999/02/22-rdf-syntax-ns#">
   <cc:Work>
    <dc:type rdf:resource="http://purl.org/dc/dcmitype/StillImage"/>
    <dc:date>2025-12-01T00:33:32.632892</dc:date>
    <dc:format>image/svg+xml</dc:format>
    <dc:creator>
     <cc:Agent>
      <dc:title>Matplotlib v3.10.7, https://matplotlib.org/</dc:title>
     </cc:Agent>
    </dc:creator>
   </cc:Work>
  </rdf:RDF>
 </metadata>
 <defs>
  <style type="text/css">*{stroke-linejoin: round; stroke-linecap: butt}</style>
 </defs>
 <g id="figure_1">
  <g id="patch_1">
   <path d="M 0 345.6 
L 460.8 345.6 
L 460.8 0 
L 0 0 
z
" style="fill: #ffffff"/>
  </g>
  <g id="axes_1">
   <g id="patch_2">
    <path d="M 47.855 303.64 
L 430.8525 303.64 
L 430.8525 14.76 
L 47.855 14.76 
z
" style="fill: #ffffff"/>
   </g>
   <g id="matplotlib.axis_1">
    <g id="xtick_1">
     <g id="line2d_1">
      <path d="M 47.855 303.64 
L 47.855 14.76 
" clip-path="url(#p15dacd7000)" style="fill: none; stroke: #b0b0b0; stroke-width: 0.8; stroke-linecap: square"/>
     </g>
     <g id="line2d_2">
      <defs>
       <path id="m731364f3b4" d="M 0 0 
L 0 3.5 
" style="stroke: #000000; stroke-width: 0.8"/>
      </defs>
      <g>
       <use xlink:href="#m731364f3b4" x="47.855" y="303.64" style="stroke: #000000; stroke-width: 0.8"/>
      </g>
     </g>
     <g id="text_1">
      <!-- 0 -->
      <g transform="translate(44.67375 318.238437) scale(0.1 -0.1)">
       <defs>
        <path id="DejaVuSans-30" d="M 2034 4250 
Q 1547 4250 1301 3770 
Q 1056 3291 1056 2328 
Q 1056 1369 1301 889 
Q 1547 409 2034 409 
Q 2525 409 2770 889 
Q 3016 1369 3016 2328 
Q 3016 3291 2770 3770 
Q 2525 4250 2034 4250 
z
M 2034 4750 
Q 2819 4750 3233 4129 
Q 3647 3509 3647 2328 
Q 3647 1150 3233 529 
Q 2819 -91 2034 -91 
Q 1250 -91 836 529 
Q 422 1150 422 2328 
Q 422 3509 836 4129 
Q 1250 4750 2034 4750 
z
" transform="scale(0.015625)"/>
       </defs>
       <use xlink:href="#DejaVuSans-30"/>
      </g>
     </g>
    </g>
    <g id="xtick_2">
     <g id="line2d_3">
      <path d="M 95.729688 303.64 
L 95.729688 14.76 
" clip-path="url(#p15dacd7000)" style="fill: none; stroke: #b0b0b0; stroke-width: 0.8; stroke-linecap: square"/>
     </g>
     <g id="line2d_4">
      <g>
       <use xlink:href="#m731364f3b4" x="95.729688" y="303.64" style="stroke: #000000; stroke-width: 0.8"/>
      </g>
     </g>
     <g id="text_2">
      <!-- 25000 -->
      <g transform="translate(79.823438 318.238437) scale(0.1 -0.1)">
       <defs>
        <path id="DejaVuSans-32" d="M 1228 531 
L 3431 531 
L 3431 0 
L 469 0 
L 469 531 
Q 828 903 1448 1529 
Q 2069 2156 2228 2338 
Q 2531 2678 2651 2914 
Q 2772 3150 2772 3378 
Q 2772 3750 2511 3984 
Q 2250 4219 1831 4219 
Q 1534 4219 1204 4116 
Q 875 4013 500 3803 
L 500 4441 
Q 881 4594 1212 4672 
Q 1544 4750 1819 4750 
Q 2544 4750 2975 4387 
Q 3406 4025 3406 3419 
Q 3406 3131 3298 2873 
Q 3191 2616 2906 2266 
Q 2828 2175 2409 1742 
Q 1991 1309 1228 531 
z
" transform="scale(0.015625)"/>
        <path id="DejaVuSans-35" d="M 691 4666 
L 3169 4666 
L 3169 4134 
L 1269 4134 
L 1269 2991 
Q 1406 3038 1543 3061 
Q 1681 3084 1819 3084 
Q 2600 3084 3056 2656 
Q 3513 2228 3513 1497 
Q 3513 744 3044 326 
Q 2575 -91 1722 -91 
Q 1428 -91 1123 -41 
Q 819 9 494 109 
L 494 744 
Q 775 591 1075 516 
Q 1375 441 1709 441 
Q 2250 441 2565 725 
Q 2881 1009 2881 1497 
Q 2881 1984 2565 2268 
Q 2250 2553 1709 2553 
Q 1456 2553 1204 2497 
Q 953 2441 691 2322 
L 691 4666 
z
" transform="scale(0.015625)"/>
       </defs>
       <use xlink:href="#DejaVuSans-32"/>
       <use xlink:href="#DejaVuSans-35" transform="translate(63.623047 0)"/>
       <use xlink:href="#DejaVuSans-30" transform="translate(127.246094 0)"/>
       <use xlink:href="#DejaVuSans-30" transform="translate(190.869141 0)"/>
       <use xlink:href="#DejaVuSans-30" transform="translate(254.492188 0)"/>
      </g>
     </g>
    </g>
    <g id="xtick_3">
     <g id="line2d_5">
      <path d="M 143.604375 303.64 
L 143.604375 14.76 
" clip-path="url(#p15dacd7000)" style="fill: none; stroke: #b0b0b0; stroke-width: 0.8; stroke-linecap: square"/>
     </g>
     <g id="line2d_6">
      <g>
       <use xlink:href="#m731364f3b4" x="143.604375" y="303.64" style="stroke: #000000; stroke-width: 0.8"/>
      </g>
     </g>
     <g id="text_3">
      <!-- 50000 -->
      <g transform="translate(127.698125 318.238437) scale(0.1 -0.1)">
       <use xlink:href="#DejaVuSans-35"/>
       <use xlink:href="#DejaVuSans-30" transform="translate(63.623047 0)"/>
       <use xlink:href="#DejaVuSans-30" transform="translate(127.246094 0)"/>
       <use xlink:href="#DejaVuSans-30" transform="translate(190.869141 0)"/>
       <use xlink:href="#DejaVuSans-30" transform="translate(254.492188 0)"/>
      </g>
     </g>
    </g>
    <g id="xtick_4">
     <g id="line2d_7">
      <path d="M 191.479062 303.64 
L 191.479062 14.76 
" clip-path="url(#p15dacd7000)" style="fill: none; stroke: #b0b0b0; stroke-width: 0.8; stroke-linecap: square"/>
     </g>
     <g id="line2d_8">
      <g>
       <use xlink:href="#m731364f3b4" x="191.479062" y="303.64" style="stroke: #000000; stroke-width: 0.8"/>
      </g>
     </g>
     <g id="text_4">
      <!-- 75000 -->
      <g transform="translate(175.572812 318.238437) scale(0.1 -0.1)">
       <defs>
        <path id="DejaVuSans-37" d="M 525 4666 
L 3525 4666 
L 3525 4397 
L 1831 0 
L 1172 0 
L 2766 4134 
L 525 4134 
L 525 4666 
z
" transform="scale(0.015625)"/>
       </defs>
       <use xlink:href="#DejaVuSans-37"/>
       <use xlink:href="#DejaVuSans-35" transform="translate(63.623047 0)"/>
       <use xlink:href="#DejaVuSans-30" transform="translate(127.246094 0)"/>
       <use xlink:href="#DejaVuSans-30" transform="translate(190.869141 0)"/>
       <use xlink:href="#DejaVuSans-30" transform="translate(254.492188 0)"/>
      </g>
     </g>
    </g>
    <g id="xtick_5">
     <g id="line2d_9">
      <path d="M 239.35375 303.64 
L 239.35375 14.76 
" clip-path="url(#p15dacd7000)" style="fill: none; stroke: #b0b0b0; stroke-width: 0.8; stroke-linecap: square"/>
     </g>
     <g id="line2d_10">
      <g>
       <use xlink:href="#m731364f3b4" x="239.35375" y="303.64" style="stroke: #000000; stroke-width: 0.8"/>
      </g>
     </g>
     <g id="text_5">
      <!-- 100000 -->
      <g transform="translate(220.26625 318.238437) scale(0.1 -0.1)">
       <defs>
        <path id="DejaVuSans-31" d="M 794 531 
L 1825 531 
L 1825 4091 
L 703 3866 
L 703 4441 
L 1819 4666 
L 2450 4666 
L 2450 531 
L 3481 531 
L 3481 0 
L 794 0 
L 794 531 
z
" transform="scale(0.015625)"/>
       </defs>
       <use xlink:href="#DejaVuSans-31"/>
       <use xlink:href="#DejaVuSans-30" transform="translate(63.623047 0)"/>
       <use xlink:href="#DejaVuSans-30" transform="translate(127.246094 0)"/>
       <use xlink:href="#DejaVuSans-30" transform="translate(190.869141 0)"/>
       <use xlink:href="#DejaVuSans-30" transform="translate(254.492188 0)"/>
       <use xlink:href="#DejaVuSans-30" transform="translate(318.115234 0)"/>
      </g>
     </g>
    </g>
    <g id="xtick_6">
     <g id="line2d_11">
      <path d="M 287.228437 303.64 
L 287.228437 14.76 
" clip-path="url(#p15dacd7000)" style="fill: none; stroke: #b0b0b0; stroke-width: 0.8; stroke-linecap: square"/>
     </g>
     <g id="line2d_12">
      <g>
       <use xlink:href="#m731364f3b4" x="287.228437" y="303.64" style="stroke: #000000; stroke-width: 0.8"/>
      </g>
     </g>
     <g id="text_6">
      <!-- 125000 -->
      <g transform="translate(268.140938 318.238437) scale(0.1 -0.1)">
       <use xlink:href="#DejaVuSans-31"/>
       <use xlink:href="#DejaVuSans-32" transform="translate(63.623047 0)"/>
       <use xlink:href="#DejaVuSans-35" transform="translate(127.246094 0)"/>
       <use xlink:href="#DejaVuSans-30" transform="translate(190.869141 0)"/>
       <use xlink:href="#DejaVuSans-30" transform="translate(254.492188 0)"/>
       <use xlink:href="#DejaVuSans-30" transform="translate(318.115234 0)"/>
      </g>
     </g>
    </g>
    <g id="xtick_7">
     <g id="line2d_13">
      <path d="M 335.103125 303.64 
L 335.103125 14.76 
" clip-path="url(#p15dacd7000)" style="fill: none; stroke: #b0b0b0; stroke-width: 0.8; stroke-linecap: square"/>
     </g>
     <g id="line2d_14">
      <g>
       <use xlink:href="#m731364f3b4" x="335.103125" y="303.64" style="stroke: #000000; stroke-width: 0.8"/>
      </g>
     </g>
     <g id="text_7">
      <!-- 150000 -->
      <g transform="translate(316.015625 318.238437) scale(0.1 -0.1)">
       <use xlink:href="#DejaVuSans-31"/>
       <use xlink:href="#DejaVuSans-35" transform="translate(63.623047 0)"/>
       <use xlink:href="#DejaVuSans-30" transform="translate(127.246094 0)"/>
       <use xlink:href="#DejaVuSans-30" transform="translate(190.869141 0)"/>
       <use xlink:href="#DejaVuSans-30" transform="translate(254.492188 0)"/>
       <use xlink:href="#DejaVuSans-30" transform="translate(318.115234 0)"/>
      </g>
     </g>
    </g>
    <g id="xtick_8">
     <g id="line2d_15">
      <path d="M 382.977813 303.64 
L 382.977813 14.76 
" clip-path="url(#p15dacd7000)" style="fill: none; stroke: #b0b0b0; stroke-width: 0.8; stroke-linecap: square"/>
     </g>
     <g id="line2d_16">
      <g>
       <use xlink:href="#m731364f3b4" x="382.977813" y="303.64" style="stroke: #000000; stroke-width: 0.8"/>
      </g>
     </g>
     <g id="text_8">
      <!-- 175000 -->
      <g transform="translate(363.890313 318.238437) scale(0.1 -0.1)">
       <use xlink:href="#DejaVuSans-31"/>
       <use xlink:href="#DejaVuSans-37" transform="translate(63.623047 0)"/>
       <use xlink:href="#DejaVuSans-35" transform="translate(127.246094 0)"/>
       <use xlink:href="#DejaVuSans-30" transform="translate(190.869141 0)"/>
       <use xlink:href="#DejaVuSans-30" transform="translate(254.492188 0)"/>
       <use xlink:href="#DejaVuSans-30" transform="translate(318.115234 0)"/>
      </g>
     </g>
    </g>
    <g id="xtick_9">
     <g id="line2d_17">
      <path d="M 430.8525 303.64 
L 430.8525 14.76 
" clip-path="url(#p15dacd7000)" style="fill: none; stroke: #b0b0b0; stroke-width: 0.8; stroke-linecap: square"/>
     </g>
     <g id="line2d_18">
      <g>
       <use xlink:href="#m731364f3b4" x="430.8525" y="303.64" style="stroke: #000000; stroke-width: 0.8"/>
      </g>
     </g>
     <g id="text_9">
      <!-- 200000 -->
      <g transform="translate(411.765 318.238437) scale(0.1 -0.1)">
       <use xlink:href="#DejaVuSans-32"/>
       <use xlink:href="#DejaVuSans-30" transform="translate(63.623047 0)"/>
       <use xlink:href="#DejaVuSans-30" transform="translate(127.246094 0)"/>
       <use xlink:href="#DejaVuSans-30" transform="translate(190.869141 0)"/>
       <use xlink:href="#DejaVuSans-30" transform="translate(254.492188 0)"/>
       <use xlink:href="#DejaVuSans-30" transform="translate(318.115234 0)"/>
      </g>
     </g>
    </g>
    <g id="text_10">
     <!-- Step -->
     <g transform="translate(227.968594 331.916562) scale(0.1 -0.1)">
      <defs>
       <path id="DejaVuSans-53" d="M 3425 4513 
L 3425 3897 
Q 3066 4069 2747 4153 
Q 2428 4238 2131 4238 
Q 1616 4238 1336 4038 
Q 1056 3838 1056 3469 
Q 1056 3159 1242 3001 
Q 1428 2844 1947 2747 
L 2328 2669 
Q 3034 2534 3370 2195 
Q 3706 1856 3706 1288 
Q 3706 609 3251 259 
Q 2797 -91 1919 -91 
Q 1588 -91 1214 -16 
Q 841 59 441 206 
L 441 856 
Q 825 641 1194 531 
Q 1563 422 1919 422 
Q 2459 422 2753 634 
Q 3047 847 3047 1241 
Q 3047 1584 2836 1778 
Q 2625 1972 2144 2069 
L 1759 2144 
Q 1053 2284 737 2584 
Q 422 2884 422 3419 
Q 422 4038 858 4394 
Q 1294 4750 2059 4750 
Q 2388 4750 2728 4690 
Q 3069 4631 3425 4513 
z
" transform="scale(0.015625)"/>
       <path id="DejaVuSans-74" d="M 1172 4494 
L 1172 3500 
L 2356 3500 
L 2356 3053 
L 1172 3053 
L 1172 1153 
Q 1172 725 1289 603 
Q 1406 481 1766 481 
L 2356 481 
L 2356 0 
L 1766 0 
Q 1100 0 847 248 
Q 594 497 594 1153 
L 594 3053 
L 172 3053 
L 172 3500 
L 594 3500 
L 594 4494 
L 1172 4494 
z
" transform="scale(0.015625)"/>
       <path id="DejaVuSans-65" d="M 3597 1894 
L 3597 1613 
L 953 1613 
Q 991 1019 1311 708 
Q 1631 397 2203 397 
Q 2534 397 2845 478 
Q 3156 559 3463 722 
L 3463 178 
Q 3153 47 2828 -22 
Q 2503 -91 2169 -91 
Q 1331 -91 842 396 
Q 353 884 353 1716 
Q 353 2575 817 3079 
Q 1281 3584 2069 3584 
Q 2775 3584 3186 3129 
Q 3597 2675 3597 1894 
z
M 3022 2063 
Q 3016 2534 2758 2815 
Q 2500 3097 2075 3097 
Q 1594 3097 1305 2825 
Q 1016 2553 972 2059 
L 3022 2063 
z
" transform="scale(0.015625)"/>
       <path id="DejaVuSans-70" d="M 1159 525 
L 1159 -1331 
L 581 -1331 
L 581 3500 
L 1159 3500 
L 1159 2969 
Q 1341 3281 1617 3432 
Q 1894 3584 2278 3584 
Q 2916 3584 3314 3078 
Q 3713 2572 3713 1747 
Q 3713 922 3314 415 
Q 2916 -91 2278 -91 
Q 1894 -91 1617 61 
Q 1341 213 1159 525 
z
M 3116 1747 
Q 3116 2381 2855 2742 
Q 2594 3103 2138 3103 
Q 1681 3103 1420 2742 
Q 1159 2381 1159 1747 
Q 1159 1113 1420 752 
Q 1681 391 2138 391 
Q 2594 391 2855 752 
Q 3116 1113 3116 1747 
z
" transform="scale(0.015625)"/>
      </defs>
      <use xlink:href="#DejaVuSans-53"/>
      <use xlink:href="#DejaVuSans-74" transform="translate(63.476562 0)"/>
      <use xlink:href="#DejaVuSans-65" transform="translate(102.685547 0)"/>
      <use xlink:href="#DejaVuSans-70" transform="translate(164.208984 0)"/>
     </g>
    </g>
   </g>
   <g id="matplotlib.axis_2">
    <g id="ytick_1">
     <g id="line2d_19">
      <path d="M 47.855 303.64 
L 430.8525 303.64 
" clip-path="url(#p15dacd7000)" style="fill: none; stroke: #b0b0b0; stroke-width: 0.8; stroke-linecap: square"/>
     </g>
     <g id="line2d_20">
      <defs>
       <path id="m49c75ea465" d="M 0 0 
L -3.5 0 
" style="stroke: #000000; stroke-width: 0.8"/>
      </defs>
      <g>
       <use xlink:href="#m49c75ea465" x="47.855" y="303.64" style="stroke: #000000; stroke-width: 0.8"/>
      </g>
     </g>
     <g id="text_11">
      <!-- 0.0 -->
      <g transform="translate(24.951875 307.439219) scale(0.1 -0.1)">
       <defs>
        <path id="DejaVuSans-2e" d="M 684 794 
L 1344 794 
L 1344 0 
L 684 0 
L 684 794 
z
" transform="scale(0.015625)"/>
       </defs>
       <use xlink:href="#DejaVuSans-30"/>
       <use xlink:href="#DejaVuSans-2e" transform="translate(63.623047 0)"/>
       <use xlink:href="#DejaVuSans-30" transform="translate(95.410156 0)"/>
      </g>
     </g>
    </g>
    <g id="ytick_2">
     <g id="line2d_21">
      <path d="M 47.855 245.864 
L 430.8525 245.864 
" clip-path="url(#p15dacd7000)" style="fill: none; stroke: #b0b0b0; stroke-width: 0.8; stroke-linecap: square"/>
     </g>
     <g id="line2d_22">
      <g>
       <use xlink:href="#m49c75ea465" x="47.855" y="245.864" style="stroke: #000000; stroke-width: 0.8"/>
      </g>
     </g>
     <g id="text_12">
      <!-- 0.1 -->
      <g transform="translate(24.951875 249.663219) scale(0.1 -0.1)">
       <use xlink:href="#DejaVuSans-30"/>
       <use xlink:href="#DejaVuSans-2e" transform="translate(63.623047 0)"/>
       <use xlink:href="#DejaVuSans-31" transform="translate(95.410156 0)"/>
      </g>
     </g>
    </g>
    <g id="ytick_3">
     <g id="line2d_23">
      <path d="M 47.855 188.088 
L 430.8525 188.088 
" clip-path="url(#p15dacd7000)" style="fill: none; stroke: #b0b0b0; stroke-width: 0.8; stroke-linecap: square"/>
     </g>
     <g id="line2d_24">
      <g>
       <use xlink:href="#m49c75ea465" x="47.855" y="188.088" style="stroke: #000000; stroke-width: 0.8"/>
      </g>
     </g>
     <g id="text_13">
      <!-- 0.2 -->
      <g transform="translate(24.951875 191.887219) scale(0.1 -0.1)">
       <use xlink:href="#DejaVuSans-30"/>
       <use xlink:href="#DejaVuSans-2e" transform="translate(63.623047 0)"/>
       <use xlink:href="#DejaVuSans-32" transform="translate(95.410156 0)"/>
      </g>
     </g>
    </g>
    <g id="ytick_4">
     <g id="line2d_25">
      <path d="M 47.855 130.312 
L 430.8525 130.312 
" clip-path="url(#p15dacd7000)" style="fill: none; stroke: #b0b0b0; stroke-width: 0.8; stroke-linecap: square"/>
     </g>
     <g id="line2d_26">
      <g>
       <use xlink:href="#m49c75ea465" x="47.855" y="130.312" style="stroke: #000000; stroke-width: 0.8"/>
      </g>
     </g>
     <g id="text_14">
      <!-- 0.3 -->
      <g transform="translate(24.951875 134.111219) scale(0.1 -0.1)">
       <defs>
        <path id="DejaVuSans-33" d="M 2597 2516 
Q 3050 2419 3304 2112 
Q 3559 1806 3559 1356 
Q 3559 666 3084 287 
Q 2609 -91 1734 -91 
Q 1441 -91 1130 -33 
Q 819 25 488 141 
L 488 750 
Q 750 597 1062 519 
Q 1375 441 1716 441 
Q 2309 441 2620 675 
Q 2931 909 2931 1356 
Q 2931 1769 2642 2001 
Q 2353 2234 1838 2234 
L 1294 2234 
L 1294 2753 
L 1863 2753 
Q 2328 2753 2575 2939 
Q 2822 3125 2822 3475 
Q 2822 3834 2567 4026 
Q 2313 4219 1838 4219 
Q 1578 4219 1281 4162 
Q 984 4106 628 3988 
L 628 4550 
Q 988 4650 1302 4700 
Q 1616 4750 1894 4750 
Q 2613 4750 3031 4423 
Q 3450 4097 3450 3541 
Q 3450 3153 3228 2886 
Q 3006 2619 2597 2516 
z
" transform="scale(0.015625)"/>
       </defs>
       <use xlink:href="#DejaVuSans-30"/>
       <use xlink:href="#DejaVuSans-2e" transform="translate(63.623047 0)"/>
       <use xlink:href="#DejaVuSans-33" transform="translate(95.410156 0)"/>
      </g>
     </g>
    </g>
    <g id="ytick_5">
     <g id="line2d_27">
      <path d="M 47.855 72.536 
L 430.8525 72.536 
" clip-path="url(#p15dacd7000)" style="fill: none; stroke: #b0b0b0; stroke-width: 0.8; stroke-linecap: square"/>
     </g>
     <g id="line2d_28">
      <g>
       <use xlink:href="#m49c75ea465" x="47.855" y="72.536" style="stroke: #000000; stroke-width: 0.8"/>
      </g>
     </g>
     <g id="text_15">
      <!-- 0.4 -->
      <g transform="translate(24.951875 76.335219) scale(0.1 -0.1)">
       <defs>
        <path id="DejaVuSans-34" d="M 2419 4116 
L 825 1625 
L 2419 1625 
L 2419 4116 
z
M 2253 4666 
L 3047 4666 
L 3047 1625 
L 3713 1625 
L 3713 1100 
L 3047 1100 
L 3047 0 
L 2419 0 
L 2419 1100 
L 313 1100 
L 313 1709 
L 2253 4666 
z
" transform="scale(0.015625)"/>
       </defs>
       <use xlink:href="#DejaVuSans-30"/>
       <use xlink:href="#DejaVuSans-2e" transform="translate(63.623047 0)"/>
       <use xlink:href="#DejaVuSans-34" transform="translate(95.410156 0)"/>
      </g>
     </g>
    </g>
    <g id="ytick_6">
     <g id="line2d_29">
      <path d="M 47.855 14.76 
L 430.8525 14.76 
" clip-path="url(#p15dacd7000)" style="fill: none; stroke: #b0b0b0; stroke-width: 0.8; stroke-linecap: square"/>
     </g>
     <g id="line2d_30">
      <g>
       <use xlink:href="#m49c75ea465" x="47.855" y="14.76" style="stroke: #000000; stroke-width: 0.8"/>
      </g>
     </g>
     <g id="text_16">
      <!-- 0.5 -->
      <g transform="translate(24.951875 18.559219) scale(0.1 -0.1)">
       <use xlink:href="#DejaVuSans-30"/>
       <use xlink:href="#DejaVuSans-2e" transform="translate(63.623047 0)"/>
       <use xlink:href="#DejaVuSans-35" transform="translate(95.410156 0)"/>
      </g>
     </g>
    </g>
    <g id="text_17">
     <!-- MSE -->
     <g transform="translate(18.872188 169.847656) rotate(-90) scale(0.1 -0.1)">
      <defs>
       <path id="DejaVuSans-4d" d="M 628 4666 
L 1569 4666 
L 2759 1491 
L 3956 4666 
L 4897 4666 
L 4897 0 
L 4281 0 
L 4281 4097 
L 3078 897 
L 2444 897 
L 1241 4097 
L 1241 0 
L 628 0 
L 628 4666 
z
" transform="scale(0.015625)"/>
       <path id="DejaVuSans-45" d="M 628 4666 
L 3578 4666 
L 3578 4134 
L 1259 4134 
L 1259 2753 
L 3481 2753 
L 3481 2222 
L 1259 2222 
L 1259 531 
L 3634 531 
L 3634 0 
L 628 0 
L 628 4666 
z
" transform="scale(0.015625)"/>
      </defs>
      <use xlink:href="#DejaVuSans-4d"/>
      <use xlink:href="#DejaVuSans-53" transform="translate(86.279297 0)"/>
      <use xlink:href="#DejaVuSans-45" transform="translate(149.755859 0)"/>
     </g>
    </g>
   </g>
   <g id="line2d_31">
    <path d="M 48.236181 -1 
L 48.237998 56.00999 
L 48.620995 66.564211 
L 49.003993 28.693317 
L 49.38699 126.194925 
L 49.769988 157.087434 
L 50.152985 140.890526 
L 50.535983 156.429873 
L 50.91898 110.838767 
L 51.301978 175.094609 
L 51.684975 138.932549 
L 52.067973 185.633497 
L 52.45097 168.636321 
L 52.833968 160.673412 
L 53.216965 178.141568 
L 53.599963 184.566805 
L 53.98296 154.690761 
L 54.365958 174.710402 
L 54.748955 153.480708 
L 55.131953 178.554539 
L 55.51495 152.734006 
L 55.897948 189.309717 
L 56.280945 153.630802 
L 56.663943 161.400725 
L 57.04694 161.025739 
L 57.429938 196.593508 
L 57.812935 165.557517 
L 58.195933 113.146161 
L 58.57893 181.186486 
L 58.961928 167.339176 
L 59.344925 212.150848 
L 59.727923 169.994076 
L 60.11092 199.745586 
L 60.493918 216.958149 
L 60.876915 189.232905 
L 61.259913 199.334243 
L 61.64291 230.19191 
L 62.025908 224.070357 
L 62.408905 145.193435 
L 62.791903 233.807147 
L 63.1749 173.22102 
L 63.557898 188.810585 
L 63.940895 182.638573 
L 64.323893 194.037615 
L 64.70689 201.831791 
L 65.089888 197.201178 
L 65.472885 180.467231 
L 65.855883 214.984469 
L 66.23888 191.691797 
L 66.621878 217.184944 
L 67.004875 209.262938 
L 67.387873 249.687516 
L 67.77087 205.664347 
L 68.153868 194.02892 
L 68.536865 175.810851 
L 68.919863 204.017096 
L 69.30286 156.493169 
L 69.685858 210.317947 
L 70.068855 207.713385 
L 70.451853 190.07282 
L 70.83485 216.805343 
L 71.217848 200.752676 
L 71.600845 180.03823 
L 71.983843 204.954623 
L 72.36684 157.514145 
L 72.749838 213.467941 
L 73.132835 216.027166 
L 73.515833 232.700099 
L 73.89883 201.325047 
L 74.281828 218.98767 
L 74.664825 200.58823 
L 75.047823 223.262865 
L 75.43082 177.998964 
L 75.813818 234.262484 
L 76.196815 215.277563 
L 76.579813 185.616321 
L 76.96281 195.446294 
L 77.345808 190.332837 
L 77.728805 206.589166 
L 78.111803 239.578379 
L 78.4948 162.913499 
L 78.877798 198.854541 
L 79.260795 221.153123 
L 79.643793 196.978412 
L 80.02679 205.761081 
L 80.409788 185.901005 
L 80.792785 200.678722 
L 81.175783 206.537511 
L 81.55878 190.404036 
L 81.941778 228.941771 
L 82.324775 214.041157 
L 82.707773 240.996114 
L 83.09077 233.510134 
L 83.473768 208.662879 
L 83.856765 212.248788 
L 84.239763 230.31331 
L 84.62276 79.98586 
L 85.005758 228.076546 
L 85.388755 223.34282 
L 85.771753 229.578808 
L 86.15475 213.457361 
L 86.537748 242.852141 
L 86.920745 201.376187 
L 87.303742 241.779504 
L 87.68674 224.353095 
L 88.069738 225.997969 
L 88.452735 169.044264 
L 88.835733 211.333671 
L 89.21873 238.189093 
L 89.601728 233.521748 
L 89.984725 218.110366 
L 90.367723 222.203853 
L 90.75072 215.190412 
L 91.133718 251.166158 
L 91.516715 227.10769 
L 91.899713 231.617949 
L 92.28271 189.1324 
L 92.665708 218.090048 
L 93.048705 232.317919 
L 93.431703 241.151297 
L 93.8147 223.369052 
L 94.197698 227.072616 
L 94.580695 239.023656 
L 94.963693 222.135754 
L 95.34669 235.863774 
L 95.729688 240.503822 
L 96.112685 235.384077 
L 96.495683 254.899136 
L 97.261678 229.305996 
L 97.644675 233.225838 
L 98.027673 243.427982 
L 98.41067 232.853809 
L 98.793667 238.370744 
L 99.176665 233.764221 
L 99.559663 220.427652 
L 99.94266 222.977114 
L 100.325658 238.128599 
L 100.708655 228.26261 
L 101.091653 236.918537 
L 101.47465 216.788848 
L 102.240645 249.020894 
L 102.623643 167.700654 
L 103.00664 247.680139 
L 103.389638 235.795347 
L 103.772635 242.879832 
L 104.155633 253.408255 
L 104.53863 226.535293 
L 104.921627 263.756327 
L 105.304625 225.367528 
L 105.687623 238.816267 
L 106.07062 238.20889 
L 106.453618 247.816411 
L 106.836615 240.539365 
L 107.219613 242.252361 
L 107.60261 236.670564 
L 108.368605 247.064897 
L 108.751603 242.991529 
L 109.1346 236.275539 
L 109.517598 215.882935 
L 109.900595 231.607609 
L 110.283592 236.095368 
L 110.66659 227.156247 
L 111.049588 199.099906 
L 111.432585 240.779733 
L 111.815583 228.757756 
L 112.19858 232.903412 
L 112.581578 253.308103 
L 112.964575 248.688011 
L 113.347573 264.773523 
L 113.73057 250.966771 
L 114.113568 229.013771 
L 114.496565 230.22348 
L 114.879563 256.890078 
L 115.26256 241.357653 
L 115.645557 250.571454 
L 116.028555 233.212658 
L 116.411552 248.491397 
L 116.79455 241.424814 
L 117.177548 259.067898 
L 117.560545 240.789633 
L 117.943543 210.752492 
L 118.32654 258.896844 
L 118.709538 254.977928 
L 119.092535 253.932174 
L 119.475533 242.89362 
L 119.85853 236.434411 
L 120.241528 253.065231 
L 120.624525 252.824769 
L 121.007522 252.104662 
L 121.39052 255.347951 
L 121.773517 238.052911 
L 122.156515 254.119013 
L 122.539513 242.728589 
L 122.92251 254.644279 
L 123.305508 236.500427 
L 123.688505 245.173977 
L 124.071503 194.701581 
L 124.4545 242.316384 
L 124.837498 212.303259 
L 125.220495 238.624034 
L 125.603493 245.672197 
L 125.98649 202.262608 
L 126.369488 242.290492 
L 126.752485 264.322134 
L 127.135482 266.879146 
L 127.901477 200.844141 
L 128.284475 253.512579 
L 128.667473 253.214482 
L 129.05047 260.915591 
L 129.433468 259.94163 
L 129.816465 243.824655 
L 130.199463 233.101916 
L 130.58246 270.400184 
L 130.965458 267.064224 
L 131.731453 238.888025 
L 132.11445 257.984276 
L 132.497447 255.668238 
L 132.880445 249.730515 
L 133.64644 220.738396 
L 134.029438 270.270885 
L 134.412435 234.502614 
L 134.795433 265.566577 
L 135.17843 254.510719 
L 135.561428 218.59172 
L 135.944425 255.387894 
L 136.327423 248.555183 
L 136.71042 196.813941 
L 137.093418 250.659734 
L 137.476415 251.396883 
L 137.859413 270.986518 
L 138.24241 262.448441 
L 138.625407 241.850918 
L 139.008405 263.441239 
L 139.391402 273.572276 
L 139.7744 266.086876 
L 140.157398 271.343199 
L 140.540395 263.810935 
L 140.923393 232.55195 
L 141.30639 261.998085 
L 141.689388 246.053619 
L 142.072385 266.640509 
L 142.455383 243.188971 
L 142.83838 271.227557 
L 143.221378 245.287056 
L 143.604375 274.515666 
L 143.987372 264.631358 
L 144.37037 185.966195 
L 144.753367 263.536734 
L 145.136365 255.377838 
L 145.519362 257.938187 
L 145.90236 268.134476 
L 146.285358 250.356278 
L 146.668355 248.985523 
L 147.051353 231.667965 
L 147.43435 261.531586 
L 147.817348 255.305275 
L 148.200345 252.931107 
L 148.583343 270.620786 
L 148.96634 255.525608 
L 149.349338 258.68221 
L 149.732335 240.781859 
L 150.115332 267.076635 
L 150.49833 271.850562 
L 150.881327 273.584536 
L 151.264325 256.882769 
L 151.647323 280.056877 
L 152.03032 266.130159 
L 152.413318 230.228086 
L 152.796315 278.419884 
L 153.179313 261.212405 
L 153.56231 188.786049 
L 153.945308 263.008799 
L 154.328305 236.716563 
L 154.711303 266.393074 
L 155.0943 274.239256 
L 155.477297 223.942827 
L 155.860295 230.637553 
L 156.243292 262.680823 
L 156.62629 244.148709 
L 157.009287 276.969941 
L 157.392285 249.734058 
L 157.775283 274.495572 
L 158.15828 237.754913 
L 158.541278 257.575972 
L 158.924275 266.306172 
L 159.307273 268.721322 
L 159.69027 240.854358 
L 160.073268 260.907136 
L 160.456265 168.391206 
L 160.839263 268.802322 
L 161.22226 275.472529 
L 161.605257 261.855222 
L 161.988255 217.965859 
L 162.371252 273.731267 
L 162.75425 270.333987 
L 163.137248 254.282262 
L 163.520245 273.168811 
L 163.903243 265.886813 
L 164.28624 261.396691 
L 164.669238 208.940003 
L 165.052235 270.477302 
L 165.435233 276.576051 
L 165.81823 245.926787 
L 166.201228 140.995956 
L 166.584225 236.132125 
L 166.967222 275.687602 
L 167.35022 133.429402 
L 167.733217 257.725567 
L 168.499212 276.686525 
L 168.88221 260.134913 
L 169.265208 260.960604 
L 169.648205 281.870137 
L 170.031203 274.852418 
L 170.4142 257.113984 
L 170.797198 281.346416 
L 171.180195 274.3805 
L 171.563193 254.666456 
L 171.94619 272.661471 
L 172.329188 270.255907 
L 172.712185 280.783926 
L 173.095182 275.810347 
L 173.47818 237.664373 
L 173.861177 278.451833 
L 174.244175 264.837043 
L 174.627173 264.656579 
L 175.01017 265.643669 
L 175.393168 240.704595 
L 175.776165 261.411465 
L 176.159163 267.180695 
L 176.54216 213.15786 
L 176.925158 231.752401 
L 177.308155 260.258663 
L 177.691153 279.226721 
L 178.07415 269.531861 
L 178.457148 277.260524 
L 178.840145 203.791085 
L 179.223143 264.415699 
L 179.60614 245.503395 
L 179.989137 276.74334 
L 180.372135 276.288662 
L 180.755133 282.568684 
L 181.13813 254.934791 
L 181.521128 273.288807 
L 181.904125 264.918512 
L 182.287123 259.855227 
L 182.67012 256.648893 
L 183.053118 255.892846 
L 183.436115 265.486885 
L 183.819113 280.37855 
L 184.20211 255.839955 
L 184.585108 248.746331 
L 184.968105 269.880663 
L 185.351103 275.305037 
L 185.7341 277.876646 
L 186.117097 270.578603 
L 186.500095 283.317723 
L 186.883093 281.010204 
L 187.26609 269.665206 
L 187.649088 281.457269 
L 188.032085 262.359675 
L 188.415083 267.858783 
L 188.79808 280.417579 
L 189.181078 262.300245 
L 189.564075 233.081314 
L 189.947073 222.606338 
L 190.33007 259.44666 
L 190.713068 259.565602 
L 191.096065 272.566881 
L 191.479062 268.143046 
L 191.86206 283.511238 
L 192.245058 269.310002 
L 192.628055 283.126041 
L 193.011053 234.583589 
L 193.39405 227.855657 
L 193.777048 272.976376 
L 194.160045 281.830491 
L 194.543043 281.706476 
L 194.92604 206.866282 
L 195.309038 274.347098 
L 195.692035 251.928886 
L 196.075033 243.504867 
L 196.45803 282.547667 
L 196.841028 274.041675 
L 197.224025 276.757419 
L 197.607022 277.577392 
L 197.99002 240.056724 
L 198.373018 265.146258 
L 198.756015 259.986506 
L 199.139013 262.924367 
L 199.52201 280.915962 
L 199.905008 260.978843 
L 200.288005 262.337235 
L 200.671003 248.305789 
L 201.054 281.060265 
L 201.436998 273.317317 
L 201.819995 276.1067 
L 202.202993 276.91699 
L 202.58599 281.599122 
L 202.968987 283.297536 
L 203.351985 278.319648 
L 203.734983 248.836957 
L 204.11798 258.066306 
L 204.500978 245.495917 
L 204.883975 281.670597 
L 205.266973 267.757399 
L 205.64997 266.551041 
L 206.032968 240.479006 
L 206.415965 265.367014 
L 206.798963 268.187662 
L 207.18196 280.705766 
L 207.564958 271.214016 
L 207.947955 219.342606 
L 208.330952 272.770501 
L 208.71395 280.501745 
L 209.096947 275.566519 
L 209.479945 282.466696 
L 209.862943 211.326689 
L 210.24594 284.678941 
L 210.628938 282.28984 
L 211.011935 262.052663 
L 211.394933 282.166966 
L 211.77793 261.364441 
L 212.160928 272.978382 
L 212.543925 280.092263 
L 212.926923 277.796175 
L 213.30992 269.615296 
L 213.692918 285.281441 
L 214.075915 277.235674 
L 214.458912 284.207728 
L 214.84191 221.118204 
L 215.607905 284.088003 
L 216.3739 280.25084 
L 216.756898 274.16912 
L 217.139895 251.735039 
L 217.522893 267.42225 
L 217.90589 240.613375 
L 218.288888 257.552822 
L 218.671885 217.70393 
L 219.054883 260.01375 
L 219.43788 261.385611 
L 219.820877 257.320741 
L 220.203875 277.906432 
L 220.586872 271.257762 
L 220.96987 271.140396 
L 221.352868 264.287094 
L 221.735865 238.541669 
L 222.118863 277.858171 
L 222.50186 282.717024 
L 222.884858 283.502267 
L 223.267855 287.023145 
L 223.650853 272.200876 
L 224.03385 278.899075 
L 224.416848 258.320538 
L 224.799845 255.178447 
L 225.182843 279.072639 
L 225.56584 277.361219 
L 225.948837 281.516428 
L 226.331835 267.348077 
L 226.714832 280.171697 
L 227.09783 273.670915 
L 227.480828 279.131414 
L 227.863825 271.881056 
L 228.246823 251.497087 
L 228.62982 262.477454 
L 229.012818 253.676495 
L 229.395815 271.063943 
L 229.778813 254.701737 
L 230.16181 273.875218 
L 230.544808 283.814236 
L 230.927805 243.950876 
L 231.310802 273.650722 
L 231.6938 260.729901 
L 232.076797 259.656998 
L 232.459795 281.980596 
L 232.842793 269.668702 
L 233.22579 278.01627 
L 233.608788 220.938356 
L 233.991785 276.838021 
L 234.374783 271.607257 
L 234.75778 279.031643 
L 235.140778 270.353184 
L 235.523775 251.353871 
L 235.906773 240.444345 
L 236.28977 263.855372 
L 236.672768 238.735593 
L 237.055765 283.999639 
L 237.438762 224.393102 
L 237.82176 274.842711 
L 238.204757 280.599144 
L 238.587755 272.453128 
L 238.970753 277.27553 
L 239.35375 276.259461 
L 239.736748 237.014341 
L 240.119745 280.546423 
L 240.502743 277.639858 
L 240.88574 275.720659 
L 241.268738 244.255305 
L 241.651735 228.341376 
L 242.034733 278.290751 
L 242.41773 282.240745 
L 242.800727 267.154161 
L 243.183725 263.005811 
L 243.566722 272.936564 
L 243.94972 253.139878 
L 244.715715 270.675477 
L 245.098713 271.234978 
L 245.48171 277.7126 
L 245.864708 242.626474 
L 246.247705 278.239298 
L 246.630703 276.952787 
L 247.0137 282.208529 
L 247.396698 270.328785 
L 247.779695 281.933118 
L 248.162693 283.669649 
L 248.54569 230.246329 
L 249.311685 278.533337 
L 249.694682 283.68223 
L 250.07768 261.450908 
L 250.460678 275.918589 
L 250.843675 283.868367 
L 251.226673 263.182224 
L 251.60967 276.616289 
L 251.992668 284.555554 
L 252.375665 276.567063 
L 252.758663 261.200085 
L 253.14166 259.013035 
L 253.524658 280.325093 
L 253.907655 271.834774 
L 254.290652 257.420182 
L 254.67365 275.922138 
L 255.056647 279.1593 
L 255.439645 201.844085 
L 255.822643 263.120048 
L 256.20564 276.35296 
L 256.588638 283.17497 
L 256.971635 264.241258 
L 257.354632 282.374344 
L 257.73763 278.893275 
L 258.120628 278.629648 
L 258.503625 280.473524 
L 258.886622 279.411735 
L 259.26962 278.898174 
L 259.652618 258.879923 
L 260.035615 280.557919 
L 260.418612 279.510501 
L 260.80161 242.96896 
L 261.184607 285.612878 
L 261.567605 280.633921 
L 261.950603 282.841803 
L 262.3336 271.806228 
L 262.716597 271.89799 
L 263.099595 266.889486 
L 263.482593 253.925149 
L 263.86559 285.219953 
L 264.631585 264.362339 
L 265.39758 276.119362 
L 265.780577 245.459509 
L 266.163575 283.802562 
L 266.546572 279.3533 
L 266.92957 255.136933 
L 267.312568 269.952288 
L 267.695565 269.800088 
L 268.078562 278.67578 
L 268.46156 256.619251 
L 268.844558 275.872207 
L 269.227555 274.495221 
L 269.610552 274.034527 
L 269.99355 262.004309 
L 270.376548 280.178871 
L 270.759545 270.308514 
L 271.142542 284.555912 
L 271.52554 283.765497 
L 272.291535 258.548082 
L 272.674532 278.613639 
L 273.05753 260.287013 
L 273.440527 278.904852 
L 273.823525 265.260125 
L 274.58952 278.745901 
L 275.355515 280.573538 
L 275.738513 267.426219 
L 276.12151 238.307328 
L 276.504507 240.864715 
L 276.887505 270.083089 
L 277.270502 276.962916 
L 277.6535 278.170563 
L 278.036497 275.766833 
L 278.419495 282.961272 
L 278.802492 275.810196 
L 279.18549 274.259965 
L 279.568488 251.933216 
L 280.334482 283.368584 
L 280.71748 270.540289 
L 281.100478 283.713699 
L 281.483475 271.499193 
L 281.866472 282.611898 
L 282.24947 250.085093 
L 282.632468 266.062283 
L 283.015465 252.353501 
L 283.398462 279.319756 
L 283.78146 277.087783 
L 284.164457 279.675524 
L 284.547455 263.325087 
L 284.930453 277.724565 
L 285.31345 281.871863 
L 285.696447 254.85432 
L 286.079445 243.594563 
L 286.462443 273.869396 
L 286.84544 257.653839 
L 287.228437 276.403691 
L 287.611435 280.037315 
L 287.994433 279.966182 
L 288.37743 282.871718 
L 288.760427 276.42276 
L 289.143425 243.980772 
L 289.526422 240.143648 
L 289.90942 271.730047 
L 290.292417 281.222311 
L 290.675415 279.880432 
L 291.058412 277.301601 
L 291.44141 281.209121 
L 291.824408 258.268396 
L 292.207405 267.774969 
L 292.590402 280.98393 
L 292.9734 271.102427 
L 293.356398 283.049584 
L 293.739395 282.896319 
L 294.122392 281.774442 
L 294.50539 278.830289 
L 294.888387 252.380456 
L 295.271385 280.882183 
L 295.654382 275.546158 
L 296.03738 283.890336 
L 296.420377 268.773456 
L 296.803375 280.037388 
L 297.186373 278.877815 
L 297.56937 274.898995 
L 297.952367 277.779682 
L 298.335365 273.236226 
L 298.718363 277.709766 
L 299.10136 267.693166 
L 299.867355 281.476952 
L 300.250352 276.507022 
L 300.63335 237.355201 
L 301.016347 262.217665 
L 301.399345 262.468251 
L 301.782342 268.622552 
L 302.16534 260.52404 
L 302.548338 275.763293 
L 302.931335 244.397599 
L 303.314332 251.881044 
L 303.69733 269.653745 
L 304.463325 280.882325 
L 304.846322 279.695665 
L 305.22932 264.555062 
L 305.612318 260.266979 
L 305.995315 264.606533 
L 306.378312 286.871326 
L 306.76131 282.409924 
L 307.144308 286.045835 
L 307.527305 261.543182 
L 307.910303 277.89922 
L 308.2933 285.065954 
L 308.676297 240.412942 
L 309.059295 284.923102 
L 309.442293 272.153534 
L 309.82529 283.75659 
L 310.208287 284.269881 
L 310.591285 275.295276 
L 310.974283 276.270761 
L 311.35728 270.822702 
L 311.740277 241.485062 
L 312.123275 269.965888 
L 312.506273 285.066139 
L 312.88927 267.232127 
L 313.272267 266.923837 
L 313.655265 259.470021 
L 314.038263 277.875882 
L 314.42126 264.465995 
L 315.187255 287.048455 
L 315.570252 237.356991 
L 316.719245 287.666212 
L 317.102242 226.332862 
L 317.48524 268.691269 
L 317.868238 247.075426 
L 318.251235 272.072156 
L 318.634232 279.87637 
L 319.01723 251.572663 
L 319.400228 239.703885 
L 319.783225 285.206783 
L 320.166223 283.954847 
L 320.54922 260.493335 
L 320.932217 266.090991 
L 321.315215 261.856789 
L 321.698213 283.2803 
L 322.08121 270.683828 
L 322.464207 274.585821 
L 322.847205 250.859168 
L 323.230203 280.438628 
L 323.6132 283.819031 
L 323.996197 273.411438 
L 324.379195 273.483457 
L 324.762193 229.485965 
L 325.14519 282.576975 
L 325.911185 261.533673 
L 326.294182 267.503281 
L 326.67718 276.933664 
L 327.060178 271.377427 
L 327.443175 282.733343 
L 327.826172 246.976669 
L 328.20917 283.753147 
L 328.592168 273.477099 
L 328.975165 283.71558 
L 329.358162 281.575686 
L 329.74116 272.658832 
L 330.124158 278.036017 
L 330.507155 268.98179 
L 330.890152 265.77738 
L 331.27315 277.070013 
L 331.656147 282.58349 
L 332.039145 281.552417 
L 332.422143 247.788151 
L 332.80514 272.017653 
L 333.188137 260.29988 
L 333.571135 287.842013 
L 333.954133 268.710986 
L 334.33713 271.184282 
L 334.720127 268.776658 
L 335.486123 276.725407 
L 335.86912 270.573016 
L 336.252117 282.181012 
L 336.635115 263.445552 
L 337.018113 251.804189 
L 337.40111 280.731598 
L 337.784108 282.736184 
L 338.550102 277.045604 
L 338.9331 278.282011 
L 339.316098 281.971033 
L 339.699095 270.934554 
L 340.46509 282.865901 
L 340.848088 284.470475 
L 341.231085 281.087793 
L 341.614082 274.297351 
L 341.99708 232.008665 
L 342.380078 238.736355 
L 342.763075 274.258317 
L 343.146073 285.242337 
L 343.52907 251.983891 
L 343.912067 279.26267 
L 344.295065 263.292647 
L 345.06106 285.629241 
L 345.444057 284.410666 
L 345.827055 282.687921 
L 346.210053 283.917139 
L 346.59305 270.339534 
L 346.976047 271.527545 
L 347.359045 274.151006 
L 347.742043 267.296456 
L 348.12504 278.623976 
L 348.508038 250.075602 
L 348.891035 274.588746 
L 349.274032 282.734187 
L 349.65703 251.768671 
L 350.040028 286.775146 
L 350.423025 233.478095 
L 350.806022 272.792901 
L 351.18902 281.343106 
L 351.572018 263.207359 
L 351.955015 265.214887 
L 352.338012 274.381669 
L 352.72101 257.239099 
L 353.104008 268.193301 
L 353.487005 255.566184 
L 353.870002 275.861525 
L 354.253 256.041774 
L 354.635997 284.253353 
L 355.018995 279.311 
L 355.401993 259.537626 
L 355.78499 285.660156 
L 356.167987 244.508212 
L 356.550985 275.122414 
L 356.933983 271.769363 
L 357.31698 282.762165 
L 357.699977 268.724542 
L 358.082975 287.134652 
L 358.465973 276.548239 
L 358.84897 283.014019 
L 359.231967 254.273477 
L 359.614965 275.757122 
L 359.997963 279.450176 
L 360.38096 274.835041 
L 360.763958 246.0949 
L 361.529952 278.922921 
L 361.91295 215.693892 
L 362.295948 279.348627 
L 362.678945 282.049843 
L 363.061942 279.883055 
L 363.44494 261.725454 
L 363.827938 271.286946 
L 364.210935 287.629687 
L 364.593932 236.297067 
L 364.97693 279.319616 
L 365.359928 275.631818 
L 365.742925 277.971222 
L 366.125923 259.654867 
L 366.50892 288.067545 
L 366.891917 278.541516 
L 367.274915 275.559732 
L 367.657913 282.579805 
L 368.04091 285.846125 
L 368.423907 275.122933 
L 368.806905 289.092345 
L 369.189903 281.281588 
L 369.5729 285.717886 
L 369.955897 283.293294 
L 370.338895 278.811751 
L 370.721893 286.32036 
L 371.10489 275.481562 
L 371.487887 276.700143 
L 371.870885 281.389719 
L 372.253882 283.362601 
L 372.63688 284.489906 
L 373.019878 255.427337 
L 373.402875 288.80931 
L 373.785872 276.487842 
L 374.551868 268.29188 
L 374.934865 269.38942 
L 375.70086 285.824278 
L 376.083858 280.771169 
L 376.466855 283.413966 
L 376.849852 277.995749 
L 377.23285 268.234051 
L 377.615847 276.487498 
L 378.381843 286.056355 
L 378.76484 278.842387 
L 379.147837 282.016843 
L 379.530835 288.977087 
L 379.913833 280.858385 
L 380.29683 281.196571 
L 380.679827 286.738582 
L 381.062825 267.548751 
L 381.445823 273.898902 
L 381.82882 278.377384 
L 382.211817 276.942508 
L 382.594815 286.147235 
L 382.977813 284.568156 
L 383.36081 262.481165 
L 383.743808 286.806414 
L 384.126805 278.174844 
L 384.509802 249.214633 
L 384.8928 284.194603 
L 385.275798 276.000625 
L 385.658795 278.831583 
L 386.041792 263.609788 
L 386.42479 233.652851 
L 386.807788 283.581832 
L 387.190785 287.333024 
L 387.573782 261.647979 
L 387.95678 284.247748 
L 388.339778 283.337204 
L 388.722775 272.914572 
L 389.105773 245.816489 
L 389.48877 274.00143 
L 389.871767 268.437056 
L 390.254765 279.80637 
L 390.637763 280.668303 
L 391.02076 260.682718 
L 391.403757 254.038279 
L 391.786755 278.038331 
L 392.169753 283.575106 
L 392.55275 287.207227 
L 392.935747 268.993029 
L 393.318745 273.403326 
L 393.701743 273.074509 
L 394.467737 255.719847 
L 394.850735 284.516978 
L 395.233732 285.690439 
L 395.61673 268.145803 
L 395.999728 286.954778 
L 396.382725 264.1877 
L 396.765722 289.447582 
L 397.14872 273.193143 
L 397.531718 281.70469 
L 397.914715 279.165966 
L 398.297712 260.176806 
L 398.68071 282.876587 
L 399.063708 279.853444 
L 399.446705 284.485279 
L 399.829702 287.163329 
L 400.2127 287.998346 
L 400.595697 277.22311 
L 400.978695 272.297595 
L 401.361693 287.14381 
L 401.74469 282.718641 
L 402.127687 274.634168 
L 402.510685 278.067374 
L 402.893683 284.625572 
L 403.27668 278.803915 
L 403.659677 277.591834 
L 404.042675 287.330434 
L 404.425673 212.635207 
L 404.80867 253.690038 
L 405.191667 281.236647 
L 405.574665 268.799865 
L 405.957663 273.348248 
L 406.34066 287.34012 
L 406.723658 280.726052 
L 407.106655 246.829712 
L 407.489652 284.388837 
L 407.87265 276.650825 
L 408.255648 288.542181 
L 408.638645 277.049203 
L 409.021642 280.960037 
L 409.40464 255.19013 
L 409.787638 287.232996 
L 410.170635 280.082662 
L 410.553632 277.891734 
L 410.93663 277.634017 
L 411.319628 285.95703 
L 411.702625 276.816965 
L 412.085622 277.887272 
L 412.46862 265.283637 
L 412.851617 276.955247 
L 413.234615 263.629068 
L 413.617613 288.092232 
L 414.00061 284.926111 
L 414.383607 286.366872 
L 414.766605 273.772404 
L 415.149603 277.539254 
L 415.5326 287.969498 
L 415.915597 279.817233 
L 416.298595 284.567295 
L 416.681593 280.997361 
L 417.06459 223.620581 
L 417.447587 277.405128 
L 417.830585 275.95738 
L 418.213582 281.241051 
L 418.59658 272.584805 
L 418.979578 269.931165 
L 419.362575 286.519245 
L 419.745572 283.555055 
L 420.12857 245.667466 
L 420.894565 285.124138 
L 421.277562 256.602665 
L 421.66056 278.475963 
L 422.043558 282.680598 
L 422.426555 285.571135 
L 423.19255 281.310356 
L 423.575547 282.265904 
L 423.958545 286.11525 
L 424.341543 288.212031 
L 424.72454 280.585483 
L 425.107537 289.04962 
L 425.490535 289.90999 
L 425.873533 269.541323 
L 426.639527 289.982423 
L 427.022525 284.061878 
L 427.405523 284.379677 
L 427.78852 285.574273 
L 428.171517 280.404322 
L 428.554515 283.612421 
L 428.937513 265.156994 
L 429.32051 279.474297 
L 429.703508 258.287341 
L 430.086505 285.517738 
L 430.469502 289.466365 
L 430.469502 289.466365 
" clip-path="url(#p15dacd7000)" style="fill: none; stroke: #1f77b4; stroke-opacity: 0.7; stroke-width: 1.5; stroke-linecap: square"/>
   </g>
   <g id="line2d_32">
    <path d="M 48.234283 -1 
L 48.237998 105.099484 
L 48.620995 81.249395 
L 48.955597 -1 
M 49.041982 -1 
L 49.38699 107.03797 
L 49.769988 126.05988 
L 50.152985 128.516421 
L 50.535983 111.842077 
L 50.91898 128.342996 
L 51.301978 132.673798 
L 51.684975 121.718608 
L 52.45097 176.23671 
L 52.833968 121.750187 
L 53.216965 127.945298 
L 53.599963 184.770811 
L 53.98296 139.338615 
L 54.365958 190.747349 
L 54.748955 149.274688 
L 55.131953 129.343964 
L 55.51495 137.491577 
L 55.897948 157.946779 
L 56.663943 132.308368 
L 57.04694 176.774378 
L 57.429938 164.546071 
L 57.812935 166.06878 
L 58.195933 128.711508 
L 58.57893 165.407775 
L 58.961928 156.902179 
L 59.344925 160.148236 
L 59.727923 204.925127 
L 60.11092 169.411407 
L 60.493918 209.229844 
L 60.876915 153.247069 
L 61.259913 164.189827 
L 61.64291 151.251847 
L 62.408905 173.222372 
L 62.791903 157.681148 
L 63.1749 177.936331 
L 63.940895 153.626773 
L 64.323893 160.313311 
L 64.70689 163.145468 
L 65.089888 141.938811 
L 65.472885 149.273173 
L 65.855883 147.407694 
L 66.23888 161.659848 
L 66.621878 187.632222 
L 67.004875 171.982539 
L 67.387873 164.214389 
L 67.77087 210.235737 
L 68.153868 178.107492 
L 68.536865 180.763546 
L 68.919863 198.212297 
L 69.30286 117.646877 
L 69.685858 192.807459 
L 70.068855 148.603955 
L 70.451853 211.655074 
L 70.83485 171.954498 
L 71.217848 198.065379 
L 71.600845 213.782 
L 71.983843 165.909146 
L 72.36684 157.852886 
L 72.749838 176.710152 
L 73.132835 219.568453 
L 73.515833 178.005584 
L 73.89883 172.959272 
L 74.281828 193.541866 
L 74.664825 174.82915 
L 75.43082 165.19875 
L 75.813818 178.221083 
L 76.196815 218.437442 
L 76.579813 144.342423 
L 76.96281 150.190821 
L 77.345808 180.446552 
L 77.728805 220.861526 
L 78.111803 186.976762 
L 78.4948 175.909643 
L 78.877798 195.239102 
L 79.260795 176.602338 
L 79.643793 187.180656 
L 80.02679 225.657334 
L 80.409788 156.677563 
L 80.792785 163.843854 
L 81.175783 195.329225 
L 81.55878 163.657867 
L 81.941778 212.084608 
L 82.324775 202.386246 
L 82.707773 224.871856 
L 83.473768 169.6449 
L 83.856765 212.813704 
L 84.239763 209.297444 
L 84.62276 85.858794 
L 85.005758 199.141937 
L 85.388755 223.190392 
L 85.771753 180.18575 
L 86.15475 172.227499 
L 86.537748 192.342135 
L 86.920745 229.611144 
L 87.303742 197.521754 
L 87.68674 210.71858 
L 88.069738 217.256892 
L 88.452735 165.027976 
L 88.835733 229.68273 
L 89.21873 230.547921 
L 89.601728 191.709662 
L 89.984725 212.886168 
L 90.367723 186.133482 
L 90.75072 226.636882 
L 91.133718 234.069364 
L 91.516715 209.091406 
L 91.899713 236.583192 
L 92.28271 203.132448 
L 92.665708 205.07802 
L 93.048705 238.272306 
L 93.431703 244.201381 
L 93.8147 196.279312 
L 94.197698 209.251539 
L 94.580695 208.682439 
L 94.963693 204.930284 
L 95.34669 237.608998 
L 95.729688 241.10024 
L 96.112685 238.11086 
L 96.495683 213.44653 
L 96.87868 207.973067 
L 97.261678 238.225475 
L 97.644675 230.466676 
L 98.027673 243.132804 
L 98.41067 228.549937 
L 98.793667 202.435733 
L 99.176665 205.841768 
L 99.559663 207.176303 
L 99.94266 152.034966 
L 100.325658 245.622965 
L 100.708655 193.064265 
L 101.091653 234.496949 
L 101.47465 163.097385 
L 101.857648 215.13644 
L 102.240645 246.767842 
L 102.623643 185.842453 
L 103.00664 245.105443 
L 103.389638 216.774918 
L 103.772635 239.276718 
L 104.155633 240.734138 
L 104.53863 194.839993 
L 104.921627 234.803457 
L 105.304625 248.425802 
L 105.687623 227.099029 
L 106.07062 234.156241 
L 106.453618 252.059777 
L 106.836615 225.323534 
L 107.60261 238.454112 
L 107.985608 218.006805 
L 108.368605 247.706655 
L 108.751603 246.028966 
L 109.1346 201.655567 
L 109.517598 199.636274 
L 109.900595 198.763248 
L 110.283592 222.709684 
L 110.66659 235.020739 
L 111.049588 154.543663 
L 111.432585 226.658647 
L 111.815583 198.288894 
L 112.19858 212.049517 
L 112.581578 242.350641 
L 112.964575 247.068607 
L 113.347573 238.118819 
L 113.73057 244.153177 
L 114.113568 256.005068 
L 114.496565 219.829065 
L 114.879563 250.608448 
L 115.26256 244.868024 
L 115.645557 253.376039 
L 116.028555 219.06549 
L 116.411552 230.634255 
L 116.79455 221.764418 
L 117.177548 254.527997 
L 117.560545 225.906134 
L 117.943543 223.819207 
L 118.32654 251.832208 
L 118.709538 256.546619 
L 119.092535 243.361053 
L 119.475533 225.217227 
L 119.85853 244.771445 
L 120.241528 253.747535 
L 120.624525 232.071242 
L 121.007522 256.794175 
L 121.39052 255.005744 
L 122.156515 242.1536 
L 122.539513 228.56217 
L 122.92251 242.177559 
L 124.071503 215.364156 
L 124.4545 224.526865 
L 124.837498 199.513901 
L 125.220495 234.276715 
L 125.603493 235.135944 
L 125.98649 177.081256 
L 126.369488 244.198815 
L 126.752485 243.413914 
L 127.135482 256.717543 
L 127.51848 225.189884 
L 127.901477 210.834539 
L 128.284475 235.318142 
L 128.667473 251.726895 
L 129.05047 258.526081 
L 129.433468 249.144244 
L 129.816465 230.477084 
L 130.199463 237.75106 
L 130.58246 255.43973 
L 130.965458 252.400865 
L 131.731453 207.605184 
L 132.11445 241.517252 
L 132.497447 256.90028 
L 132.880445 253.491391 
L 133.263442 204.698815 
L 133.64644 216.691279 
L 134.029438 258.900538 
L 134.412435 229.593848 
L 134.795433 240.789801 
L 135.17843 240.556674 
L 135.561428 229.846169 
L 135.944425 249.526596 
L 136.327423 240.59196 
L 136.71042 192.155683 
L 137.093418 235.218193 
L 137.476415 247.688055 
L 137.859413 264.510729 
L 138.625407 244.5926 
L 139.391402 265.085296 
L 139.7744 252.789845 
L 140.157398 263.541994 
L 140.540395 256.164121 
L 140.923393 220.395695 
L 141.30639 256.581314 
L 141.689388 227.60857 
L 142.072385 266.751647 
L 142.455383 235.139848 
L 142.83838 256.968935 
L 143.221378 250.474462 
L 143.604375 269.575119 
L 143.987372 254.486979 
L 144.37037 187.372626 
L 144.753367 265.768276 
L 145.136365 258.261707 
L 145.519362 237.605262 
L 145.90236 267.17525 
L 146.285358 246.729061 
L 146.668355 254.193105 
L 147.051353 221.941192 
L 147.43435 245.360609 
L 147.817348 255.456635 
L 148.200345 249.43504 
L 148.583343 264.497742 
L 148.96634 258.133884 
L 149.349338 259.085332 
L 149.732335 233.487828 
L 150.115332 257.074989 
L 150.49833 265.356239 
L 150.881327 261.660303 
L 151.264325 265.227862 
L 151.647323 265.835282 
L 152.03032 261.420724 
L 152.413318 231.018187 
L 152.796315 263.707241 
L 153.179313 255.348351 
L 153.56231 174.205794 
L 153.945308 255.834277 
L 154.328305 242.407574 
L 154.711303 259.026126 
L 155.0943 264.041548 
L 155.477297 233.344931 
L 155.860295 255.108979 
L 156.243292 248.828265 
L 156.62629 236.877428 
L 157.009287 272.365649 
L 157.392285 244.633425 
L 157.775283 265.677133 
L 158.15828 221.435112 
L 158.541278 268.223965 
L 158.924275 257.194253 
L 159.307273 274.985292 
L 159.69027 241.565331 
L 160.073268 263.246411 
L 160.456265 154.330686 
L 160.839263 257.123554 
L 161.22226 268.732428 
L 161.605257 263.797681 
L 161.988255 225.9217 
L 162.371252 270.309074 
L 163.137248 253.825191 
L 163.520245 276.895912 
L 163.903243 263.591928 
L 164.28624 258.140918 
L 164.669238 211.41787 
L 165.052235 268.530772 
L 165.435233 268.145911 
L 165.81823 240.398405 
L 166.201228 156.39492 
L 166.584225 240.190048 
L 166.967222 266.783936 
L 167.35022 143.851866 
L 167.733217 251.261971 
L 168.499212 270.827033 
L 168.88221 240.158495 
L 169.265208 265.593417 
L 169.648205 269.218565 
L 170.031203 275.606059 
L 170.4142 239.102354 
L 170.797198 265.398201 
L 171.180195 268.155401 
L 171.563193 255.831931 
L 171.94619 263.572643 
L 172.329188 262.178204 
L 172.712185 276.44339 
L 173.095182 274.767514 
L 173.47818 244.069719 
L 173.861177 260.880456 
L 174.244175 260.236946 
L 174.627173 270.733116 
L 175.01017 263.159483 
L 175.393168 237.465378 
L 176.159163 270.349152 
L 176.54216 216.775124 
L 176.925158 249.066678 
L 177.691153 276.92686 
L 178.07415 257.309708 
L 178.457148 274.45511 
L 178.840145 206.788403 
L 179.223143 270.377998 
L 179.60614 243.230136 
L 179.989137 274.55925 
L 180.372135 274.773917 
L 180.755133 277.757128 
L 181.13813 245.424663 
L 181.521128 272.580232 
L 181.904125 263.270629 
L 182.287123 270.539601 
L 182.67012 251.136504 
L 183.053118 264.796067 
L 183.436115 262.811654 
L 183.819113 269.715758 
L 184.20211 248.822015 
L 184.585108 240.961316 
L 185.351103 277.462018 
L 185.7341 270.060961 
L 186.117097 276.712289 
L 186.500095 273.465719 
L 186.883093 268.250802 
L 187.26609 270.415866 
L 187.649088 281.157018 
L 188.032085 260.896599 
L 188.415083 265.526191 
L 188.79808 281.625852 
L 189.564075 234.232166 
L 189.947073 224.319165 
L 190.33007 243.795323 
L 190.713068 254.439266 
L 191.096065 269.756659 
L 191.479062 270.775022 
L 191.86206 280.347127 
L 192.245058 254.895873 
L 192.628055 280.56082 
L 193.011053 221.832 
L 194.160045 277.372574 
L 194.543043 280.139589 
L 194.92604 226.022549 
L 195.309038 267.606369 
L 195.692035 248.120237 
L 196.075033 247.521663 
L 196.45803 275.82043 
L 196.841028 268.603588 
L 197.224025 265.420051 
L 197.607022 275.601279 
L 197.99002 230.830771 
L 198.373018 257.633779 
L 198.756015 251.084116 
L 199.139013 258.043668 
L 199.52201 284.564913 
L 199.905008 261.704314 
L 200.288005 267.005629 
L 200.671003 247.120371 
L 201.054 279.328414 
L 201.436998 258.489995 
L 201.819995 277.402565 
L 202.202993 269.716178 
L 202.58599 278.93 
L 202.968987 271.059927 
L 203.351985 282.38604 
L 203.734983 247.295346 
L 204.11798 263.188096 
L 204.500978 245.960316 
L 204.883975 282.024805 
L 205.266973 257.103657 
L 205.64997 269.555393 
L 206.032968 221.632773 
L 206.415965 264.68452 
L 206.798963 262.545339 
L 207.18196 279.912439 
L 207.564958 266.49286 
L 207.947955 227.16279 
L 208.330952 253.391592 
L 208.71395 270.938183 
L 209.096947 277.415377 
L 209.479945 271.628457 
L 209.862943 198.021067 
L 210.24594 281.761251 
L 210.628938 279.768653 
L 211.011935 265.995191 
L 211.394933 274.941708 
L 211.77793 262.847934 
L 212.160928 263.140439 
L 212.543925 278.922094 
L 212.926923 279.729502 
L 213.30992 260.598127 
L 213.692918 282.482819 
L 214.075915 281.272367 
L 214.458912 284.085547 
L 214.84191 222.968402 
L 215.224908 238.312003 
L 215.607905 271.923997 
L 215.990903 280.67473 
L 216.3739 278.555786 
L 217.139895 248.369549 
L 217.522893 265.296293 
L 217.90589 234.442323 
L 218.288888 266.470166 
L 218.671885 230.265149 
L 219.054883 241.408259 
L 219.43788 268.526177 
L 219.820877 246.248185 
L 220.203875 269.653457 
L 220.586872 270.271555 
L 220.96987 271.704565 
L 221.352868 259.526787 
L 221.735865 239.511631 
L 222.118863 282.728961 
L 222.50186 281.516264 
L 222.884858 271.110858 
L 223.267855 281.632886 
L 223.650853 265.81239 
L 224.03385 275.28835 
L 224.416848 253.959332 
L 224.799845 262.745591 
L 225.182843 281.023916 
L 225.56584 276.713012 
L 225.948837 281.542491 
L 226.331835 254.013536 
L 226.714832 276.939131 
L 227.09783 269.5059 
L 227.480828 279.629225 
L 227.863825 278.428552 
L 228.246823 243.723728 
L 228.62982 260.622935 
L 229.012818 266.138316 
L 229.395815 260.176861 
L 229.778813 262.343692 
L 230.16181 256.114889 
L 230.544808 268.83233 
L 230.927805 255.331873 
L 231.310802 266.315327 
L 231.6938 254.675544 
L 232.076797 258.963502 
L 232.459795 266.857171 
L 232.842793 264.155187 
L 233.22579 277.050272 
L 233.608788 240.458511 
L 233.991785 268.438793 
L 234.374783 267.257791 
L 234.75778 281.934151 
L 235.140778 259.267096 
L 235.523775 256.446859 
L 235.906773 250.146314 
L 236.28977 271.198563 
L 236.672768 237.784292 
L 237.055765 281.930094 
L 237.438762 218.815966 
L 237.82176 279.498868 
L 238.204757 266.490066 
L 238.587755 261.62612 
L 238.970753 273.456051 
L 239.35375 265.011407 
L 239.736748 236.858281 
L 240.119745 271.930224 
L 240.502743 266.623058 
L 240.88574 272.722335 
L 241.268738 252.531769 
L 241.651735 216.107964 
L 242.034733 273.374665 
L 242.41773 281.397622 
L 242.800727 263.417271 
L 243.183725 259.879182 
L 243.566722 270.038322 
L 243.94972 247.053037 
L 244.332718 266.352253 
L 244.715715 271.17631 
L 245.098713 268.02754 
L 245.48171 277.062773 
L 245.864708 244.771428 
L 246.247705 284.326887 
L 246.630703 270.744995 
L 247.0137 284.419353 
L 247.396698 276.817456 
L 247.779695 282.022444 
L 248.162693 284.111132 
L 248.54569 218.593037 
L 248.928687 256.043319 
L 249.311685 269.826316 
L 249.694682 275.209254 
L 250.07768 261.210498 
L 250.460678 274.557105 
L 250.843675 273.925262 
L 251.226673 258.9672 
L 251.60967 279.631094 
L 251.992668 275.768239 
L 252.375665 274.64417 
L 252.758663 264.916847 
L 253.14166 248.712272 
L 253.524658 274.893478 
L 253.907655 272.255431 
L 254.290652 258.348742 
L 255.056647 280.398799 
L 255.439645 217.73723 
L 255.822643 256.910564 
L 256.20564 266.500169 
L 256.588638 268.511912 
L 256.971635 263.831004 
L 257.73763 279.933099 
L 258.120628 271.178176 
L 258.503625 279.722443 
L 258.886622 278.678484 
L 259.26962 270.177203 
L 259.652618 258.524191 
L 260.035615 278.264364 
L 260.418612 278.150796 
L 260.80161 229.014167 
L 261.184607 274.918833 
L 261.567605 267.359084 
L 261.950603 281.538018 
L 262.3336 268.22403 
L 262.716597 269.212039 
L 263.099595 263.446456 
L 263.482593 260.446156 
L 263.86559 281.117884 
L 264.248587 276.920603 
L 264.631585 279.747642 
L 265.014583 262.351393 
L 265.39758 273.495667 
L 265.780577 253.923083 
L 266.163575 273.849496 
L 266.546572 284.343017 
L 266.92957 254.347211 
L 267.312568 273.291549 
L 267.695565 264.039831 
L 268.078562 277.574807 
L 268.46156 259.817217 
L 268.844558 275.580965 
L 269.227555 271.63785 
L 269.99355 250.811442 
L 270.376548 280.285671 
L 270.759545 267.169968 
L 271.142542 282.458057 
L 271.52554 273.085655 
L 271.908537 271.842097 
L 272.291535 267.806388 
L 272.674532 281.888109 
L 273.05753 258.813498 
L 273.440527 265.75231 
L 273.823525 261.411465 
L 274.206523 265.079282 
L 274.58952 275.500556 
L 274.972517 274.230875 
L 275.355515 279.525839 
L 275.738513 272.192331 
L 276.12151 232.555489 
L 276.504507 234.933953 
L 277.270502 284.006441 
L 277.6535 274.898594 
L 278.036497 278.14896 
L 278.419495 276.396282 
L 278.802492 268.013905 
L 279.18549 277.456853 
L 279.568488 244.478359 
L 279.951485 279.168105 
L 280.334482 282.042387 
L 280.71748 272.378023 
L 281.100478 279.983048 
L 281.483475 262.659205 
L 281.866472 281.986719 
L 282.24947 261.836208 
L 282.632468 269.537851 
L 283.015465 259.013677 
L 283.398462 278.994886 
L 283.78146 269.451057 
L 284.164457 268.440799 
L 284.547455 253.522686 
L 284.930453 279.913668 
L 285.31345 283.18472 
L 285.696447 243.256536 
L 286.079445 261.638367 
L 286.462443 262.150542 
L 286.84544 246.879913 
L 287.228437 274.714355 
L 287.611435 275.574923 
L 287.994433 277.926331 
L 288.760427 268.578451 
L 289.526422 238.40395 
L 290.292417 280.124938 
L 290.675415 281.604452 
L 291.058412 274.11458 
L 291.44141 282.556876 
L 291.824408 263.512619 
L 292.207405 262.782856 
L 292.9734 279.488141 
L 293.356398 271.240399 
L 293.739395 278.455382 
L 294.122392 282.024998 
L 294.50539 269.340545 
L 294.888387 264.499644 
L 295.654382 277.376345 
L 296.03738 280.515217 
L 296.420377 263.758905 
L 296.803375 277.16805 
L 297.186373 270.52733 
L 297.56937 278.402257 
L 297.952367 277.938 
L 298.335365 265.20518 
L 298.718363 275.791578 
L 299.10136 272.533528 
L 299.484357 277.663444 
L 299.867355 270.779518 
L 300.250352 277.994703 
L 300.63335 239.696825 
L 301.016347 262.676467 
L 301.399345 262.587279 
L 301.782342 274.966849 
L 302.16534 253.767728 
L 302.548338 280.787907 
L 302.931335 257.666438 
L 303.314332 260.962666 
L 303.69733 268.045185 
L 304.080328 271.452302 
L 304.463325 283.040011 
L 304.846322 282.11639 
L 305.22932 256.996898 
L 305.612318 261.23819 
L 306.378312 277.637936 
L 306.76131 279.241654 
L 307.144308 278.040483 
L 307.527305 260.176616 
L 307.910303 281.347675 
L 308.2933 281.477155 
L 308.676297 253.047311 
L 309.059295 275.334334 
L 309.442293 263.788534 
L 309.82529 281.621309 
L 310.208287 284.066865 
L 310.591285 276.859796 
L 310.974283 281.323085 
L 311.740277 251.196002 
L 312.123275 280.055076 
L 312.88927 272.967803 
L 313.272267 255.921175 
L 314.038263 279.50681 
L 314.42126 261.33925 
L 314.804258 276.743596 
L 315.187255 285.651732 
L 315.570252 242.630477 
L 315.95325 258.9715 
L 316.336248 264.686591 
L 316.719245 286.209481 
L 317.102242 218.693611 
L 317.48524 279.604162 
L 317.868238 247.121318 
L 318.251235 268.360739 
L 318.634232 271.709481 
L 319.400228 239.960636 
L 319.783225 283.710307 
L 320.166223 283.847685 
L 320.54922 269.722353 
L 320.932217 260.57267 
L 321.315215 260.732635 
L 321.698213 280.009793 
L 322.08121 264.59541 
L 322.464207 278.942834 
L 322.847205 234.359906 
L 323.230203 268.558535 
L 323.6132 282.695387 
L 323.996197 267.089949 
L 324.379195 267.260731 
L 324.762193 237.989068 
L 325.14519 281.134044 
L 325.528188 267.899582 
L 325.911185 263.315703 
L 326.294182 263.816338 
L 326.67718 279.95437 
L 327.060178 263.826036 
L 327.443175 278.835618 
L 327.826172 249.975239 
L 328.20917 276.005683 
L 328.592168 270.200287 
L 328.975165 283.197918 
L 329.358162 274.955693 
L 329.74116 278.389681 
L 330.124158 267.380009 
L 330.507155 262.823092 
L 330.890152 254.321383 
L 331.27315 272.750872 
L 331.656147 280.764354 
L 332.039145 272.933411 
L 332.422143 250.856706 
L 332.80514 266.604703 
L 333.188137 258.116666 
L 333.571135 281.516471 
L 333.954133 269.848862 
L 334.33713 263.874674 
L 334.720127 267.773189 
L 335.103125 269.65189 
L 335.486123 272.23018 
L 335.86912 278.344682 
L 336.252117 280.543845 
L 336.635115 256.646095 
L 337.018113 257.602334 
L 337.40111 282.584596 
L 337.784108 282.151607 
L 338.167105 279.133853 
L 338.550102 267.069902 
L 338.9331 280.734831 
L 339.316098 275.671033 
L 339.699095 267.448461 
L 340.082092 268.976747 
L 340.46509 279.613735 
L 340.848088 282.28201 
L 341.231085 280.845684 
L 341.614082 273.412406 
L 341.99708 218.232609 
L 342.763075 269.957576 
L 343.146073 279.589515 
L 343.52907 258.989248 
L 343.912067 279.052265 
L 344.295065 265.65954 
L 344.678063 268.459487 
L 345.06106 284.474814 
L 345.444057 281.522239 
L 345.827055 284.243786 
L 346.210053 281.553231 
L 346.59305 277.84301 
L 346.976047 263.189396 
L 347.359045 269.714503 
L 347.742043 270.740025 
L 348.12504 281.069145 
L 348.508038 245.337334 
L 348.891035 269.358431 
L 349.274032 277.523174 
L 349.65703 253.714372 
L 350.040028 284.899474 
L 350.423025 236.528859 
L 350.806022 269.11597 
L 351.18902 272.518275 
L 351.572018 257.423045 
L 351.955015 267.606029 
L 352.338012 269.716892 
L 352.72101 267.457402 
L 353.104008 266.02531 
L 353.487005 252.906893 
L 353.870002 271.027093 
L 354.253 253.201189 
L 354.635997 284.101545 
L 355.018995 273.973276 
L 355.401993 271.186979 
L 355.78499 278.096222 
L 356.167987 243.025816 
L 356.550985 270.682683 
L 356.933983 263.404516 
L 357.31698 281.253595 
L 357.699977 265.534736 
L 358.082975 285.934867 
L 358.465973 265.732577 
L 358.84897 278.156181 
L 359.231967 251.779015 
L 359.614965 269.751906 
L 359.997963 281.167956 
L 360.38096 274.792218 
L 360.763958 257.530524 
L 361.529952 282.042598 
L 361.91295 220.900965 
L 362.295948 273.799295 
L 362.678945 284.799363 
L 363.061942 273.756868 
L 363.44494 266.799854 
L 363.827938 273.379331 
L 364.210935 283.014695 
L 364.593932 236.177927 
L 364.97693 280.795281 
L 365.359928 274.410426 
L 365.742925 272.543268 
L 366.125923 254.784326 
L 366.50892 286.052108 
L 367.274915 269.509744 
L 367.657913 281.064201 
L 368.04091 279.353112 
L 368.423907 275.536369 
L 368.806905 279.606869 
L 369.189903 275.245344 
L 369.5729 285.999628 
L 369.955897 278.236782 
L 370.338895 276.956306 
L 370.721893 286.672113 
L 371.10489 274.38613 
L 371.487887 277.62086 
L 371.870885 278.845792 
L 372.253882 278.505988 
L 372.63688 287.105904 
L 373.019878 253.226216 
L 373.402875 278.445744 
L 374.16887 267.636495 
L 374.551868 271.080747 
L 374.934865 270.870333 
L 375.70086 287.155766 
L 376.083858 276.405163 
L 376.466855 279.006642 
L 376.849852 280.47237 
L 377.23285 275.805616 
L 378.381843 285.066626 
L 378.76484 280.058696 
L 379.147837 281.153979 
L 379.530835 284.992831 
L 379.913833 274.706319 
L 380.29683 281.446527 
L 380.679827 281.332185 
L 381.062825 264.786635 
L 381.445823 260.23893 
L 381.82882 282.664871 
L 382.211817 278.460948 
L 382.594815 280.003103 
L 382.977813 274.378604 
L 383.36081 255.438783 
L 383.743808 287.725909 
L 384.126805 281.317448 
L 384.509802 255.072312 
L 384.8928 282.41842 
L 386.041792 267.094322 
L 386.42479 240.894904 
L 386.807788 275.661955 
L 387.190785 282.983286 
L 387.573782 264.56588 
L 387.95678 283.26066 
L 388.339778 278.955656 
L 388.722775 260.778643 
L 389.105773 233.432591 
L 389.48877 281.897165 
L 389.871767 271.059684 
L 390.254765 280.7132 
L 390.637763 278.355736 
L 391.02076 269.545972 
L 391.403757 249.721329 
L 391.786755 277.059387 
L 392.169753 278.517757 
L 392.55275 281.480372 
L 392.935747 272.930021 
L 393.318745 277.471639 
L 394.08474 257.934489 
L 394.467737 258.94327 
L 394.850735 286.174595 
L 395.233732 283.177411 
L 395.61673 262.461704 
L 395.999728 281.29806 
L 396.382725 272.695685 
L 396.765722 280.164868 
L 397.14872 256.363224 
L 397.531718 276.318431 
L 397.914715 279.946441 
L 398.297712 259.213985 
L 398.68071 279.027759 
L 399.063708 281.54361 
L 399.446705 278.387358 
L 399.829702 283.155207 
L 400.2127 283.869622 
L 400.595697 274.295238 
L 400.978695 272.064281 
L 401.361693 288.95788 
L 401.74469 280.51984 
L 402.127687 276.600297 
L 402.510685 276.41434 
L 402.893683 285.24362 
L 403.27668 273.261328 
L 403.659677 273.497382 
L 404.042675 284.26354 
L 404.425673 232.654134 
L 404.80867 268.823252 
L 405.191667 274.78108 
L 405.574665 269.354409 
L 405.957663 271.520042 
L 406.34066 285.175475 
L 406.723658 281.106574 
L 407.106655 258.608162 
L 407.489652 277.774325 
L 407.87265 278.077856 
L 408.255648 283.761334 
L 408.638645 274.805274 
L 409.021642 282.265282 
L 409.40464 269.635067 
L 409.787638 284.698129 
L 410.170635 284.066882 
L 410.553632 275.004962 
L 410.93663 268.744098 
L 411.319628 282.885986 
L 411.702625 281.586329 
L 412.085622 274.416825 
L 412.46862 263.713934 
L 412.851617 274.172004 
L 413.234615 263.009044 
L 413.617613 284.358516 
L 414.00061 282.4197 
L 414.383607 281.117766 
L 414.766605 262.061673 
L 415.149603 279.232808 
L 415.5326 282.090408 
L 415.915597 280.233654 
L 416.681593 269.764097 
L 417.06459 240.743866 
L 417.447587 281.14379 
L 417.830585 269.442807 
L 418.213582 276.130102 
L 418.59658 270.679805 
L 418.979578 267.164182 
L 419.362575 286.565841 
L 419.745572 276.889718 
L 420.12857 257.164921 
L 420.511568 256.914361 
L 420.894565 281.257966 
L 421.277562 258.834853 
L 421.66056 273.074347 
L 422.043558 281.099663 
L 422.426555 280.705568 
L 422.809552 286.587241 
L 423.19255 279.467721 
L 423.575547 284.016711 
L 423.958545 285.3596 
L 424.341543 283.288281 
L 424.72454 279.277557 
L 425.107537 283.92835 
L 425.490535 282.798473 
L 425.873533 272.941842 
L 426.25653 270.10852 
L 426.639527 282.826242 
L 427.022525 280.599205 
L 427.78852 286.02216 
L 428.171517 272.0167 
L 428.554515 278.01551 
L 428.937513 263.311622 
L 429.32051 267.265802 
L 429.703508 255.72698 
L 430.469502 289.738016 
L 430.469502 289.738016 
" clip-path="url(#p15dacd7000)" style="fill: none; stroke: #ff7f0e; stroke-opacity: 0.7; stroke-width: 1.5; stroke-linecap: square"/>
   </g>
   <g id="patch_3">
    <path d="M 47.855 303.64 
L 47.855 14.76 
" style="fill: none; stroke: #000000; stroke-width: 0.8; stroke-linejoin: miter; stroke-linecap: square"/>
   </g>
   <g id="patch_4">
    <path d="M 430.8525 303.64 
L 430.8525 14.76 
" style="fill: none; stroke: #000000; stroke-width: 0.8; stroke-linejoin: miter; stroke-linecap: square"/>
   </g>
   <g id="patch_5">
    <path d="M 47.855 303.64 
L 430.8525 303.64 
" style="fill: none; stroke: #000000; stroke-width: 0.8; stroke-linejoin: miter; stroke-linecap: square"/>
   </g>
   <g id="patch_6">
    <path d="M 47.855 14.76 
L 430.8525 14.76 
" style="fill: none; stroke: #000000; stroke-width: 0.8; stroke-linejoin: miter; stroke-linecap: square"/>
   </g>
   <g id="legend_1">
    <g id="patch_7">
     <path d="M 343.391562 52.11625 
L 423.8525 52.11625 
Q 425.8525 52.11625 425.8525 50.11625 
L 425.8525 21.76 
Q 425.8525 19.76 423.8525 19.76 
L 343.391562 19.76 
Q 341.391562 19.76 341.391562 21.76 
L 341.391562 50.11625 
Q 341.391562 52.11625 343.391562 52.11625 
z
" style="fill: #ffffff; opacity: 0.8; stroke: #cccccc; stroke-linejoin: miter"/>
    </g>
    <g id="line2d_33">
     <path d="M 345.391562 27.858437 
L 355.391562 27.858437 
L 365.391562 27.858437 
" style="fill: none; stroke: #1f77b4; stroke-opacity: 0.7; stroke-width: 1.5; stroke-linecap: square"/>
    </g>
    <g id="text_18">
     <!-- Train MSE -->
     <g transform="translate(373.391562 31.358437) scale(0.1 -0.1)">
      <defs>
       <path id="DejaVuSans-54" d="M -19 4666 
L 3928 4666 
L 3928 4134 
L 2272 4134 
L 2272 0 
L 1638 0 
L 1638 4134 
L -19 4134 
L -19 4666 
z
" transform="scale(0.015625)"/>
       <path id="DejaVuSans-72" d="M 2631 2963 
Q 2534 3019 2420 3045 
Q 2306 3072 2169 3072 
Q 1681 3072 1420 2755 
Q 1159 2438 1159 1844 
L 1159 0 
L 581 0 
L 581 3500 
L 1159 3500 
L 1159 2956 
Q 1341 3275 1631 3429 
Q 1922 3584 2338 3584 
Q 2397 3584 2469 3576 
Q 2541 3569 2628 3553 
L 2631 2963 
z
" transform="scale(0.015625)"/>
       <path id="DejaVuSans-61" d="M 2194 1759 
Q 1497 1759 1228 1600 
Q 959 1441 959 1056 
Q 959 750 1161 570 
Q 1363 391 1709 391 
Q 2188 391 2477 730 
Q 2766 1069 2766 1631 
L 2766 1759 
L 2194 1759 
z
M 3341 1997 
L 3341 0 
L 2766 0 
L 2766 531 
Q 2569 213 2275 61 
Q 1981 -91 1556 -91 
Q 1019 -91 701 211 
Q 384 513 384 1019 
Q 384 1609 779 1909 
Q 1175 2209 1959 2209 
L 2766 2209 
L 2766 2266 
Q 2766 2663 2505 2880 
Q 2244 3097 1772 3097 
Q 1472 3097 1187 3025 
Q 903 2953 641 2809 
L 641 3341 
Q 956 3463 1253 3523 
Q 1550 3584 1831 3584 
Q 2591 3584 2966 3190 
Q 3341 2797 3341 1997 
z
" transform="scale(0.015625)"/>
       <path id="DejaVuSans-69" d="M 603 3500 
L 1178 3500 
L 1178 0 
L 603 0 
L 603 3500 
z
M 603 4863 
L 1178 4863 
L 1178 4134 
L 603 4134 
L 603 4863 
z
" transform="scale(0.015625)"/>
       <path id="DejaVuSans-6e" d="M 3513 2113 
L 3513 0 
L 2938 0 
L 2938 2094 
Q 2938 2591 2744 2837 
Q 2550 3084 2163 3084 
Q 1697 3084 1428 2787 
Q 1159 2491 1159 1978 
L 1159 0 
L 581 0 
L 581 3500 
L 1159 3500 
L 1159 2956 
Q 1366 3272 1645 3428 
Q 1925 3584 2291 3584 
Q 2894 3584 3203 3211 
Q 3513 2838 3513 2113 
z
" transform="scale(0.015625)"/>
       <path id="DejaVuSans-20" transform="scale(0.015625)"/>
      </defs>
      <use xlink:href="#DejaVuSans-54"/>
      <use xlink:href="#DejaVuSans-72" transform="translate(46.333984 0)"/>
      <use xlink:href="#DejaVuSans-61" transform="translate(87.447266 0)"/>
      <use xlink:href="#DejaVuSans-69" transform="translate(148.726562 0)"/>
      <use xlink:href="#DejaVuSans-6e" transform="translate(176.509766 0)"/>
      <use xlink:href="#DejaVuSans-20" transform="translate(239.888672 0)"/>
      <use xlink:href="#DejaVuSans-4d" transform="translate(271.675781 0)"/>
      <use xlink:href="#DejaVuSans-53" transform="translate(357.955078 0)"/>
      <use xlink:href="#DejaVuSans-45" transform="translate(421.431641 0)"/>
     </g>
    </g>
    <g id="line2d_34">
     <path d="M 345.391562 42.536563 
L 355.391562 42.536563 
L 365.391562 42.536563 
" style="fill: none; stroke: #ff7f0e; stroke-opacity: 0.7; stroke-width: 1.5; stroke-linecap: square"/>
    </g>
    <g id="text_19">
     <!-- Val MSE -->
     <g transform="translate(373.391562 46.036563) scale(0.1 -0.1)">
      <defs>
       <path id="DejaVuSans-56" d="M 1831 0 
L 50 4666 
L 709 4666 
L 2188 738 
L 3669 4666 
L 4325 4666 
L 2547 0 
L 1831 0 
z
" transform="scale(0.015625)"/>
       <path id="DejaVuSans-6c" d="M 603 4863 
L 1178 4863 
L 1178 0 
L 603 0 
L 603 4863 
z
" transform="scale(0.015625)"/>
      </defs>
      <use xlink:href="#DejaVuSans-56"/>
      <use xlink:href="#DejaVuSans-61" transform="translate(60.658203 0)"/>
      <use xlink:href="#DejaVuSans-6c" transform="translate(121.9375 0)"/>
      <use xlink:href="#DejaVuSans-20" transform="translate(149.720703 0)"/>
      <use xlink:href="#DejaVuSans-4d" transform="translate(181.507812 0)"/>
      <use xlink:href="#DejaVuSans-53" transform="translate(267.787109 0)"/>
      <use xlink:href="#DejaVuSans-45" transform="translate(331.263672 0)"/>
     </g>
    </g>
   </g>
  </g>
 </g>
 <defs>
  <clipPath id="p15dacd7000">
   <rect x="47.855" y="14.76" width="382.9975" height="288.88"/>
  </clipPath>
 </defs>
</svg>
