<?xml version="1.0" encoding="utf-8" standalone="no"?>
<!DOCTYPE svg PUBLIC "-//W3C//DTD SVG 1.1//EN"
  "http://www.w3.org/Graphics/SVG/1.1/DTD/svg11.dtd">
<svg xmlns:xlink="http://www.w3.org/1999/xlink" width="460.8pt" height="345.6pt" viewBox="0 0 460.8 345.6" xmlns="http://www.w3.org/2000/svg" version="1.1">
 <metadata>
  <rdf:RDF xmlns:dc="http://purl.org/dc/elements/1.1/" xmlns:cc="http://creativecommons.org/ns#" xmlns:rdf="http://www.w3.org/1999/02/22-rdf-syntax-ns#">
   <cc:Work>
    <dc:type rdf:resource="http://purl.org/dc/dcmitype/StillImage"/>
    <dc:date>2025-11-30T23:34:41.442374</dc:date>
    <dc:format>image/svg+xml</dc:format>
    <dc:creator>
     <cc:Agent>
      <dc:title>Matplotlib v3.10.7, https://matplotlib.org/</dc:title>
     </cc:Agent>
    </dc:creator>
   </cc:Work>
  </rdf:RDF>
 </metadata>
 <defs>
  <style type="text/css">*{stroke-linejoin: round; stroke-linecap: butt}</style>
 </defs>
 <g id="figure_1">
  <g id="patch_1">
   <path d="M 0 345.6 
L 460.8 345.6 
L 460.8 0 
L 0 0 
z
" style="fill: #ffffff"/>
  </g>
  <g id="axes_1">
   <g id="patch_2">
    <path d="M 47.855 303.64 
L 430.8525 303.64 
L 430.8525 14.76 
L 47.855 14.76 
z
" style="fill: #ffffff"/>
   </g>
   <g id="matplotlib.axis_1">
    <g id="xtick_1">
     <g id="line2d_1">
      <path d="M 47.855 303.64 
L 47.855 14.76 
" clip-path="url(#pe5a3ba716f)" style="fill: none; stroke: #b0b0b0; stroke-width: 0.8; stroke-linecap: square"/>
     </g>
     <g id="line2d_2">
      <defs>
       <path id="m5ab434f6af" d="M 0 0 
L 0 3.5 
" style="stroke: #000000; stroke-width: 0.8"/>
      </defs>
      <g>
       <use xlink:href="#m5ab434f6af" x="47.855" y="303.64" style="stroke: #000000; stroke-width: 0.8"/>
      </g>
     </g>
     <g id="text_1">
      <!-- 0 -->
      <g transform="translate(44.67375 318.238437) scale(0.1 -0.1)">
       <defs>
        <path id="DejaVuSans-30" d="M 2034 4250 
Q 1547 4250 1301 3770 
Q 1056 3291 1056 2328 
Q 1056 1369 1301 889 
Q 1547 409 2034 409 
Q 2525 409 2770 889 
Q 3016 1369 3016 2328 
Q 3016 3291 2770 3770 
Q 2525 4250 2034 4250 
z
M 2034 4750 
Q 2819 4750 3233 4129 
Q 3647 3509 3647 2328 
Q 3647 1150 3233 529 
Q 2819 -91 2034 -91 
Q 1250 -91 836 529 
Q 422 1150 422 2328 
Q 422 3509 836 4129 
Q 1250 4750 2034 4750 
z
" transform="scale(0.015625)"/>
       </defs>
       <use xlink:href="#DejaVuSans-30"/>
      </g>
     </g>
    </g>
    <g id="xtick_2">
     <g id="line2d_3">
      <path d="M 95.729688 303.64 
L 95.729688 14.76 
" clip-path="url(#pe5a3ba716f)" style="fill: none; stroke: #b0b0b0; stroke-width: 0.8; stroke-linecap: square"/>
     </g>
     <g id="line2d_4">
      <g>
       <use xlink:href="#m5ab434f6af" x="95.729688" y="303.64" style="stroke: #000000; stroke-width: 0.8"/>
      </g>
     </g>
     <g id="text_2">
      <!-- 25000 -->
      <g transform="translate(79.823438 318.238437) scale(0.1 -0.1)">
       <defs>
        <path id="DejaVuSans-32" d="M 1228 531 
L 3431 531 
L 3431 0 
L 469 0 
L 469 531 
Q 828 903 1448 1529 
Q 2069 2156 2228 2338 
Q 2531 2678 2651 2914 
Q 2772 3150 2772 3378 
Q 2772 3750 2511 3984 
Q 2250 4219 1831 4219 
Q 1534 4219 1204 4116 
Q 875 4013 500 3803 
L 500 4441 
Q 881 4594 1212 4672 
Q 1544 4750 1819 4750 
Q 2544 4750 2975 4387 
Q 3406 4025 3406 3419 
Q 3406 3131 3298 2873 
Q 3191 2616 2906 2266 
Q 2828 2175 2409 1742 
Q 1991 1309 1228 531 
z
" transform="scale(0.015625)"/>
        <path id="DejaVuSans-35" d="M 691 4666 
L 3169 4666 
L 3169 4134 
L 1269 4134 
L 1269 2991 
Q 1406 3038 1543 3061 
Q 1681 3084 1819 3084 
Q 2600 3084 3056 2656 
Q 3513 2228 3513 1497 
Q 3513 744 3044 326 
Q 2575 -91 1722 -91 
Q 1428 -91 1123 -41 
Q 819 9 494 109 
L 494 744 
Q 775 591 1075 516 
Q 1375 441 1709 441 
Q 2250 441 2565 725 
Q 2881 1009 2881 1497 
Q 2881 1984 2565 2268 
Q 2250 2553 1709 2553 
Q 1456 2553 1204 2497 
Q 953 2441 691 2322 
L 691 4666 
z
" transform="scale(0.015625)"/>
       </defs>
       <use xlink:href="#DejaVuSans-32"/>
       <use xlink:href="#DejaVuSans-35" transform="translate(63.623047 0)"/>
       <use xlink:href="#DejaVuSans-30" transform="translate(127.246094 0)"/>
       <use xlink:href="#DejaVuSans-30" transform="translate(190.869141 0)"/>
       <use xlink:href="#DejaVuSans-30" transform="translate(254.492188 0)"/>
      </g>
     </g>
    </g>
    <g id="xtick_3">
     <g id="line2d_5">
      <path d="M 143.604375 303.64 
L 143.604375 14.76 
" clip-path="url(#pe5a3ba716f)" style="fill: none; stroke: #b0b0b0; stroke-width: 0.8; stroke-linecap: square"/>
     </g>
     <g id="line2d_6">
      <g>
       <use xlink:href="#m5ab434f6af" x="143.604375" y="303.64" style="stroke: #000000; stroke-width: 0.8"/>
      </g>
     </g>
     <g id="text_3">
      <!-- 50000 -->
      <g transform="translate(127.698125 318.238437) scale(0.1 -0.1)">
       <use xlink:href="#DejaVuSans-35"/>
       <use xlink:href="#DejaVuSans-30" transform="translate(63.623047 0)"/>
       <use xlink:href="#DejaVuSans-30" transform="translate(127.246094 0)"/>
       <use xlink:href="#DejaVuSans-30" transform="translate(190.869141 0)"/>
       <use xlink:href="#DejaVuSans-30" transform="translate(254.492188 0)"/>
      </g>
     </g>
    </g>
    <g id="xtick_4">
     <g id="line2d_7">
      <path d="M 191.479062 303.64 
L 191.479062 14.76 
" clip-path="url(#pe5a3ba716f)" style="fill: none; stroke: #b0b0b0; stroke-width: 0.8; stroke-linecap: square"/>
     </g>
     <g id="line2d_8">
      <g>
       <use xlink:href="#m5ab434f6af" x="191.479062" y="303.64" style="stroke: #000000; stroke-width: 0.8"/>
      </g>
     </g>
     <g id="text_4">
      <!-- 75000 -->
      <g transform="translate(175.572812 318.238437) scale(0.1 -0.1)">
       <defs>
        <path id="DejaVuSans-37" d="M 525 4666 
L 3525 4666 
L 3525 4397 
L 1831 0 
L 1172 0 
L 2766 4134 
L 525 4134 
L 525 4666 
z
" transform="scale(0.015625)"/>
       </defs>
       <use xlink:href="#DejaVuSans-37"/>
       <use xlink:href="#DejaVuSans-35" transform="translate(63.623047 0)"/>
       <use xlink:href="#DejaVuSans-30" transform="translate(127.246094 0)"/>
       <use xlink:href="#DejaVuSans-30" transform="translate(190.869141 0)"/>
       <use xlink:href="#DejaVuSans-30" transform="translate(254.492188 0)"/>
      </g>
     </g>
    </g>
    <g id="xtick_5">
     <g id="line2d_9">
      <path d="M 239.35375 303.64 
L 239.35375 14.76 
" clip-path="url(#pe5a3ba716f)" style="fill: none; stroke: #b0b0b0; stroke-width: 0.8; stroke-linecap: square"/>
     </g>
     <g id="line2d_10">
      <g>
       <use xlink:href="#m5ab434f6af" x="239.35375" y="303.64" style="stroke: #000000; stroke-width: 0.8"/>
      </g>
     </g>
     <g id="text_5">
      <!-- 100000 -->
      <g transform="translate(220.26625 318.238437) scale(0.1 -0.1)">
       <defs>
        <path id="DejaVuSans-31" d="M 794 531 
L 1825 531 
L 1825 4091 
L 703 3866 
L 703 4441 
L 1819 4666 
L 2450 4666 
L 2450 531 
L 3481 531 
L 3481 0 
L 794 0 
L 794 531 
z
" transform="scale(0.015625)"/>
       </defs>
       <use xlink:href="#DejaVuSans-31"/>
       <use xlink:href="#DejaVuSans-30" transform="translate(63.623047 0)"/>
       <use xlink:href="#DejaVuSans-30" transform="translate(127.246094 0)"/>
       <use xlink:href="#DejaVuSans-30" transform="translate(190.869141 0)"/>
       <use xlink:href="#DejaVuSans-30" transform="translate(254.492188 0)"/>
       <use xlink:href="#DejaVuSans-30" transform="translate(318.115234 0)"/>
      </g>
     </g>
    </g>
    <g id="xtick_6">
     <g id="line2d_11">
      <path d="M 287.228437 303.64 
L 287.228437 14.76 
" clip-path="url(#pe5a3ba716f)" style="fill: none; stroke: #b0b0b0; stroke-width: 0.8; stroke-linecap: square"/>
     </g>
     <g id="line2d_12">
      <g>
       <use xlink:href="#m5ab434f6af" x="287.228437" y="303.64" style="stroke: #000000; stroke-width: 0.8"/>
      </g>
     </g>
     <g id="text_6">
      <!-- 125000 -->
      <g transform="translate(268.140938 318.238437) scale(0.1 -0.1)">
       <use xlink:href="#DejaVuSans-31"/>
       <use xlink:href="#DejaVuSans-32" transform="translate(63.623047 0)"/>
       <use xlink:href="#DejaVuSans-35" transform="translate(127.246094 0)"/>
       <use xlink:href="#DejaVuSans-30" transform="translate(190.869141 0)"/>
       <use xlink:href="#DejaVuSans-30" transform="translate(254.492188 0)"/>
       <use xlink:href="#DejaVuSans-30" transform="translate(318.115234 0)"/>
      </g>
     </g>
    </g>
    <g id="xtick_7">
     <g id="line2d_13">
      <path d="M 335.103125 303.64 
L 335.103125 14.76 
" clip-path="url(#pe5a3ba716f)" style="fill: none; stroke: #b0b0b0; stroke-width: 0.8; stroke-linecap: square"/>
     </g>
     <g id="line2d_14">
      <g>
       <use xlink:href="#m5ab434f6af" x="335.103125" y="303.64" style="stroke: #000000; stroke-width: 0.8"/>
      </g>
     </g>
     <g id="text_7">
      <!-- 150000 -->
      <g transform="translate(316.015625 318.238437) scale(0.1 -0.1)">
       <use xlink:href="#DejaVuSans-31"/>
       <use xlink:href="#DejaVuSans-35" transform="translate(63.623047 0)"/>
       <use xlink:href="#DejaVuSans-30" transform="translate(127.246094 0)"/>
       <use xlink:href="#DejaVuSans-30" transform="translate(190.869141 0)"/>
       <use xlink:href="#DejaVuSans-30" transform="translate(254.492188 0)"/>
       <use xlink:href="#DejaVuSans-30" transform="translate(318.115234 0)"/>
      </g>
     </g>
    </g>
    <g id="xtick_8">
     <g id="line2d_15">
      <path d="M 382.977813 303.64 
L 382.977813 14.76 
" clip-path="url(#pe5a3ba716f)" style="fill: none; stroke: #b0b0b0; stroke-width: 0.8; stroke-linecap: square"/>
     </g>
     <g id="line2d_16">
      <g>
       <use xlink:href="#m5ab434f6af" x="382.977813" y="303.64" style="stroke: #000000; stroke-width: 0.8"/>
      </g>
     </g>
     <g id="text_8">
      <!-- 175000 -->
      <g transform="translate(363.890313 318.238437) scale(0.1 -0.1)">
       <use xlink:href="#DejaVuSans-31"/>
       <use xlink:href="#DejaVuSans-37" transform="translate(63.623047 0)"/>
       <use xlink:href="#DejaVuSans-35" transform="translate(127.246094 0)"/>
       <use xlink:href="#DejaVuSans-30" transform="translate(190.869141 0)"/>
       <use xlink:href="#DejaVuSans-30" transform="translate(254.492188 0)"/>
       <use xlink:href="#DejaVuSans-30" transform="translate(318.115234 0)"/>
      </g>
     </g>
    </g>
    <g id="xtick_9">
     <g id="line2d_17">
      <path d="M 430.8525 303.64 
L 430.8525 14.76 
" clip-path="url(#pe5a3ba716f)" style="fill: none; stroke: #b0b0b0; stroke-width: 0.8; stroke-linecap: square"/>
     </g>
     <g id="line2d_18">
      <g>
       <use xlink:href="#m5ab434f6af" x="430.8525" y="303.64" style="stroke: #000000; stroke-width: 0.8"/>
      </g>
     </g>
     <g id="text_9">
      <!-- 200000 -->
      <g transform="translate(411.765 318.238437) scale(0.1 -0.1)">
       <use xlink:href="#DejaVuSans-32"/>
       <use xlink:href="#DejaVuSans-30" transform="translate(63.623047 0)"/>
       <use xlink:href="#DejaVuSans-30" transform="translate(127.246094 0)"/>
       <use xlink:href="#DejaVuSans-30" transform="translate(190.869141 0)"/>
       <use xlink:href="#DejaVuSans-30" transform="translate(254.492188 0)"/>
       <use xlink:href="#DejaVuSans-30" transform="translate(318.115234 0)"/>
      </g>
     </g>
    </g>
    <g id="text_10">
     <!-- Step -->
     <g transform="translate(227.968594 331.916562) scale(0.1 -0.1)">
      <defs>
       <path id="DejaVuSans-53" d="M 3425 4513 
L 3425 3897 
Q 3066 4069 2747 4153 
Q 2428 4238 2131 4238 
Q 1616 4238 1336 4038 
Q 1056 3838 1056 3469 
Q 1056 3159 1242 3001 
Q 1428 2844 1947 2747 
L 2328 2669 
Q 3034 2534 3370 2195 
Q 3706 1856 3706 1288 
Q 3706 609 3251 259 
Q 2797 -91 1919 -91 
Q 1588 -91 1214 -16 
Q 841 59 441 206 
L 441 856 
Q 825 641 1194 531 
Q 1563 422 1919 422 
Q 2459 422 2753 634 
Q 3047 847 3047 1241 
Q 3047 1584 2836 1778 
Q 2625 1972 2144 2069 
L 1759 2144 
Q 1053 2284 737 2584 
Q 422 2884 422 3419 
Q 422 4038 858 4394 
Q 1294 4750 2059 4750 
Q 2388 4750 2728 4690 
Q 3069 4631 3425 4513 
z
" transform="scale(0.015625)"/>
       <path id="DejaVuSans-74" d="M 1172 4494 
L 1172 3500 
L 2356 3500 
L 2356 3053 
L 1172 3053 
L 1172 1153 
Q 1172 725 1289 603 
Q 1406 481 1766 481 
L 2356 481 
L 2356 0 
L 1766 0 
Q 1100 0 847 248 
Q 594 497 594 1153 
L 594 3053 
L 172 3053 
L 172 3500 
L 594 3500 
L 594 4494 
L 1172 4494 
z
" transform="scale(0.015625)"/>
       <path id="DejaVuSans-65" d="M 3597 1894 
L 3597 1613 
L 953 1613 
Q 991 1019 1311 708 
Q 1631 397 2203 397 
Q 2534 397 2845 478 
Q 3156 559 3463 722 
L 3463 178 
Q 3153 47 2828 -22 
Q 2503 -91 2169 -91 
Q 1331 -91 842 396 
Q 353 884 353 1716 
Q 353 2575 817 3079 
Q 1281 3584 2069 3584 
Q 2775 3584 3186 3129 
Q 3597 2675 3597 1894 
z
M 3022 2063 
Q 3016 2534 2758 2815 
Q 2500 3097 2075 3097 
Q 1594 3097 1305 2825 
Q 1016 2553 972 2059 
L 3022 2063 
z
" transform="scale(0.015625)"/>
       <path id="DejaVuSans-70" d="M 1159 525 
L 1159 -1331 
L 581 -1331 
L 581 3500 
L 1159 3500 
L 1159 2969 
Q 1341 3281 1617 3432 
Q 1894 3584 2278 3584 
Q 2916 3584 3314 3078 
Q 3713 2572 3713 1747 
Q 3713 922 3314 415 
Q 2916 -91 2278 -91 
Q 1894 -91 1617 61 
Q 1341 213 1159 525 
z
M 3116 1747 
Q 3116 2381 2855 2742 
Q 2594 3103 2138 3103 
Q 1681 3103 1420 2742 
Q 1159 2381 1159 1747 
Q 1159 1113 1420 752 
Q 1681 391 2138 391 
Q 2594 391 2855 752 
Q 3116 1113 3116 1747 
z
" transform="scale(0.015625)"/>
      </defs>
      <use xlink:href="#DejaVuSans-53"/>
      <use xlink:href="#DejaVuSans-74" transform="translate(63.476562 0)"/>
      <use xlink:href="#DejaVuSans-65" transform="translate(102.685547 0)"/>
      <use xlink:href="#DejaVuSans-70" transform="translate(164.208984 0)"/>
     </g>
    </g>
   </g>
   <g id="matplotlib.axis_2">
    <g id="ytick_1">
     <g id="line2d_19">
      <path d="M 47.855 303.64 
L 430.8525 303.64 
" clip-path="url(#pe5a3ba716f)" style="fill: none; stroke: #b0b0b0; stroke-width: 0.8; stroke-linecap: square"/>
     </g>
     <g id="line2d_20">
      <defs>
       <path id="mc40ca42c56" d="M 0 0 
L -3.5 0 
" style="stroke: #000000; stroke-width: 0.8"/>
      </defs>
      <g>
       <use xlink:href="#mc40ca42c56" x="47.855" y="303.64" style="stroke: #000000; stroke-width: 0.8"/>
      </g>
     </g>
     <g id="text_11">
      <!-- 0.0 -->
      <g transform="translate(24.951875 307.439219) scale(0.1 -0.1)">
       <defs>
        <path id="DejaVuSans-2e" d="M 684 794 
L 1344 794 
L 1344 0 
L 684 0 
L 684 794 
z
" transform="scale(0.015625)"/>
       </defs>
       <use xlink:href="#DejaVuSans-30"/>
       <use xlink:href="#DejaVuSans-2e" transform="translate(63.623047 0)"/>
       <use xlink:href="#DejaVuSans-30" transform="translate(95.410156 0)"/>
      </g>
     </g>
    </g>
    <g id="ytick_2">
     <g id="line2d_21">
      <path d="M 47.855 245.864 
L 430.8525 245.864 
" clip-path="url(#pe5a3ba716f)" style="fill: none; stroke: #b0b0b0; stroke-width: 0.8; stroke-linecap: square"/>
     </g>
     <g id="line2d_22">
      <g>
       <use xlink:href="#mc40ca42c56" x="47.855" y="245.864" style="stroke: #000000; stroke-width: 0.8"/>
      </g>
     </g>
     <g id="text_12">
      <!-- 0.1 -->
      <g transform="translate(24.951875 249.663219) scale(0.1 -0.1)">
       <use xlink:href="#DejaVuSans-30"/>
       <use xlink:href="#DejaVuSans-2e" transform="translate(63.623047 0)"/>
       <use xlink:href="#DejaVuSans-31" transform="translate(95.410156 0)"/>
      </g>
     </g>
    </g>
    <g id="ytick_3">
     <g id="line2d_23">
      <path d="M 47.855 188.088 
L 430.8525 188.088 
" clip-path="url(#pe5a3ba716f)" style="fill: none; stroke: #b0b0b0; stroke-width: 0.8; stroke-linecap: square"/>
     </g>
     <g id="line2d_24">
      <g>
       <use xlink:href="#mc40ca42c56" x="47.855" y="188.088" style="stroke: #000000; stroke-width: 0.8"/>
      </g>
     </g>
     <g id="text_13">
      <!-- 0.2 -->
      <g transform="translate(24.951875 191.887219) scale(0.1 -0.1)">
       <use xlink:href="#DejaVuSans-30"/>
       <use xlink:href="#DejaVuSans-2e" transform="translate(63.623047 0)"/>
       <use xlink:href="#DejaVuSans-32" transform="translate(95.410156 0)"/>
      </g>
     </g>
    </g>
    <g id="ytick_4">
     <g id="line2d_25">
      <path d="M 47.855 130.312 
L 430.8525 130.312 
" clip-path="url(#pe5a3ba716f)" style="fill: none; stroke: #b0b0b0; stroke-width: 0.8; stroke-linecap: square"/>
     </g>
     <g id="line2d_26">
      <g>
       <use xlink:href="#mc40ca42c56" x="47.855" y="130.312" style="stroke: #000000; stroke-width: 0.8"/>
      </g>
     </g>
     <g id="text_14">
      <!-- 0.3 -->
      <g transform="translate(24.951875 134.111219) scale(0.1 -0.1)">
       <defs>
        <path id="DejaVuSans-33" d="M 2597 2516 
Q 3050 2419 3304 2112 
Q 3559 1806 3559 1356 
Q 3559 666 3084 287 
Q 2609 -91 1734 -91 
Q 1441 -91 1130 -33 
Q 819 25 488 141 
L 488 750 
Q 750 597 1062 519 
Q 1375 441 1716 441 
Q 2309 441 2620 675 
Q 2931 909 2931 1356 
Q 2931 1769 2642 2001 
Q 2353 2234 1838 2234 
L 1294 2234 
L 1294 2753 
L 1863 2753 
Q 2328 2753 2575 2939 
Q 2822 3125 2822 3475 
Q 2822 3834 2567 4026 
Q 2313 4219 1838 4219 
Q 1578 4219 1281 4162 
Q 984 4106 628 3988 
L 628 4550 
Q 988 4650 1302 4700 
Q 1616 4750 1894 4750 
Q 2613 4750 3031 4423 
Q 3450 4097 3450 3541 
Q 3450 3153 3228 2886 
Q 3006 2619 2597 2516 
z
" transform="scale(0.015625)"/>
       </defs>
       <use xlink:href="#DejaVuSans-30"/>
       <use xlink:href="#DejaVuSans-2e" transform="translate(63.623047 0)"/>
       <use xlink:href="#DejaVuSans-33" transform="translate(95.410156 0)"/>
      </g>
     </g>
    </g>
    <g id="ytick_5">
     <g id="line2d_27">
      <path d="M 47.855 72.536 
L 430.8525 72.536 
" clip-path="url(#pe5a3ba716f)" style="fill: none; stroke: #b0b0b0; stroke-width: 0.8; stroke-linecap: square"/>
     </g>
     <g id="line2d_28">
      <g>
       <use xlink:href="#mc40ca42c56" x="47.855" y="72.536" style="stroke: #000000; stroke-width: 0.8"/>
      </g>
     </g>
     <g id="text_15">
      <!-- 0.4 -->
      <g transform="translate(24.951875 76.335219) scale(0.1 -0.1)">
       <defs>
        <path id="DejaVuSans-34" d="M 2419 4116 
L 825 1625 
L 2419 1625 
L 2419 4116 
z
M 2253 4666 
L 3047 4666 
L 3047 1625 
L 3713 1625 
L 3713 1100 
L 3047 1100 
L 3047 0 
L 2419 0 
L 2419 1100 
L 313 1100 
L 313 1709 
L 2253 4666 
z
" transform="scale(0.015625)"/>
       </defs>
       <use xlink:href="#DejaVuSans-30"/>
       <use xlink:href="#DejaVuSans-2e" transform="translate(63.623047 0)"/>
       <use xlink:href="#DejaVuSans-34" transform="translate(95.410156 0)"/>
      </g>
     </g>
    </g>
    <g id="ytick_6">
     <g id="line2d_29">
      <path d="M 47.855 14.76 
L 430.8525 14.76 
" clip-path="url(#pe5a3ba716f)" style="fill: none; stroke: #b0b0b0; stroke-width: 0.8; stroke-linecap: square"/>
     </g>
     <g id="line2d_30">
      <g>
       <use xlink:href="#mc40ca42c56" x="47.855" y="14.76" style="stroke: #000000; stroke-width: 0.8"/>
      </g>
     </g>
     <g id="text_16">
      <!-- 0.5 -->
      <g transform="translate(24.951875 18.559219) scale(0.1 -0.1)">
       <use xlink:href="#DejaVuSans-30"/>
       <use xlink:href="#DejaVuSans-2e" transform="translate(63.623047 0)"/>
       <use xlink:href="#DejaVuSans-35" transform="translate(95.410156 0)"/>
      </g>
     </g>
    </g>
    <g id="text_17">
     <!-- MSE -->
     <g transform="translate(18.872188 169.847656) rotate(-90) scale(0.1 -0.1)">
      <defs>
       <path id="DejaVuSans-4d" d="M 628 4666 
L 1569 4666 
L 2759 1491 
L 3956 4666 
L 4897 4666 
L 4897 0 
L 4281 0 
L 4281 4097 
L 3078 897 
L 2444 897 
L 1241 4097 
L 1241 0 
L 628 0 
L 628 4666 
z
" transform="scale(0.015625)"/>
       <path id="DejaVuSans-45" d="M 628 4666 
L 3578 4666 
L 3578 4134 
L 1259 4134 
L 1259 2753 
L 3481 2753 
L 3481 2222 
L 1259 2222 
L 1259 531 
L 3634 531 
L 3634 0 
L 628 0 
L 628 4666 
z
" transform="scale(0.015625)"/>
      </defs>
      <use xlink:href="#DejaVuSans-4d"/>
      <use xlink:href="#DejaVuSans-53" transform="translate(86.279297 0)"/>
      <use xlink:href="#DejaVuSans-45" transform="translate(149.755859 0)"/>
     </g>
    </g>
   </g>
   <g id="line2d_31">
    <path d="M 48.150727 -1 
L 48.237998 247.643532 
L 48.620995 237.292654 
L 49.003993 249.219063 
L 49.38699 243.527368 
L 49.769988 264.639657 
L 50.152985 244.419316 
L 50.91898 264.177704 
L 51.301978 258.022717 
L 51.684975 260.848227 
L 52.067973 238.987476 
L 52.45097 243.694827 
L 52.833968 220.13615 
L 53.216965 247.379455 
L 53.599963 257.952263 
L 53.98296 243.760748 
L 54.365958 274.583632 
L 54.748955 245.416677 
L 55.131953 255.371235 
L 55.51495 259.159811 
L 55.897948 255.823963 
L 56.280945 269.705474 
L 57.04694 260.243502 
L 57.429938 261.003203 
L 57.812935 258.684049 
L 58.195933 237.546998 
L 58.57893 262.324777 
L 58.961928 262.741523 
L 59.344925 266.509411 
L 59.727923 250.591324 
L 60.11092 257.276842 
L 60.493918 256.532259 
L 60.876915 260.064962 
L 61.259913 259.133015 
L 61.64291 274.061254 
L 62.025908 271.110261 
L 62.408905 255.071296 
L 62.791903 257.328158 
L 63.1749 265.923859 
L 63.557898 254.07115 
L 63.940895 261.632332 
L 64.323893 263.903042 
L 64.70689 268.754866 
L 65.089888 262.657638 
L 65.472885 250.693121 
L 65.855883 269.251771 
L 66.23888 269.002732 
L 66.621878 261.075147 
L 67.004875 270.179829 
L 67.387873 270.743966 
L 67.77087 266.424653 
L 68.153868 256.435141 
L 68.536865 258.97797 
L 68.919863 255.694333 
L 69.30286 258.634579 
L 69.685858 268.087398 
L 70.068855 268.080579 
L 70.83485 259.801522 
L 71.217848 263.990331 
L 71.600845 269.687375 
L 71.983843 269.612005 
L 72.36684 273.672626 
L 72.749838 270.943179 
L 73.132835 275.80791 
L 73.515833 275.92067 
L 73.89883 262.01455 
L 75.047823 279.318925 
L 75.43082 240.898119 
L 75.813818 272.92212 
L 76.196815 272.598436 
L 76.579813 273.515728 
L 76.96281 273.308535 
L 77.345808 270.118165 
L 77.728805 268.961269 
L 78.111803 272.727522 
L 78.4948 265.525067 
L 78.877798 270.794709 
L 79.260795 279.078411 
L 79.643793 276.925788 
L 80.02679 271.893703 
L 80.792785 280.00374 
L 81.175783 275.314957 
L 81.55878 277.017002 
L 81.941778 271.461882 
L 82.324775 280.164919 
L 82.707773 275.416975 
L 83.09077 236.658588 
L 83.473768 282.426764 
L 83.856765 280.277858 
L 84.239763 283.350584 
L 84.62276 258.597758 
L 85.005758 276.266497 
L 85.388755 279.950046 
L 85.771753 276.903585 
L 86.15475 277.132883 
L 86.537748 281.720423 
L 86.920745 263.396062 
L 87.303742 269.233986 
L 87.68674 283.370123 
L 88.069738 281.810562 
L 88.452735 266.488314 
L 88.835733 287.102793 
L 89.21873 257.132404 
L 89.601728 279.370279 
L 89.984725 281.381413 
L 90.367723 277.709426 
L 90.75072 264.202051 
L 91.133718 280.804386 
L 91.516715 282.11263 
L 91.899713 282.048005 
L 92.28271 245.336034 
L 92.665708 284.442923 
L 93.048705 284.928059 
L 93.431703 280.310126 
L 93.8147 281.600961 
L 94.197698 260.710177 
L 94.963693 284.630165 
L 95.34669 282.151426 
L 95.729688 273.046464 
L 96.112685 286.587397 
L 96.495683 282.48651 
L 96.87868 282.144401 
L 97.261678 267.027282 
L 97.644675 266.644263 
L 98.027673 264.343575 
L 98.41067 282.141489 
L 98.793667 284.326347 
L 99.559663 272.505658 
L 99.94266 282.278699 
L 100.325658 283.657153 
L 100.708655 284.598609 
L 101.091653 285.067827 
L 101.47465 287.580595 
L 101.857648 285.588612 
L 102.240645 279.780689 
L 102.623643 277.469319 
L 103.00664 276.608303 
L 103.389638 270.900141 
L 103.772635 285.155506 
L 104.155633 283.888416 
L 104.53863 278.654942 
L 104.921627 265.6388 
L 105.304625 283.401026 
L 105.687623 284.983361 
L 106.07062 287.394625 
L 106.453618 277.132209 
L 106.836615 289.407986 
L 107.219613 263.136156 
L 107.60261 279.589431 
L 107.985608 281.543659 
L 108.368605 275.944815 
L 108.751603 282.556011 
L 109.1346 282.553708 
L 109.517598 287.770191 
L 109.900595 259.559988 
L 110.283592 284.840957 
L 110.66659 284.746599 
L 111.049588 278.8082 
L 111.432585 287.408137 
L 111.815583 290.259636 
L 112.19858 278.978602 
L 112.581578 284.080818 
L 112.964575 266.644009 
L 113.347573 282.895374 
L 113.73057 285.521522 
L 114.879563 289.982348 
L 115.26256 273.121152 
L 115.645557 277.590357 
L 116.028555 285.043505 
L 116.411552 284.494573 
L 116.79455 284.764517 
L 117.177548 278.515411 
L 117.560545 281.069541 
L 118.32654 288.55856 
L 118.709538 279.747345 
L 119.092535 273.571108 
L 119.475533 270.834321 
L 119.85853 286.57076 
L 120.241528 283.220685 
L 120.624525 285.796696 
L 121.007522 276.368623 
L 121.39052 273.312259 
L 121.773517 284.40003 
L 122.156515 287.909562 
L 122.539513 273.965685 
L 122.92251 277.503345 
L 123.305508 289.044036 
L 123.688505 270.692147 
L 124.071503 278.579053 
L 124.4545 279.807849 
L 124.837498 274.179406 
L 125.220495 283.354157 
L 125.603493 286.262838 
L 125.98649 279.504408 
L 126.369488 289.304246 
L 127.135482 256.566149 
L 127.51848 287.342703 
L 127.901477 284.187974 
L 128.284475 288.215172 
L 128.667473 287.170404 
L 129.05047 287.454982 
L 129.816465 291.264275 
L 130.199463 285.779772 
L 130.58246 273.936674 
L 130.965458 272.019427 
L 131.348455 274.53938 
L 131.731453 285.142013 
L 132.11445 283.640675 
L 132.497447 286.181808 
L 132.880445 285.913148 
L 133.263442 288.378057 
L 133.64644 284.624125 
L 134.029438 266.554395 
L 134.412435 283.60963 
L 134.795433 290.642582 
L 135.17843 287.322764 
L 135.561428 286.032966 
L 135.944425 289.616242 
L 136.327423 280.321906 
L 136.71042 277.030759 
L 137.476415 290.387666 
L 137.859413 284.01666 
L 138.24241 287.713777 
L 139.008405 282.455689 
L 139.391402 288.362614 
L 139.7744 278.896759 
L 140.540395 291.544264 
L 140.923393 287.8985 
L 141.30639 286.297625 
L 141.689388 276.4413 
L 142.072385 290.322818 
L 142.455383 286.346924 
L 142.83838 287.028035 
L 143.221378 286.091433 
L 143.604375 283.986923 
L 143.987372 279.475569 
L 144.37037 273.37809 
L 144.753367 291.289395 
L 145.136365 283.788877 
L 145.519362 279.761832 
L 145.90236 284.700815 
L 146.668355 281.651943 
L 147.051353 290.579261 
L 147.43435 282.416173 
L 147.817348 291.767554 
L 148.583343 287.386705 
L 149.349338 280.528735 
L 149.732335 292.362464 
L 150.115332 288.621804 
L 150.49833 281.73044 
L 150.881327 264.396363 
L 151.264325 278.65212 
L 151.647323 288.30514 
L 152.03032 287.784633 
L 152.413318 265.438213 
L 152.796315 289.307983 
L 153.179313 279.317087 
L 153.56231 290.378257 
L 153.945308 287.90813 
L 155.0943 283.794915 
L 155.477297 289.897541 
L 155.860295 288.111545 
L 156.243292 274.514542 
L 156.62629 290.156136 
L 157.009287 292.996293 
L 157.392285 282.665943 
L 158.15828 291.361459 
L 158.541278 292.372256 
L 158.924275 290.568977 
L 159.307273 289.925003 
L 159.69027 274.522887 
L 160.073268 286.975599 
L 160.456265 289.669924 
L 160.839263 273.368819 
L 161.22226 286.877123 
L 161.605257 287.327988 
L 161.988255 291.054455 
L 162.371252 281.006652 
L 162.75425 291.253598 
L 163.137248 287.106557 
L 163.520245 292.783078 
L 163.903243 287.262958 
L 164.28624 287.604634 
L 164.669238 284.343277 
L 165.052235 292.405455 
L 165.435233 264.529299 
L 165.81823 285.165028 
L 166.201228 287.132529 
L 166.584225 285.115895 
L 166.967222 289.481642 
L 167.35022 289.845048 
L 167.733217 274.565951 
L 168.116215 291.873343 
L 168.499212 285.317387 
L 168.88221 275.638867 
L 169.265208 289.344945 
L 169.648205 289.861779 
L 170.031203 275.450508 
L 170.4142 278.646763 
L 170.797198 287.596168 
L 171.180195 289.982556 
L 171.563193 262.396712 
L 171.94619 291.028611 
L 172.329188 288.066588 
L 172.712185 291.320535 
L 173.095182 283.250405 
L 173.47818 283.350195 
L 173.861177 291.402442 
L 174.244175 284.848963 
L 174.627173 271.776365 
L 175.01017 285.552534 
L 175.393168 289.422972 
L 175.776165 290.513833 
L 176.159163 292.1346 
L 176.54216 290.660369 
L 176.925158 280.592683 
L 177.308155 280.90893 
L 177.691153 291.629738 
L 178.07415 290.918347 
L 178.457148 291.814469 
L 178.840145 291.790796 
L 179.223143 292.146468 
L 179.60614 290.171581 
L 179.989137 287.090621 
L 180.372135 287.305316 
L 180.755133 293.294557 
L 181.13813 269.972597 
L 181.521128 288.113708 
L 181.904125 292.892176 
L 182.287123 273.354756 
L 182.67012 286.707088 
L 183.053118 292.796795 
L 183.436115 287.490693 
L 183.819113 292.930668 
L 184.20211 290.44821 
L 184.585108 285.221647 
L 184.968105 290.469612 
L 185.351103 286.647037 
L 185.7341 291.946969 
L 186.117097 286.797042 
L 186.500095 292.233073 
L 186.883093 287.931083 
L 187.26609 292.230435 
L 188.032085 290.295258 
L 188.415083 290.594786 
L 188.79808 291.306988 
L 189.181078 287.451511 
L 189.564075 272.419608 
L 189.947073 292.656949 
L 190.33007 290.97352 
L 190.713068 285.381687 
L 191.096065 292.298785 
L 191.479062 288.053448 
L 191.86206 293.909003 
L 192.245058 288.644888 
L 192.628055 290.085259 
L 193.011053 288.94353 
L 193.39405 267.20738 
L 193.777048 290.912718 
L 194.160045 279.529749 
L 194.543043 292.205697 
L 194.92604 284.732152 
L 195.309038 293.510554 
L 195.692035 292.408907 
L 196.075033 292.628787 
L 196.45803 291.325724 
L 196.841028 278.725798 
L 197.224025 287.160886 
L 197.607022 285.753187 
L 197.99002 292.044711 
L 198.373018 285.490285 
L 198.756015 275.871173 
L 199.139013 289.482671 
L 199.52201 292.674951 
L 199.905008 290.111069 
L 200.288005 292.005265 
L 200.671003 267.294983 
L 201.054 285.754804 
L 201.436998 275.328366 
L 201.819995 290.010507 
L 202.202993 288.258354 
L 202.968987 286.767467 
L 203.351985 293.847662 
L 203.734983 290.790125 
L 204.11798 282.629358 
L 204.500978 289.110352 
L 204.883975 280.536421 
L 205.266973 288.964186 
L 205.64997 275.311401 
L 206.032968 288.511128 
L 206.415965 286.277116 
L 206.798963 293.934429 
L 207.18196 292.988032 
L 207.564958 293.09895 
L 207.947955 283.897918 
L 208.330952 291.125625 
L 208.71395 274.997974 
L 209.096947 291.546667 
L 209.479945 294.614714 
L 210.24594 289.005586 
L 210.628938 293.608151 
L 211.011935 290.270487 
L 211.394933 293.860135 
L 211.77793 290.017883 
L 212.160928 283.159512 
L 212.543925 283.99335 
L 212.926923 294.540792 
L 213.30992 294.463964 
L 213.692918 276.397922 
L 214.075915 289.363985 
L 214.458912 283.419896 
L 214.84191 289.640058 
L 215.224908 293.378219 
L 215.607905 294.632466 
L 215.990903 294.743898 
L 216.3739 292.338616 
L 216.756898 282.688805 
L 217.522893 292.590762 
L 217.90589 286.846549 
L 218.288888 292.964892 
L 218.671885 283.896201 
L 219.054883 291.738447 
L 219.43788 285.510781 
L 219.820877 290.087561 
L 220.586872 282.85956 
L 220.96987 291.768559 
L 221.352868 290.927773 
L 221.735865 290.946997 
L 222.118863 293.869346 
L 222.50186 294.113061 
L 222.884858 291.978203 
L 223.267855 289.194434 
L 223.650853 290.141439 
L 224.03385 292.995202 
L 224.416848 291.897236 
L 224.799845 288.714049 
L 225.182843 292.526282 
L 225.948837 293.658887 
L 226.331835 294.027388 
L 226.714832 293.052644 
L 227.480828 294.102751 
L 227.863825 293.162636 
L 228.246823 294.36236 
L 228.62982 274.671569 
L 229.012818 289.496542 
L 229.395815 288.145214 
L 229.778813 293.626804 
L 230.16181 289.609617 
L 230.544808 276.91196 
L 230.927805 294.31659 
L 231.310802 294.131995 
L 231.6938 294.446464 
L 232.076797 293.056126 
L 232.459795 286.666092 
L 232.842793 289.054648 
L 233.22579 288.321477 
L 233.608788 293.310812 
L 233.991785 291.411867 
L 234.374783 290.276632 
L 234.75778 290.652556 
L 235.140778 289.121005 
L 235.523775 294.612326 
L 235.906773 289.650112 
L 236.28977 293.261414 
L 236.672768 270.850775 
L 237.055765 291.057435 
L 237.438762 285.569581 
L 237.82176 291.645111 
L 238.204757 295.382519 
L 238.587755 292.548314 
L 238.970753 293.0045 
L 239.35375 286.039528 
L 239.736748 285.342607 
L 240.119745 288.715302 
L 240.502743 294.004061 
L 240.88574 294.609944 
L 241.268738 293.121433 
L 241.651735 269.142123 
L 242.034733 292.228465 
L 242.41773 291.664188 
L 242.800727 290.759491 
L 243.183725 281.705813 
L 243.566722 289.178433 
L 243.94972 293.962952 
L 244.332718 279.716433 
L 244.715715 294.827341 
L 245.098713 288.311032 
L 245.48171 293.56609 
L 245.864708 290.729925 
L 246.247705 290.224125 
L 246.630703 294.550051 
L 247.0137 294.025778 
L 247.396698 296.068664 
L 247.779695 292.422639 
L 248.162693 291.474484 
L 248.54569 292.292604 
L 248.928687 291.355365 
L 249.311685 288.150839 
L 249.694682 292.514793 
L 250.460678 295.201072 
L 250.843675 287.527043 
L 251.226673 272.555013 
L 251.60967 295.086063 
L 251.992668 274.646357 
L 252.375665 290.567657 
L 252.758663 293.755085 
L 253.14166 287.156759 
L 253.524658 292.582311 
L 253.907655 280.722147 
L 254.290652 292.712364 
L 254.67365 281.38702 
L 255.056647 291.760992 
L 255.439645 288.183494 
L 255.822643 260.480412 
L 256.20564 284.586218 
L 256.588638 290.5837 
L 256.971635 288.469176 
L 257.354632 288.061203 
L 258.120628 295.469048 
L 258.503625 289.594852 
L 258.886622 295.091116 
L 259.652618 280.017042 
L 260.035615 292.900612 
L 260.418612 290.738131 
L 260.80161 292.815487 
L 261.184607 291.879483 
L 261.567605 294.768091 
L 261.950603 292.95362 
L 262.3336 293.696814 
L 262.716597 252.720971 
L 263.099595 295.540491 
L 263.482593 294.982353 
L 263.86559 286.442714 
L 264.248587 288.667624 
L 264.631585 293.79971 
L 265.014583 288.62009 
L 265.39758 276.597245 
L 265.780577 288.41205 
L 266.163575 292.114969 
L 266.546572 291.985523 
L 266.92957 277.123286 
L 267.312568 292.845314 
L 267.695565 290.9775 
L 268.078562 280.288114 
L 268.46156 293.882239 
L 268.844558 289.657386 
L 269.227555 292.173124 
L 269.610552 295.600091 
L 270.376548 291.467858 
L 270.759545 293.668421 
L 271.142542 283.722323 
L 271.52554 287.871418 
L 271.908537 289.610199 
L 272.291535 278.847753 
L 272.674532 294.439568 
L 273.05753 291.062224 
L 273.440527 292.498224 
L 273.823525 296.285076 
L 274.206523 273.516094 
L 274.58952 288.609386 
L 274.972517 281.453873 
L 275.355515 289.771146 
L 275.738513 292.066482 
L 276.12151 288.05432 
L 276.887505 295.932696 
L 277.270502 287.356185 
L 277.6535 291.858024 
L 278.036497 286.736769 
L 278.419495 289.528352 
L 278.802492 288.03922 
L 279.18549 266.754014 
L 279.568488 289.876515 
L 280.334482 294.934964 
L 280.71748 295.090394 
L 281.100478 292.735125 
L 281.483475 293.175855 
L 281.866472 289.403603 
L 282.24947 290.525915 
L 282.632468 295.982978 
L 283.015465 294.656294 
L 283.398462 277.534588 
L 283.78146 294.371441 
L 284.164457 294.376219 
L 284.547455 286.401539 
L 284.930453 287.095086 
L 285.31345 294.697374 
L 285.696447 284.668803 
L 286.079445 288.146341 
L 286.462443 293.713602 
L 286.84544 294.367615 
L 287.228437 280.996706 
L 287.611435 293.714819 
L 287.994433 290.177805 
L 288.37743 292.199305 
L 288.760427 296.40309 
L 289.143425 290.203129 
L 289.526422 295.908952 
L 289.90942 285.265638 
L 290.292417 295.863651 
L 290.675415 295.959857 
L 291.058412 279.888273 
L 291.44141 271.97098 
L 291.824408 294.972053 
L 292.207405 293.722747 
L 292.590402 293.440965 
L 292.9734 287.60945 
L 293.356398 286.762387 
L 293.739395 268.942331 
L 294.122392 288.113564 
L 294.50539 293.469855 
L 294.888387 292.589916 
L 295.271385 293.812339 
L 295.654382 296.848317 
L 296.03738 293.107483 
L 296.420377 292.314652 
L 296.803375 286.831316 
L 297.186373 296.15239 
L 297.56937 292.129615 
L 297.952367 295.607815 
L 298.335365 271.113505 
L 298.718363 295.541844 
L 299.10136 297.33954 
L 299.867355 293.078588 
L 300.250352 289.311971 
L 300.63335 290.76728 
L 301.016347 285.578911 
L 301.399345 286.505946 
L 301.782342 296.33418 
L 302.16534 296.010439 
L 302.548338 286.14801 
L 302.931335 295.187655 
L 303.314332 287.052156 
L 303.69733 296.402574 
L 304.080328 285.933224 
L 304.463325 291.514763 
L 304.846322 293.741449 
L 305.22932 292.874238 
L 305.995315 287.258431 
L 306.378312 292.587844 
L 306.76131 295.713612 
L 307.144308 296.347788 
L 307.527305 292.677041 
L 307.910303 296.714473 
L 308.2933 291.73352 
L 308.676297 295.718142 
L 309.059295 294.670467 
L 309.442293 292.388652 
L 309.82529 285.044037 
L 310.208287 284.95884 
L 310.591285 292.961755 
L 310.974283 291.066473 
L 311.35728 296.443012 
L 311.740277 280.018439 
L 312.123275 293.510101 
L 312.506273 295.984813 
L 312.88927 297.375092 
L 313.272267 296.336538 
L 313.655265 293.960245 
L 314.038263 293.489005 
L 314.42126 291.577288 
L 314.804258 291.268511 
L 315.187255 291.186798 
L 315.570252 291.25796 
L 315.95325 288.723475 
L 316.336248 295.84912 
L 316.719245 280.042964 
L 317.102242 294.09202 
L 317.48524 295.107671 
L 317.868238 291.819503 
L 318.251235 277.218588 
L 318.634232 268.739066 
L 319.01723 294.490123 
L 319.400228 282.475443 
L 319.783225 265.802205 
L 320.166223 288.841769 
L 320.932217 295.559943 
L 321.315215 286.089684 
L 321.698213 294.092945 
L 322.08121 296.517299 
L 322.847205 289.725799 
L 323.230203 293.453498 
L 323.996197 295.344772 
L 324.379195 293.324596 
L 324.762193 292.66372 
L 325.14519 285.951117 
L 325.528188 286.619415 
L 325.911185 292.682291 
L 326.294182 280.199636 
L 326.67718 291.506765 
L 327.060178 276.609205 
L 327.443175 297.007147 
L 327.826172 297.860076 
L 328.20917 293.219806 
L 328.592168 293.346764 
L 328.975165 287.562799 
L 329.358162 296.190024 
L 329.74116 297.582835 
L 330.124158 275.153666 
L 330.507155 284.875118 
L 330.890152 286.750524 
L 331.27315 286.973219 
L 331.656147 290.174353 
L 332.039145 295.399471 
L 332.422143 297.73532 
L 332.80514 294.857024 
L 333.188137 295.526658 
L 333.571135 279.397502 
L 333.954133 290.36342 
L 334.33713 294.603975 
L 334.720127 285.956999 
L 335.103125 294.460394 
L 335.486123 290.423441 
L 335.86912 292.519397 
L 336.252117 293.233593 
L 336.635115 296.288738 
L 337.018113 291.943 
L 337.40111 296.755319 
L 337.784108 293.565801 
L 338.167105 293.310142 
L 338.550102 277.242641 
L 338.9331 295.971362 
L 339.316098 291.677213 
L 339.699095 294.857958 
L 340.082092 293.739007 
L 340.46509 294.080877 
L 340.848088 296.059608 
L 341.231085 293.757023 
L 341.614082 296.367842 
L 341.99708 293.520559 
L 342.380078 294.1488 
L 342.763075 295.252863 
L 343.146073 289.497655 
L 343.52907 294.920003 
L 343.912067 281.93145 
L 344.295065 290.054528 
L 345.06106 273.365124 
L 345.444057 279.206722 
L 345.827055 294.517905 
L 346.210053 297.218682 
L 346.59305 296.86596 
L 346.976047 294.756583 
L 347.359045 296.935495 
L 347.742043 295.497683 
L 348.12504 297.035714 
L 348.508038 295.304585 
L 348.891035 288.352577 
L 349.274032 296.603133 
L 349.65703 277.766964 
L 350.040028 297.12199 
L 350.423025 293.708195 
L 350.806022 293.8354 
L 351.18902 291.813906 
L 351.955015 297.324576 
L 352.338012 293.969199 
L 352.72101 293.599878 
L 353.104008 295.854421 
L 353.487005 295.41314 
L 353.870002 296.493854 
L 354.253 295.857235 
L 354.635997 296.099222 
L 355.018995 277.568651 
L 355.401993 296.294847 
L 356.167987 295.199481 
L 356.550985 293.582688 
L 356.933983 297.216953 
L 357.31698 286.437959 
L 357.699977 294.296327 
L 358.082975 297.011274 
L 358.465973 292.128593 
L 358.84897 291.435164 
L 359.231967 279.345048 
L 359.614965 296.895362 
L 359.997963 296.500123 
L 360.38096 288.717399 
L 360.763958 287.898087 
L 361.146955 277.495784 
L 361.529952 291.571252 
L 361.91295 287.275641 
L 362.295948 272.77303 
L 363.061942 296.189351 
L 363.44494 286.276944 
L 363.827938 295.138838 
L 364.210935 294.895884 
L 364.593932 292.340424 
L 364.97693 295.707905 
L 365.742925 286.023912 
L 366.125923 294.297885 
L 366.50892 291.25268 
L 366.891917 265.5006 
L 367.274915 286.560663 
L 367.657913 293.563126 
L 368.04091 292.359004 
L 368.423907 294.66945 
L 368.806905 296.159047 
L 369.189903 290.357654 
L 369.5729 294.556404 
L 369.955897 290.474037 
L 370.338895 296.283182 
L 370.721893 293.824997 
L 371.10489 278.827808 
L 371.487887 294.719392 
L 371.870885 286.395664 
L 372.253882 295.473301 
L 372.63688 296.641635 
L 373.019878 294.761654 
L 373.402875 295.902499 
L 373.785872 293.449748 
L 374.16887 296.761283 
L 374.551868 294.081045 
L 374.934865 293.518154 
L 375.317862 287.251086 
L 376.083858 295.749369 
L 376.466855 295.707292 
L 376.849852 281.91826 
L 377.23285 293.759041 
L 377.615847 296.250679 
L 377.998845 285.66507 
L 378.381843 297.929342 
L 378.76484 292.481519 
L 379.147837 292.822623 
L 379.530835 294.772018 
L 379.913833 292.155493 
L 380.29683 295.484994 
L 380.679827 280.380931 
L 381.062825 296.802096 
L 381.445823 291.212999 
L 381.82882 291.681315 
L 382.211817 295.532951 
L 382.594815 294.521089 
L 382.977813 288.739435 
L 383.36081 289.644898 
L 384.126805 294.705944 
L 384.8928 285.304705 
L 385.275798 296.305163 
L 385.658795 295.665511 
L 386.041792 294.341079 
L 386.42479 295.404055 
L 386.807788 295.669056 
L 387.190785 297.158294 
L 387.573782 271.934573 
L 387.95678 297.965603 
L 388.339778 292.094114 
L 388.722775 295.889213 
L 389.105773 295.046952 
L 389.48877 291.952671 
L 389.871767 277.700898 
L 390.254765 296.704452 
L 390.637763 278.296597 
L 391.02076 276.938651 
L 391.403757 295.607156 
L 391.786755 273.45722 
L 392.169753 293.19564 
L 392.55275 294.279524 
L 392.935747 296.620031 
L 393.318745 296.83769 
L 393.701743 291.384195 
L 394.08474 296.151236 
L 394.850735 296.654625 
L 395.233732 284.592372 
L 395.61673 296.488464 
L 395.999728 296.098635 
L 396.382725 292.576239 
L 396.765722 295.660708 
L 397.14872 281.993637 
L 397.531718 291.123733 
L 397.914715 281.710768 
L 398.297712 288.019713 
L 398.68071 289.115 
L 399.063708 296.838559 
L 399.446705 293.94259 
L 399.829702 289.849944 
L 400.2127 286.993615 
L 400.595697 294.61232 
L 400.978695 284.839947 
L 401.361693 296.469997 
L 401.74469 289.735727 
L 402.127687 278.436035 
L 402.510685 295.810695 
L 402.893683 288.641025 
L 403.27668 294.908082 
L 403.659677 288.50547 
L 404.042675 292.088439 
L 404.425673 291.58754 
L 404.80867 293.116956 
L 405.191667 290.845053 
L 405.574665 292.910031 
L 405.957663 296.740161 
L 406.34066 297.265116 
L 406.723658 287.547597 
L 407.106655 291.524063 
L 407.87265 296.456618 
L 408.255648 295.534476 
L 408.638645 282.764055 
L 409.021642 294.299071 
L 409.40464 296.718827 
L 409.787638 294.982522 
L 410.170635 290.9172 
L 410.553632 295.234572 
L 410.93663 292.414507 
L 411.319628 295.785901 
L 411.702625 293.489877 
L 412.085622 296.587526 
L 412.46862 287.559342 
L 412.851617 289.618317 
L 413.234615 295.044843 
L 413.617613 293.645081 
L 414.00061 295.822681 
L 414.383607 291.826746 
L 414.766605 294.549928 
L 415.149603 286.571897 
L 415.915597 296.829196 
L 416.298595 295.674172 
L 416.681593 295.15406 
L 417.06459 291.906703 
L 417.447587 274.603683 
L 417.830585 289.27568 
L 418.213582 296.774652 
L 418.59658 295.072074 
L 418.979578 285.017449 
L 419.362575 292.104772 
L 419.745572 293.943575 
L 420.12857 292.226364 
L 420.511568 288.871665 
L 420.894565 296.817863 
L 421.277562 290.907197 
L 421.66056 288.469027 
L 422.043558 289.303785 
L 422.426555 295.512356 
L 422.809552 280.692454 
L 423.19255 296.69641 
L 423.575547 291.245959 
L 423.958545 287.9373 
L 424.341543 293.833245 
L 424.72454 295.534411 
L 425.107537 285.871315 
L 425.490535 285.121327 
L 425.873533 280.086749 
L 426.25653 290.348765 
L 426.639527 296.624635 
L 427.405523 294.490087 
L 427.78852 285.374087 
L 428.171517 292.903177 
L 428.554515 293.48741 
L 428.937513 294.390591 
L 429.32051 294.501374 
L 429.703508 296.753024 
L 430.469502 295.060098 
L 430.469502 295.060098 
" clip-path="url(#pe5a3ba716f)" style="fill: none; stroke: #1f77b4; stroke-opacity: 0.7; stroke-width: 1.5; stroke-linecap: square"/>
   </g>
   <g id="line2d_32">
    <path d="M 48.178206 -1 
L 48.237998 209.03189 
L 48.620995 231.88609 
L 49.003993 234.117748 
L 49.38699 233.799174 
L 49.769988 216.683711 
L 50.152985 240.902747 
L 50.535983 217.14281 
L 51.301978 260.351165 
L 51.684975 227.816476 
L 52.067973 232.539471 
L 52.45097 224.308989 
L 52.833968 221.656991 
L 53.216965 260.221514 
L 53.599963 249.503837 
L 53.98296 265.498193 
L 54.365958 243.124926 
L 54.748955 269.171362 
L 55.131953 231.456654 
L 55.51495 261.575566 
L 55.897948 266.313967 
L 56.280945 242.382706 
L 56.663943 245.474627 
L 57.04694 252.634874 
L 57.429938 240.898705 
L 57.812935 267.025939 
L 58.195933 234.007412 
L 58.57893 269.196116 
L 58.961928 243.747258 
L 59.344925 241.849197 
L 59.727923 244.380415 
L 60.11092 254.629643 
L 60.493918 248.93122 
L 60.876915 273.458548 
L 61.259913 240.308245 
L 61.64291 267.540054 
L 62.025908 250.528524 
L 62.408905 271.699268 
L 62.791903 243.302527 
L 63.1749 272.56119 
L 63.557898 250.554752 
L 63.940895 255.664295 
L 64.323893 274.994381 
L 64.70689 254.885619 
L 65.089888 274.177062 
L 65.472885 236.603032 
L 65.855883 255.005361 
L 66.23888 259.117496 
L 66.621878 274.575993 
L 67.004875 241.923714 
L 67.387873 247.642447 
L 68.153868 271.100854 
L 68.536865 274.00594 
L 68.919863 257.964161 
L 69.30286 255.078967 
L 69.685858 271.774888 
L 70.068855 263.104904 
L 70.451853 262.16826 
L 70.83485 255.52872 
L 71.217848 268.98649 
L 71.600845 240.915863 
L 71.983843 260.210597 
L 72.36684 266.658589 
L 72.749838 259.338536 
L 73.515833 262.743068 
L 73.89883 265.778796 
L 74.281828 259.676115 
L 74.664825 263.4699 
L 75.047823 269.686355 
L 75.43082 262.713422 
L 75.813818 261.56861 
L 76.196815 267.631077 
L 76.579813 277.70338 
L 76.96281 263.564688 
L 77.345808 270.865193 
L 77.728805 265.918 
L 78.111803 265.253509 
L 78.4948 267.315392 
L 78.877798 271.589347 
L 79.643793 275.533874 
L 80.02679 268.213283 
L 80.409788 270.606906 
L 80.792785 281.568476 
L 81.175783 268.639293 
L 81.55878 269.779518 
L 81.941778 267.134213 
L 82.324775 279.390126 
L 82.707773 266.260349 
L 83.09077 232.56043 
L 83.473768 278.977915 
L 83.856765 277.682436 
L 84.239763 283.8172 
L 84.62276 260.402201 
L 85.005758 282.685342 
L 85.388755 283.855918 
L 85.771753 279.538212 
L 86.15475 277.373349 
L 86.537748 273.28216 
L 86.920745 247.580309 
L 87.68674 278.952376 
L 88.452735 267.699011 
L 88.835733 277.738093 
L 89.21873 270.200982 
L 89.601728 267.247374 
L 89.984725 285.861485 
L 90.367723 285.962732 
L 90.75072 261.401172 
L 91.133718 280.562826 
L 91.516715 282.273557 
L 91.899713 274.032861 
L 92.28271 225.124186 
L 92.665708 283.694786 
L 93.048705 285.705087 
L 93.8147 277.154677 
L 94.197698 249.041918 
L 94.580695 269.45337 
L 94.963693 283.409788 
L 95.34669 281.196709 
L 95.729688 272.729366 
L 96.112685 286.150652 
L 96.495683 280.520447 
L 96.87868 281.628928 
L 97.261678 266.954873 
L 97.644675 268.681973 
L 98.027673 265.24155 
L 98.41067 282.84597 
L 98.793667 283.978605 
L 99.176665 283.320661 
L 99.559663 273.163122 
L 99.94266 284.068912 
L 100.325658 276.054332 
L 100.708655 285.867877 
L 101.091653 286.815753 
L 101.47465 284.321788 
L 101.857648 277.137142 
L 102.240645 278.6181 
L 102.623643 269.712011 
L 103.00664 278.845108 
L 103.389638 277.135664 
L 103.772635 282.854803 
L 104.155633 285.997509 
L 104.53863 281.903973 
L 104.921627 264.724937 
L 105.304625 280.650774 
L 105.687623 281.619871 
L 106.07062 286.807111 
L 106.453618 280.554115 
L 106.836615 288.430607 
L 107.219613 267.83481 
L 107.60261 267.214659 
L 107.985608 276.022983 
L 108.368605 276.715339 
L 108.751603 282.598935 
L 109.1346 285.237802 
L 109.517598 283.804002 
L 109.900595 259.576312 
L 110.283592 287.128289 
L 110.66659 285.798294 
L 111.049588 273.832787 
L 111.432585 287.618058 
L 111.815583 287.18979 
L 112.581578 284.174313 
L 112.964575 260.446315 
L 113.347573 279.222738 
L 113.73057 286.740786 
L 114.113568 285.916766 
L 114.496565 286.085299 
L 114.879563 289.546563 
L 115.26256 272.030014 
L 115.645557 283.887716 
L 116.028555 286.404689 
L 116.411552 287.632003 
L 117.177548 282.444067 
L 117.560545 288.17225 
L 117.943543 286.258865 
L 118.32654 284.990537 
L 118.709538 277.444062 
L 119.092535 278.45653 
L 119.475533 267.397042 
L 119.85853 284.267335 
L 120.241528 283.97507 
L 121.007522 274.38954 
L 121.39052 277.057672 
L 121.773517 284.174184 
L 122.156515 287.579377 
L 122.539513 266.954193 
L 123.305508 286.639259 
L 123.688505 281.917761 
L 124.071503 283.843861 
L 124.4545 278.22757 
L 124.837498 275.210074 
L 125.220495 286.046983 
L 125.603493 287.270671 
L 125.98649 271.292126 
L 126.369488 288.855124 
L 126.752485 280.661131 
L 127.135482 253.793155 
L 127.51848 278.989426 
L 127.901477 287.520258 
L 128.284475 284.01839 
L 128.667473 290.535367 
L 129.05047 286.995453 
L 129.433468 287.875526 
L 129.816465 286.926406 
L 130.199463 289.323218 
L 130.58246 280.501009 
L 130.965458 282.408422 
L 131.348455 274.554108 
L 131.731453 287.290381 
L 132.11445 286.454812 
L 132.497447 282.104959 
L 132.880445 287.404051 
L 133.263442 289.072358 
L 133.64644 288.218855 
L 134.029438 270.448202 
L 134.412435 280.866738 
L 134.795433 287.099587 
L 135.17843 287.706622 
L 135.561428 277.388973 
L 135.944425 284.880702 
L 136.71042 272.652302 
L 137.093418 277.124155 
L 137.476415 288.206362 
L 137.859413 283.687449 
L 138.24241 286.707374 
L 138.625407 286.382483 
L 139.008405 283.651979 
L 139.391402 287.248844 
L 139.7744 280.381028 
L 140.157398 286.131281 
L 140.540395 288.739513 
L 140.923393 287.704502 
L 141.30639 282.33613 
L 141.689388 283.720879 
L 142.072385 291.165675 
L 142.455383 279.773401 
L 142.83838 283.847283 
L 143.221378 283.533039 
L 143.604375 283.642323 
L 143.987372 281.630142 
L 144.37037 277.076681 
L 144.753367 288.398973 
L 145.136365 285.200694 
L 145.519362 273.071235 
L 145.90236 285.984052 
L 146.285358 280.65518 
L 146.668355 283.5482 
L 147.051353 290.716887 
L 147.43435 281.809719 
L 147.817348 291.275297 
L 148.583343 286.71652 
L 148.96634 280.758875 
L 149.349338 281.728544 
L 149.732335 291.325846 
L 150.115332 288.509906 
L 150.49833 287.506571 
L 150.881327 266.056175 
L 151.264325 282.382007 
L 151.647323 289.002128 
L 152.03032 281.811417 
L 152.413318 269.681351 
L 152.796315 288.967553 
L 153.179313 276.143673 
L 153.56231 290.347323 
L 153.945308 285.385034 
L 154.328305 291.62281 
L 154.711303 284.095157 
L 155.0943 283.618263 
L 155.477297 289.020411 
L 155.860295 288.646054 
L 156.243292 279.463959 
L 156.62629 288.061025 
L 157.009287 290.869306 
L 157.392285 286.135779 
L 157.775283 289.989564 
L 158.15828 288.336357 
L 158.541278 289.585142 
L 158.924275 291.296799 
L 159.307273 289.779735 
L 159.69027 280.744508 
L 160.073268 288.683281 
L 160.456265 290.536173 
L 160.839263 278.41205 
L 161.22226 286.208969 
L 161.605257 288.809976 
L 161.988255 290.26911 
L 162.371252 287.527373 
L 162.75425 290.066902 
L 163.137248 288.335711 
L 163.520245 291.371081 
L 163.903243 288.125877 
L 164.28624 287.410007 
L 164.669238 280.014087 
L 165.052235 289.579715 
L 165.435233 266.732241 
L 165.81823 286.087173 
L 166.584225 285.47219 
L 166.967222 288.433503 
L 167.35022 288.414468 
L 167.733217 271.308727 
L 168.116215 292.49567 
L 168.499212 289.246516 
L 168.88221 276.906043 
L 169.265208 287.952913 
L 169.648205 289.680848 
L 170.031203 280.028456 
L 170.4142 280.313673 
L 170.797198 290.251015 
L 171.180195 291.007171 
L 171.563193 273.681866 
L 171.94619 287.255967 
L 172.329188 280.553093 
L 172.712185 291.4576 
L 173.095182 281.46994 
L 173.861177 289.189277 
L 174.244175 285.410143 
L 174.627173 278.384416 
L 175.01017 286.46406 
L 175.393168 291.497989 
L 175.776165 290.407675 
L 176.159163 291.763201 
L 176.54216 290.499289 
L 176.925158 279.075953 
L 177.308155 280.22814 
L 177.691153 290.794285 
L 178.07415 289.388977 
L 178.457148 291.437157 
L 178.840145 290.609221 
L 179.223143 292.531077 
L 179.60614 289.300257 
L 179.989137 287.175898 
L 180.372135 288.281963 
L 180.755133 291.808109 
L 181.13813 268.933459 
L 181.521128 283.065647 
L 181.904125 292.102481 
L 182.287123 281.369788 
L 182.67012 285.749281 
L 183.053118 292.457242 
L 183.436115 287.196556 
L 183.819113 290.423144 
L 184.20211 289.824956 
L 184.585108 284.410966 
L 184.968105 289.86764 
L 185.351103 289.672296 
L 185.7341 290.997854 
L 186.117097 285.351989 
L 186.500095 290.334478 
L 186.883093 287.383857 
L 187.26609 292.523454 
L 187.649088 291.332602 
L 188.032085 289.422491 
L 188.415083 291.310442 
L 188.79808 291.34451 
L 189.181078 289.889042 
L 189.564075 285.806127 
L 189.947073 289.825624 
L 190.33007 291.402615 
L 190.713068 284.180043 
L 191.096065 289.660429 
L 191.479062 287.957584 
L 191.86206 292.03876 
L 192.245058 288.043552 
L 192.628055 291.334028 
L 193.011053 287.432981 
L 193.39405 280.197411 
L 193.777048 287.86454 
L 194.160045 269.876558 
L 194.543043 292.599153 
L 194.92604 283.686375 
L 195.309038 292.715855 
L 195.692035 291.322527 
L 196.075033 293.02123 
L 196.45803 291.971938 
L 196.841028 277.591679 
L 197.224025 287.110903 
L 197.607022 282.714607 
L 197.99002 291.791974 
L 198.373018 288.238765 
L 198.756015 282.89373 
L 199.139013 290.353953 
L 199.52201 292.783796 
L 199.905008 289.759212 
L 200.288005 292.251415 
L 200.671003 266.329296 
L 201.054 286.341928 
L 201.436998 277.531874 
L 201.819995 288.979349 
L 202.202993 290.733367 
L 202.58599 290.138435 
L 202.968987 290.334506 
L 203.351985 291.234441 
L 203.734983 289.525955 
L 204.11798 275.875246 
L 204.500978 290.018587 
L 204.883975 275.330168 
L 205.266973 286.861487 
L 205.64997 279.552607 
L 206.032968 291.816704 
L 206.415965 282.069465 
L 206.798963 291.734797 
L 207.18196 293.296978 
L 207.947955 288.635816 
L 208.330952 288.977892 
L 208.71395 271.853026 
L 209.096947 290.439987 
L 209.479945 292.591584 
L 209.862943 289.054042 
L 210.24594 287.651887 
L 210.628938 293.982447 
L 211.394933 287.716173 
L 211.77793 293.342602 
L 212.160928 285.518287 
L 212.543925 286.351637 
L 212.926923 292.927392 
L 213.30992 293.24002 
L 213.692918 275.507175 
L 214.075915 292.711724 
L 214.458912 278.219912 
L 214.84191 289.220834 
L 215.224908 293.703307 
L 215.607905 293.221356 
L 215.990903 293.427647 
L 216.3739 290.809629 
L 216.756898 282.527598 
L 217.139895 284.497401 
L 217.522893 293.226418 
L 217.90589 288.809573 
L 218.288888 293.199084 
L 218.671885 288.687639 
L 219.054883 292.93242 
L 219.43788 288.888651 
L 219.820877 292.498494 
L 220.203875 290.895082 
L 220.586872 286.958528 
L 220.96987 288.668103 
L 221.352868 288.18244 
L 221.735865 294.118389 
L 222.118863 291.322926 
L 222.50186 293.357801 
L 222.884858 293.550589 
L 223.267855 288.553369 
L 223.650853 287.219277 
L 224.03385 292.986893 
L 224.416848 291.430171 
L 224.799845 292.146418 
L 225.182843 293.460298 
L 225.56584 293.980853 
L 226.331835 291.601497 
L 226.714832 293.07227 
L 227.09783 292.960717 
L 227.863825 293.76584 
L 228.246823 292.404099 
L 228.62982 280.398182 
L 229.012818 288.365803 
L 229.395815 282.344012 
L 229.778813 289.838169 
L 230.16181 290.921604 
L 230.544808 280.042822 
L 230.927805 293.07871 
L 231.310802 292.321561 
L 231.6938 292.964357 
L 232.076797 294.187303 
L 232.459795 289.206986 
L 232.842793 288.672305 
L 233.22579 288.338312 
L 233.608788 294.254014 
L 233.991785 290.312832 
L 234.374783 291.122802 
L 234.75778 288.823883 
L 235.140778 285.257748 
L 235.523775 294.014097 
L 235.906773 289.305777 
L 236.28977 293.63126 
L 236.672768 261.904317 
L 237.055765 292.998462 
L 237.438762 286.81724 
L 237.82176 291.317438 
L 238.204757 294.031402 
L 238.587755 291.613537 
L 238.970753 290.478546 
L 239.35375 288.030803 
L 239.736748 281.089934 
L 240.502743 294.318625 
L 240.88574 292.675819 
L 241.268738 292.537243 
L 241.651735 274.001549 
L 242.034733 289.716338 
L 242.41773 292.756862 
L 242.800727 287.763754 
L 243.183725 286.340518 
L 243.566722 292.169503 
L 243.94972 294.325927 
L 244.332718 281.158075 
L 244.715715 294.824888 
L 245.098713 287.113096 
L 245.48171 293.414419 
L 245.864708 290.11674 
L 246.247705 289.848876 
L 246.630703 294.755561 
L 247.0137 294.999146 
L 247.396698 294.579258 
L 247.779695 293.573304 
L 248.162693 293.85585 
L 248.54569 292.32034 
L 248.928687 291.378991 
L 249.311685 291.516972 
L 250.460678 295.311852 
L 250.843675 290.505391 
L 251.226673 277.08217 
L 251.60967 293.813962 
L 251.992668 275.433946 
L 252.375665 292.662356 
L 252.758663 292.68889 
L 253.14166 290.027445 
L 253.524658 294.137206 
L 253.907655 281.8161 
L 254.290652 288.148293 
L 254.67365 283.196493 
L 255.056647 292.158365 
L 255.439645 289.401937 
L 255.822643 261.581098 
L 256.20564 281.652117 
L 256.588638 290.332832 
L 256.971635 291.097857 
L 257.354632 290.337161 
L 257.73763 290.728506 
L 258.120628 293.508433 
L 258.503625 287.249703 
L 258.886622 295.403151 
L 259.26962 289.869906 
L 259.652618 278.292998 
L 260.035615 294.185013 
L 260.418612 293.212764 
L 260.80161 291.717811 
L 261.184607 291.037198 
L 261.567605 292.85904 
L 261.950603 295.623095 
L 262.3336 293.841639 
L 262.716597 260.29115 
L 263.099595 293.425828 
L 263.482593 295.531974 
L 263.86559 284.539229 
L 264.248587 287.342237 
L 264.631585 293.999025 
L 265.014583 291.813689 
L 265.39758 274.9767 
L 265.780577 288.297414 
L 266.163575 291.86013 
L 266.546572 292.191039 
L 266.92957 283.299981 
L 267.312568 293.833234 
L 267.695565 289.261793 
L 268.078562 282.033343 
L 268.46156 293.981387 
L 268.844558 290.903197 
L 269.610552 293.840105 
L 269.99355 293.560736 
L 270.376548 291.162292 
L 270.759545 292.685839 
L 271.142542 287.614423 
L 271.52554 291.210687 
L 271.908537 291.46949 
L 272.291535 286.572919 
L 272.674532 294.934541 
L 273.440527 290.702295 
L 273.823525 293.477815 
L 274.206523 268.412018 
L 274.58952 287.590527 
L 274.972517 283.871841 
L 275.355515 292.71456 
L 275.738513 290.341849 
L 276.12151 283.003856 
L 276.504507 292.848965 
L 276.887505 296.115284 
L 277.270502 283.6754 
L 277.6535 292.679191 
L 278.036497 288.227558 
L 278.419495 286.745578 
L 278.802492 287.867173 
L 279.18549 271.498364 
L 279.568488 285.473402 
L 279.951485 294.479503 
L 280.334482 294.662423 
L 280.71748 295.675716 
L 281.100478 292.433811 
L 281.483475 287.348597 
L 281.866472 292.525795 
L 282.24947 290.040281 
L 282.632468 295.493703 
L 283.015465 293.131002 
L 283.398462 283.329756 
L 283.78146 293.796714 
L 284.164457 292.452185 
L 284.547455 285.82502 
L 284.930453 287.024656 
L 285.31345 294.72151 
L 285.696447 290.302441 
L 286.079445 289.657665 
L 286.84544 294.800141 
L 287.228437 281.749544 
L 287.611435 293.479381 
L 287.994433 292.669346 
L 288.37743 292.295147 
L 288.760427 294.984838 
L 289.143425 294.233884 
L 289.526422 291.33018 
L 289.90942 292.413043 
L 290.292417 295.70958 
L 290.675415 296.285956 
L 291.058412 276.522064 
L 291.44141 274.176836 
L 291.824408 294.673406 
L 292.207405 294.651985 
L 292.590402 292.838548 
L 292.9734 288.444019 
L 293.356398 290.958678 
L 293.739395 270.02218 
L 294.122392 294.067435 
L 294.50539 292.066906 
L 294.888387 294.523562 
L 295.271385 293.163419 
L 295.654382 296.197083 
L 296.03738 291.3574 
L 296.420377 290.646365 
L 296.803375 288.860866 
L 297.186373 293.189294 
L 297.56937 294.238393 
L 297.952367 295.642664 
L 298.335365 277.53216 
L 298.718363 295.132208 
L 299.10136 296.541056 
L 299.484357 295.554301 
L 299.867355 290.978796 
L 300.250352 289.251182 
L 300.63335 292.809129 
L 301.016347 282.615622 
L 301.399345 285.344082 
L 301.782342 296.328851 
L 302.16534 295.997866 
L 302.548338 283.707315 
L 302.931335 294.651741 
L 303.314332 289.708886 
L 303.69733 295.378942 
L 304.080328 282.866671 
L 304.463325 294.25273 
L 304.846322 294.712529 
L 305.22932 291.610784 
L 305.612318 291.59014 
L 305.995315 284.296546 
L 306.378312 293.718115 
L 306.76131 295.273116 
L 307.144308 291.737533 
L 307.527305 289.688011 
L 307.910303 296.431803 
L 308.2933 294.35259 
L 308.676297 296.927094 
L 309.059295 291.127648 
L 310.208287 284.96385 
L 310.591285 291.226121 
L 310.974283 291.321832 
L 311.35728 294.591604 
L 311.740277 282.255456 
L 312.123275 294.390788 
L 312.88927 296.300425 
L 313.272267 296.791363 
L 313.655265 295.954612 
L 314.038263 292.970209 
L 314.42126 288.642064 
L 314.804258 291.8789 
L 315.187255 292.006699 
L 315.570252 290.341361 
L 315.95325 293.413146 
L 316.336248 294.685812 
L 316.719245 277.225409 
L 317.102242 290.985327 
L 317.48524 294.250515 
L 317.868238 292.240377 
L 318.251235 277.549439 
L 318.634232 273.500389 
L 319.01723 296.151493 
L 319.783225 272.865712 
L 320.166223 287.789875 
L 320.54922 295.768956 
L 320.932217 292.054118 
L 321.315215 286.287728 
L 321.698213 293.869371 
L 322.08121 295.081888 
L 322.464207 293.199694 
L 322.847205 286.895497 
L 323.6132 295.715281 
L 323.996197 294.12658 
L 324.379195 293.613929 
L 324.762193 290.553257 
L 325.14519 285.517837 
L 325.528188 288.392676 
L 325.911185 293.968813 
L 326.294182 280.024101 
L 326.67718 292.128786 
L 327.060178 269.912306 
L 327.443175 293.553329 
L 327.826172 295.574033 
L 328.20917 291.903311 
L 328.592168 296.155888 
L 328.975165 289.776251 
L 329.358162 295.41609 
L 329.74116 296.774977 
L 330.124158 277.915158 
L 330.890152 290.36116 
L 331.27315 285.493076 
L 332.422143 296.349134 
L 332.80514 294.862188 
L 333.188137 296.875813 
L 333.571135 282.145864 
L 333.954133 291.045274 
L 334.33713 293.193256 
L 334.720127 287.763986 
L 335.103125 293.052452 
L 335.486123 287.196969 
L 335.86912 293.740894 
L 336.252117 294.058499 
L 336.635115 296.685193 
L 337.018113 294.329098 
L 337.40111 297.051244 
L 337.784108 290.169312 
L 338.167105 293.548522 
L 338.550102 286.658429 
L 338.9331 296.609625 
L 339.316098 291.371421 
L 339.699095 297.129807 
L 340.082092 293.233203 
L 340.46509 291.530177 
L 340.848088 296.424714 
L 341.231085 293.368264 
L 341.614082 296.755764 
L 341.99708 292.602147 
L 342.380078 293.816126 
L 342.763075 295.911332 
L 343.146073 287.758644 
L 343.52907 296.637465 
L 343.912067 280.38643 
L 344.295065 293.628708 
L 345.06106 278.683832 
L 345.444057 283.828312 
L 345.827055 292.828313 
L 346.210053 297.146291 
L 346.59305 296.720145 
L 346.976047 293.303531 
L 347.359045 295.449084 
L 347.742043 295.215621 
L 348.12504 297.71241 
L 348.508038 294.721508 
L 348.891035 286.894176 
L 349.274032 296.501997 
L 349.65703 277.85553 
L 350.040028 296.615416 
L 350.423025 296.263919 
L 350.806022 292.395266 
L 351.18902 290.206139 
L 351.572018 296.18653 
L 351.955015 296.444751 
L 353.104008 293.290392 
L 353.487005 293.180698 
L 353.870002 294.057809 
L 354.253 295.789465 
L 354.635997 295.152167 
L 355.018995 271.963109 
L 355.401993 296.785102 
L 355.78499 295.690697 
L 356.167987 295.425118 
L 356.550985 293.413796 
L 356.933983 296.416067 
L 357.31698 288.999461 
L 357.699977 290.669778 
L 358.082975 293.235968 
L 358.465973 294.064452 
L 358.84897 291.806125 
L 359.231967 284.353337 
L 359.614965 297.304528 
L 359.997963 295.566241 
L 360.38096 292.029368 
L 360.763958 286.498377 
L 361.146955 274.033832 
L 361.529952 292.27699 
L 362.295948 283.322322 
L 362.678945 287.449109 
L 363.061942 295.916437 
L 363.44494 281.275716 
L 363.827938 295.386903 
L 364.210935 296.98574 
L 364.593932 290.998984 
L 364.97693 296.807374 
L 365.359928 291.223256 
L 365.742925 288.589883 
L 366.125923 293.269323 
L 366.50892 289.198037 
L 366.891917 281.552352 
L 367.657913 292.530159 
L 368.04091 293.904971 
L 368.423907 294.219372 
L 368.806905 294.680377 
L 369.189903 294.412439 
L 369.5729 294.97514 
L 369.955897 289.205394 
L 370.338895 295.678272 
L 370.721893 295.158794 
L 371.10489 277.790282 
L 371.487887 292.509647 
L 371.870885 286.72695 
L 372.253882 294.086251 
L 372.63688 296.075568 
L 373.019878 296.116913 
L 373.402875 294.130532 
L 373.785872 292.862428 
L 374.16887 295.773945 
L 374.551868 294.22504 
L 374.934865 296.306768 
L 375.317862 289.097811 
L 375.70086 293.286955 
L 376.083858 295.785004 
L 376.466855 294.529111 
L 376.849852 281.773022 
L 377.23285 292.056017 
L 377.615847 296.788524 
L 377.998845 278.748919 
L 378.381843 297.713748 
L 378.76484 291.119783 
L 379.147837 294.889506 
L 379.913833 291.056039 
L 380.29683 294.605494 
L 380.679827 281.255153 
L 381.062825 297.04146 
L 381.445823 290.854575 
L 381.82882 293.130829 
L 382.211817 294.358003 
L 382.594815 296.679241 
L 382.977813 291.295713 
L 383.36081 289.827139 
L 384.126805 294.678391 
L 384.509802 293.224267 
L 384.8928 288.603741 
L 385.275798 296.38268 
L 385.658795 295.174015 
L 386.42479 296.441608 
L 386.807788 294.077652 
L 387.190785 296.840702 
L 387.573782 279.456865 
L 387.95678 296.547234 
L 388.339778 291.200642 
L 388.722775 295.382328 
L 389.105773 293.219637 
L 389.48877 293.073419 
L 389.871767 277.779673 
L 390.254765 297.147315 
L 391.02076 271.83816 
L 391.403757 294.473011 
L 391.786755 279.318281 
L 392.169753 295.50983 
L 392.55275 293.65589 
L 392.935747 296.943434 
L 393.701743 295.42492 
L 394.08474 296.316229 
L 394.467737 296.425417 
L 394.850735 295.862221 
L 395.233732 287.679158 
L 395.61673 295.850004 
L 395.999728 295.902156 
L 396.382725 294.226268 
L 396.765722 295.734123 
L 397.14872 284.052774 
L 397.531718 289.983367 
L 397.914715 284.229383 
L 398.297712 287.929581 
L 398.68071 290.427226 
L 399.063708 296.516005 
L 399.446705 294.761646 
L 399.829702 288.660379 
L 400.2127 289.324858 
L 400.595697 296.422824 
L 400.978695 285.782387 
L 401.361693 296.721786 
L 401.74469 290.860218 
L 402.127687 277.07237 
L 402.510685 295.414064 
L 402.893683 292.486313 
L 403.27668 293.775714 
L 403.659677 290.536553 
L 404.042675 293.465038 
L 404.425673 291.66637 
L 404.80867 292.008547 
L 405.191667 292.60938 
L 405.574665 290.874962 
L 405.957663 296.094936 
L 406.34066 296.672083 
L 406.723658 293.674563 
L 407.106655 294.753068 
L 407.489652 294.530109 
L 407.87265 297.151417 
L 408.255648 296.132773 
L 408.638645 287.384598 
L 409.021642 295.012367 
L 409.40464 295.882177 
L 409.787638 293.736181 
L 410.170635 290.4921 
L 410.553632 296.376768 
L 410.93663 293.37281 
L 411.319628 295.799115 
L 411.702625 294.833837 
L 412.085622 296.922532 
L 412.46862 289.486667 
L 413.234615 295.442829 
L 413.617613 294.562877 
L 414.00061 295.19175 
L 414.766605 293.528357 
L 415.149603 290.324312 
L 415.5326 294.572958 
L 415.915597 296.69886 
L 416.298595 294.696656 
L 416.681593 293.312283 
L 417.06459 294.292027 
L 417.447587 277.219766 
L 417.830585 290.109887 
L 418.213582 296.626951 
L 418.59658 294.849914 
L 418.979578 288.358831 
L 419.362575 293.472221 
L 419.745572 293.246844 
L 420.12857 287.633502 
L 420.511568 285.21672 
L 420.894565 295.542612 
L 421.277562 289.175541 
L 421.66056 287.836808 
L 422.043558 288.917209 
L 422.426555 295.148452 
L 422.809552 280.578314 
L 423.19255 295.265444 
L 423.575547 293.37966 
L 423.958545 285.473159 
L 424.341543 292.055515 
L 424.72454 296.512554 
L 425.107537 285.479644 
L 425.490535 290.020524 
L 425.873533 279.352316 
L 426.25653 288.05026 
L 426.639527 294.146123 
L 427.022525 294.499393 
L 427.405523 296.088901 
L 427.78852 283.059218 
L 428.554515 294.014243 
L 428.937513 293.502309 
L 429.32051 294.031506 
L 429.703508 296.723895 
L 430.086505 295.386457 
L 430.469502 295.740516 
L 430.469502 295.740516 
" clip-path="url(#pe5a3ba716f)" style="fill: none; stroke: #ff7f0e; stroke-opacity: 0.7; stroke-width: 1.5; stroke-linecap: square"/>
   </g>
   <g id="patch_3">
    <path d="M 47.855 303.64 
L 47.855 14.76 
" style="fill: none; stroke: #000000; stroke-width: 0.8; stroke-linejoin: miter; stroke-linecap: square"/>
   </g>
   <g id="patch_4">
    <path d="M 430.8525 303.64 
L 430.8525 14.76 
" style="fill: none; stroke: #000000; stroke-width: 0.8; stroke-linejoin: miter; stroke-linecap: square"/>
   </g>
   <g id="patch_5">
    <path d="M 47.855 303.64 
L 430.8525 303.64 
" style="fill: none; stroke: #000000; stroke-width: 0.8; stroke-linejoin: miter; stroke-linecap: square"/>
   </g>
   <g id="patch_6">
    <path d="M 47.855 14.76 
L 430.8525 14.76 
" style="fill: none; stroke: #000000; stroke-width: 0.8; stroke-linejoin: miter; stroke-linecap: square"/>
   </g>
   <g id="legend_1">
    <g id="patch_7">
     <path d="M 343.391562 52.11625 
L 423.8525 52.11625 
Q 425.8525 52.11625 425.8525 50.11625 
L 425.8525 21.76 
Q 425.8525 19.76 423.8525 19.76 
L 343.391562 19.76 
Q 341.391562 19.76 341.391562 21.76 
L 341.391562 50.11625 
Q 341.391562 52.11625 343.391562 52.11625 
z
" style="fill: #ffffff; opacity: 0.8; stroke: #cccccc; stroke-linejoin: miter"/>
    </g>
    <g id="line2d_33">
     <path d="M 345.391562 27.858437 
L 355.391562 27.858437 
L 365.391562 27.858437 
" style="fill: none; stroke: #1f77b4; stroke-opacity: 0.7; stroke-width: 1.5; stroke-linecap: square"/>
    </g>
    <g id="text_18">
     <!-- Train MSE -->
     <g transform="translate(373.391562 31.358437) scale(0.1 -0.1)">
      <defs>
       <path id="DejaVuSans-54" d="M -19 4666 
L 3928 4666 
L 3928 4134 
L 2272 4134 
L 2272 0 
L 1638 0 
L 1638 4134 
L -19 4134 
L -19 4666 
z
" transform="scale(0.015625)"/>
       <path id="DejaVuSans-72" d="M 2631 2963 
Q 2534 3019 2420 3045 
Q 2306 3072 2169 3072 
Q 1681 3072 1420 2755 
Q 1159 2438 1159 1844 
L 1159 0 
L 581 0 
L 581 3500 
L 1159 3500 
L 1159 2956 
Q 1341 3275 1631 3429 
Q 1922 3584 2338 3584 
Q 2397 3584 2469 3576 
Q 2541 3569 2628 3553 
L 2631 2963 
z
" transform="scale(0.015625)"/>
       <path id="DejaVuSans-61" d="M 2194 1759 
Q 1497 1759 1228 1600 
Q 959 1441 959 1056 
Q 959 750 1161 570 
Q 1363 391 1709 391 
Q 2188 391 2477 730 
Q 2766 1069 2766 1631 
L 2766 1759 
L 2194 1759 
z
M 3341 1997 
L 3341 0 
L 2766 0 
L 2766 531 
Q 2569 213 2275 61 
Q 1981 -91 1556 -91 
Q 1019 -91 701 211 
Q 384 513 384 1019 
Q 384 1609 779 1909 
Q 1175 2209 1959 2209 
L 2766 2209 
L 2766 2266 
Q 2766 2663 2505 2880 
Q 2244 3097 1772 3097 
Q 1472 3097 1187 3025 
Q 903 2953 641 2809 
L 641 3341 
Q 956 3463 1253 3523 
Q 1550 3584 1831 3584 
Q 2591 3584 2966 3190 
Q 3341 2797 3341 1997 
z
" transform="scale(0.015625)"/>
       <path id="DejaVuSans-69" d="M 603 3500 
L 1178 3500 
L 1178 0 
L 603 0 
L 603 3500 
z
M 603 4863 
L 1178 4863 
L 1178 4134 
L 603 4134 
L 603 4863 
z
" transform="scale(0.015625)"/>
       <path id="DejaVuSans-6e" d="M 3513 2113 
L 3513 0 
L 2938 0 
L 2938 2094 
Q 2938 2591 2744 2837 
Q 2550 3084 2163 3084 
Q 1697 3084 1428 2787 
Q 1159 2491 1159 1978 
L 1159 0 
L 581 0 
L 581 3500 
L 1159 3500 
L 1159 2956 
Q 1366 3272 1645 3428 
Q 1925 3584 2291 3584 
Q 2894 3584 3203 3211 
Q 3513 2838 3513 2113 
z
" transform="scale(0.015625)"/>
       <path id="DejaVuSans-20" transform="scale(0.015625)"/>
      </defs>
      <use xlink:href="#DejaVuSans-54"/>
      <use xlink:href="#DejaVuSans-72" transform="translate(46.333984 0)"/>
      <use xlink:href="#DejaVuSans-61" transform="translate(87.447266 0)"/>
      <use xlink:href="#DejaVuSans-69" transform="translate(148.726562 0)"/>
      <use xlink:href="#DejaVuSans-6e" transform="translate(176.509766 0)"/>
      <use xlink:href="#DejaVuSans-20" transform="translate(239.888672 0)"/>
      <use xlink:href="#DejaVuSans-4d" transform="translate(271.675781 0)"/>
      <use xlink:href="#DejaVuSans-53" transform="translate(357.955078 0)"/>
      <use xlink:href="#DejaVuSans-45" transform="translate(421.431641 0)"/>
     </g>
    </g>
    <g id="line2d_34">
     <path d="M 345.391562 42.536563 
L 355.391562 42.536563 
L 365.391562 42.536563 
" style="fill: none; stroke: #ff7f0e; stroke-opacity: 0.7; stroke-width: 1.5; stroke-linecap: square"/>
    </g>
    <g id="text_19">
     <!-- Val MSE -->
     <g transform="translate(373.391562 46.036563) scale(0.1 -0.1)">
      <defs>
       <path id="DejaVuSans-56" d="M 1831 0 
L 50 4666 
L 709 4666 
L 2188 738 
L 3669 4666 
L 4325 4666 
L 2547 0 
L 1831 0 
z
" transform="scale(0.015625)"/>
       <path id="DejaVuSans-6c" d="M 603 4863 
L 1178 4863 
L 1178 0 
L 603 0 
L 603 4863 
z
" transform="scale(0.015625)"/>
      </defs>
      <use xlink:href="#DejaVuSans-56"/>
      <use xlink:href="#DejaVuSans-61" transform="translate(60.658203 0)"/>
      <use xlink:href="#DejaVuSans-6c" transform="translate(121.9375 0)"/>
      <use xlink:href="#DejaVuSans-20" transform="translate(149.720703 0)"/>
      <use xlink:href="#DejaVuSans-4d" transform="translate(181.507812 0)"/>
      <use xlink:href="#DejaVuSans-53" transform="translate(267.787109 0)"/>
      <use xlink:href="#DejaVuSans-45" transform="translate(331.263672 0)"/>
     </g>
    </g>
   </g>
  </g>
 </g>
 <defs>
  <clipPath id="pe5a3ba716f">
   <rect x="47.855" y="14.76" width="382.9975" height="288.88"/>
  </clipPath>
 </defs>
</svg>
