<?xml version="1.0" encoding="utf-8" standalone="no"?>
<!DOCTYPE svg PUBLIC "-//W3C//DTD SVG 1.1//EN"
  "http://www.w3.org/Graphics/SVG/1.1/DTD/svg11.dtd">
<svg xmlns:xlink="http://www.w3.org/1999/xlink" width="460.8pt" height="345.6pt" viewBox="0 0 460.8 345.6" xmlns="http://www.w3.org/2000/svg" version="1.1">
 <metadata>
  <rdf:RDF xmlns:dc="http://purl.org/dc/elements/1.1/" xmlns:cc="http://creativecommons.org/ns#" xmlns:rdf="http://www.w3.org/1999/02/22-rdf-syntax-ns#">
   <cc:Work>
    <dc:type rdf:resource="http://purl.org/dc/dcmitype/StillImage"/>
    <dc:date>2025-11-30T23:38:53.590053</dc:date>
    <dc:format>image/svg+xml</dc:format>
    <dc:creator>
     <cc:Agent>
      <dc:title>Matplotlib v3.10.7, https://matplotlib.org/</dc:title>
     </cc:Agent>
    </dc:creator>
   </cc:Work>
  </rdf:RDF>
 </metadata>
 <defs>
  <style type="text/css">*{stroke-linejoin: round; stroke-linecap: butt}</style>
 </defs>
 <g id="figure_1">
  <g id="patch_1">
   <path d="M 0 345.6 
L 460.8 345.6 
L 460.8 0 
L 0 0 
z
" style="fill: #ffffff"/>
  </g>
  <g id="axes_1">
   <g id="patch_2">
    <path d="M 47.855 303.64 
L 430.8525 303.64 
L 430.8525 14.76 
L 47.855 14.76 
z
" style="fill: #ffffff"/>
   </g>
   <g id="matplotlib.axis_1">
    <g id="xtick_1">
     <g id="line2d_1">
      <path d="M 47.855 303.64 
L 47.855 14.76 
" clip-path="url(#pe2f2292fb6)" style="fill: none; stroke: #b0b0b0; stroke-width: 0.8; stroke-linecap: square"/>
     </g>
     <g id="line2d_2">
      <defs>
       <path id="meacc2b46a7" d="M 0 0 
L 0 3.5 
" style="stroke: #000000; stroke-width: 0.8"/>
      </defs>
      <g>
       <use xlink:href="#meacc2b46a7" x="47.855" y="303.64" style="stroke: #000000; stroke-width: 0.8"/>
      </g>
     </g>
     <g id="text_1">
      <!-- 0 -->
      <g transform="translate(44.67375 318.238437) scale(0.1 -0.1)">
       <defs>
        <path id="DejaVuSans-30" d="M 2034 4250 
Q 1547 4250 1301 3770 
Q 1056 3291 1056 2328 
Q 1056 1369 1301 889 
Q 1547 409 2034 409 
Q 2525 409 2770 889 
Q 3016 1369 3016 2328 
Q 3016 3291 2770 3770 
Q 2525 4250 2034 4250 
z
M 2034 4750 
Q 2819 4750 3233 4129 
Q 3647 3509 3647 2328 
Q 3647 1150 3233 529 
Q 2819 -91 2034 -91 
Q 1250 -91 836 529 
Q 422 1150 422 2328 
Q 422 3509 836 4129 
Q 1250 4750 2034 4750 
z
" transform="scale(0.015625)"/>
       </defs>
       <use xlink:href="#DejaVuSans-30"/>
      </g>
     </g>
    </g>
    <g id="xtick_2">
     <g id="line2d_3">
      <path d="M 95.729688 303.64 
L 95.729688 14.76 
" clip-path="url(#pe2f2292fb6)" style="fill: none; stroke: #b0b0b0; stroke-width: 0.8; stroke-linecap: square"/>
     </g>
     <g id="line2d_4">
      <g>
       <use xlink:href="#meacc2b46a7" x="95.729688" y="303.64" style="stroke: #000000; stroke-width: 0.8"/>
      </g>
     </g>
     <g id="text_2">
      <!-- 25000 -->
      <g transform="translate(79.823438 318.238437) scale(0.1 -0.1)">
       <defs>
        <path id="DejaVuSans-32" d="M 1228 531 
L 3431 531 
L 3431 0 
L 469 0 
L 469 531 
Q 828 903 1448 1529 
Q 2069 2156 2228 2338 
Q 2531 2678 2651 2914 
Q 2772 3150 2772 3378 
Q 2772 3750 2511 3984 
Q 2250 4219 1831 4219 
Q 1534 4219 1204 4116 
Q 875 4013 500 3803 
L 500 4441 
Q 881 4594 1212 4672 
Q 1544 4750 1819 4750 
Q 2544 4750 2975 4387 
Q 3406 4025 3406 3419 
Q 3406 3131 3298 2873 
Q 3191 2616 2906 2266 
Q 2828 2175 2409 1742 
Q 1991 1309 1228 531 
z
" transform="scale(0.015625)"/>
        <path id="DejaVuSans-35" d="M 691 4666 
L 3169 4666 
L 3169 4134 
L 1269 4134 
L 1269 2991 
Q 1406 3038 1543 3061 
Q 1681 3084 1819 3084 
Q 2600 3084 3056 2656 
Q 3513 2228 3513 1497 
Q 3513 744 3044 326 
Q 2575 -91 1722 -91 
Q 1428 -91 1123 -41 
Q 819 9 494 109 
L 494 744 
Q 775 591 1075 516 
Q 1375 441 1709 441 
Q 2250 441 2565 725 
Q 2881 1009 2881 1497 
Q 2881 1984 2565 2268 
Q 2250 2553 1709 2553 
Q 1456 2553 1204 2497 
Q 953 2441 691 2322 
L 691 4666 
z
" transform="scale(0.015625)"/>
       </defs>
       <use xlink:href="#DejaVuSans-32"/>
       <use xlink:href="#DejaVuSans-35" transform="translate(63.623047 0)"/>
       <use xlink:href="#DejaVuSans-30" transform="translate(127.246094 0)"/>
       <use xlink:href="#DejaVuSans-30" transform="translate(190.869141 0)"/>
       <use xlink:href="#DejaVuSans-30" transform="translate(254.492188 0)"/>
      </g>
     </g>
    </g>
    <g id="xtick_3">
     <g id="line2d_5">
      <path d="M 143.604375 303.64 
L 143.604375 14.76 
" clip-path="url(#pe2f2292fb6)" style="fill: none; stroke: #b0b0b0; stroke-width: 0.8; stroke-linecap: square"/>
     </g>
     <g id="line2d_6">
      <g>
       <use xlink:href="#meacc2b46a7" x="143.604375" y="303.64" style="stroke: #000000; stroke-width: 0.8"/>
      </g>
     </g>
     <g id="text_3">
      <!-- 50000 -->
      <g transform="translate(127.698125 318.238437) scale(0.1 -0.1)">
       <use xlink:href="#DejaVuSans-35"/>
       <use xlink:href="#DejaVuSans-30" transform="translate(63.623047 0)"/>
       <use xlink:href="#DejaVuSans-30" transform="translate(127.246094 0)"/>
       <use xlink:href="#DejaVuSans-30" transform="translate(190.869141 0)"/>
       <use xlink:href="#DejaVuSans-30" transform="translate(254.492188 0)"/>
      </g>
     </g>
    </g>
    <g id="xtick_4">
     <g id="line2d_7">
      <path d="M 191.479062 303.64 
L 191.479062 14.76 
" clip-path="url(#pe2f2292fb6)" style="fill: none; stroke: #b0b0b0; stroke-width: 0.8; stroke-linecap: square"/>
     </g>
     <g id="line2d_8">
      <g>
       <use xlink:href="#meacc2b46a7" x="191.479062" y="303.64" style="stroke: #000000; stroke-width: 0.8"/>
      </g>
     </g>
     <g id="text_4">
      <!-- 75000 -->
      <g transform="translate(175.572812 318.238437) scale(0.1 -0.1)">
       <defs>
        <path id="DejaVuSans-37" d="M 525 4666 
L 3525 4666 
L 3525 4397 
L 1831 0 
L 1172 0 
L 2766 4134 
L 525 4134 
L 525 4666 
z
" transform="scale(0.015625)"/>
       </defs>
       <use xlink:href="#DejaVuSans-37"/>
       <use xlink:href="#DejaVuSans-35" transform="translate(63.623047 0)"/>
       <use xlink:href="#DejaVuSans-30" transform="translate(127.246094 0)"/>
       <use xlink:href="#DejaVuSans-30" transform="translate(190.869141 0)"/>
       <use xlink:href="#DejaVuSans-30" transform="translate(254.492188 0)"/>
      </g>
     </g>
    </g>
    <g id="xtick_5">
     <g id="line2d_9">
      <path d="M 239.35375 303.64 
L 239.35375 14.76 
" clip-path="url(#pe2f2292fb6)" style="fill: none; stroke: #b0b0b0; stroke-width: 0.8; stroke-linecap: square"/>
     </g>
     <g id="line2d_10">
      <g>
       <use xlink:href="#meacc2b46a7" x="239.35375" y="303.64" style="stroke: #000000; stroke-width: 0.8"/>
      </g>
     </g>
     <g id="text_5">
      <!-- 100000 -->
      <g transform="translate(220.26625 318.238437) scale(0.1 -0.1)">
       <defs>
        <path id="DejaVuSans-31" d="M 794 531 
L 1825 531 
L 1825 4091 
L 703 3866 
L 703 4441 
L 1819 4666 
L 2450 4666 
L 2450 531 
L 3481 531 
L 3481 0 
L 794 0 
L 794 531 
z
" transform="scale(0.015625)"/>
       </defs>
       <use xlink:href="#DejaVuSans-31"/>
       <use xlink:href="#DejaVuSans-30" transform="translate(63.623047 0)"/>
       <use xlink:href="#DejaVuSans-30" transform="translate(127.246094 0)"/>
       <use xlink:href="#DejaVuSans-30" transform="translate(190.869141 0)"/>
       <use xlink:href="#DejaVuSans-30" transform="translate(254.492188 0)"/>
       <use xlink:href="#DejaVuSans-30" transform="translate(318.115234 0)"/>
      </g>
     </g>
    </g>
    <g id="xtick_6">
     <g id="line2d_11">
      <path d="M 287.228437 303.64 
L 287.228437 14.76 
" clip-path="url(#pe2f2292fb6)" style="fill: none; stroke: #b0b0b0; stroke-width: 0.8; stroke-linecap: square"/>
     </g>
     <g id="line2d_12">
      <g>
       <use xlink:href="#meacc2b46a7" x="287.228437" y="303.64" style="stroke: #000000; stroke-width: 0.8"/>
      </g>
     </g>
     <g id="text_6">
      <!-- 125000 -->
      <g transform="translate(268.140938 318.238437) scale(0.1 -0.1)">
       <use xlink:href="#DejaVuSans-31"/>
       <use xlink:href="#DejaVuSans-32" transform="translate(63.623047 0)"/>
       <use xlink:href="#DejaVuSans-35" transform="translate(127.246094 0)"/>
       <use xlink:href="#DejaVuSans-30" transform="translate(190.869141 0)"/>
       <use xlink:href="#DejaVuSans-30" transform="translate(254.492188 0)"/>
       <use xlink:href="#DejaVuSans-30" transform="translate(318.115234 0)"/>
      </g>
     </g>
    </g>
    <g id="xtick_7">
     <g id="line2d_13">
      <path d="M 335.103125 303.64 
L 335.103125 14.76 
" clip-path="url(#pe2f2292fb6)" style="fill: none; stroke: #b0b0b0; stroke-width: 0.8; stroke-linecap: square"/>
     </g>
     <g id="line2d_14">
      <g>
       <use xlink:href="#meacc2b46a7" x="335.103125" y="303.64" style="stroke: #000000; stroke-width: 0.8"/>
      </g>
     </g>
     <g id="text_7">
      <!-- 150000 -->
      <g transform="translate(316.015625 318.238437) scale(0.1 -0.1)">
       <use xlink:href="#DejaVuSans-31"/>
       <use xlink:href="#DejaVuSans-35" transform="translate(63.623047 0)"/>
       <use xlink:href="#DejaVuSans-30" transform="translate(127.246094 0)"/>
       <use xlink:href="#DejaVuSans-30" transform="translate(190.869141 0)"/>
       <use xlink:href="#DejaVuSans-30" transform="translate(254.492188 0)"/>
       <use xlink:href="#DejaVuSans-30" transform="translate(318.115234 0)"/>
      </g>
     </g>
    </g>
    <g id="xtick_8">
     <g id="line2d_15">
      <path d="M 382.977813 303.64 
L 382.977813 14.76 
" clip-path="url(#pe2f2292fb6)" style="fill: none; stroke: #b0b0b0; stroke-width: 0.8; stroke-linecap: square"/>
     </g>
     <g id="line2d_16">
      <g>
       <use xlink:href="#meacc2b46a7" x="382.977813" y="303.64" style="stroke: #000000; stroke-width: 0.8"/>
      </g>
     </g>
     <g id="text_8">
      <!-- 175000 -->
      <g transform="translate(363.890313 318.238437) scale(0.1 -0.1)">
       <use xlink:href="#DejaVuSans-31"/>
       <use xlink:href="#DejaVuSans-37" transform="translate(63.623047 0)"/>
       <use xlink:href="#DejaVuSans-35" transform="translate(127.246094 0)"/>
       <use xlink:href="#DejaVuSans-30" transform="translate(190.869141 0)"/>
       <use xlink:href="#DejaVuSans-30" transform="translate(254.492188 0)"/>
       <use xlink:href="#DejaVuSans-30" transform="translate(318.115234 0)"/>
      </g>
     </g>
    </g>
    <g id="xtick_9">
     <g id="line2d_17">
      <path d="M 430.8525 303.64 
L 430.8525 14.76 
" clip-path="url(#pe2f2292fb6)" style="fill: none; stroke: #b0b0b0; stroke-width: 0.8; stroke-linecap: square"/>
     </g>
     <g id="line2d_18">
      <g>
       <use xlink:href="#meacc2b46a7" x="430.8525" y="303.64" style="stroke: #000000; stroke-width: 0.8"/>
      </g>
     </g>
     <g id="text_9">
      <!-- 200000 -->
      <g transform="translate(411.765 318.238437) scale(0.1 -0.1)">
       <use xlink:href="#DejaVuSans-32"/>
       <use xlink:href="#DejaVuSans-30" transform="translate(63.623047 0)"/>
       <use xlink:href="#DejaVuSans-30" transform="translate(127.246094 0)"/>
       <use xlink:href="#DejaVuSans-30" transform="translate(190.869141 0)"/>
       <use xlink:href="#DejaVuSans-30" transform="translate(254.492188 0)"/>
       <use xlink:href="#DejaVuSans-30" transform="translate(318.115234 0)"/>
      </g>
     </g>
    </g>
    <g id="text_10">
     <!-- Step -->
     <g transform="translate(227.968594 331.916562) scale(0.1 -0.1)">
      <defs>
       <path id="DejaVuSans-53" d="M 3425 4513 
L 3425 3897 
Q 3066 4069 2747 4153 
Q 2428 4238 2131 4238 
Q 1616 4238 1336 4038 
Q 1056 3838 1056 3469 
Q 1056 3159 1242 3001 
Q 1428 2844 1947 2747 
L 2328 2669 
Q 3034 2534 3370 2195 
Q 3706 1856 3706 1288 
Q 3706 609 3251 259 
Q 2797 -91 1919 -91 
Q 1588 -91 1214 -16 
Q 841 59 441 206 
L 441 856 
Q 825 641 1194 531 
Q 1563 422 1919 422 
Q 2459 422 2753 634 
Q 3047 847 3047 1241 
Q 3047 1584 2836 1778 
Q 2625 1972 2144 2069 
L 1759 2144 
Q 1053 2284 737 2584 
Q 422 2884 422 3419 
Q 422 4038 858 4394 
Q 1294 4750 2059 4750 
Q 2388 4750 2728 4690 
Q 3069 4631 3425 4513 
z
" transform="scale(0.015625)"/>
       <path id="DejaVuSans-74" d="M 1172 4494 
L 1172 3500 
L 2356 3500 
L 2356 3053 
L 1172 3053 
L 1172 1153 
Q 1172 725 1289 603 
Q 1406 481 1766 481 
L 2356 481 
L 2356 0 
L 1766 0 
Q 1100 0 847 248 
Q 594 497 594 1153 
L 594 3053 
L 172 3053 
L 172 3500 
L 594 3500 
L 594 4494 
L 1172 4494 
z
" transform="scale(0.015625)"/>
       <path id="DejaVuSans-65" d="M 3597 1894 
L 3597 1613 
L 953 1613 
Q 991 1019 1311 708 
Q 1631 397 2203 397 
Q 2534 397 2845 478 
Q 3156 559 3463 722 
L 3463 178 
Q 3153 47 2828 -22 
Q 2503 -91 2169 -91 
Q 1331 -91 842 396 
Q 353 884 353 1716 
Q 353 2575 817 3079 
Q 1281 3584 2069 3584 
Q 2775 3584 3186 3129 
Q 3597 2675 3597 1894 
z
M 3022 2063 
Q 3016 2534 2758 2815 
Q 2500 3097 2075 3097 
Q 1594 3097 1305 2825 
Q 1016 2553 972 2059 
L 3022 2063 
z
" transform="scale(0.015625)"/>
       <path id="DejaVuSans-70" d="M 1159 525 
L 1159 -1331 
L 581 -1331 
L 581 3500 
L 1159 3500 
L 1159 2969 
Q 1341 3281 1617 3432 
Q 1894 3584 2278 3584 
Q 2916 3584 3314 3078 
Q 3713 2572 3713 1747 
Q 3713 922 3314 415 
Q 2916 -91 2278 -91 
Q 1894 -91 1617 61 
Q 1341 213 1159 525 
z
M 3116 1747 
Q 3116 2381 2855 2742 
Q 2594 3103 2138 3103 
Q 1681 3103 1420 2742 
Q 1159 2381 1159 1747 
Q 1159 1113 1420 752 
Q 1681 391 2138 391 
Q 2594 391 2855 752 
Q 3116 1113 3116 1747 
z
" transform="scale(0.015625)"/>
      </defs>
      <use xlink:href="#DejaVuSans-53"/>
      <use xlink:href="#DejaVuSans-74" transform="translate(63.476562 0)"/>
      <use xlink:href="#DejaVuSans-65" transform="translate(102.685547 0)"/>
      <use xlink:href="#DejaVuSans-70" transform="translate(164.208984 0)"/>
     </g>
    </g>
   </g>
   <g id="matplotlib.axis_2">
    <g id="ytick_1">
     <g id="line2d_19">
      <path d="M 47.855 303.64 
L 430.8525 303.64 
" clip-path="url(#pe2f2292fb6)" style="fill: none; stroke: #b0b0b0; stroke-width: 0.8; stroke-linecap: square"/>
     </g>
     <g id="line2d_20">
      <defs>
       <path id="m4bb9d289c3" d="M 0 0 
L -3.5 0 
" style="stroke: #000000; stroke-width: 0.8"/>
      </defs>
      <g>
       <use xlink:href="#m4bb9d289c3" x="47.855" y="303.64" style="stroke: #000000; stroke-width: 0.8"/>
      </g>
     </g>
     <g id="text_11">
      <!-- 0.0 -->
      <g transform="translate(24.951875 307.439219) scale(0.1 -0.1)">
       <defs>
        <path id="DejaVuSans-2e" d="M 684 794 
L 1344 794 
L 1344 0 
L 684 0 
L 684 794 
z
" transform="scale(0.015625)"/>
       </defs>
       <use xlink:href="#DejaVuSans-30"/>
       <use xlink:href="#DejaVuSans-2e" transform="translate(63.623047 0)"/>
       <use xlink:href="#DejaVuSans-30" transform="translate(95.410156 0)"/>
      </g>
     </g>
    </g>
    <g id="ytick_2">
     <g id="line2d_21">
      <path d="M 47.855 245.864 
L 430.8525 245.864 
" clip-path="url(#pe2f2292fb6)" style="fill: none; stroke: #b0b0b0; stroke-width: 0.8; stroke-linecap: square"/>
     </g>
     <g id="line2d_22">
      <g>
       <use xlink:href="#m4bb9d289c3" x="47.855" y="245.864" style="stroke: #000000; stroke-width: 0.8"/>
      </g>
     </g>
     <g id="text_12">
      <!-- 0.1 -->
      <g transform="translate(24.951875 249.663219) scale(0.1 -0.1)">
       <use xlink:href="#DejaVuSans-30"/>
       <use xlink:href="#DejaVuSans-2e" transform="translate(63.623047 0)"/>
       <use xlink:href="#DejaVuSans-31" transform="translate(95.410156 0)"/>
      </g>
     </g>
    </g>
    <g id="ytick_3">
     <g id="line2d_23">
      <path d="M 47.855 188.088 
L 430.8525 188.088 
" clip-path="url(#pe2f2292fb6)" style="fill: none; stroke: #b0b0b0; stroke-width: 0.8; stroke-linecap: square"/>
     </g>
     <g id="line2d_24">
      <g>
       <use xlink:href="#m4bb9d289c3" x="47.855" y="188.088" style="stroke: #000000; stroke-width: 0.8"/>
      </g>
     </g>
     <g id="text_13">
      <!-- 0.2 -->
      <g transform="translate(24.951875 191.887219) scale(0.1 -0.1)">
       <use xlink:href="#DejaVuSans-30"/>
       <use xlink:href="#DejaVuSans-2e" transform="translate(63.623047 0)"/>
       <use xlink:href="#DejaVuSans-32" transform="translate(95.410156 0)"/>
      </g>
     </g>
    </g>
    <g id="ytick_4">
     <g id="line2d_25">
      <path d="M 47.855 130.312 
L 430.8525 130.312 
" clip-path="url(#pe2f2292fb6)" style="fill: none; stroke: #b0b0b0; stroke-width: 0.8; stroke-linecap: square"/>
     </g>
     <g id="line2d_26">
      <g>
       <use xlink:href="#m4bb9d289c3" x="47.855" y="130.312" style="stroke: #000000; stroke-width: 0.8"/>
      </g>
     </g>
     <g id="text_14">
      <!-- 0.3 -->
      <g transform="translate(24.951875 134.111219) scale(0.1 -0.1)">
       <defs>
        <path id="DejaVuSans-33" d="M 2597 2516 
Q 3050 2419 3304 2112 
Q 3559 1806 3559 1356 
Q 3559 666 3084 287 
Q 2609 -91 1734 -91 
Q 1441 -91 1130 -33 
Q 819 25 488 141 
L 488 750 
Q 750 597 1062 519 
Q 1375 441 1716 441 
Q 2309 441 2620 675 
Q 2931 909 2931 1356 
Q 2931 1769 2642 2001 
Q 2353 2234 1838 2234 
L 1294 2234 
L 1294 2753 
L 1863 2753 
Q 2328 2753 2575 2939 
Q 2822 3125 2822 3475 
Q 2822 3834 2567 4026 
Q 2313 4219 1838 4219 
Q 1578 4219 1281 4162 
Q 984 4106 628 3988 
L 628 4550 
Q 988 4650 1302 4700 
Q 1616 4750 1894 4750 
Q 2613 4750 3031 4423 
Q 3450 4097 3450 3541 
Q 3450 3153 3228 2886 
Q 3006 2619 2597 2516 
z
" transform="scale(0.015625)"/>
       </defs>
       <use xlink:href="#DejaVuSans-30"/>
       <use xlink:href="#DejaVuSans-2e" transform="translate(63.623047 0)"/>
       <use xlink:href="#DejaVuSans-33" transform="translate(95.410156 0)"/>
      </g>
     </g>
    </g>
    <g id="ytick_5">
     <g id="line2d_27">
      <path d="M 47.855 72.536 
L 430.8525 72.536 
" clip-path="url(#pe2f2292fb6)" style="fill: none; stroke: #b0b0b0; stroke-width: 0.8; stroke-linecap: square"/>
     </g>
     <g id="line2d_28">
      <g>
       <use xlink:href="#m4bb9d289c3" x="47.855" y="72.536" style="stroke: #000000; stroke-width: 0.8"/>
      </g>
     </g>
     <g id="text_15">
      <!-- 0.4 -->
      <g transform="translate(24.951875 76.335219) scale(0.1 -0.1)">
       <defs>
        <path id="DejaVuSans-34" d="M 2419 4116 
L 825 1625 
L 2419 1625 
L 2419 4116 
z
M 2253 4666 
L 3047 4666 
L 3047 1625 
L 3713 1625 
L 3713 1100 
L 3047 1100 
L 3047 0 
L 2419 0 
L 2419 1100 
L 313 1100 
L 313 1709 
L 2253 4666 
z
" transform="scale(0.015625)"/>
       </defs>
       <use xlink:href="#DejaVuSans-30"/>
       <use xlink:href="#DejaVuSans-2e" transform="translate(63.623047 0)"/>
       <use xlink:href="#DejaVuSans-34" transform="translate(95.410156 0)"/>
      </g>
     </g>
    </g>
    <g id="ytick_6">
     <g id="line2d_29">
      <path d="M 47.855 14.76 
L 430.8525 14.76 
" clip-path="url(#pe2f2292fb6)" style="fill: none; stroke: #b0b0b0; stroke-width: 0.8; stroke-linecap: square"/>
     </g>
     <g id="line2d_30">
      <g>
       <use xlink:href="#m4bb9d289c3" x="47.855" y="14.76" style="stroke: #000000; stroke-width: 0.8"/>
      </g>
     </g>
     <g id="text_16">
      <!-- 0.5 -->
      <g transform="translate(24.951875 18.559219) scale(0.1 -0.1)">
       <use xlink:href="#DejaVuSans-30"/>
       <use xlink:href="#DejaVuSans-2e" transform="translate(63.623047 0)"/>
       <use xlink:href="#DejaVuSans-35" transform="translate(95.410156 0)"/>
      </g>
     </g>
    </g>
    <g id="text_17">
     <!-- MSE -->
     <g transform="translate(18.872188 169.847656) rotate(-90) scale(0.1 -0.1)">
      <defs>
       <path id="DejaVuSans-4d" d="M 628 4666 
L 1569 4666 
L 2759 1491 
L 3956 4666 
L 4897 4666 
L 4897 0 
L 4281 0 
L 4281 4097 
L 3078 897 
L 2444 897 
L 1241 4097 
L 1241 0 
L 628 0 
L 628 4666 
z
" transform="scale(0.015625)"/>
       <path id="DejaVuSans-45" d="M 628 4666 
L 3578 4666 
L 3578 4134 
L 1259 4134 
L 1259 2753 
L 3481 2753 
L 3481 2222 
L 1259 2222 
L 1259 531 
L 3634 531 
L 3634 0 
L 628 0 
L 628 4666 
z
" transform="scale(0.015625)"/>
      </defs>
      <use xlink:href="#DejaVuSans-4d"/>
      <use xlink:href="#DejaVuSans-53" transform="translate(86.279297 0)"/>
      <use xlink:href="#DejaVuSans-45" transform="translate(149.755859 0)"/>
     </g>
    </g>
   </g>
   <g id="line2d_31">
    <path d="M 48.225412 -1 
L 48.237998 222.603738 
L 48.620995 222.190733 
L 49.003993 235.347237 
L 49.38699 227.493886 
L 49.769988 258.365134 
L 50.535983 227.329423 
L 50.91898 258.216495 
L 51.301978 250.113517 
L 51.684975 256.712735 
L 52.067973 236.073892 
L 52.45097 243.908647 
L 52.833968 223.013557 
L 53.216965 241.387269 
L 53.599963 253.910651 
L 53.98296 237.860467 
L 54.365958 266.674981 
L 54.748955 234.657805 
L 55.131953 248.720641 
L 55.897948 256.732872 
L 56.280945 260.283376 
L 56.663943 250.60717 
L 57.04694 249.258227 
L 57.429938 253.604883 
L 57.812935 252.25529 
L 58.195933 233.264266 
L 58.57893 250.939605 
L 58.961928 253.855375 
L 59.344925 260.753404 
L 59.727923 240.684006 
L 60.11092 252.085881 
L 60.493918 251.915107 
L 60.876915 244.877701 
L 61.259913 253.859817 
L 61.64291 267.471534 
L 62.025908 267.649745 
L 62.408905 252.719284 
L 62.791903 246.755733 
L 63.1749 253.919135 
L 63.557898 232.419828 
L 63.940895 250.153692 
L 64.323893 251.754001 
L 64.70689 261.33826 
L 65.089888 255.477129 
L 65.472885 252.784181 
L 65.855883 263.394981 
L 66.23888 253.853614 
L 66.621878 252.935984 
L 67.387873 270.525225 
L 67.77087 252.352997 
L 68.153868 252.923914 
L 68.536865 262.152953 
L 68.919863 236.678811 
L 69.30286 251.389453 
L 69.685858 257.277544 
L 70.068855 256.636289 
L 70.451853 251.942811 
L 70.83485 253.727027 
L 71.217848 260.874942 
L 71.600845 259.219581 
L 71.983843 271.05073 
L 72.36684 259.764291 
L 72.749838 262.542747 
L 73.132835 259.984702 
L 73.515833 260.034266 
L 74.281828 250.536048 
L 74.664825 248.106484 
L 75.047823 266.982505 
L 75.43082 233.194005 
L 75.813818 268.392765 
L 76.196815 262.698847 
L 76.579813 259.099662 
L 76.96281 260.666119 
L 77.345808 244.345939 
L 77.728805 249.356738 
L 78.111803 259.99818 
L 78.4948 259.897752 
L 78.877798 243.749281 
L 79.260795 262.30761 
L 79.643793 261.316861 
L 80.02679 263.03891 
L 80.409788 258.396309 
L 80.792785 263.71325 
L 81.175783 266.435139 
L 81.55878 251.997089 
L 81.941778 268.932258 
L 82.324775 270.221737 
L 82.707773 263.520096 
L 83.09077 259.461773 
L 83.473768 262.252993 
L 83.856765 253.757001 
L 84.239763 270.452001 
L 84.62276 248.452991 
L 85.005758 259.855124 
L 85.388755 259.60009 
L 85.771753 269.444714 
L 86.15475 268.693794 
L 86.537748 255.438112 
L 86.920745 269.158737 
L 87.303742 255.51325 
L 87.68674 270.825933 
L 88.069738 253.803904 
L 88.452735 260.837668 
L 88.835733 274.893564 
L 89.21873 260.18597 
L 89.601728 268.950824 
L 90.367723 268.30731 
L 90.75072 253.581091 
L 91.133718 263.960427 
L 91.899713 274.114961 
L 92.665708 249.189985 
L 93.048705 274.717339 
L 93.431703 274.251539 
L 93.8147 274.191769 
L 94.197698 265.617437 
L 94.580695 266.964925 
L 94.963693 270.242063 
L 95.34669 272.140103 
L 95.729688 266.251464 
L 96.112685 277.250219 
L 96.87868 268.07573 
L 97.644675 273.275942 
L 98.027673 268.656382 
L 98.41067 271.388783 
L 98.793667 258.596668 
L 99.176665 269.407018 
L 99.559663 276.44489 
L 99.94266 253.687399 
L 100.325658 279.985624 
L 100.708655 260.260402 
L 101.47465 277.532023 
L 101.857648 271.121017 
L 102.240645 267.589761 
L 102.623643 268.395533 
L 103.00664 268.811276 
L 103.389638 257.669904 
L 103.772635 274.424112 
L 104.155633 282.236032 
L 104.53863 275.12605 
L 104.921627 260.937983 
L 105.304625 281.039275 
L 105.687623 260.561667 
L 106.07062 277.234104 
L 106.836615 259.326943 
L 107.219613 261.176336 
L 107.60261 273.339279 
L 107.985608 279.580021 
L 108.368605 279.40299 
L 108.751603 272.110595 
L 109.1346 277.185249 
L 109.517598 263.624583 
L 109.900595 274.678052 
L 110.283592 246.931474 
L 110.66659 277.722172 
L 111.049588 268.454535 
L 111.432585 277.641001 
L 111.815583 276.867775 
L 112.19858 244.933507 
L 112.581578 279.012324 
L 112.964575 281.181978 
L 113.347573 277.026989 
L 113.73057 281.285787 
L 114.113568 279.611241 
L 114.496565 277.366459 
L 114.879563 283.486336 
L 115.645557 268.749304 
L 116.028555 282.341037 
L 116.411552 282.285337 
L 116.79455 282.704371 
L 117.177548 275.498518 
L 117.560545 275.016397 
L 117.943543 282.463883 
L 118.709538 273.889699 
L 119.092535 257.550355 
L 119.475533 279.202938 
L 119.85853 263.266974 
L 120.241528 281.628648 
L 120.624525 279.434772 
L 121.007522 262.197437 
L 121.39052 281.779965 
L 121.773517 278.129807 
L 122.156515 281.145266 
L 122.539513 262.660028 
L 122.92251 275.970673 
L 123.305508 282.71154 
L 123.688505 276.17433 
L 124.071503 284.132608 
L 124.4545 275.274872 
L 124.837498 250.913264 
L 125.220495 271.592367 
L 125.603493 279.616361 
L 125.98649 281.199406 
L 126.369488 279.153271 
L 127.135482 249.126078 
L 127.51848 278.789195 
L 127.901477 271.548177 
L 128.284475 270.819151 
L 128.667473 273.073077 
L 129.05047 281.21314 
L 129.433468 283.458859 
L 129.816465 281.493882 
L 130.199463 267.29414 
L 130.58246 266.1421 
L 130.965458 259.242775 
L 131.348455 269.252511 
L 131.731453 272.866682 
L 132.11445 282.064317 
L 132.497447 280.426709 
L 133.263442 280.893044 
L 133.64644 276.218339 
L 134.029438 276.443089 
L 134.412435 267.75306 
L 134.795433 282.441665 
L 135.17843 278.013095 
L 135.561428 279.496319 
L 135.944425 275.456502 
L 136.327423 285.142949 
L 136.71042 246.138804 
L 137.093418 277.056609 
L 137.476415 281.588976 
L 137.859413 284.016864 
L 138.24241 281.248535 
L 138.625407 268.483772 
L 139.008405 273.70419 
L 139.391402 284.137926 
L 139.7744 283.879624 
L 140.157398 284.712351 
L 140.540395 265.601096 
L 140.923393 281.518094 
L 141.30639 283.725261 
L 141.689388 270.00932 
L 142.072385 246.252851 
L 142.455383 275.853796 
L 142.83838 281.519641 
L 143.221378 281.998723 
L 143.604375 285.309253 
L 143.987372 274.102975 
L 144.37037 282.173711 
L 144.753367 284.407787 
L 145.136365 278.878241 
L 145.519362 256.680265 
L 145.90236 268.261114 
L 146.668355 284.662805 
L 147.051353 285.301386 
L 147.43435 249.541408 
L 147.817348 285.316368 
L 148.200345 276.989022 
L 148.583343 273.695665 
L 148.96634 277.744868 
L 149.349338 280.038621 
L 149.732335 276.413643 
L 150.115332 270.80673 
L 150.49833 263.548093 
L 150.881327 251.162818 
L 151.264325 243.292373 
L 151.647323 272.58606 
L 152.03032 281.270088 
L 152.413318 262.58384 
L 152.796315 266.048332 
L 153.179313 279.885642 
L 153.56231 284.888639 
L 153.945308 283.025485 
L 154.328305 276.140655 
L 154.711303 279.512363 
L 155.0943 285.251476 
L 155.477297 253.154316 
L 155.860295 285.378988 
L 156.243292 269.411762 
L 156.62629 273.198209 
L 157.009287 286.734782 
L 157.392285 257.365737 
L 158.15828 278.860357 
L 158.541278 285.850389 
L 158.924275 278.486044 
L 159.307273 284.955325 
L 159.69027 272.449812 
L 160.073268 281.172805 
L 160.456265 282.987677 
L 160.839263 242.465609 
L 161.605257 279.212458 
L 161.988255 286.26528 
L 162.371252 282.725251 
L 162.75425 284.957544 
L 163.137248 259.482815 
L 163.520245 284.253712 
L 163.903243 284.221159 
L 164.28624 283.924291 
L 164.669238 279.249609 
L 165.052235 282.633527 
L 165.435233 274.987576 
L 165.81823 274.65279 
L 166.201228 280.363095 
L 166.584225 279.159591 
L 166.967222 286.945595 
L 167.35022 285.378878 
L 167.733217 271.979068 
L 168.116215 284.105133 
L 168.499212 283.459983 
L 168.88221 273.721891 
L 169.265208 284.893951 
L 169.648205 283.23771 
L 170.031203 279.861771 
L 170.4142 265.685437 
L 170.797198 278.390733 
L 171.180195 277.948276 
L 171.563193 262.404138 
L 171.94619 284.511003 
L 172.329188 281.8021 
L 172.712185 282.937814 
L 173.095182 280.575553 
L 173.47818 269.380193 
L 173.861177 286.586232 
L 174.244175 277.221423 
L 174.627173 279.750623 
L 175.01017 271.409835 
L 175.393168 280.270758 
L 175.776165 282.481508 
L 176.159163 281.913441 
L 176.54216 281.915878 
L 176.925158 262.29706 
L 177.308155 280.837028 
L 177.691153 283.492847 
L 178.07415 281.213865 
L 178.457148 284.108174 
L 179.223143 271.238708 
L 179.60614 280.714274 
L 179.989137 269.239591 
L 180.372135 281.602738 
L 180.755133 287.30128 
L 181.13813 282.247519 
L 181.521128 281.395676 
L 181.904125 287.301438 
L 182.287123 273.715223 
L 182.67012 266.81638 
L 183.053118 285.284146 
L 183.436115 277.273128 
L 183.819113 281.924879 
L 184.20211 283.478891 
L 184.585108 285.967817 
L 184.968105 279.193978 
L 185.7341 284.286318 
L 186.117097 276.637635 
L 186.500095 285.959718 
L 186.883093 270.913225 
L 187.26609 279.346894 
L 187.649088 284.499349 
L 188.032085 287.034899 
L 188.415083 281.559352 
L 188.79808 280.211197 
L 189.181078 285.10131 
L 189.564075 250.273559 
L 189.947073 280.04254 
L 190.33007 284.594464 
L 191.096065 276.653229 
L 191.479062 283.801335 
L 191.86206 284.519548 
L 192.245058 264.750089 
L 192.628055 282.991947 
L 193.011053 272.726928 
L 193.777048 285.414045 
L 194.160045 263.786782 
L 194.543043 282.852666 
L 194.92604 274.738885 
L 195.309038 273.215234 
L 195.692035 285.772997 
L 196.075033 284.656156 
L 196.45803 287.0294 
L 196.841028 285.543777 
L 197.224025 280.14178 
L 197.607022 279.846066 
L 197.99002 271.301683 
L 198.373018 275.542983 
L 198.756015 276.36539 
L 199.139013 282.344941 
L 199.52201 277.281731 
L 199.905008 285.056968 
L 200.671003 279.597991 
L 201.054 278.912316 
L 201.436998 264.094345 
L 201.819995 278.565506 
L 202.202993 283.91738 
L 202.58599 285.578033 
L 202.968987 282.738195 
L 203.351985 284.875297 
L 203.734983 282.497709 
L 204.11798 271.694241 
L 204.500978 283.730041 
L 204.883975 286.428995 
L 205.266973 281.757234 
L 205.64997 270.442974 
L 206.032968 277.510878 
L 206.415965 281.445007 
L 206.798963 283.273544 
L 207.18196 283.801795 
L 207.564958 284.770608 
L 207.947955 273.982595 
L 208.330952 269.300105 
L 208.71395 280.870425 
L 209.096947 272.821815 
L 209.479945 286.249252 
L 209.862943 285.891472 
L 210.24594 279.935716 
L 210.628938 286.514368 
L 211.011935 285.83211 
L 211.394933 283.96446 
L 211.77793 280.155555 
L 212.160928 270.661528 
L 212.543925 276.134734 
L 212.926923 286.050082 
L 213.30992 279.034082 
L 213.692918 280.991601 
L 214.075915 275.383687 
L 214.84191 280.30425 
L 215.224908 278.072749 
L 215.607905 284.650719 
L 215.990903 279.061417 
L 216.3739 278.474861 
L 216.756898 266.302569 
L 217.139895 273.152573 
L 217.522893 285.759705 
L 217.90589 280.286932 
L 218.288888 277.774211 
L 219.054883 275.176982 
L 219.43788 285.223956 
L 220.203875 271.011969 
L 220.586872 281.910191 
L 220.96987 282.915006 
L 221.352868 265.02708 
L 221.735865 280.460162 
L 222.118863 282.852782 
L 222.50186 283.537875 
L 222.884858 280.795404 
L 223.267855 275.351844 
L 223.650853 279.51987 
L 224.03385 281.72648 
L 224.416848 287.099854 
L 224.799845 275.182311 
L 225.182843 283.087504 
L 225.56584 287.257022 
L 225.948837 283.303126 
L 226.331835 285.034476 
L 226.714832 284.457189 
L 227.09783 285.803533 
L 227.480828 274.253052 
L 227.863825 279.471241 
L 228.246823 283.033332 
L 228.62982 276.372387 
L 229.012818 279.139903 
L 229.395815 278.648039 
L 229.778813 283.682051 
L 230.16181 283.580958 
L 230.544808 265.028384 
L 230.927805 284.511854 
L 231.310802 286.222086 
L 231.6938 280.994683 
L 232.076797 285.881427 
L 232.459795 282.191003 
L 232.842793 281.207027 
L 233.22579 282.627735 
L 233.608788 274.370728 
L 233.991785 285.549028 
L 234.374783 282.944409 
L 234.75778 264.118179 
L 235.523775 285.963985 
L 235.906773 275.426574 
L 236.28977 286.396963 
L 236.672768 285.254429 
L 237.055765 281.455448 
L 237.438762 280.839262 
L 237.82176 276.111269 
L 238.204757 283.059562 
L 238.587755 276.110131 
L 238.970753 284.177639 
L 239.35375 280.245578 
L 239.736748 287.524829 
L 240.119745 283.246991 
L 240.502743 284.78584 
L 240.88574 285.57209 
L 241.268738 285.179674 
L 241.651735 284.15005 
L 242.034733 287.72237 
L 242.41773 264.418261 
L 242.800727 283.37921 
L 243.183725 282.217662 
L 243.566722 273.681442 
L 243.94972 285.270987 
L 244.332718 286.902933 
L 244.715715 283.383438 
L 245.098713 286.039918 
L 245.48171 282.103868 
L 245.864708 269.146686 
L 246.247705 285.838585 
L 246.630703 285.601786 
L 247.0137 284.243846 
L 247.396698 279.359767 
L 248.162693 285.938421 
L 248.54569 284.728948 
L 248.928687 249.675519 
L 249.311685 285.732713 
L 249.694682 279.457989 
L 250.07768 280.224519 
L 250.460678 285.53702 
L 250.843675 274.139399 
L 251.226673 272.034039 
L 251.60967 286.895235 
L 251.992668 276.523457 
L 252.375665 284.472203 
L 252.758663 285.17916 
L 253.14166 278.26894 
L 253.524658 280.985656 
L 253.907655 273.071861 
L 254.67365 287.287595 
L 255.056647 285.51099 
L 255.439645 276.322055 
L 255.822643 281.387052 
L 256.20564 270.085286 
L 256.588638 286.290454 
L 257.354632 278.349374 
L 257.73763 285.678593 
L 258.120628 287.169374 
L 258.503625 262.854339 
L 258.886622 272.649364 
L 259.26962 273.161749 
L 259.652618 286.397124 
L 260.035615 280.434197 
L 260.418612 269.57099 
L 260.80161 276.721653 
L 261.184607 286.542647 
L 261.567605 285.539521 
L 261.950603 284.90934 
L 262.3336 283.233231 
L 262.716597 270.076078 
L 263.099595 283.805801 
L 263.482593 286.515529 
L 263.86559 277.183947 
L 264.248587 262.888182 
L 264.631585 287.15529 
L 265.014583 272.824607 
L 265.39758 283.265154 
L 265.780577 282.005322 
L 266.163575 287.048933 
L 266.546572 280.573654 
L 266.92957 270.249231 
L 267.312568 284.481185 
L 267.695565 282.610334 
L 268.078562 285.9058 
L 268.46156 281.379254 
L 268.844558 287.211904 
L 269.227555 272.700579 
L 269.610552 285.681669 
L 269.99355 283.745917 
L 270.376548 287.923066 
L 270.759545 271.090643 
L 271.142542 260.792826 
L 271.52554 287.317736 
L 271.908537 281.60799 
L 272.291535 279.298387 
L 272.674532 276.230157 
L 273.05753 288.928633 
L 273.440527 282.252043 
L 273.823525 287.947383 
L 274.206523 277.160743 
L 274.58952 261.521663 
L 275.355515 282.580076 
L 275.738513 282.153212 
L 276.12151 284.326319 
L 276.504507 288.200529 
L 276.887505 280.464661 
L 277.270502 282.945435 
L 277.6535 270.56251 
L 278.036497 276.673179 
L 278.419495 289.443187 
L 278.802492 284.95404 
L 279.18549 255.283829 
L 279.568488 286.881727 
L 279.951485 285.18959 
L 280.334482 284.987752 
L 280.71748 288.511847 
L 281.100478 284.530585 
L 281.483475 281.882564 
L 281.866472 284.408264 
L 282.24947 284.134734 
L 282.632468 282.267985 
L 283.015465 287.444455 
L 283.398462 277.002525 
L 283.78146 279.093221 
L 284.164457 263.000517 
L 284.547455 287.213027 
L 284.930453 268.292336 
L 285.31345 287.63383 
L 285.696447 259.152308 
L 286.079445 287.702287 
L 286.462443 273.497214 
L 286.84544 285.431795 
L 287.228437 284.593911 
L 287.611435 286.221321 
L 287.994433 279.700175 
L 288.37743 282.228178 
L 288.760427 288.7617 
L 289.143425 286.450443 
L 289.526422 288.351117 
L 289.90942 280.43925 
L 290.292417 289.228244 
L 290.675415 288.472904 
L 291.058412 281.464639 
L 291.44141 280.797223 
L 291.824408 283.512409 
L 292.590402 280.307898 
L 292.9734 287.739151 
L 293.356398 280.749622 
L 293.739395 269.124825 
L 294.122392 265.86402 
L 294.50539 279.845009 
L 294.888387 289.121574 
L 295.271385 288.927389 
L 295.654382 279.126191 
L 296.03738 287.522726 
L 296.420377 289.125378 
L 296.803375 287.305477 
L 297.186373 290.971997 
L 297.56937 285.05936 
L 297.952367 286.939263 
L 298.335365 275.888216 
L 298.718363 285.72328 
L 299.10136 290.288721 
L 299.484357 288.780204 
L 299.867355 288.254931 
L 300.250352 288.536069 
L 300.63335 283.451875 
L 301.016347 285.834304 
L 301.399345 281.850974 
L 301.782342 287.681472 
L 302.16534 288.794452 
L 302.548338 287.804529 
L 302.931335 280.523395 
L 303.314332 279.839073 
L 303.69733 286.988465 
L 304.080328 272.83918 
L 304.463325 285.983114 
L 304.846322 288.328675 
L 305.22932 285.85668 
L 305.612318 280.382158 
L 305.995315 270.648046 
L 306.378312 289.707989 
L 306.76131 287.696321 
L 307.144308 289.743215 
L 307.527305 287.201984 
L 307.910303 282.192316 
L 308.676297 288.563363 
L 309.059295 286.567818 
L 309.82529 277.553632 
L 310.208287 267.488581 
L 310.591285 288.490223 
L 310.974283 287.018123 
L 311.35728 277.096941 
L 311.740277 283.459397 
L 312.123275 284.143858 
L 312.506273 282.427778 
L 312.88927 290.062109 
L 313.272267 281.362089 
L 313.655265 288.461509 
L 314.038263 287.93366 
L 314.42126 276.205698 
L 314.804258 277.322694 
L 315.187255 287.888474 
L 315.570252 286.192667 
L 315.95325 263.416466 
L 316.336248 286.939546 
L 316.719245 282.643824 
L 317.102242 287.991354 
L 317.48524 287.78017 
L 317.868238 287.173209 
L 318.251235 282.509923 
L 318.634232 276.240241 
L 319.01723 289.986218 
L 319.400228 273.279817 
L 319.783225 284.695651 
L 320.166223 290.253248 
L 320.54922 290.098459 
L 320.932217 291.193099 
L 321.315215 289.836508 
L 321.698213 285.111564 
L 322.08121 288.821426 
L 322.464207 290.210828 
L 322.847205 282.255885 
L 323.6132 288.446238 
L 324.379195 290.147681 
L 325.14519 278.420523 
L 325.528188 279.053914 
L 325.911185 288.165773 
L 326.67718 287.13231 
L 327.060178 283.886343 
L 327.443175 279.2156 
L 327.826172 289.472494 
L 328.20917 286.20967 
L 328.592168 284.351785 
L 328.975165 285.952899 
L 329.358162 261.856221 
L 329.74116 290.235867 
L 330.124158 278.127297 
L 330.890152 290.586472 
L 331.27315 286.020092 
L 331.656147 290.017041 
L 332.039145 288.93635 
L 332.422143 289.869241 
L 332.80514 290.440344 
L 333.188137 284.068815 
L 333.571135 287.733768 
L 333.954133 285.095691 
L 334.33713 288.753228 
L 334.720127 280.213872 
L 335.103125 280.626653 
L 335.486123 289.213436 
L 335.86912 284.426047 
L 336.252117 282.437861 
L 336.635115 288.85102 
L 337.018113 282.17697 
L 337.40111 290.514084 
L 337.784108 286.641935 
L 338.550102 270.827358 
L 338.9331 288.230468 
L 339.316098 282.040678 
L 339.699095 288.346679 
L 340.082092 289.449722 
L 340.46509 288.191253 
L 340.848088 282.821429 
L 341.231085 282.413928 
L 341.614082 289.488701 
L 341.99708 283.440201 
L 342.380078 289.808543 
L 342.763075 290.23186 
L 343.146073 287.304297 
L 343.52907 287.358889 
L 344.295065 285.053583 
L 344.678063 280.280544 
L 345.06106 288.14715 
L 345.444057 275.909853 
L 345.827055 289.304589 
L 346.210053 285.544653 
L 346.59305 289.402921 
L 346.976047 289.754896 
L 347.359045 288.996102 
L 347.742043 285.413178 
L 348.12504 288.129035 
L 348.891035 283.072057 
L 349.274032 287.914748 
L 349.65703 282.881632 
L 350.040028 289.588934 
L 350.423025 287.716137 
L 350.806022 278.787975 
L 351.18902 289.87806 
L 351.572018 284.723405 
L 351.955015 281.614372 
L 352.338012 287.941522 
L 352.72101 283.212649 
L 353.104008 288.894936 
L 353.487005 289.808352 
L 353.870002 283.337813 
L 354.253 285.312212 
L 354.635997 289.510336 
L 355.401993 288.405706 
L 355.78499 288.898408 
L 356.167987 289.742609 
L 356.550985 283.784489 
L 356.933983 288.240515 
L 357.31698 281.272981 
L 357.699977 288.223001 
L 358.082975 287.098142 
L 358.465973 277.084654 
L 358.84897 287.445638 
L 359.231967 283.712065 
L 359.614965 286.714024 
L 359.997963 286.651698 
L 360.38096 289.063876 
L 360.763958 286.910567 
L 361.146955 268.045951 
L 361.529952 286.805708 
L 361.91295 286.052427 
L 362.295948 286.606452 
L 362.678945 289.118609 
L 363.061942 288.522106 
L 363.44494 284.042451 
L 363.827938 287.245502 
L 364.210935 287.255262 
L 364.593932 286.936184 
L 364.97693 278.2904 
L 365.359928 286.104156 
L 365.742925 286.385924 
L 366.125923 283.903953 
L 366.50892 289.37701 
L 366.891917 289.398455 
L 367.274915 285.690483 
L 367.657913 287.984703 
L 368.04091 289.572329 
L 368.423907 277.005519 
L 368.806905 287.240847 
L 369.189903 288.853433 
L 369.5729 281.351437 
L 369.955897 289.679065 
L 370.338895 290.011312 
L 370.721893 285.334558 
L 371.10489 289.259445 
L 371.487887 275.363673 
L 372.253882 286.918709 
L 372.63688 290.198949 
L 373.019878 287.497851 
L 373.402875 287.66888 
L 373.785872 290.173063 
L 374.16887 278.876812 
L 374.934865 287.813178 
L 375.317862 278.613184 
L 375.70086 291.706591 
L 376.083858 282.467699 
L 376.466855 289.095953 
L 376.849852 281.592758 
L 377.23285 282.027377 
L 377.615847 288.391168 
L 377.998845 290.486034 
L 378.381843 290.24873 
L 378.76484 274.704304 
L 379.147837 285.879339 
L 379.530835 288.508788 
L 380.29683 291.591327 
L 380.679827 289.852653 
L 381.062825 288.841642 
L 381.445823 286.897995 
L 381.82882 277.382449 
L 382.211817 287.432647 
L 382.977813 286.067709 
L 383.36081 283.253993 
L 383.743808 287.915793 
L 384.126805 286.763178 
L 384.509802 279.321168 
L 384.8928 288.394403 
L 385.275798 290.256818 
L 385.658795 286.283494 
L 386.42479 291.225929 
L 386.807788 275.67124 
L 387.190785 291.876454 
L 387.573782 288.000807 
L 387.95678 290.849898 
L 388.339778 286.902271 
L 388.722775 288.500219 
L 389.105773 284.51011 
L 389.48877 291.565861 
L 389.871767 277.238713 
L 390.254765 284.54509 
L 390.637763 274.491588 
L 391.02076 274.191059 
L 391.403757 288.284617 
L 391.786755 264.69709 
L 392.169753 290.720885 
L 392.55275 290.363336 
L 392.935747 287.570838 
L 393.318745 290.926005 
L 393.701743 289.67171 
L 394.08474 289.469359 
L 394.467737 290.923057 
L 394.850735 291.537748 
L 395.233732 287.683167 
L 395.61673 288.532788 
L 395.999728 285.317025 
L 396.382725 287.316527 
L 396.765722 286.567036 
L 397.14872 276.597714 
L 397.531718 285.435904 
L 397.914715 273.4132 
L 398.297712 289.853602 
L 398.68071 291.510399 
L 399.063708 285.32702 
L 399.446705 291.107434 
L 399.829702 285.932901 
L 400.2127 286.111706 
L 400.595697 288.021746 
L 400.978695 284.43545 
L 401.361693 255.727935 
L 401.74469 284.846099 
L 402.127687 281.929892 
L 402.510685 280.428725 
L 402.893683 284.200612 
L 403.27668 289.784357 
L 403.659677 289.024706 
L 404.042675 284.508449 
L 404.425673 288.920687 
L 404.80867 287.491223 
L 405.191667 288.78788 
L 405.574665 283.935052 
L 405.957663 289.940619 
L 406.34066 289.927789 
L 406.723658 283.905247 
L 407.106655 290.328418 
L 407.489652 287.818729 
L 407.87265 290.601338 
L 408.255648 279.527154 
L 408.638645 288.717317 
L 409.021642 289.747675 
L 409.40464 288.650933 
L 409.787638 280.352417 
L 410.170635 280.157492 
L 410.553632 291.506253 
L 410.93663 291.266566 
L 411.319628 290.020201 
L 411.702625 286.491684 
L 412.085622 288.888073 
L 412.46862 283.040904 
L 412.851617 288.841602 
L 413.234615 274.045067 
L 413.617613 287.006112 
L 414.00061 285.476665 
L 414.383607 285.50053 
L 414.766605 287.338823 
L 415.149603 288.424955 
L 415.5326 272.17154 
L 415.915597 288.954014 
L 416.298595 289.487205 
L 416.681593 276.475275 
L 417.06459 278.155041 
L 417.447587 272.736923 
L 417.830585 275.423367 
L 418.213582 291.574242 
L 418.59658 286.662731 
L 418.979578 284.768912 
L 419.362575 287.664802 
L 419.745572 285.089367 
L 420.12857 291.176555 
L 420.511568 283.758794 
L 420.894565 286.37758 
L 421.277562 287.836153 
L 421.66056 277.703085 
L 422.043558 288.100876 
L 422.426555 289.217512 
L 422.809552 284.277857 
L 423.19255 290.508722 
L 423.575547 284.727469 
L 423.958545 290.275092 
L 424.341543 285.451033 
L 424.72454 290.40622 
L 425.107537 278.571696 
L 425.490535 254.751732 
L 425.873533 279.377244 
L 426.25653 291.115675 
L 426.639527 290.377943 
L 427.022525 288.558608 
L 427.405523 288.125501 
L 427.78852 283.577343 
L 428.171517 289.095693 
L 428.554515 286.374283 
L 428.937513 288.430426 
L 429.32051 275.293948 
L 429.703508 277.242238 
L 430.086505 289.674839 
L 430.469502 291.208487 
L 430.469502 291.208487 
" clip-path="url(#pe2f2292fb6)" style="fill: none; stroke: #1f77b4; stroke-opacity: 0.7; stroke-width: 1.5; stroke-linecap: square"/>
   </g>
   <g id="line2d_32">
    <path d="M 48.227679 -1 
L 48.237998 173.66012 
L 48.620995 213.419084 
L 49.003993 198.005295 
L 49.38699 216.158931 
L 49.769988 207.099086 
L 50.152985 233.387185 
L 50.535983 183.130267 
L 50.91898 233.031225 
L 51.301978 254.223069 
L 51.684975 214.22011 
L 52.45097 222.761331 
L 52.833968 217.896356 
L 53.216965 254.749515 
L 53.599963 243.283217 
L 53.98296 259.707844 
L 54.365958 239.668626 
L 54.748955 256.8138 
L 55.131953 223.24736 
L 55.51495 251.559547 
L 55.897948 260.734391 
L 56.280945 231.802205 
L 56.663943 230.498935 
L 57.04694 243.31703 
L 57.429938 231.085753 
L 57.812935 260.04832 
L 58.195933 228.563229 
L 58.57893 261.949253 
L 58.961928 230.77451 
L 59.344925 231.975868 
L 59.727923 236.605693 
L 60.11092 253.086173 
L 60.493918 242.953214 
L 60.876915 261.180856 
L 61.259913 236.109483 
L 61.64291 255.126507 
L 62.025908 242.072952 
L 62.408905 263.992484 
L 62.791903 228.105611 
L 63.1749 243.581524 
L 63.557898 241.126997 
L 63.940895 244.126549 
L 64.323893 261.519623 
L 64.70689 244.331032 
L 65.089888 264.051414 
L 65.472885 235.43027 
L 65.855883 242.406812 
L 66.23888 247.011265 
L 66.621878 259.379589 
L 67.004875 230.241224 
L 67.387873 238.018689 
L 68.153868 259.316238 
L 68.536865 258.165648 
L 68.919863 247.669248 
L 69.30286 245.105989 
L 69.685858 244.19721 
L 70.068855 249.559195 
L 70.451853 252.040144 
L 70.83485 247.921091 
L 71.217848 265.671253 
L 71.600845 238.749682 
L 71.983843 252.308633 
L 72.36684 249.117396 
L 72.749838 241.412895 
L 73.132835 250.567472 
L 73.515833 233.982509 
L 73.89883 249.135071 
L 74.281828 248.155987 
L 74.664825 230.467166 
L 75.047823 252.60131 
L 75.43082 256.228148 
L 75.813818 248.646506 
L 76.196815 249.371869 
L 76.579813 268.137982 
L 76.96281 248.644978 
L 77.345808 254.653495 
L 77.728805 241.966898 
L 78.111803 241.112237 
L 78.4948 250.421304 
L 78.877798 242.165059 
L 79.260795 250.497087 
L 79.643793 253.47781 
L 80.02679 250.788223 
L 80.409788 252.448754 
L 80.792785 267.224542 
L 81.175783 254.507736 
L 81.55878 247.018209 
L 81.941778 269.556955 
L 82.324775 267.057763 
L 82.707773 244.445652 
L 83.09077 256.763379 
L 83.473768 253.038146 
L 83.856765 242.095973 
L 84.239763 267.903482 
L 84.62276 247.80292 
L 85.005758 264.216412 
L 85.388755 269.42089 
L 85.771753 258.475725 
L 86.15475 266.138346 
L 86.537748 247.906072 
L 86.920745 249.784143 
L 87.303742 248.362769 
L 87.68674 246.442836 
L 88.069738 229.157581 
L 88.452735 259.144818 
L 88.835733 252.293515 
L 89.21873 271.291818 
L 89.601728 242.263067 
L 89.984725 269.603374 
L 90.367723 267.239768 
L 90.75072 243.285954 
L 91.516715 265.907157 
L 91.899713 256.743905 
L 92.665708 244.11493 
L 93.048705 273.374676 
L 93.431703 263.448755 
L 93.8147 260.977427 
L 94.197698 252.789764 
L 94.580695 256.698805 
L 94.963693 273.739826 
L 95.34669 265.603795 
L 95.729688 251.999301 
L 96.112685 273.73101 
L 96.495683 259.047072 
L 97.261678 273.151945 
L 97.644675 267.401097 
L 98.027673 251.059476 
L 99.176665 272.55463 
L 99.559663 273.02304 
L 99.94266 233.419931 
L 100.325658 260.595308 
L 100.708655 261.494604 
L 101.091653 276.960133 
L 101.47465 272.5576 
L 101.857648 251.251872 
L 103.00664 266.233212 
L 103.389638 263.130883 
L 104.155633 273.535594 
L 104.53863 272.678496 
L 104.921627 264.991364 
L 105.304625 279.137178 
L 105.687623 256.837342 
L 106.07062 274.003923 
L 106.453618 262.609947 
L 106.836615 266.101322 
L 107.219613 261.588386 
L 107.60261 259.131306 
L 107.985608 274.99348 
L 108.368605 272.174499 
L 108.751603 253.414893 
L 109.1346 279.93634 
L 109.517598 253.559839 
L 109.900595 271.372987 
L 110.283592 260.427422 
L 110.66659 278.763128 
L 111.049588 264.32785 
L 111.432585 273.322859 
L 111.815583 270.287254 
L 112.19858 261.045492 
L 112.581578 276.788434 
L 112.964575 276.48968 
L 113.347573 269.287936 
L 113.73057 278.566711 
L 114.113568 277.119857 
L 114.496565 277.541383 
L 114.879563 277.773436 
L 115.26256 278.479077 
L 115.645557 271.328087 
L 116.028555 280.884446 
L 116.411552 278.614364 
L 117.177548 276.325843 
L 117.560545 277.900475 
L 117.943543 279.975218 
L 118.32654 276.920847 
L 118.709538 268.885596 
L 119.092535 265.841463 
L 119.475533 281.89079 
L 119.85853 261.729031 
L 120.241528 279.311656 
L 120.624525 277.707549 
L 121.007522 256.039867 
L 121.39052 279.773472 
L 121.773517 275.607819 
L 122.156515 277.813336 
L 122.539513 250.568673 
L 122.92251 274.817764 
L 123.305508 282.657474 
L 123.688505 280.65266 
L 124.4545 278.802419 
L 124.837498 264.210544 
L 125.220495 272.468216 
L 125.603493 277.502456 
L 125.98649 278.005349 
L 126.369488 269.348152 
L 126.752485 270.730828 
L 127.135482 262.477071 
L 127.51848 280.259303 
L 128.284475 269.380112 
L 128.667473 277.655183 
L 129.05047 282.597822 
L 129.433468 280.176697 
L 129.816465 281.198058 
L 130.199463 270.042502 
L 130.58246 270.833651 
L 130.965458 256.110549 
L 131.348455 270.480272 
L 131.731453 271.551391 
L 132.11445 281.796835 
L 132.497447 270.785441 
L 132.880445 278.763593 
L 133.263442 277.445458 
L 133.64644 279.335909 
L 134.412435 262.05556 
L 134.795433 282.581038 
L 135.17843 281.334443 
L 135.561428 278.128615 
L 135.944425 278.959278 
L 136.327423 282.576512 
L 136.71042 247.78775 
L 137.093418 282.423833 
L 137.476415 281.010374 
L 137.859413 278.152312 
L 138.24241 281.141939 
L 138.625407 267.768839 
L 139.008405 272.997473 
L 139.391402 281.666671 
L 139.7744 282.675896 
L 140.157398 284.137694 
L 140.540395 272.821914 
L 140.923393 282.203596 
L 141.689388 278.547795 
L 142.072385 235.520564 
L 142.455383 267.817535 
L 142.83838 281.467768 
L 143.221378 281.370707 
L 143.604375 281.910258 
L 143.987372 272.72006 
L 144.37037 279.663301 
L 144.753367 282.892813 
L 145.136365 281.036165 
L 145.519362 245.10964 
L 145.90236 269.815073 
L 146.285358 272.595948 
L 146.668355 281.678235 
L 147.051353 283.969048 
L 147.43435 250.89404 
L 147.817348 282.667648 
L 148.200345 268.20852 
L 148.583343 276.320555 
L 148.96634 277.245217 
L 149.349338 280.852776 
L 149.732335 274.280098 
L 150.115332 271.248817 
L 150.49833 272.372042 
L 150.881327 256.217993 
L 151.264325 256.628829 
L 151.647323 277.873136 
L 152.03032 277.581386 
L 152.413318 265.516609 
L 153.179313 282.067059 
L 153.56231 284.162047 
L 153.945308 279.486309 
L 154.328305 281.731004 
L 154.711303 274.616623 
L 155.0943 284.433201 
L 155.477297 250.512308 
L 155.860295 283.597942 
L 156.62629 262.525176 
L 157.009287 284.039459 
L 157.392285 266.789106 
L 157.775283 268.603435 
L 158.15828 277.084789 
L 158.541278 282.027717 
L 158.924275 279.822241 
L 159.307273 280.591678 
L 159.69027 274.030347 
L 160.073268 280.869463 
L 160.456265 281.758726 
L 160.839263 255.15385 
L 161.22226 261.07098 
L 161.605257 275.554633 
L 161.988255 284.383814 
L 162.371252 282.72651 
L 162.75425 284.31215 
L 163.137248 272.567225 
L 163.520245 282.654004 
L 163.903243 282.597669 
L 164.28624 285.593818 
L 164.669238 273.034066 
L 165.052235 285.750163 
L 165.435233 277.45908 
L 165.81823 280.814529 
L 166.201228 280.288409 
L 166.584225 277.19668 
L 166.967222 287.656479 
L 167.35022 287.286181 
L 167.733217 268.461801 
L 168.116215 279.628485 
L 168.499212 285.220751 
L 168.88221 276.75393 
L 169.265208 282.698123 
L 169.648205 285.359185 
L 170.031203 281.186064 
L 170.4142 263.790303 
L 170.797198 285.089516 
L 171.180195 275.474687 
L 171.563193 271.917101 
L 171.94619 283.969705 
L 172.329188 282.941759 
L 172.712185 282.686666 
L 173.095182 275.437713 
L 173.47818 277.366098 
L 173.861177 286.15726 
L 174.244175 279.891684 
L 174.627173 281.9468 
L 175.01017 275.009469 
L 175.393168 283.669615 
L 175.776165 282.887282 
L 176.159163 280.767805 
L 176.925158 272.642281 
L 177.308155 283.808054 
L 177.691153 282.432717 
L 178.07415 280.226642 
L 178.457148 283.14453 
L 178.840145 282.918658 
L 179.223143 270.16176 
L 179.60614 281.235322 
L 179.989137 271.568022 
L 180.372135 281.973166 
L 180.755133 284.643965 
L 181.13813 280.281741 
L 181.521128 278.025774 
L 181.904125 284.626566 
L 182.287123 278.672244 
L 182.67012 262.538469 
L 183.053118 285.883296 
L 183.436115 276.069235 
L 183.819113 284.664443 
L 184.20211 285.776475 
L 184.585108 284.232729 
L 184.968105 276.697257 
L 185.351103 284.576931 
L 185.7341 282.165971 
L 186.117097 273.28049 
L 186.500095 286.189832 
L 186.883093 270.530393 
L 187.26609 283.900942 
L 187.649088 285.058021 
L 188.032085 288.051028 
L 188.415083 283.627832 
L 188.79808 282.031221 
L 189.181078 284.745097 
L 189.564075 271.803787 
L 190.33007 286.489893 
L 191.096065 273.221844 
L 191.479062 284.736487 
L 191.86206 281.560871 
L 192.245058 268.178237 
L 192.628055 283.959081 
L 193.011053 273.193523 
L 193.39405 280.988642 
L 193.777048 284.891827 
L 194.160045 254.05672 
L 194.543043 284.808349 
L 194.92604 274.097151 
L 195.309038 272.362466 
L 195.692035 286.439803 
L 196.075033 282.858068 
L 196.45803 286.099596 
L 196.841028 284.643735 
L 197.224025 279.386043 
L 197.607022 277.322098 
L 197.99002 269.378203 
L 198.373018 279.386912 
L 199.139013 286.801888 
L 199.52201 269.692429 
L 199.905008 284.939299 
L 200.671003 277.931967 
L 201.054 279.34019 
L 201.436998 267.648884 
L 202.202993 282.658912 
L 202.58599 282.360505 
L 202.968987 285.928869 
L 203.351985 278.77858 
L 203.734983 277.451532 
L 204.11798 261.936571 
L 204.500978 285.815229 
L 204.883975 285.521894 
L 205.266973 281.451079 
L 205.64997 272.994657 
L 206.032968 283.962667 
L 206.415965 275.751388 
L 206.798963 282.811029 
L 207.18196 283.878498 
L 207.564958 285.642526 
L 208.330952 272.588987 
L 208.71395 279.403819 
L 209.096947 269.566146 
L 209.479945 285.596317 
L 209.862943 283.695705 
L 210.24594 281.012248 
L 210.628938 286.473634 
L 211.011935 285.470025 
L 211.394933 275.477432 
L 211.77793 276.736162 
L 212.160928 275.596569 
L 212.543925 276.581587 
L 212.926923 285.913636 
L 213.30992 285.211671 
L 213.692918 281.218551 
L 214.075915 282.058917 
L 214.458912 273.831225 
L 214.84191 277.839329 
L 215.224908 277.84765 
L 215.607905 285.624814 
L 215.990903 274.10386 
L 216.3739 283.734471 
L 216.756898 262.913606 
L 217.139895 277.707258 
L 217.522893 285.652989 
L 217.90589 283.353882 
L 218.288888 276.442499 
L 218.671885 277.836008 
L 219.054883 277.847069 
L 219.43788 286.17228 
L 219.820877 284.834366 
L 220.203875 276.562384 
L 220.586872 285.403391 
L 220.96987 279.447419 
L 221.352868 261.418907 
L 221.735865 284.16469 
L 222.118863 279.337233 
L 222.50186 284.713608 
L 222.884858 284.380775 
L 223.267855 278.250492 
L 223.650853 280.331432 
L 224.03385 279.436235 
L 224.416848 285.083945 
L 224.799845 279.843302 
L 225.182843 285.978621 
L 225.56584 286.404037 
L 225.948837 279.49879 
L 226.331835 285.477793 
L 226.714832 285.502557 
L 227.09783 286.199135 
L 227.480828 273.483336 
L 227.863825 280.758151 
L 228.246823 284.885988 
L 228.62982 276.81515 
L 229.012818 281.501822 
L 229.395815 275.295778 
L 229.778813 285.26725 
L 230.16181 285.170219 
L 230.544808 267.468908 
L 230.927805 283.834672 
L 231.310802 284.921843 
L 231.6938 280.558194 
L 232.076797 285.840227 
L 232.459795 280.754217 
L 232.842793 282.657439 
L 233.22579 282.703333 
L 233.608788 273.434308 
L 233.991785 285.650361 
L 234.374783 281.495092 
L 234.75778 260.305217 
L 235.140778 281.349616 
L 235.523775 285.050666 
L 235.906773 276.033487 
L 236.28977 286.563405 
L 237.055765 283.855901 
L 237.438762 283.816059 
L 237.82176 275.101778 
L 238.204757 284.019738 
L 238.587755 280.791883 
L 238.970753 285.810359 
L 239.35375 282.019213 
L 239.736748 286.858014 
L 240.119745 283.8633 
L 240.502743 286.528221 
L 240.88574 283.941697 
L 241.651735 286.466433 
L 242.034733 286.93759 
L 242.41773 263.938684 
L 242.800727 285.535342 
L 243.183725 284.660276 
L 243.566722 280.642834 
L 243.94972 286.862138 
L 244.332718 287.051795 
L 244.715715 285.067239 
L 245.098713 284.84852 
L 245.48171 283.04574 
L 245.864708 277.416342 
L 246.247705 286.731201 
L 246.630703 283.7372 
L 247.0137 284.796627 
L 247.396698 278.948874 
L 247.779695 283.979384 
L 248.162693 287.19399 
L 248.54569 283.021182 
L 248.928687 257.76916 
L 249.311685 286.649783 
L 249.694682 283.069039 
L 250.07768 284.096918 
L 250.460678 286.767147 
L 250.843675 268.670704 
L 251.226673 275.338831 
L 251.60967 287.453669 
L 251.992668 282.667131 
L 252.375665 285.772425 
L 253.14166 282.66824 
L 253.524658 283.852186 
L 253.907655 273.020354 
L 254.290652 280.807354 
L 254.67365 286.288407 
L 255.056647 284.734531 
L 255.439645 278.157509 
L 255.822643 284.683026 
L 256.20564 266.438402 
L 256.588638 286.494984 
L 256.971635 284.870872 
L 257.354632 281.504149 
L 257.73763 286.393045 
L 258.120628 287.569785 
L 258.503625 270.130289 
L 258.886622 272.023759 
L 259.652618 287.417463 
L 260.035615 283.54715 
L 260.418612 272.86473 
L 260.80161 282.914603 
L 261.184607 286.829235 
L 261.567605 283.345623 
L 261.950603 287.186744 
L 262.3336 284.097249 
L 262.716597 274.241137 
L 263.099595 281.479987 
L 263.482593 285.294589 
L 263.86559 277.460398 
L 264.248587 265.575763 
L 264.631585 286.817545 
L 265.014583 281.454956 
L 265.39758 284.172693 
L 265.780577 282.577039 
L 266.163575 284.639301 
L 266.546572 281.939002 
L 266.92957 270.073732 
L 267.312568 285.222691 
L 267.695565 278.541721 
L 268.078562 287.409313 
L 268.46156 283.326696 
L 268.844558 286.831358 
L 269.227555 279.311783 
L 269.610552 285.815369 
L 269.99355 280.728436 
L 270.376548 287.662453 
L 270.759545 266.556173 
L 271.142542 266.423598 
L 271.52554 287.515809 
L 271.908537 284.412799 
L 272.291535 283.878754 
L 272.674532 275.36499 
L 273.05753 288.438899 
L 273.440527 281.216485 
L 273.823525 286.917314 
L 274.206523 272.638829 
L 274.58952 265.765775 
L 274.972517 273.277903 
L 275.355515 284.84553 
L 275.738513 281.432698 
L 276.12151 282.005636 
L 276.504507 288.780902 
L 277.270502 280.400388 
L 277.6535 276.77132 
L 278.036497 276.832083 
L 278.419495 288.426292 
L 278.802492 286.221376 
L 279.18549 265.749271 
L 279.568488 286.635933 
L 279.951485 285.889956 
L 280.334482 284.434514 
L 280.71748 289.018364 
L 281.483475 281.008105 
L 281.866472 286.681549 
L 282.24947 283.830893 
L 283.015465 287.24093 
L 283.398462 280.279974 
L 283.78146 278.690268 
L 284.164457 271.683302 
L 284.547455 288.208167 
L 284.930453 268.858007 
L 285.31345 287.676253 
L 285.696447 273.843609 
L 286.079445 287.851965 
L 286.462443 280.973853 
L 286.84544 288.901417 
L 287.228437 283.821715 
L 287.611435 286.032222 
L 287.994433 276.533893 
L 288.37743 286.58544 
L 288.760427 288.675008 
L 289.143425 289.020479 
L 289.526422 284.853922 
L 289.90942 286.121275 
L 290.292417 288.639428 
L 290.675415 287.677743 
L 291.058412 281.126244 
L 291.44141 278.895184 
L 291.824408 282.19232 
L 292.207405 282.562513 
L 292.590402 285.688727 
L 292.9734 287.411224 
L 293.356398 284.617791 
L 293.739395 270.851634 
L 294.122392 275.762049 
L 294.888387 290.2243 
L 295.271385 289.105302 
L 295.654382 277.815802 
L 296.03738 285.46521 
L 296.420377 287.765435 
L 296.803375 287.180329 
L 297.186373 289.964167 
L 297.56937 287.753211 
L 297.952367 287.948519 
L 298.335365 278.17713 
L 298.718363 282.414022 
L 299.10136 289.687739 
L 299.867355 287.216137 
L 300.250352 288.327039 
L 300.63335 287.798732 
L 301.016347 285.216501 
L 301.399345 281.748152 
L 301.782342 286.354384 
L 302.548338 289.090207 
L 302.931335 281.79182 
L 303.314332 281.000273 
L 303.69733 286.756793 
L 304.080328 268.16796 
L 304.463325 287.652731 
L 304.846322 290.076385 
L 305.22932 287.827917 
L 305.612318 283.827374 
L 305.995315 268.020123 
L 306.378312 288.178982 
L 306.76131 287.211361 
L 307.144308 289.445364 
L 307.910303 282.631726 
L 308.2933 284.900968 
L 308.676297 290.183596 
L 309.059295 283.227183 
L 309.82529 277.436905 
L 310.208287 269.632338 
L 310.591285 287.141817 
L 310.974283 287.667682 
L 311.35728 278.42581 
L 311.740277 284.616562 
L 312.123275 284.13807 
L 312.506273 288.478306 
L 312.88927 289.187739 
L 313.272267 283.527297 
L 313.655265 289.778796 
L 314.038263 288.19074 
L 314.42126 279.846888 
L 314.804258 279.872287 
L 315.187255 288.34955 
L 315.570252 285.013885 
L 315.95325 262.227608 
L 316.336248 289.335824 
L 316.719245 278.986344 
L 317.102242 287.356555 
L 317.48524 288.368698 
L 317.868238 288.032119 
L 318.251235 281.515416 
L 318.634232 282.65954 
L 319.01723 290.273415 
L 319.400228 272.355404 
L 319.783225 286.822429 
L 320.166223 289.859672 
L 320.54922 289.846282 
L 320.932217 289.548621 
L 321.315215 290.388116 
L 321.698213 286.034305 
L 322.08121 290.260784 
L 322.464207 290.125763 
L 322.847205 279.533001 
L 323.6132 289.239859 
L 323.996197 288.740356 
L 324.379195 289.239887 
L 324.762193 283.787997 
L 325.14519 275.059427 
L 325.528188 284.163106 
L 325.911185 289.138497 
L 326.294182 287.110198 
L 326.67718 286.30041 
L 327.060178 286.998041 
L 327.443175 273.7507 
L 327.826172 286.531916 
L 328.592168 286.468982 
L 328.975165 286.757463 
L 329.358162 264.203575 
L 329.74116 287.960129 
L 330.124158 281.033061 
L 330.890152 290.048453 
L 331.27315 286.512809 
L 331.656147 288.752716 
L 332.039145 289.235925 
L 332.422143 290.300293 
L 332.80514 289.406964 
L 333.188137 285.384711 
L 333.571135 288.397714 
L 333.954133 286.554567 
L 334.33713 288.101663 
L 334.720127 283.938537 
L 335.103125 281.847402 
L 335.486123 289.763071 
L 335.86912 284.390118 
L 336.252117 283.991217 
L 336.635115 290.454119 
L 337.018113 285.476458 
L 337.40111 290.79067 
L 337.784108 283.869269 
L 338.550102 277.706027 
L 338.9331 288.665454 
L 339.316098 284.301079 
L 339.699095 285.534212 
L 340.082092 289.19992 
L 340.46509 289.205218 
L 340.848088 281.490863 
L 341.231085 281.111981 
L 341.614082 290.364294 
L 341.99708 284.393312 
L 342.380078 290.012369 
L 342.763075 289.399596 
L 343.146073 289.551371 
L 343.52907 288.296973 
L 343.912067 286.416088 
L 344.295065 286.707271 
L 344.678063 284.08647 
L 345.06106 288.248853 
L 345.444057 278.648022 
L 345.827055 289.902854 
L 346.210053 284.86296 
L 346.59305 288.870262 
L 346.976047 287.518482 
L 347.359045 289.973456 
L 347.742043 289.676813 
L 348.12504 285.684217 
L 348.508038 284.304684 
L 348.891035 283.488949 
L 349.274032 288.826782 
L 349.65703 280.806209 
L 350.040028 289.515083 
L 350.423025 285.946955 
L 350.806022 278.273821 
L 351.18902 289.509839 
L 351.572018 285.3893 
L 351.955015 279.743365 
L 352.338012 287.820568 
L 352.72101 285.708049 
L 353.104008 287.422201 
L 353.487005 290.421491 
L 353.870002 280.519612 
L 354.253 286.054927 
L 354.635997 289.288326 
L 355.018995 287.143707 
L 355.401993 288.611176 
L 355.78499 287.891486 
L 356.167987 289.768932 
L 356.550985 282.711239 
L 356.933983 289.304042 
L 357.31698 281.868873 
L 357.699977 287.875308 
L 358.082975 288.222407 
L 358.465973 283.031952 
L 358.84897 285.671281 
L 359.231967 286.191734 
L 359.614965 289.355705 
L 359.997963 284.362695 
L 360.38096 289.542283 
L 360.763958 287.159601 
L 361.146955 265.93787 
L 361.529952 287.517288 
L 361.91295 288.613217 
L 362.295948 289.075366 
L 362.678945 289.054593 
L 363.061942 287.438171 
L 363.44494 278.131972 
L 363.827938 289.084889 
L 364.210935 289.626668 
L 364.97693 280.777481 
L 365.359928 286.173824 
L 365.742925 289.219941 
L 366.125923 283.975755 
L 366.50892 289.005244 
L 366.891917 289.367879 
L 367.274915 285.627882 
L 368.04091 291.058218 
L 368.423907 281.84435 
L 368.806905 288.18919 
L 369.189903 289.33443 
L 369.5729 281.858286 
L 369.955897 287.911474 
L 370.338895 290.119032 
L 370.721893 286.655905 
L 371.10489 288.902212 
L 371.487887 280.554217 
L 372.253882 285.834745 
L 372.63688 290.53507 
L 373.019878 290.135602 
L 373.402875 287.360613 
L 373.785872 290.038964 
L 374.16887 281.281814 
L 374.934865 290.737185 
L 375.317862 279.090667 
L 375.70086 290.680242 
L 376.083858 281.951867 
L 376.466855 289.72443 
L 376.849852 281.915904 
L 377.23285 281.093357 
L 377.615847 289.003003 
L 377.998845 289.919528 
L 378.381843 289.23221 
L 378.76484 273.375337 
L 379.530835 289.696261 
L 379.913833 289.65149 
L 380.29683 290.619871 
L 380.679827 290.455696 
L 381.82882 282.412012 
L 382.211817 286.487142 
L 382.594815 286.439674 
L 382.977813 287.821524 
L 383.36081 285.4597 
L 383.743808 288.07453 
L 384.126805 286.371475 
L 384.509802 281.564149 
L 384.8928 289.872296 
L 385.275798 290.685102 
L 385.658795 286.203223 
L 386.041792 289.37784 
L 386.42479 291.133622 
L 386.807788 284.36906 
L 387.190785 291.390746 
L 387.573782 289.890013 
L 387.95678 289.579825 
L 388.339778 286.051658 
L 388.722775 287.506075 
L 389.105773 287.503625 
L 389.48877 291.054504 
L 389.871767 280.333767 
L 390.254765 284.69284 
L 390.637763 277.640246 
L 391.02076 267.029662 
L 391.403757 288.851995 
L 391.786755 275.200908 
L 392.169753 290.335146 
L 392.935747 289.519468 
L 393.318745 290.144701 
L 393.701743 290.085909 
L 394.08474 286.865739 
L 394.850735 291.295349 
L 395.233732 288.540502 
L 395.61673 289.058161 
L 395.999728 287.653054 
L 396.765722 288.956221 
L 397.14872 278.497155 
L 397.531718 287.764341 
L 397.914715 274.350428 
L 398.297712 289.980251 
L 398.68071 291.218486 
L 399.063708 287.139758 
L 399.446705 290.455947 
L 399.829702 288.737078 
L 400.2127 288.430896 
L 400.595697 290.049566 
L 400.978695 286.226048 
L 401.361693 272.084397 
L 401.74469 285.191168 
L 402.127687 282.215107 
L 402.510685 281.077901 
L 402.893683 287.986039 
L 403.27668 290.429643 
L 403.659677 291.117677 
L 404.042675 287.522062 
L 404.425673 289.033562 
L 404.80867 288.294581 
L 405.191667 288.60835 
L 405.574665 284.392555 
L 405.957663 289.926152 
L 406.34066 289.088376 
L 406.723658 289.346786 
L 407.106655 291.320362 
L 407.489652 287.148011 
L 407.87265 291.218096 
L 408.255648 282.424046 
L 408.638645 287.025133 
L 409.021642 288.875044 
L 409.40464 286.119346 
L 409.787638 282.546674 
L 410.170635 282.576338 
L 410.553632 291.737424 
L 410.93663 291.515407 
L 411.319628 289.785092 
L 411.702625 286.815703 
L 412.085622 288.824611 
L 412.46862 283.654891 
L 412.851617 290.209862 
L 413.234615 283.748147 
L 413.617613 284.252204 
L 414.00061 287.064379 
L 414.383607 284.332216 
L 414.766605 289.40464 
L 415.149603 288.236055 
L 415.5326 280.232399 
L 415.915597 290.46472 
L 416.298595 289.86178 
L 416.681593 275.229331 
L 417.06459 279.973358 
L 417.447587 276.906661 
L 417.830585 276.764881 
L 418.213582 290.912082 
L 418.59658 287.522441 
L 418.979578 288.063545 
L 419.362575 289.355091 
L 419.745572 288.027259 
L 420.12857 290.481694 
L 420.511568 282.669858 
L 420.894565 286.086405 
L 421.277562 287.505376 
L 421.66056 282.002954 
L 422.043558 289.146187 
L 422.426555 288.897179 
L 422.809552 286.365085 
L 423.19255 291.012282 
L 423.575547 284.923128 
L 423.958545 291.079285 
L 424.341543 282.823788 
L 424.72454 290.889464 
L 425.490535 266.897591 
L 426.25653 290.356632 
L 426.639527 290.310707 
L 427.022525 288.970181 
L 427.405523 289.560328 
L 427.78852 284.008376 
L 428.171517 288.559893 
L 428.554515 288.056066 
L 428.937513 288.7407 
L 429.32051 278.864279 
L 429.703508 274.270077 
L 430.086505 289.834382 
L 430.469502 291.183383 
L 430.469502 291.183383 
" clip-path="url(#pe2f2292fb6)" style="fill: none; stroke: #ff7f0e; stroke-opacity: 0.7; stroke-width: 1.5; stroke-linecap: square"/>
   </g>
   <g id="patch_3">
    <path d="M 47.855 303.64 
L 47.855 14.76 
" style="fill: none; stroke: #000000; stroke-width: 0.8; stroke-linejoin: miter; stroke-linecap: square"/>
   </g>
   <g id="patch_4">
    <path d="M 430.8525 303.64 
L 430.8525 14.76 
" style="fill: none; stroke: #000000; stroke-width: 0.8; stroke-linejoin: miter; stroke-linecap: square"/>
   </g>
   <g id="patch_5">
    <path d="M 47.855 303.64 
L 430.8525 303.64 
" style="fill: none; stroke: #000000; stroke-width: 0.8; stroke-linejoin: miter; stroke-linecap: square"/>
   </g>
   <g id="patch_6">
    <path d="M 47.855 14.76 
L 430.8525 14.76 
" style="fill: none; stroke: #000000; stroke-width: 0.8; stroke-linejoin: miter; stroke-linecap: square"/>
   </g>
   <g id="legend_1">
    <g id="patch_7">
     <path d="M 343.391562 52.11625 
L 423.8525 52.11625 
Q 425.8525 52.11625 425.8525 50.11625 
L 425.8525 21.76 
Q 425.8525 19.76 423.8525 19.76 
L 343.391562 19.76 
Q 341.391562 19.76 341.391562 21.76 
L 341.391562 50.11625 
Q 341.391562 52.11625 343.391562 52.11625 
z
" style="fill: #ffffff; opacity: 0.8; stroke: #cccccc; stroke-linejoin: miter"/>
    </g>
    <g id="line2d_33">
     <path d="M 345.391562 27.858437 
L 355.391562 27.858437 
L 365.391562 27.858437 
" style="fill: none; stroke: #1f77b4; stroke-opacity: 0.7; stroke-width: 1.5; stroke-linecap: square"/>
    </g>
    <g id="text_18">
     <!-- Train MSE -->
     <g transform="translate(373.391562 31.358437) scale(0.1 -0.1)">
      <defs>
       <path id="DejaVuSans-54" d="M -19 4666 
L 3928 4666 
L 3928 4134 
L 2272 4134 
L 2272 0 
L 1638 0 
L 1638 4134 
L -19 4134 
L -19 4666 
z
" transform="scale(0.015625)"/>
       <path id="DejaVuSans-72" d="M 2631 2963 
Q 2534 3019 2420 3045 
Q 2306 3072 2169 3072 
Q 1681 3072 1420 2755 
Q 1159 2438 1159 1844 
L 1159 0 
L 581 0 
L 581 3500 
L 1159 3500 
L 1159 2956 
Q 1341 3275 1631 3429 
Q 1922 3584 2338 3584 
Q 2397 3584 2469 3576 
Q 2541 3569 2628 3553 
L 2631 2963 
z
" transform="scale(0.015625)"/>
       <path id="DejaVuSans-61" d="M 2194 1759 
Q 1497 1759 1228 1600 
Q 959 1441 959 1056 
Q 959 750 1161 570 
Q 1363 391 1709 391 
Q 2188 391 2477 730 
Q 2766 1069 2766 1631 
L 2766 1759 
L 2194 1759 
z
M 3341 1997 
L 3341 0 
L 2766 0 
L 2766 531 
Q 2569 213 2275 61 
Q 1981 -91 1556 -91 
Q 1019 -91 701 211 
Q 384 513 384 1019 
Q 384 1609 779 1909 
Q 1175 2209 1959 2209 
L 2766 2209 
L 2766 2266 
Q 2766 2663 2505 2880 
Q 2244 3097 1772 3097 
Q 1472 3097 1187 3025 
Q 903 2953 641 2809 
L 641 3341 
Q 956 3463 1253 3523 
Q 1550 3584 1831 3584 
Q 2591 3584 2966 3190 
Q 3341 2797 3341 1997 
z
" transform="scale(0.015625)"/>
       <path id="DejaVuSans-69" d="M 603 3500 
L 1178 3500 
L 1178 0 
L 603 0 
L 603 3500 
z
M 603 4863 
L 1178 4863 
L 1178 4134 
L 603 4134 
L 603 4863 
z
" transform="scale(0.015625)"/>
       <path id="DejaVuSans-6e" d="M 3513 2113 
L 3513 0 
L 2938 0 
L 2938 2094 
Q 2938 2591 2744 2837 
Q 2550 3084 2163 3084 
Q 1697 3084 1428 2787 
Q 1159 2491 1159 1978 
L 1159 0 
L 581 0 
L 581 3500 
L 1159 3500 
L 1159 2956 
Q 1366 3272 1645 3428 
Q 1925 3584 2291 3584 
Q 2894 3584 3203 3211 
Q 3513 2838 3513 2113 
z
" transform="scale(0.015625)"/>
       <path id="DejaVuSans-20" transform="scale(0.015625)"/>
      </defs>
      <use xlink:href="#DejaVuSans-54"/>
      <use xlink:href="#DejaVuSans-72" transform="translate(46.333984 0)"/>
      <use xlink:href="#DejaVuSans-61" transform="translate(87.447266 0)"/>
      <use xlink:href="#DejaVuSans-69" transform="translate(148.726562 0)"/>
      <use xlink:href="#DejaVuSans-6e" transform="translate(176.509766 0)"/>
      <use xlink:href="#DejaVuSans-20" transform="translate(239.888672 0)"/>
      <use xlink:href="#DejaVuSans-4d" transform="translate(271.675781 0)"/>
      <use xlink:href="#DejaVuSans-53" transform="translate(357.955078 0)"/>
      <use xlink:href="#DejaVuSans-45" transform="translate(421.431641 0)"/>
     </g>
    </g>
    <g id="line2d_34">
     <path d="M 345.391562 42.536563 
L 355.391562 42.536563 
L 365.391562 42.536563 
" style="fill: none; stroke: #ff7f0e; stroke-opacity: 0.7; stroke-width: 1.5; stroke-linecap: square"/>
    </g>
    <g id="text_19">
     <!-- Val MSE -->
     <g transform="translate(373.391562 46.036563) scale(0.1 -0.1)">
      <defs>
       <path id="DejaVuSans-56" d="M 1831 0 
L 50 4666 
L 709 4666 
L 2188 738 
L 3669 4666 
L 4325 4666 
L 2547 0 
L 1831 0 
z
" transform="scale(0.015625)"/>
       <path id="DejaVuSans-6c" d="M 603 4863 
L 1178 4863 
L 1178 0 
L 603 0 
L 603 4863 
z
" transform="scale(0.015625)"/>
      </defs>
      <use xlink:href="#DejaVuSans-56"/>
      <use xlink:href="#DejaVuSans-61" transform="translate(60.658203 0)"/>
      <use xlink:href="#DejaVuSans-6c" transform="translate(121.9375 0)"/>
      <use xlink:href="#DejaVuSans-20" transform="translate(149.720703 0)"/>
      <use xlink:href="#DejaVuSans-4d" transform="translate(181.507812 0)"/>
      <use xlink:href="#DejaVuSans-53" transform="translate(267.787109 0)"/>
      <use xlink:href="#DejaVuSans-45" transform="translate(331.263672 0)"/>
     </g>
    </g>
   </g>
  </g>
 </g>
 <defs>
  <clipPath id="pe2f2292fb6">
   <rect x="47.855" y="14.76" width="382.9975" height="288.88"/>
  </clipPath>
 </defs>
</svg>
