<?xml version="1.0" encoding="utf-8" standalone="no"?>
<!DOCTYPE svg PUBLIC "-//W3C//DTD SVG 1.1//EN"
  "http://www.w3.org/Graphics/SVG/1.1/DTD/svg11.dtd">
<svg xmlns:xlink="http://www.w3.org/1999/xlink" width="460.8pt" height="345.6pt" viewBox="0 0 460.8 345.6" xmlns="http://www.w3.org/2000/svg" version="1.1">
 <metadata>
  <rdf:RDF xmlns:dc="http://purl.org/dc/elements/1.1/" xmlns:cc="http://creativecommons.org/ns#" xmlns:rdf="http://www.w3.org/1999/02/22-rdf-syntax-ns#">
   <cc:Work>
    <dc:type rdf:resource="http://purl.org/dc/dcmitype/StillImage"/>
    <dc:date>2025-12-01T00:31:13.076222</dc:date>
    <dc:format>image/svg+xml</dc:format>
    <dc:creator>
     <cc:Agent>
      <dc:title>Matplotlib v3.10.7, https://matplotlib.org/</dc:title>
     </cc:Agent>
    </dc:creator>
   </cc:Work>
  </rdf:RDF>
 </metadata>
 <defs>
  <style type="text/css">*{stroke-linejoin: round; stroke-linecap: butt}</style>
 </defs>
 <g id="figure_1">
  <g id="patch_1">
   <path d="M 0 345.6 
L 460.8 345.6 
L 460.8 0 
L 0 0 
z
" style="fill: #ffffff"/>
  </g>
  <g id="axes_1">
   <g id="patch_2">
    <path d="M 47.855 303.64 
L 430.8525 303.64 
L 430.8525 14.76 
L 47.855 14.76 
z
" style="fill: #ffffff"/>
   </g>
   <g id="matplotlib.axis_1">
    <g id="xtick_1">
     <g id="line2d_1">
      <path d="M 47.855 303.64 
L 47.855 14.76 
" clip-path="url(#pe00ed2f57a)" style="fill: none; stroke: #b0b0b0; stroke-width: 0.8; stroke-linecap: square"/>
     </g>
     <g id="line2d_2">
      <defs>
       <path id="m7b677e2830" d="M 0 0 
L 0 3.5 
" style="stroke: #000000; stroke-width: 0.8"/>
      </defs>
      <g>
       <use xlink:href="#m7b677e2830" x="47.855" y="303.64" style="stroke: #000000; stroke-width: 0.8"/>
      </g>
     </g>
     <g id="text_1">
      <!-- 0 -->
      <g transform="translate(44.67375 318.238437) scale(0.1 -0.1)">
       <defs>
        <path id="DejaVuSans-30" d="M 2034 4250 
Q 1547 4250 1301 3770 
Q 1056 3291 1056 2328 
Q 1056 1369 1301 889 
Q 1547 409 2034 409 
Q 2525 409 2770 889 
Q 3016 1369 3016 2328 
Q 3016 3291 2770 3770 
Q 2525 4250 2034 4250 
z
M 2034 4750 
Q 2819 4750 3233 4129 
Q 3647 3509 3647 2328 
Q 3647 1150 3233 529 
Q 2819 -91 2034 -91 
Q 1250 -91 836 529 
Q 422 1150 422 2328 
Q 422 3509 836 4129 
Q 1250 4750 2034 4750 
z
" transform="scale(0.015625)"/>
       </defs>
       <use xlink:href="#DejaVuSans-30"/>
      </g>
     </g>
    </g>
    <g id="xtick_2">
     <g id="line2d_3">
      <path d="M 95.729688 303.64 
L 95.729688 14.76 
" clip-path="url(#pe00ed2f57a)" style="fill: none; stroke: #b0b0b0; stroke-width: 0.8; stroke-linecap: square"/>
     </g>
     <g id="line2d_4">
      <g>
       <use xlink:href="#m7b677e2830" x="95.729688" y="303.64" style="stroke: #000000; stroke-width: 0.8"/>
      </g>
     </g>
     <g id="text_2">
      <!-- 25000 -->
      <g transform="translate(79.823438 318.238437) scale(0.1 -0.1)">
       <defs>
        <path id="DejaVuSans-32" d="M 1228 531 
L 3431 531 
L 3431 0 
L 469 0 
L 469 531 
Q 828 903 1448 1529 
Q 2069 2156 2228 2338 
Q 2531 2678 2651 2914 
Q 2772 3150 2772 3378 
Q 2772 3750 2511 3984 
Q 2250 4219 1831 4219 
Q 1534 4219 1204 4116 
Q 875 4013 500 3803 
L 500 4441 
Q 881 4594 1212 4672 
Q 1544 4750 1819 4750 
Q 2544 4750 2975 4387 
Q 3406 4025 3406 3419 
Q 3406 3131 3298 2873 
Q 3191 2616 2906 2266 
Q 2828 2175 2409 1742 
Q 1991 1309 1228 531 
z
" transform="scale(0.015625)"/>
        <path id="DejaVuSans-35" d="M 691 4666 
L 3169 4666 
L 3169 4134 
L 1269 4134 
L 1269 2991 
Q 1406 3038 1543 3061 
Q 1681 3084 1819 3084 
Q 2600 3084 3056 2656 
Q 3513 2228 3513 1497 
Q 3513 744 3044 326 
Q 2575 -91 1722 -91 
Q 1428 -91 1123 -41 
Q 819 9 494 109 
L 494 744 
Q 775 591 1075 516 
Q 1375 441 1709 441 
Q 2250 441 2565 725 
Q 2881 1009 2881 1497 
Q 2881 1984 2565 2268 
Q 2250 2553 1709 2553 
Q 1456 2553 1204 2497 
Q 953 2441 691 2322 
L 691 4666 
z
" transform="scale(0.015625)"/>
       </defs>
       <use xlink:href="#DejaVuSans-32"/>
       <use xlink:href="#DejaVuSans-35" transform="translate(63.623047 0)"/>
       <use xlink:href="#DejaVuSans-30" transform="translate(127.246094 0)"/>
       <use xlink:href="#DejaVuSans-30" transform="translate(190.869141 0)"/>
       <use xlink:href="#DejaVuSans-30" transform="translate(254.492188 0)"/>
      </g>
     </g>
    </g>
    <g id="xtick_3">
     <g id="line2d_5">
      <path d="M 143.604375 303.64 
L 143.604375 14.76 
" clip-path="url(#pe00ed2f57a)" style="fill: none; stroke: #b0b0b0; stroke-width: 0.8; stroke-linecap: square"/>
     </g>
     <g id="line2d_6">
      <g>
       <use xlink:href="#m7b677e2830" x="143.604375" y="303.64" style="stroke: #000000; stroke-width: 0.8"/>
      </g>
     </g>
     <g id="text_3">
      <!-- 50000 -->
      <g transform="translate(127.698125 318.238437) scale(0.1 -0.1)">
       <use xlink:href="#DejaVuSans-35"/>
       <use xlink:href="#DejaVuSans-30" transform="translate(63.623047 0)"/>
       <use xlink:href="#DejaVuSans-30" transform="translate(127.246094 0)"/>
       <use xlink:href="#DejaVuSans-30" transform="translate(190.869141 0)"/>
       <use xlink:href="#DejaVuSans-30" transform="translate(254.492188 0)"/>
      </g>
     </g>
    </g>
    <g id="xtick_4">
     <g id="line2d_7">
      <path d="M 191.479062 303.64 
L 191.479062 14.76 
" clip-path="url(#pe00ed2f57a)" style="fill: none; stroke: #b0b0b0; stroke-width: 0.8; stroke-linecap: square"/>
     </g>
     <g id="line2d_8">
      <g>
       <use xlink:href="#m7b677e2830" x="191.479062" y="303.64" style="stroke: #000000; stroke-width: 0.8"/>
      </g>
     </g>
     <g id="text_4">
      <!-- 75000 -->
      <g transform="translate(175.572812 318.238437) scale(0.1 -0.1)">
       <defs>
        <path id="DejaVuSans-37" d="M 525 4666 
L 3525 4666 
L 3525 4397 
L 1831 0 
L 1172 0 
L 2766 4134 
L 525 4134 
L 525 4666 
z
" transform="scale(0.015625)"/>
       </defs>
       <use xlink:href="#DejaVuSans-37"/>
       <use xlink:href="#DejaVuSans-35" transform="translate(63.623047 0)"/>
       <use xlink:href="#DejaVuSans-30" transform="translate(127.246094 0)"/>
       <use xlink:href="#DejaVuSans-30" transform="translate(190.869141 0)"/>
       <use xlink:href="#DejaVuSans-30" transform="translate(254.492188 0)"/>
      </g>
     </g>
    </g>
    <g id="xtick_5">
     <g id="line2d_9">
      <path d="M 239.35375 303.64 
L 239.35375 14.76 
" clip-path="url(#pe00ed2f57a)" style="fill: none; stroke: #b0b0b0; stroke-width: 0.8; stroke-linecap: square"/>
     </g>
     <g id="line2d_10">
      <g>
       <use xlink:href="#m7b677e2830" x="239.35375" y="303.64" style="stroke: #000000; stroke-width: 0.8"/>
      </g>
     </g>
     <g id="text_5">
      <!-- 100000 -->
      <g transform="translate(220.26625 318.238437) scale(0.1 -0.1)">
       <defs>
        <path id="DejaVuSans-31" d="M 794 531 
L 1825 531 
L 1825 4091 
L 703 3866 
L 703 4441 
L 1819 4666 
L 2450 4666 
L 2450 531 
L 3481 531 
L 3481 0 
L 794 0 
L 794 531 
z
" transform="scale(0.015625)"/>
       </defs>
       <use xlink:href="#DejaVuSans-31"/>
       <use xlink:href="#DejaVuSans-30" transform="translate(63.623047 0)"/>
       <use xlink:href="#DejaVuSans-30" transform="translate(127.246094 0)"/>
       <use xlink:href="#DejaVuSans-30" transform="translate(190.869141 0)"/>
       <use xlink:href="#DejaVuSans-30" transform="translate(254.492188 0)"/>
       <use xlink:href="#DejaVuSans-30" transform="translate(318.115234 0)"/>
      </g>
     </g>
    </g>
    <g id="xtick_6">
     <g id="line2d_11">
      <path d="M 287.228437 303.64 
L 287.228437 14.76 
" clip-path="url(#pe00ed2f57a)" style="fill: none; stroke: #b0b0b0; stroke-width: 0.8; stroke-linecap: square"/>
     </g>
     <g id="line2d_12">
      <g>
       <use xlink:href="#m7b677e2830" x="287.228437" y="303.64" style="stroke: #000000; stroke-width: 0.8"/>
      </g>
     </g>
     <g id="text_6">
      <!-- 125000 -->
      <g transform="translate(268.140938 318.238437) scale(0.1 -0.1)">
       <use xlink:href="#DejaVuSans-31"/>
       <use xlink:href="#DejaVuSans-32" transform="translate(63.623047 0)"/>
       <use xlink:href="#DejaVuSans-35" transform="translate(127.246094 0)"/>
       <use xlink:href="#DejaVuSans-30" transform="translate(190.869141 0)"/>
       <use xlink:href="#DejaVuSans-30" transform="translate(254.492188 0)"/>
       <use xlink:href="#DejaVuSans-30" transform="translate(318.115234 0)"/>
      </g>
     </g>
    </g>
    <g id="xtick_7">
     <g id="line2d_13">
      <path d="M 335.103125 303.64 
L 335.103125 14.76 
" clip-path="url(#pe00ed2f57a)" style="fill: none; stroke: #b0b0b0; stroke-width: 0.8; stroke-linecap: square"/>
     </g>
     <g id="line2d_14">
      <g>
       <use xlink:href="#m7b677e2830" x="335.103125" y="303.64" style="stroke: #000000; stroke-width: 0.8"/>
      </g>
     </g>
     <g id="text_7">
      <!-- 150000 -->
      <g transform="translate(316.015625 318.238437) scale(0.1 -0.1)">
       <use xlink:href="#DejaVuSans-31"/>
       <use xlink:href="#DejaVuSans-35" transform="translate(63.623047 0)"/>
       <use xlink:href="#DejaVuSans-30" transform="translate(127.246094 0)"/>
       <use xlink:href="#DejaVuSans-30" transform="translate(190.869141 0)"/>
       <use xlink:href="#DejaVuSans-30" transform="translate(254.492188 0)"/>
       <use xlink:href="#DejaVuSans-30" transform="translate(318.115234 0)"/>
      </g>
     </g>
    </g>
    <g id="xtick_8">
     <g id="line2d_15">
      <path d="M 382.977813 303.64 
L 382.977813 14.76 
" clip-path="url(#pe00ed2f57a)" style="fill: none; stroke: #b0b0b0; stroke-width: 0.8; stroke-linecap: square"/>
     </g>
     <g id="line2d_16">
      <g>
       <use xlink:href="#m7b677e2830" x="382.977813" y="303.64" style="stroke: #000000; stroke-width: 0.8"/>
      </g>
     </g>
     <g id="text_8">
      <!-- 175000 -->
      <g transform="translate(363.890313 318.238437) scale(0.1 -0.1)">
       <use xlink:href="#DejaVuSans-31"/>
       <use xlink:href="#DejaVuSans-37" transform="translate(63.623047 0)"/>
       <use xlink:href="#DejaVuSans-35" transform="translate(127.246094 0)"/>
       <use xlink:href="#DejaVuSans-30" transform="translate(190.869141 0)"/>
       <use xlink:href="#DejaVuSans-30" transform="translate(254.492188 0)"/>
       <use xlink:href="#DejaVuSans-30" transform="translate(318.115234 0)"/>
      </g>
     </g>
    </g>
    <g id="xtick_9">
     <g id="line2d_17">
      <path d="M 430.8525 303.64 
L 430.8525 14.76 
" clip-path="url(#pe00ed2f57a)" style="fill: none; stroke: #b0b0b0; stroke-width: 0.8; stroke-linecap: square"/>
     </g>
     <g id="line2d_18">
      <g>
       <use xlink:href="#m7b677e2830" x="430.8525" y="303.64" style="stroke: #000000; stroke-width: 0.8"/>
      </g>
     </g>
     <g id="text_9">
      <!-- 200000 -->
      <g transform="translate(411.765 318.238437) scale(0.1 -0.1)">
       <use xlink:href="#DejaVuSans-32"/>
       <use xlink:href="#DejaVuSans-30" transform="translate(63.623047 0)"/>
       <use xlink:href="#DejaVuSans-30" transform="translate(127.246094 0)"/>
       <use xlink:href="#DejaVuSans-30" transform="translate(190.869141 0)"/>
       <use xlink:href="#DejaVuSans-30" transform="translate(254.492188 0)"/>
       <use xlink:href="#DejaVuSans-30" transform="translate(318.115234 0)"/>
      </g>
     </g>
    </g>
    <g id="text_10">
     <!-- Step -->
     <g transform="translate(227.968594 331.916562) scale(0.1 -0.1)">
      <defs>
       <path id="DejaVuSans-53" d="M 3425 4513 
L 3425 3897 
Q 3066 4069 2747 4153 
Q 2428 4238 2131 4238 
Q 1616 4238 1336 4038 
Q 1056 3838 1056 3469 
Q 1056 3159 1242 3001 
Q 1428 2844 1947 2747 
L 2328 2669 
Q 3034 2534 3370 2195 
Q 3706 1856 3706 1288 
Q 3706 609 3251 259 
Q 2797 -91 1919 -91 
Q 1588 -91 1214 -16 
Q 841 59 441 206 
L 441 856 
Q 825 641 1194 531 
Q 1563 422 1919 422 
Q 2459 422 2753 634 
Q 3047 847 3047 1241 
Q 3047 1584 2836 1778 
Q 2625 1972 2144 2069 
L 1759 2144 
Q 1053 2284 737 2584 
Q 422 2884 422 3419 
Q 422 4038 858 4394 
Q 1294 4750 2059 4750 
Q 2388 4750 2728 4690 
Q 3069 4631 3425 4513 
z
" transform="scale(0.015625)"/>
       <path id="DejaVuSans-74" d="M 1172 4494 
L 1172 3500 
L 2356 3500 
L 2356 3053 
L 1172 3053 
L 1172 1153 
Q 1172 725 1289 603 
Q 1406 481 1766 481 
L 2356 481 
L 2356 0 
L 1766 0 
Q 1100 0 847 248 
Q 594 497 594 1153 
L 594 3053 
L 172 3053 
L 172 3500 
L 594 3500 
L 594 4494 
L 1172 4494 
z
" transform="scale(0.015625)"/>
       <path id="DejaVuSans-65" d="M 3597 1894 
L 3597 1613 
L 953 1613 
Q 991 1019 1311 708 
Q 1631 397 2203 397 
Q 2534 397 2845 478 
Q 3156 559 3463 722 
L 3463 178 
Q 3153 47 2828 -22 
Q 2503 -91 2169 -91 
Q 1331 -91 842 396 
Q 353 884 353 1716 
Q 353 2575 817 3079 
Q 1281 3584 2069 3584 
Q 2775 3584 3186 3129 
Q 3597 2675 3597 1894 
z
M 3022 2063 
Q 3016 2534 2758 2815 
Q 2500 3097 2075 3097 
Q 1594 3097 1305 2825 
Q 1016 2553 972 2059 
L 3022 2063 
z
" transform="scale(0.015625)"/>
       <path id="DejaVuSans-70" d="M 1159 525 
L 1159 -1331 
L 581 -1331 
L 581 3500 
L 1159 3500 
L 1159 2969 
Q 1341 3281 1617 3432 
Q 1894 3584 2278 3584 
Q 2916 3584 3314 3078 
Q 3713 2572 3713 1747 
Q 3713 922 3314 415 
Q 2916 -91 2278 -91 
Q 1894 -91 1617 61 
Q 1341 213 1159 525 
z
M 3116 1747 
Q 3116 2381 2855 2742 
Q 2594 3103 2138 3103 
Q 1681 3103 1420 2742 
Q 1159 2381 1159 1747 
Q 1159 1113 1420 752 
Q 1681 391 2138 391 
Q 2594 391 2855 752 
Q 3116 1113 3116 1747 
z
" transform="scale(0.015625)"/>
      </defs>
      <use xlink:href="#DejaVuSans-53"/>
      <use xlink:href="#DejaVuSans-74" transform="translate(63.476562 0)"/>
      <use xlink:href="#DejaVuSans-65" transform="translate(102.685547 0)"/>
      <use xlink:href="#DejaVuSans-70" transform="translate(164.208984 0)"/>
     </g>
    </g>
   </g>
   <g id="matplotlib.axis_2">
    <g id="ytick_1">
     <g id="line2d_19">
      <path d="M 47.855 303.64 
L 430.8525 303.64 
" clip-path="url(#pe00ed2f57a)" style="fill: none; stroke: #b0b0b0; stroke-width: 0.8; stroke-linecap: square"/>
     </g>
     <g id="line2d_20">
      <defs>
       <path id="m15f71b8002" d="M 0 0 
L -3.5 0 
" style="stroke: #000000; stroke-width: 0.8"/>
      </defs>
      <g>
       <use xlink:href="#m15f71b8002" x="47.855" y="303.64" style="stroke: #000000; stroke-width: 0.8"/>
      </g>
     </g>
     <g id="text_11">
      <!-- 0.0 -->
      <g transform="translate(24.951875 307.439219) scale(0.1 -0.1)">
       <defs>
        <path id="DejaVuSans-2e" d="M 684 794 
L 1344 794 
L 1344 0 
L 684 0 
L 684 794 
z
" transform="scale(0.015625)"/>
       </defs>
       <use xlink:href="#DejaVuSans-30"/>
       <use xlink:href="#DejaVuSans-2e" transform="translate(63.623047 0)"/>
       <use xlink:href="#DejaVuSans-30" transform="translate(95.410156 0)"/>
      </g>
     </g>
    </g>
    <g id="ytick_2">
     <g id="line2d_21">
      <path d="M 47.855 245.864 
L 430.8525 245.864 
" clip-path="url(#pe00ed2f57a)" style="fill: none; stroke: #b0b0b0; stroke-width: 0.8; stroke-linecap: square"/>
     </g>
     <g id="line2d_22">
      <g>
       <use xlink:href="#m15f71b8002" x="47.855" y="245.864" style="stroke: #000000; stroke-width: 0.8"/>
      </g>
     </g>
     <g id="text_12">
      <!-- 0.1 -->
      <g transform="translate(24.951875 249.663219) scale(0.1 -0.1)">
       <use xlink:href="#DejaVuSans-30"/>
       <use xlink:href="#DejaVuSans-2e" transform="translate(63.623047 0)"/>
       <use xlink:href="#DejaVuSans-31" transform="translate(95.410156 0)"/>
      </g>
     </g>
    </g>
    <g id="ytick_3">
     <g id="line2d_23">
      <path d="M 47.855 188.088 
L 430.8525 188.088 
" clip-path="url(#pe00ed2f57a)" style="fill: none; stroke: #b0b0b0; stroke-width: 0.8; stroke-linecap: square"/>
     </g>
     <g id="line2d_24">
      <g>
       <use xlink:href="#m15f71b8002" x="47.855" y="188.088" style="stroke: #000000; stroke-width: 0.8"/>
      </g>
     </g>
     <g id="text_13">
      <!-- 0.2 -->
      <g transform="translate(24.951875 191.887219) scale(0.1 -0.1)">
       <use xlink:href="#DejaVuSans-30"/>
       <use xlink:href="#DejaVuSans-2e" transform="translate(63.623047 0)"/>
       <use xlink:href="#DejaVuSans-32" transform="translate(95.410156 0)"/>
      </g>
     </g>
    </g>
    <g id="ytick_4">
     <g id="line2d_25">
      <path d="M 47.855 130.312 
L 430.8525 130.312 
" clip-path="url(#pe00ed2f57a)" style="fill: none; stroke: #b0b0b0; stroke-width: 0.8; stroke-linecap: square"/>
     </g>
     <g id="line2d_26">
      <g>
       <use xlink:href="#m15f71b8002" x="47.855" y="130.312" style="stroke: #000000; stroke-width: 0.8"/>
      </g>
     </g>
     <g id="text_14">
      <!-- 0.3 -->
      <g transform="translate(24.951875 134.111219) scale(0.1 -0.1)">
       <defs>
        <path id="DejaVuSans-33" d="M 2597 2516 
Q 3050 2419 3304 2112 
Q 3559 1806 3559 1356 
Q 3559 666 3084 287 
Q 2609 -91 1734 -91 
Q 1441 -91 1130 -33 
Q 819 25 488 141 
L 488 750 
Q 750 597 1062 519 
Q 1375 441 1716 441 
Q 2309 441 2620 675 
Q 2931 909 2931 1356 
Q 2931 1769 2642 2001 
Q 2353 2234 1838 2234 
L 1294 2234 
L 1294 2753 
L 1863 2753 
Q 2328 2753 2575 2939 
Q 2822 3125 2822 3475 
Q 2822 3834 2567 4026 
Q 2313 4219 1838 4219 
Q 1578 4219 1281 4162 
Q 984 4106 628 3988 
L 628 4550 
Q 988 4650 1302 4700 
Q 1616 4750 1894 4750 
Q 2613 4750 3031 4423 
Q 3450 4097 3450 3541 
Q 3450 3153 3228 2886 
Q 3006 2619 2597 2516 
z
" transform="scale(0.015625)"/>
       </defs>
       <use xlink:href="#DejaVuSans-30"/>
       <use xlink:href="#DejaVuSans-2e" transform="translate(63.623047 0)"/>
       <use xlink:href="#DejaVuSans-33" transform="translate(95.410156 0)"/>
      </g>
     </g>
    </g>
    <g id="ytick_5">
     <g id="line2d_27">
      <path d="M 47.855 72.536 
L 430.8525 72.536 
" clip-path="url(#pe00ed2f57a)" style="fill: none; stroke: #b0b0b0; stroke-width: 0.8; stroke-linecap: square"/>
     </g>
     <g id="line2d_28">
      <g>
       <use xlink:href="#m15f71b8002" x="47.855" y="72.536" style="stroke: #000000; stroke-width: 0.8"/>
      </g>
     </g>
     <g id="text_15">
      <!-- 0.4 -->
      <g transform="translate(24.951875 76.335219) scale(0.1 -0.1)">
       <defs>
        <path id="DejaVuSans-34" d="M 2419 4116 
L 825 1625 
L 2419 1625 
L 2419 4116 
z
M 2253 4666 
L 3047 4666 
L 3047 1625 
L 3713 1625 
L 3713 1100 
L 3047 1100 
L 3047 0 
L 2419 0 
L 2419 1100 
L 313 1100 
L 313 1709 
L 2253 4666 
z
" transform="scale(0.015625)"/>
       </defs>
       <use xlink:href="#DejaVuSans-30"/>
       <use xlink:href="#DejaVuSans-2e" transform="translate(63.623047 0)"/>
       <use xlink:href="#DejaVuSans-34" transform="translate(95.410156 0)"/>
      </g>
     </g>
    </g>
    <g id="ytick_6">
     <g id="line2d_29">
      <path d="M 47.855 14.76 
L 430.8525 14.76 
" clip-path="url(#pe00ed2f57a)" style="fill: none; stroke: #b0b0b0; stroke-width: 0.8; stroke-linecap: square"/>
     </g>
     <g id="line2d_30">
      <g>
       <use xlink:href="#m15f71b8002" x="47.855" y="14.76" style="stroke: #000000; stroke-width: 0.8"/>
      </g>
     </g>
     <g id="text_16">
      <!-- 0.5 -->
      <g transform="translate(24.951875 18.559219) scale(0.1 -0.1)">
       <use xlink:href="#DejaVuSans-30"/>
       <use xlink:href="#DejaVuSans-2e" transform="translate(63.623047 0)"/>
       <use xlink:href="#DejaVuSans-35" transform="translate(95.410156 0)"/>
      </g>
     </g>
    </g>
    <g id="text_17">
     <!-- MSE -->
     <g transform="translate(18.872188 169.847656) rotate(-90) scale(0.1 -0.1)">
      <defs>
       <path id="DejaVuSans-4d" d="M 628 4666 
L 1569 4666 
L 2759 1491 
L 3956 4666 
L 4897 4666 
L 4897 0 
L 4281 0 
L 4281 4097 
L 3078 897 
L 2444 897 
L 1241 4097 
L 1241 0 
L 628 0 
L 628 4666 
z
" transform="scale(0.015625)"/>
       <path id="DejaVuSans-45" d="M 628 4666 
L 3578 4666 
L 3578 4134 
L 1259 4134 
L 1259 2753 
L 3481 2753 
L 3481 2222 
L 1259 2222 
L 1259 531 
L 3634 531 
L 3634 0 
L 628 0 
L 628 4666 
z
" transform="scale(0.015625)"/>
      </defs>
      <use xlink:href="#DejaVuSans-4d"/>
      <use xlink:href="#DejaVuSans-53" transform="translate(86.279297 0)"/>
      <use xlink:href="#DejaVuSans-45" transform="translate(149.755859 0)"/>
     </g>
    </g>
   </g>
   <g id="line2d_31">
    <path d="M 48.214184 -1 
L 48.237998 60.184964 
L 48.620995 57.935407 
L 49.003993 141.504042 
L 49.38699 139.764017 
L 49.769988 177.414022 
L 50.152985 149.094892 
L 50.535983 183.947065 
L 50.91898 159.775394 
L 51.301978 161.178933 
L 52.067973 178.892471 
L 52.45097 188.978785 
L 52.833968 181.256815 
L 53.216965 185.881634 
L 53.599963 197.077307 
L 53.98296 166.962743 
L 54.365958 179.606043 
L 54.748955 153.77735 
L 55.131953 160.560045 
L 55.51495 160.779203 
L 55.897948 183.833801 
L 56.280945 162.8358 
L 56.663943 152.673276 
L 57.04694 154.009215 
L 57.429938 192.903805 
L 57.812935 159.145624 
L 58.195933 141.920663 
L 58.57893 181.630011 
L 58.961928 175.557109 
L 59.344925 192.204352 
L 59.727923 157.020023 
L 60.493918 222.013949 
L 60.876915 179.062651 
L 61.259913 193.290173 
L 61.64291 230.667995 
L 62.025908 214.002226 
L 62.408905 109.367542 
L 62.791903 225.440871 
L 63.1749 145.379223 
L 63.557898 195.585179 
L 63.940895 177.654971 
L 64.323893 193.07569 
L 64.70689 193.107329 
L 65.089888 197.978296 
L 65.472885 176.224906 
L 65.855883 202.244529 
L 66.23888 183.825588 
L 66.621878 213.830539 
L 67.004875 197.419441 
L 67.387873 239.263774 
L 67.77087 191.024293 
L 68.153868 172.83956 
L 68.536865 174.77963 
L 68.919863 204.772459 
L 69.30286 179.81141 
L 69.685858 194.622978 
L 70.068855 193.319583 
L 70.451853 182.257069 
L 70.83485 211.689537 
L 71.600845 156.824454 
L 71.983843 209.707289 
L 72.36684 182.472732 
L 72.749838 200.263022 
L 73.132835 173.325175 
L 73.515833 211.754993 
L 73.89883 181.254327 
L 74.281828 202.08047 
L 74.664825 182.012496 
L 75.047823 213.62847 
L 75.43082 186.987343 
L 75.813818 211.939585 
L 76.196815 190.213315 
L 76.579813 206.830666 
L 76.96281 192.742665 
L 77.345808 161.444891 
L 77.728805 178.545361 
L 78.111803 200.928142 
L 78.4948 160.090847 
L 78.877798 174.526465 
L 79.260795 197.274676 
L 79.643793 153.943905 
L 80.02679 187.018534 
L 80.792785 169.132905 
L 81.175783 196.003935 
L 81.55878 167.391391 
L 81.941778 222.706231 
L 82.324775 183.425858 
L 82.707773 208.124849 
L 83.09077 197.771948 
L 83.473768 207.814984 
L 83.856765 192.273967 
L 84.239763 185.319972 
L 84.62276 169.50697 
L 85.005758 217.249367 
L 85.771753 181.072654 
L 86.537748 215.478969 
L 86.920745 171.901344 
L 87.303742 204.495308 
L 87.68674 206.669965 
L 88.069738 221.950619 
L 88.452735 164.379369 
L 88.835733 177.714013 
L 89.21873 202.25418 
L 89.601728 180.857318 
L 89.984725 197.500187 
L 90.367723 187.209592 
L 90.75072 193.712451 
L 91.133718 222.864771 
L 91.516715 180.753559 
L 91.899713 194.335058 
L 92.28271 199.354139 
L 92.665708 184.94923 
L 93.048705 197.164175 
L 93.431703 193.573979 
L 93.8147 179.395693 
L 94.197698 188.558014 
L 94.580695 191.011801 
L 94.963693 206.577759 
L 95.34669 203.927155 
L 95.729688 186.015414 
L 96.112685 204.174035 
L 96.495683 204.96058 
L 96.87868 208.785303 
L 97.261678 171.168409 
L 97.644675 207.736243 
L 98.027673 203.66935 
L 98.41067 202.522661 
L 98.793667 208.641424 
L 99.176665 203.524817 
L 99.559663 184.530965 
L 100.325658 201.101688 
L 100.708655 184.913553 
L 101.091653 203.795924 
L 101.47465 193.147543 
L 101.857648 177.795715 
L 102.240645 208.60542 
L 102.623643 206.495282 
L 103.00664 208.78272 
L 103.389638 161.652831 
L 103.772635 213.133298 
L 104.155633 215.593869 
L 104.53863 220.130416 
L 104.921627 228.320792 
L 105.304625 184.483734 
L 105.687623 209.627171 
L 106.07062 219.861496 
L 106.453618 189.320109 
L 106.836615 198.098929 
L 107.219613 231.267211 
L 107.60261 212.795392 
L 107.985608 213.976656 
L 108.368605 206.06827 
L 108.751603 211.086576 
L 109.1346 177.540984 
L 109.517598 189.518347 
L 109.900595 174.99729 
L 110.283592 198.346688 
L 110.66659 190.380886 
L 111.049588 217.08406 
L 111.432585 210.88263 
L 111.815583 215.389613 
L 112.19858 188.165224 
L 112.581578 205.09201 
L 112.964575 207.820881 
L 113.347573 214.661672 
L 113.73057 201.787461 
L 114.113568 112.376697 
L 114.496565 210.172028 
L 114.879563 211.311657 
L 115.26256 203.311565 
L 115.645557 224.355471 
L 116.028555 203.780634 
L 116.411552 228.908781 
L 116.79455 233.092786 
L 117.177548 235.728177 
L 117.560545 217.615151 
L 117.943543 226.468967 
L 118.32654 228.037623 
L 118.709538 226.62359 
L 119.092535 221.646961 
L 119.475533 233.511598 
L 119.85853 203.619158 
L 120.241528 235.726821 
L 120.624525 217.771349 
L 121.007522 161.432864 
L 121.39052 187.563167 
L 121.773517 236.928627 
L 122.156515 236.742852 
L 122.92251 201.680155 
L 123.305508 189.871018 
L 123.688505 227.229391 
L 124.071503 221.862279 
L 124.4545 212.179345 
L 124.837498 235.734587 
L 125.220495 250.615998 
L 125.603493 221.987441 
L 125.98649 238.010923 
L 126.369488 223.885791 
L 126.752485 239.022567 
L 127.135482 237.207116 
L 127.51848 242.744929 
L 127.901477 198.138584 
L 128.284475 238.702839 
L 128.667473 232.565759 
L 129.05047 202.183497 
L 129.433468 225.148404 
L 129.816465 215.283891 
L 130.199463 235.580786 
L 130.58246 242.40738 
L 130.965458 215.855239 
L 131.348455 245.780747 
L 131.731453 230.971525 
L 132.11445 203.779282 
L 132.497447 237.330591 
L 132.880445 228.419015 
L 133.64644 247.367522 
L 134.029438 233.612607 
L 134.412435 226.829076 
L 134.795433 228.730758 
L 135.17843 210.013668 
L 135.561428 234.095123 
L 135.944425 221.392694 
L 136.327423 248.50342 
L 136.71042 185.075632 
L 137.093418 247.359451 
L 137.476415 226.749027 
L 137.859413 253.087266 
L 138.24241 253.208124 
L 138.625407 238.96482 
L 139.008405 248.680754 
L 139.391402 251.931925 
L 139.7744 249.23233 
L 140.540395 203.083892 
L 140.923393 212.048725 
L 141.30639 249.153632 
L 141.689388 224.914076 
L 142.072385 231.6818 
L 142.455383 228.868214 
L 142.83838 241.755885 
L 143.221378 245.588067 
L 143.604375 251.60797 
L 143.987372 248.930337 
L 144.753367 190.880965 
L 145.136365 201.223415 
L 145.519362 239.049996 
L 145.90236 236.782824 
L 146.285358 248.289354 
L 146.668355 249.839604 
L 147.051353 229.542468 
L 147.43435 228.059629 
L 147.817348 252.075605 
L 148.200345 249.92106 
L 148.96634 233.709517 
L 149.349338 233.809626 
L 149.732335 215.960926 
L 150.115332 246.664418 
L 150.49833 250.187738 
L 150.881327 252.404958 
L 151.264325 233.945554 
L 151.647323 247.717382 
L 152.03032 202.152237 
L 152.413318 208.57589 
L 152.796315 254.247403 
L 153.179313 252.770909 
L 153.56231 248.11183 
L 153.945308 255.688354 
L 154.328305 234.198194 
L 154.711303 252.227491 
L 155.477297 235.536001 
L 155.860295 192.861095 
L 156.243292 252.984824 
L 157.009287 235.104851 
L 157.392285 251.533 
L 157.775283 252.586335 
L 158.15828 243.195075 
L 158.541278 229.464261 
L 158.924275 259.489818 
L 159.307273 249.755814 
L 159.69027 236.873812 
L 160.073268 236.698742 
L 160.839263 260.583642 
L 161.22226 257.377678 
L 161.605257 248.331574 
L 161.988255 233.547223 
L 162.371252 258.039638 
L 162.75425 238.342308 
L 163.137248 247.874588 
L 163.520245 240.403722 
L 163.903243 230.545494 
L 164.669238 250.491917 
L 165.052235 241.717061 
L 165.435233 254.555732 
L 165.81823 249.945201 
L 166.201228 150.063765 
L 166.584225 240.289485 
L 166.967222 244.107031 
L 167.35022 218.418062 
L 167.733217 262.688038 
L 168.116215 246.387935 
L 168.499212 237.688389 
L 169.265208 245.393695 
L 169.648205 246.616464 
L 170.031203 243.697539 
L 170.4142 253.085902 
L 170.797198 252.345967 
L 171.180195 251.275522 
L 171.563193 252.675716 
L 171.94619 256.051115 
L 172.329188 252.5898 
L 172.712185 264.030954 
L 173.095182 227.087639 
L 173.47818 246.908797 
L 173.861177 256.175218 
L 174.244175 242.775324 
L 174.627173 248.26276 
L 175.01017 235.251872 
L 175.393168 257.499035 
L 176.159163 248.764626 
L 176.54216 232.701197 
L 176.925158 222.987239 
L 177.308155 251.18444 
L 177.691153 251.455598 
L 178.07415 259.40023 
L 178.457148 241.167379 
L 178.840145 202.427209 
L 179.223143 250.788072 
L 179.60614 234.18797 
L 179.989137 260.385 
L 180.372135 233.005974 
L 180.755133 265.457777 
L 181.13813 253.371485 
L 181.521128 212.489004 
L 181.904125 218.981842 
L 182.287123 255.053474 
L 182.67012 235.653707 
L 183.053118 210.546059 
L 183.436115 229.87 
L 183.819113 262.982131 
L 184.20211 250.211409 
L 184.585108 258.108862 
L 184.968105 211.696278 
L 185.351103 246.477343 
L 185.7341 252.695548 
L 186.117097 238.338886 
L 186.500095 257.515457 
L 186.883093 259.761665 
L 187.26609 244.715696 
L 187.649088 264.73389 
L 188.032085 249.291028 
L 188.415083 251.563761 
L 188.79808 265.787741 
L 189.181078 259.085203 
L 189.564075 217.571588 
L 189.947073 246.621165 
L 190.33007 218.23632 
L 190.713068 264.356812 
L 191.096065 249.851123 
L 191.479062 201.529355 
L 191.86206 260.095241 
L 192.245058 244.455927 
L 192.628055 262.716784 
L 193.011053 256.705478 
L 193.39405 255.970364 
L 193.777048 206.482557 
L 194.160045 263.667474 
L 194.543043 262.68258 
L 194.92604 251.462692 
L 195.309038 264.572445 
L 195.692035 265.497031 
L 196.075033 261.346335 
L 196.45803 243.735769 
L 196.841028 262.147279 
L 197.224025 247.430172 
L 197.607022 242.364605 
L 197.99002 235.110564 
L 198.373018 258.920761 
L 198.756015 253.281423 
L 199.139013 253.879593 
L 199.905008 260.43861 
L 200.288005 252.047673 
L 200.671003 214.12774 
L 201.054 262.723289 
L 201.436998 266.700395 
L 201.819995 253.816022 
L 202.202993 265.895448 
L 202.58599 264.887945 
L 202.968987 248.971119 
L 203.351985 259.92476 
L 203.734983 227.902569 
L 204.11798 262.134568 
L 204.500978 266.779597 
L 204.883975 268.902427 
L 205.266973 240.474421 
L 205.64997 255.781399 
L 206.032968 210.830243 
L 206.415965 258.132705 
L 206.798963 258.77863 
L 207.18196 240.802121 
L 207.564958 268.067635 
L 207.947955 192.800787 
L 208.330952 268.635804 
L 208.71395 264.414279 
L 209.096947 229.314098 
L 209.479945 264.955257 
L 209.862943 202.164325 
L 210.24594 269.79706 
L 210.628938 273.0322 
L 211.011935 231.185922 
L 211.394933 267.567976 
L 211.77793 226.898743 
L 212.160928 262.244078 
L 212.543925 272.307799 
L 212.926923 235.112311 
L 213.30992 275.787117 
L 213.692918 274.73024 
L 214.075915 257.141745 
L 214.458912 205.424174 
L 214.84191 251.047393 
L 215.224908 244.872071 
L 215.607905 271.940834 
L 215.990903 246.374027 
L 216.3739 270.615143 
L 216.756898 254.783362 
L 217.139895 244.887266 
L 217.522893 263.440882 
L 217.90589 271.53185 
L 218.288888 268.409736 
L 218.671885 220.104416 
L 219.054883 241.794368 
L 219.43788 272.52239 
L 219.820877 269.930934 
L 220.203875 271.484594 
L 220.586872 268.53532 
L 220.96987 267.931667 
L 221.352868 250.338551 
L 221.735865 260.829851 
L 222.50186 246.363364 
L 222.884858 272.368736 
L 223.267855 277.514425 
L 223.650853 273.269851 
L 224.03385 270.328933 
L 224.416848 272.577244 
L 224.799845 243.829834 
L 225.182843 278.123453 
L 225.56584 273.097181 
L 226.331835 250.212817 
L 226.714832 271.544157 
L 227.09783 264.337308 
L 227.480828 263.79667 
L 228.246823 249.108511 
L 228.62982 269.302886 
L 229.395815 263.338371 
L 229.778813 254.76121 
L 230.16181 273.710662 
L 230.544808 264.304373 
L 230.927805 257.693894 
L 231.310802 272.985396 
L 231.6938 271.278336 
L 232.076797 262.257065 
L 232.459795 222.845814 
L 232.842793 270.372815 
L 233.22579 263.566892 
L 233.608788 269.29194 
L 233.991785 269.706083 
L 234.374783 264.895388 
L 234.75778 276.838436 
L 235.140778 268.538596 
L 235.523775 266.119109 
L 235.906773 270.659175 
L 236.28977 260.990031 
L 237.055765 269.420898 
L 237.438762 271.744056 
L 237.82176 265.026477 
L 238.204757 275.247028 
L 238.587755 261.032044 
L 238.970753 263.301665 
L 239.35375 269.497667 
L 239.736748 258.520485 
L 240.119745 275.207967 
L 240.502743 256.965986 
L 240.88574 269.541734 
L 241.268738 267.402617 
L 241.651735 234.96 
L 242.034733 267.621754 
L 242.41773 262.989936 
L 242.800727 275.190992 
L 243.183725 279.51351 
L 243.566722 268.732861 
L 243.94972 274.53754 
L 244.332718 252.506948 
L 245.098713 280.460156 
L 245.48171 253.559658 
L 245.864708 246.109127 
L 246.247705 223.861642 
L 246.630703 262.637265 
L 247.0137 251.172193 
L 247.396698 275.465742 
L 247.779695 262.061552 
L 248.162693 277.993634 
L 248.54569 251.371124 
L 248.928687 279.651358 
L 249.311685 274.359407 
L 249.694682 275.595743 
L 250.07768 240.903926 
L 250.460678 272.19019 
L 250.843675 282.076633 
L 251.226673 268.115419 
L 251.60967 276.576856 
L 251.992668 258.38847 
L 252.375665 230.739143 
L 252.758663 269.319242 
L 253.14166 259.545279 
L 253.524658 276.788007 
L 253.907655 273.646243 
L 254.290652 279.829482 
L 254.67365 271.126991 
L 255.439645 282.007397 
L 255.822643 271.353493 
L 256.20564 277.721909 
L 256.588638 268.383343 
L 256.971635 262.071414 
L 257.354632 279.360346 
L 257.73763 254.419903 
L 258.120628 272.028303 
L 258.503625 279.017412 
L 258.886622 281.706233 
L 259.26962 281.636528 
L 259.652618 258.066035 
L 260.035615 273.055325 
L 260.418612 281.214403 
L 260.80161 265.830882 
L 261.184607 277.860256 
L 261.567605 260.484183 
L 262.3336 264.932873 
L 262.716597 252.73967 
L 263.099595 271.596932 
L 263.482593 256.433217 
L 263.86559 260.071363 
L 264.248587 271.779836 
L 264.631585 268.585071 
L 265.014583 281.814215 
L 265.39758 273.251968 
L 265.780577 247.001606 
L 266.163575 282.103487 
L 266.546572 286.19866 
L 266.92957 257.755824 
L 267.312568 268.730962 
L 267.695565 265.407787 
L 268.078562 278.737397 
L 268.46156 262.593331 
L 268.844558 271.418879 
L 269.610552 251.938743 
L 269.99355 280.093538 
L 270.759545 268.859917 
L 271.142542 274.21049 
L 271.52554 257.528526 
L 271.908537 283.912997 
L 272.291535 278.659769 
L 272.674532 271.028495 
L 273.05753 280.37453 
L 273.440527 276.381784 
L 273.823525 284.08762 
L 274.206523 282.745766 
L 274.58952 267.104899 
L 274.972517 264.415097 
L 275.355515 260.489336 
L 275.738513 280.486526 
L 276.504507 265.494814 
L 276.887505 277.629913 
L 277.270502 279.323376 
L 277.6535 267.388252 
L 278.036497 267.266056 
L 278.419495 269.535867 
L 278.802492 273.799936 
L 279.18549 270.253477 
L 279.568488 284.77425 
L 279.951485 280.352187 
L 280.334482 283.578763 
L 280.71748 283.251817 
L 281.100478 273.266619 
L 281.483475 278.054239 
L 281.866472 255.079457 
L 282.24947 242.616646 
L 282.632468 264.900506 
L 283.015465 271.176488 
L 283.398462 268.041734 
L 283.78146 278.147525 
L 284.164457 278.996068 
L 284.547455 245.633188 
L 284.930453 277.453792 
L 285.31345 229.576018 
L 285.696447 267.036257 
L 286.079445 258.037577 
L 286.462443 255.055988 
L 286.84544 278.614846 
L 287.228437 273.116528 
L 287.994433 287.145521 
L 288.37743 262.361845 
L 288.760427 272.74601 
L 289.143425 267.211861 
L 289.526422 284.665581 
L 289.90942 275.415428 
L 290.292417 274.691517 
L 290.675415 282.21725 
L 291.058412 267.973643 
L 291.44141 279.620704 
L 291.824408 285.48027 
L 292.207405 275.345036 
L 292.590402 273.985914 
L 292.9734 272.146179 
L 293.356398 276.062388 
L 293.739395 285.698059 
L 294.122392 274.703105 
L 294.50539 286.255962 
L 294.888387 274.269608 
L 295.271385 281.812691 
L 295.654382 281.674161 
L 296.03738 270.153209 
L 296.420377 264.642253 
L 296.803375 270.063978 
L 297.56937 284.713522 
L 297.952367 289.118304 
L 298.335365 267.017007 
L 298.718363 281.208278 
L 299.10136 282.00252 
L 299.484357 269.586356 
L 299.867355 281.905613 
L 300.250352 268.501933 
L 300.63335 261.886237 
L 301.016347 280.702923 
L 301.399345 276.961418 
L 301.782342 281.380657 
L 302.16534 277.846837 
L 302.548338 269.170734 
L 302.931335 273.972908 
L 303.314332 266.681365 
L 303.69733 265.088662 
L 304.080328 279.739491 
L 304.463325 287.813119 
L 304.846322 283.77137 
L 305.22932 284.180327 
L 305.612318 280.818423 
L 305.995315 290.687125 
L 306.76131 259.800584 
L 307.527305 274.938012 
L 307.910303 283.965577 
L 308.2933 270.357252 
L 308.676297 279.842934 
L 309.059295 283.838092 
L 309.442293 272.017205 
L 309.82529 277.018263 
L 310.208287 233.024114 
L 310.591285 270.349835 
L 310.974283 219.464711 
L 311.35728 288.170348 
L 311.740277 268.081257 
L 312.123275 281.104183 
L 312.506273 279.871345 
L 312.88927 272.085901 
L 313.272267 287.404048 
L 313.655265 264.903838 
L 314.038263 265.252962 
L 314.42126 279.159679 
L 314.804258 285.166367 
L 315.187255 262.25385 
L 315.570252 283.831287 
L 315.95325 288.872017 
L 316.336248 283.998716 
L 316.719245 291.060448 
L 317.102242 284.018356 
L 317.48524 289.147527 
L 317.868238 281.368921 
L 318.251235 252.179619 
L 318.634232 284.943872 
L 319.01723 278.590294 
L 319.400228 274.711842 
L 319.783225 277.516532 
L 320.166223 290.788292 
L 320.54922 283.525713 
L 320.932217 283.634175 
L 321.315215 266.820663 
L 321.698213 286.236349 
L 322.08121 277.359406 
L 322.464207 284.777582 
L 322.847205 268.730411 
L 323.230203 280.692086 
L 323.6132 283.328482 
L 323.996197 259.138632 
L 324.379195 259.494523 
L 324.762193 262.754471 
L 325.14519 232.282333 
L 325.528188 282.830232 
L 325.911185 285.264657 
L 326.294182 278.728144 
L 326.67718 287.951212 
L 327.060178 274.13147 
L 327.443175 285.690704 
L 327.826172 291.898372 
L 328.20917 280.912559 
L 328.592168 280.745397 
L 328.975165 253.736932 
L 329.358162 290.436192 
L 329.74116 263.086571 
L 330.124158 284.184472 
L 330.507155 289.370165 
L 331.27315 279.906518 
L 331.656147 285.119881 
L 332.039145 271.045993 
L 332.422143 282.509441 
L 332.80514 266.709728 
L 333.188137 285.090775 
L 333.571135 281.503357 
L 333.954133 273.624931 
L 334.33713 275.860769 
L 334.720127 279.482153 
L 335.103125 260.581718 
L 335.486123 286.218658 
L 335.86912 287.5465 
L 336.252117 278.811314 
L 336.635115 285.789381 
L 337.018113 288.888827 
L 337.40111 274.663655 
L 337.784108 267.408755 
L 338.167105 286.372273 
L 338.550102 288.971235 
L 338.9331 278.10332 
L 339.316098 287.473488 
L 340.082092 285.759344 
L 340.46509 288.175711 
L 340.848088 278.699551 
L 341.231085 285.493072 
L 341.614082 285.265313 
L 341.99708 264.998398 
L 342.380078 286.138262 
L 342.763075 276.990029 
L 343.146073 289.2388 
L 343.52907 261.753869 
L 343.912067 280.75952 
L 344.678063 266.743808 
L 345.06106 284.965798 
L 345.444057 276.440239 
L 345.827055 283.854478 
L 346.210053 274.984903 
L 346.59305 291.215034 
L 346.976047 286.110048 
L 347.359045 288.933715 
L 347.742043 271.282878 
L 348.12504 283.750699 
L 348.508038 285.859205 
L 348.891035 269.955219 
L 349.274032 288.443208 
L 350.040028 283.929811 
L 350.423025 287.506034 
L 350.806022 284.11848 
L 351.18902 285.684273 
L 351.572018 259.680333 
L 351.955015 277.910298 
L 352.338012 275.743117 
L 352.72101 267.521864 
L 353.104008 283.463926 
L 353.487005 284.173833 
L 353.870002 282.84475 
L 354.253 264.533931 
L 354.635997 287.622903 
L 355.018995 268.003173 
L 355.401993 289.227612 
L 355.78499 283.076107 
L 356.167987 290.593316 
L 356.550985 287.21545 
L 356.933983 273.593847 
L 357.31698 285.115223 
L 357.699977 252.310665 
L 358.082975 286.185464 
L 358.465973 283.44822 
L 358.84897 279.213521 
L 359.231967 291.394629 
L 359.614965 288.744284 
L 359.997963 289.885207 
L 360.38096 268.571331 
L 360.763958 285.055134 
L 361.146955 281.337129 
L 361.529952 275.669004 
L 361.91295 265.630161 
L 362.678945 288.261614 
L 363.061942 278.870998 
L 363.44494 275.221329 
L 363.827938 287.865697 
L 364.210935 259.051816 
L 364.593932 290.79237 
L 364.97693 280.846864 
L 365.359928 276.765143 
L 365.742925 280.161353 
L 366.125923 287.597571 
L 366.50892 286.686652 
L 366.891917 283.163315 
L 367.274915 277.396123 
L 367.657913 288.302071 
L 368.04091 289.78721 
L 368.423907 242.294095 
L 368.806905 291.89041 
L 369.189903 285.394147 
L 369.5729 287.972554 
L 369.955897 274.662874 
L 370.338895 280.337398 
L 370.721893 290.251087 
L 371.10489 278.965453 
L 371.487887 235.435676 
L 371.870885 281.427488 
L 372.253882 267.331384 
L 373.019878 284.336517 
L 373.402875 278.454961 
L 373.785872 289.248701 
L 374.551868 286.669721 
L 374.934865 272.692458 
L 375.317862 283.971285 
L 375.70086 279.928702 
L 376.083858 285.050739 
L 376.466855 291.746642 
L 376.849852 245.873159 
L 377.23285 290.435537 
L 377.998845 272.848555 
L 378.381843 292.406955 
L 378.76484 281.832536 
L 379.147837 283.142855 
L 379.530835 286.912103 
L 380.29683 279.144651 
L 380.679827 281.806402 
L 381.062825 292.554812 
L 381.445823 273.106638 
L 381.82882 286.913484 
L 382.977813 277.286462 
L 383.36081 292.066276 
L 383.743808 260.728636 
L 384.126805 284.808969 
L 384.509802 274.040758 
L 384.8928 289.605198 
L 385.275798 291.24921 
L 385.658795 283.29847 
L 386.42479 283.893512 
L 386.807788 292.966177 
L 387.190785 265.826961 
L 387.573782 282.083393 
L 387.95678 269.222693 
L 388.339778 278.016971 
L 388.722775 267.539147 
L 389.105773 266.931568 
L 389.48877 291.61118 
L 389.871767 291.223681 
L 390.254765 289.335933 
L 390.637763 292.018713 
L 391.02076 265.550241 
L 391.786755 293.677969 
L 392.169753 270.491974 
L 392.55275 290.052314 
L 393.318745 278.051307 
L 393.701743 281.768444 
L 394.08474 284.283081 
L 394.467737 274.417866 
L 394.850735 291.648789 
L 395.233732 265.750437 
L 395.61673 284.172021 
L 395.999728 291.923745 
L 396.382725 260.830979 
L 396.765722 287.52769 
L 397.14872 287.677035 
L 397.531718 280.793882 
L 397.914715 280.172052 
L 398.297712 246.887171 
L 398.68071 291.033373 
L 399.063708 287.591701 
L 399.446705 280.361857 
L 399.829702 287.571855 
L 400.2127 273.287087 
L 401.361693 292.75715 
L 401.74469 249.890657 
L 402.127687 275.844015 
L 402.510685 269.78214 
L 402.893683 275.3027 
L 403.27668 284.310353 
L 403.659677 282.635139 
L 404.042675 284.6201 
L 404.425673 239.508588 
L 404.80867 284.739681 
L 405.191667 284.756388 
L 405.574665 293.578921 
L 405.957663 282.094643 
L 406.34066 284.571296 
L 406.723658 284.490335 
L 407.106655 276.253189 
L 407.489652 276.137026 
L 407.87265 291.877095 
L 408.255648 279.138115 
L 408.638645 287.386994 
L 409.021642 284.551689 
L 409.40464 285.115836 
L 409.787638 253.163596 
L 410.170635 292.551664 
L 410.553632 292.731744 
L 410.93663 268.620619 
L 411.319628 295.178538 
L 411.702625 183.943329 
L 412.085622 270.599186 
L 412.46862 277.21712 
L 412.851617 288.111894 
L 413.234615 287.306172 
L 413.617613 291.725223 
L 414.00061 291.572648 
L 414.383607 271.442856 
L 415.149603 291.527656 
L 415.5326 249.912163 
L 415.915597 286.107305 
L 416.298595 293.816495 
L 416.681593 288.776569 
L 417.06459 285.745208 
L 417.447587 287.319079 
L 417.830585 267.370539 
L 418.213582 286.91525 
L 418.59658 274.017747 
L 418.979578 291.216121 
L 419.362575 260.682068 
L 419.745572 288.669506 
L 420.12857 288.972043 
L 420.511568 268.786008 
L 420.894565 269.83973 
L 421.277562 276.349885 
L 421.66056 288.88681 
L 422.043558 291.364264 
L 422.426555 291.128854 
L 422.809552 286.475874 
L 423.19255 284.413979 
L 423.575547 285.514735 
L 423.958545 207.892252 
L 424.341543 290.347087 
L 424.72454 279.794113 
L 425.107537 284.012271 
L 425.490535 282.267897 
L 425.873533 284.575306 
L 426.25653 294.262927 
L 426.639527 291.111459 
L 427.022525 291.978028 
L 427.405523 281.432942 
L 427.78852 293.945068 
L 428.171517 286.553807 
L 428.554515 296.525032 
L 428.937513 279.009406 
L 429.32051 287.554291 
L 429.703508 286.287345 
L 430.086505 279.129604 
L 430.469502 282.015558 
L 430.469502 282.015558 
" clip-path="url(#pe00ed2f57a)" style="fill: none; stroke: #1f77b4; stroke-opacity: 0.7; stroke-width: 1.5; stroke-linecap: square"/>
   </g>
   <g id="line2d_32">
    <path d="M 48.19264 -1 
L 48.237998 104.526793 
L 48.620995 78.716231 
L 49.003993 139.547666 
L 49.38699 131.033297 
L 49.769988 141.79848 
L 50.152985 135.081284 
L 50.535983 142.016519 
L 50.91898 186.51285 
L 51.301978 116.715058 
L 51.684975 147.865106 
L 52.067973 157.251372 
L 52.45097 189.911602 
L 52.833968 153.471668 
L 53.216965 137.122479 
L 53.599963 190.210258 
L 53.98296 154.770552 
L 54.365958 197.871412 
L 55.131953 122.73757 
L 55.51495 158.133825 
L 55.897948 167.41412 
L 56.663943 141.898744 
L 57.04694 174.982482 
L 57.429938 156.730493 
L 57.812935 161.439863 
L 58.195933 157.377826 
L 58.57893 160.495888 
L 58.961928 160.292614 
L 59.344925 135.120422 
L 59.727923 194.690682 
L 60.11092 158.167591 
L 60.493918 202.902158 
L 60.876915 152.342955 
L 61.259913 164.612733 
L 61.64291 156.232169 
L 62.025908 160.390829 
L 62.408905 142.918652 
L 62.791903 159.395681 
L 63.1749 158.793435 
L 63.557898 159.868331 
L 63.940895 151.036047 
L 64.323893 155.02432 
L 64.70689 157.185563 
L 65.089888 152.342473 
L 65.472885 144.195101 
L 65.855883 123.351998 
L 66.621878 179.615187 
L 67.004875 161.289286 
L 67.387873 155.698359 
L 67.77087 205.713842 
L 68.153868 149.114676 
L 68.919863 206.910061 
L 69.30286 137.978794 
L 69.685858 180.752388 
L 70.068855 140.728947 
L 70.451853 201.689703 
L 70.83485 153.869538 
L 71.217848 177.100704 
L 71.600845 191.47988 
L 71.983843 181.898458 
L 72.36684 152.015802 
L 72.749838 150.973836 
L 73.132835 169.565944 
L 73.515833 151.041574 
L 73.89883 152.667198 
L 74.281828 195.599978 
L 74.664825 145.656942 
L 75.047823 151.135157 
L 75.43082 174.637198 
L 75.813818 146.420655 
L 76.196815 198.034265 
L 76.579813 167.163469 
L 76.96281 155.68665 
L 77.345808 148.466517 
L 77.728805 200.33943 
L 78.111803 128.306819 
L 78.4948 164.799003 
L 78.877798 183.211134 
L 79.260795 145.807708 
L 79.643793 144.204106 
L 80.02679 198.466675 
L 80.409788 135.361448 
L 80.792785 125.791855 
L 81.175783 187.233973 
L 81.55878 135.136349 
L 81.941778 184.461341 
L 82.324775 174.85441 
L 82.707773 194.414978 
L 83.09077 150.129281 
L 83.473768 148.250802 
L 83.856765 184.518008 
L 84.239763 164.890417 
L 84.62276 196.01449 
L 85.005758 180.819463 
L 85.388755 188.068653 
L 85.771753 149.807569 
L 86.15475 147.499383 
L 86.537748 155.304346 
L 86.920745 194.895411 
L 87.303742 141.493969 
L 87.68674 192.146868 
L 88.069738 197.924169 
L 88.452735 129.475307 
L 89.21873 186.865694 
L 89.601728 175.74239 
L 89.984725 178.789073 
L 90.367723 144.759268 
L 91.133718 196.997189 
L 91.516715 155.46763 
L 91.899713 189.457487 
L 92.28271 192.672835 
L 92.665708 157.108079 
L 93.048705 188.234021 
L 93.431703 198.656287 
L 93.8147 125.280205 
L 94.580695 191.871801 
L 94.963693 181.946015 
L 95.34669 199.007288 
L 95.729688 193.643017 
L 96.112685 195.993776 
L 96.495683 124.29766 
L 97.261678 183.27876 
L 97.644675 186.587415 
L 98.027673 176.151176 
L 98.41067 198.191144 
L 98.793667 162.531745 
L 99.176665 160.521045 
L 99.559663 141.790869 
L 99.94266 144.123661 
L 100.325658 195.493189 
L 100.708655 145.382908 
L 101.091653 202.463067 
L 101.47465 156.408953 
L 101.857648 135.211732 
L 102.240645 202.437136 
L 102.623643 207.591547 
L 103.00664 207.183036 
L 103.389638 125.681071 
L 103.772635 203.657831 
L 104.155633 191.827222 
L 104.53863 158.224825 
L 104.921627 204.509514 
L 105.304625 204.065136 
L 105.687623 179.892122 
L 106.07062 208.241333 
L 106.836615 185.369854 
L 107.219613 214.907811 
L 107.985608 180.4452 
L 108.368605 213.164765 
L 108.751603 206.166071 
L 109.1346 126.328317 
L 109.517598 162.06724 
L 109.900595 150.660733 
L 110.283592 178.605437 
L 110.66659 197.156117 
L 111.049588 174.08721 
L 111.432585 219.37347 
L 111.815583 196.378947 
L 112.19858 180.554969 
L 112.581578 217.649114 
L 112.964575 207.885106 
L 113.347573 180.883921 
L 113.73057 197.471011 
L 114.113568 171.787142 
L 114.496565 198.4612 
L 114.879563 209.746401 
L 115.26256 198.011407 
L 115.645557 227.403678 
L 116.028555 181.433685 
L 116.411552 225.868227 
L 116.79455 210.674217 
L 117.177548 221.912721 
L 117.560545 199.505852 
L 117.943543 216.082799 
L 118.709538 227.05055 
L 119.092535 204.02958 
L 119.475533 215.196016 
L 119.85853 204.674795 
L 120.241528 227.714301 
L 120.624525 187.96083 
L 121.007522 190.714548 
L 121.39052 167.469555 
L 121.773517 215.209903 
L 122.156515 224.874844 
L 122.539513 201.612908 
L 122.92251 169.655791 
L 123.305508 178.961061 
L 124.071503 220.24727 
L 124.4545 194.209043 
L 124.837498 217.429818 
L 125.220495 232.505636 
L 125.603493 200.543504 
L 125.98649 219.89156 
L 126.369488 221.978677 
L 126.752485 214.76971 
L 127.135482 228.646257 
L 127.51848 223.798105 
L 127.901477 202.993916 
L 128.667473 228.251211 
L 129.05047 180.128111 
L 129.433468 210.21027 
L 129.816465 180.98044 
L 130.199463 243.407023 
L 130.58246 238.815367 
L 130.965458 185.358981 
L 131.348455 224.954239 
L 131.731453 211.293905 
L 132.11445 188.300123 
L 132.497447 245.079981 
L 132.880445 220.41801 
L 133.263442 243.401272 
L 133.64644 231.041811 
L 134.029438 239.545401 
L 134.412435 215.675718 
L 134.795433 219.787827 
L 135.17843 203.733997 
L 135.561428 242.112718 
L 135.944425 211.206168 
L 136.327423 237.688428 
L 136.71042 187.515807 
L 137.093418 233.921099 
L 137.476415 212.932374 
L 137.859413 251.135841 
L 138.24241 245.035217 
L 138.625407 233.160515 
L 139.008405 246.444175 
L 139.391402 244.891248 
L 139.7744 236.39783 
L 140.157398 221.697497 
L 140.540395 212.511328 
L 140.923393 218.861647 
L 141.30639 241.005356 
L 141.689388 214.216614 
L 142.072385 229.571154 
L 142.455383 218.428574 
L 142.83838 233.034678 
L 143.221378 227.435808 
L 143.604375 251.091115 
L 144.753367 213.689863 
L 145.136365 205.559099 
L 145.519362 215.308454 
L 145.90236 244.705489 
L 146.285358 237.248906 
L 146.668355 250.237332 
L 147.43435 213.027249 
L 147.817348 246.484901 
L 148.200345 242.908708 
L 148.583343 227.565248 
L 148.96634 241.66457 
L 149.349338 237.402956 
L 149.732335 209.300164 
L 150.115332 237.044947 
L 150.49833 242.263747 
L 150.881327 242.663524 
L 151.264325 245.340873 
L 151.647323 236.737789 
L 152.03032 182.238335 
L 152.413318 197.983487 
L 152.796315 239.555999 
L 153.179313 246.242821 
L 153.56231 234.873778 
L 153.945308 248.996978 
L 154.328305 249.50465 
L 154.711303 244.952494 
L 155.477297 231.952717 
L 155.860295 230.740563 
L 156.243292 242.532482 
L 156.62629 246.466482 
L 157.009287 233.618254 
L 157.392285 244.125882 
L 157.775283 247.861381 
L 158.15828 232.879288 
L 158.924275 251.843624 
L 159.307273 244.509753 
L 159.69027 233.236884 
L 160.073268 239.980239 
L 160.456265 239.7973 
L 160.839263 258.940838 
L 161.22226 252.677938 
L 161.605257 255.435133 
L 161.988255 225.444245 
L 162.371252 259.085676 
L 162.75425 238.841117 
L 163.520245 252.641546 
L 163.903243 231.03383 
L 164.28624 235.503647 
L 164.669238 248.648917 
L 165.052235 224.032312 
L 165.435233 249.483605 
L 165.81823 239.085454 
L 166.201228 165.922792 
L 166.584225 241.521944 
L 166.967222 236.543249 
L 167.35022 224.65256 
L 167.733217 260.21835 
L 168.116215 240.447793 
L 168.499212 231.495206 
L 168.88221 219.087176 
L 169.265208 250.444097 
L 169.648205 230.54564 
L 170.031203 256.624623 
L 170.4142 252.438664 
L 171.180195 240.703984 
L 171.563193 249.503609 
L 171.94619 252.973486 
L 172.329188 249.987206 
L 172.712185 262.882789 
L 173.095182 202.53003 
L 173.47818 247.602065 
L 173.861177 237.656022 
L 174.627173 246.64237 
L 175.01017 224.016953 
L 175.393168 249.876968 
L 175.776165 247.587438 
L 176.159163 255.438461 
L 176.54216 231.172457 
L 176.925158 238.050509 
L 177.308155 238.245574 
L 177.691153 258.638385 
L 178.07415 249.528429 
L 178.457148 256.204533 
L 178.840145 189.129852 
L 179.223143 249.502924 
L 179.60614 238.814631 
L 179.989137 263.720688 
L 180.372135 225.472226 
L 180.755133 259.206052 
L 181.521128 229.426053 
L 181.904125 246.72461 
L 182.287123 254.837071 
L 182.67012 225.421052 
L 183.053118 205.758404 
L 183.819113 258.545473 
L 184.20211 239.550097 
L 184.585108 263.531925 
L 184.968105 209.477826 
L 185.351103 244.637442 
L 185.7341 245.330468 
L 186.117097 225.974199 
L 186.500095 249.574773 
L 186.883093 250.985531 
L 187.26609 244.878782 
L 187.649088 264.026138 
L 188.032085 246.106192 
L 188.415083 244.749255 
L 188.79808 268.042757 
L 189.181078 253.969052 
L 189.564075 205.811721 
L 189.947073 248.138497 
L 190.33007 203.234271 
L 190.713068 266.942924 
L 191.096065 253.220655 
L 191.479062 208.370473 
L 191.86206 260.476387 
L 192.245058 234.842694 
L 192.628055 263.632353 
L 193.011053 258.40608 
L 193.39405 258.090089 
L 193.777048 189.525079 
L 194.160045 257.677062 
L 194.543043 259.810269 
L 194.92604 247.178393 
L 195.309038 261.844912 
L 195.692035 261.970664 
L 196.075033 261.150921 
L 196.45803 241.985378 
L 196.841028 265.318784 
L 197.224025 243.093851 
L 197.607022 237.775377 
L 197.99002 235.028018 
L 198.373018 250.722556 
L 198.756015 243.862106 
L 199.139013 247.797147 
L 199.52201 266.565277 
L 199.905008 255.764275 
L 200.288005 256.497279 
L 200.671003 243.046422 
L 201.054 257.803016 
L 201.436998 256.150505 
L 201.819995 263.760295 
L 202.202993 262.599323 
L 202.58599 257.652358 
L 202.968987 250.244809 
L 203.351985 260.85112 
L 203.734983 226.10308 
L 204.11798 257.093903 
L 204.883975 268.278602 
L 205.266973 232.043855 
L 205.64997 257.921902 
L 206.032968 199.720318 
L 206.415965 255.778558 
L 206.798963 250.476829 
L 207.18196 242.320112 
L 207.564958 265.357393 
L 207.947955 191.400089 
L 208.330952 262.293784 
L 208.71395 263.622039 
L 209.096947 244.326211 
L 209.479945 259.500511 
L 209.862943 190.200762 
L 210.24594 272.511286 
L 210.628938 268.293001 
L 211.011935 252.937435 
L 211.394933 265.431519 
L 211.77793 234.674378 
L 212.160928 262.219602 
L 212.543925 266.888651 
L 212.926923 242.325497 
L 213.30992 266.200307 
L 213.692918 272.289993 
L 214.075915 269.958833 
L 214.458912 215.047988 
L 214.84191 260.810424 
L 215.224908 222.314087 
L 215.607905 265.731105 
L 215.990903 245.881399 
L 216.3739 267.457695 
L 216.756898 244.697676 
L 217.139895 240.1939 
L 217.522893 258.878136 
L 218.288888 268.313919 
L 218.671885 232.762353 
L 219.054883 233.446456 
L 219.43788 266.149629 
L 219.820877 264.724618 
L 220.203875 266.147403 
L 220.586872 260.365879 
L 220.96987 271.044176 
L 221.352868 237.911667 
L 221.735865 262.66453 
L 222.118863 252.157204 
L 222.50186 245.652792 
L 222.884858 268.735652 
L 223.267855 272.906571 
L 223.650853 268.168995 
L 224.03385 277.27779 
L 224.416848 269.710343 
L 224.799845 255.014685 
L 225.182843 273.056147 
L 226.331835 255.004965 
L 226.714832 266.336476 
L 227.09783 264.316396 
L 227.480828 267.749584 
L 227.863825 245.445785 
L 229.012818 272.579283 
L 229.395815 254.853106 
L 229.778813 262.195074 
L 230.16181 259.999575 
L 230.544808 263.852286 
L 230.927805 253.065683 
L 231.310802 265.165621 
L 231.6938 255.941971 
L 232.076797 269.104225 
L 232.459795 212.227196 
L 232.842793 269.075896 
L 233.22579 259.193129 
L 233.608788 267.585315 
L 233.991785 270.901471 
L 234.374783 264.655098 
L 234.75778 278.252399 
L 235.140778 253.283774 
L 235.523775 272.682667 
L 235.906773 265.618121 
L 236.28977 263.198608 
L 236.672768 275.560496 
L 237.438762 263.159044 
L 237.82176 273.740868 
L 238.204757 260.798113 
L 238.587755 255.592748 
L 238.970753 257.250433 
L 239.35375 264.540177 
L 239.736748 256.697643 
L 240.119745 272.991293 
L 240.502743 250.994459 
L 240.88574 267.478757 
L 241.268738 267.174845 
L 241.651735 219.068985 
L 242.034733 268.257453 
L 242.41773 258.701749 
L 242.800727 270.182915 
L 243.183725 274.452975 
L 243.566722 268.101791 
L 243.94972 269.540912 
L 244.332718 260.870065 
L 244.715715 272.771584 
L 245.098713 276.375788 
L 245.48171 244.890869 
L 245.864708 253.480612 
L 246.247705 229.698029 
L 246.630703 259.488359 
L 247.0137 247.961064 
L 247.396698 273.428921 
L 247.779695 261.307223 
L 248.162693 280.376891 
L 248.54569 249.172181 
L 248.928687 278.042922 
L 249.311685 268.401009 
L 249.694682 270.870572 
L 250.07768 236.891788 
L 250.460678 267.12767 
L 250.843675 276.448571 
L 251.226673 262.052474 
L 251.60967 276.697046 
L 252.375665 219.012939 
L 252.758663 265.050945 
L 253.14166 258.836485 
L 253.524658 272.579935 
L 253.907655 270.357843 
L 254.290652 275.861012 
L 254.67365 273.899387 
L 255.056647 277.576048 
L 255.439645 277.948691 
L 255.822643 268.94944 
L 256.20564 271.621049 
L 256.588638 259.150306 
L 256.971635 259.164464 
L 257.354632 272.171228 
L 257.73763 255.162834 
L 258.120628 258.947712 
L 258.503625 276.488875 
L 258.886622 279.153254 
L 259.26962 273.47412 
L 259.652618 254.702654 
L 260.035615 271.299554 
L 260.418612 278.013067 
L 260.80161 256.871861 
L 261.184607 273.762206 
L 261.567605 259.023776 
L 261.950603 263.012027 
L 262.3336 264.023886 
L 262.716597 253.056389 
L 263.099595 270.652953 
L 263.482593 254.339695 
L 263.86559 257.127875 
L 264.248587 277.885275 
L 264.631585 282.222926 
L 265.014583 274.733165 
L 265.39758 275.039386 
L 265.780577 257.095944 
L 266.163575 275.724441 
L 266.546572 284.391801 
L 266.92957 259.812796 
L 267.312568 275.035568 
L 267.695565 261.884808 
L 268.078562 279.392793 
L 268.46156 266.746111 
L 268.844558 273.60983 
L 269.227555 265.701016 
L 269.610552 237.402345 
L 269.99355 274.389212 
L 270.376548 271.027817 
L 270.759545 260.842364 
L 271.142542 266.47367 
L 271.52554 255.969051 
L 271.908537 285.332298 
L 272.291535 274.169273 
L 272.674532 267.376152 
L 273.05753 279.399493 
L 273.440527 265.524435 
L 273.823525 281.512201 
L 274.206523 280.207225 
L 274.58952 266.21679 
L 274.972517 260.00935 
L 275.355515 264.54499 
L 275.738513 283.429177 
L 276.504507 267.68828 
L 276.887505 273.3279 
L 277.270502 284.284338 
L 277.6535 259.910942 
L 278.419495 264.923463 
L 278.802492 269.789275 
L 279.18549 265.972652 
L 279.568488 279.801842 
L 279.951485 277.433074 
L 280.334482 285.001236 
L 280.71748 284.987429 
L 281.100478 271.769985 
L 281.483475 278.207495 
L 281.866472 256.496125 
L 282.24947 247.143405 
L 282.632468 268.152893 
L 283.015465 272.993669 
L 283.398462 281.401175 
L 284.164457 266.408691 
L 284.547455 236.500681 
L 284.930453 281.551657 
L 285.31345 254.244842 
L 285.696447 255.91913 
L 286.079445 243.327882 
L 286.462443 252.610221 
L 286.84544 272.251017 
L 287.228437 270.077501 
L 287.611435 283.014661 
L 287.994433 280.71278 
L 288.37743 261.407758 
L 288.760427 268.780851 
L 289.143425 271.072419 
L 289.526422 280.655761 
L 289.90942 274.372056 
L 290.292417 276.33886 
L 290.675415 280.420213 
L 291.058412 266.589529 
L 291.44141 277.409007 
L 291.824408 283.665865 
L 292.207405 267.648963 
L 292.590402 244.243269 
L 292.9734 274.848549 
L 293.356398 269.33255 
L 293.739395 283.007224 
L 294.122392 274.264025 
L 294.50539 279.077419 
L 294.888387 275.62965 
L 295.271385 277.066135 
L 295.654382 280.782012 
L 296.03738 271.253828 
L 296.420377 268.322189 
L 296.803375 270.451835 
L 297.186373 268.448265 
L 297.56937 283.035878 
L 297.952367 284.153842 
L 298.335365 268.456707 
L 298.718363 278.503343 
L 299.10136 278.212915 
L 299.484357 270.673359 
L 299.867355 273.750508 
L 300.250352 264.874704 
L 300.63335 261.224126 
L 301.016347 278.915876 
L 301.399345 275.823452 
L 301.782342 278.761068 
L 302.548338 272.75172 
L 302.931335 270.058825 
L 303.314332 271.698913 
L 303.69733 261.245839 
L 304.080328 278.61513 
L 304.463325 285.041588 
L 305.22932 280.42981 
L 305.612318 282.148697 
L 305.995315 289.214 
L 306.378312 265.266418 
L 306.76131 256.615192 
L 307.144308 262.969355 
L 307.527305 263.490579 
L 307.910303 281.739945 
L 308.2933 266.232825 
L 308.676297 281.291347 
L 309.059295 280.316523 
L 309.442293 260.524987 
L 309.82529 277.931903 
L 310.208287 230.604579 
L 310.591285 269.627246 
L 310.974283 222.335791 
L 311.35728 281.85766 
L 311.740277 270.355592 
L 312.123275 282.187264 
L 312.506273 273.031221 
L 312.88927 273.565742 
L 313.272267 285.398437 
L 313.655265 273.738102 
L 314.038263 268.352392 
L 314.42126 269.953359 
L 314.804258 285.803554 
L 315.187255 264.005092 
L 315.570252 282.285978 
L 315.95325 288.894002 
L 316.336248 278.151855 
L 316.719245 290.123697 
L 317.102242 279.778108 
L 317.48524 289.879627 
L 317.868238 279.634421 
L 318.251235 256.422654 
L 318.634232 278.000734 
L 319.01723 279.272581 
L 319.400228 275.70174 
L 319.783225 277.906202 
L 320.166223 289.786875 
L 320.54922 282.709112 
L 320.932217 279.001238 
L 321.315215 264.436207 
L 321.698213 283.322908 
L 322.08121 270.947823 
L 322.464207 288.384926 
L 322.847205 264.391012 
L 323.230203 272.265396 
L 323.6132 283.638598 
L 323.996197 259.555959 
L 324.379195 256.995495 
L 324.762193 265.005385 
L 325.14519 239.126012 
L 325.528188 280.038716 
L 325.911185 280.887459 
L 326.294182 285.553324 
L 326.67718 287.719223 
L 327.060178 272.807149 
L 327.443175 285.53359 
L 327.826172 290.460139 
L 328.20917 275.95966 
L 328.592168 279.277329 
L 328.975165 241.526038 
L 329.358162 283.793449 
L 329.74116 267.440834 
L 330.124158 282.561274 
L 330.507155 286.90557 
L 330.890152 284.406781 
L 331.27315 277.110012 
L 331.656147 280.791936 
L 332.039145 265.539966 
L 332.422143 281.773947 
L 332.80514 261.607791 
L 333.188137 283.763008 
L 333.571135 277.18154 
L 333.954133 278.487146 
L 334.33713 271.551996 
L 334.720127 275.875652 
L 335.103125 265.91664 
L 335.486123 285.001948 
L 335.86912 286.075983 
L 336.252117 280.525591 
L 336.635115 284.778862 
L 337.018113 287.542872 
L 337.784108 266.6622 
L 338.167105 286.053208 
L 338.9331 279.945656 
L 339.316098 284.062386 
L 339.699095 285.880319 
L 340.082092 283.263917 
L 340.46509 285.948406 
L 340.848088 277.737363 
L 341.231085 287.602843 
L 341.614082 283.121205 
L 341.99708 259.099826 
L 342.380078 284.45791 
L 342.763075 273.177794 
L 343.146073 286.82728 
L 343.52907 264.942739 
L 343.912067 280.769632 
L 344.295065 276.499262 
L 344.678063 265.4026 
L 345.06106 286.074564 
L 345.444057 279.557316 
L 345.827055 287.014149 
L 346.210053 277.790698 
L 346.59305 290.736446 
L 346.976047 281.934584 
L 347.359045 285.268441 
L 347.742043 273.210391 
L 348.12504 285.544997 
L 348.508038 281.688031 
L 348.891035 265.742284 
L 349.274032 282.743879 
L 349.65703 285.198992 
L 350.040028 279.677954 
L 350.423025 284.672512 
L 350.806022 288.07992 
L 351.18902 283.487184 
L 351.572018 265.836952 
L 351.955015 284.492976 
L 352.338012 274.011183 
L 352.72101 273.475211 
L 353.104008 281.099318 
L 353.487005 286.035228 
L 353.870002 281.353646 
L 354.253 269.617967 
L 354.635997 288.574899 
L 355.018995 269.332849 
L 355.401993 290.072599 
L 355.78499 276.43539 
L 356.167987 291.103066 
L 356.550985 286.076895 
L 356.933983 273.222944 
L 357.31698 286.396124 
L 357.699977 259.219921 
L 358.082975 285.456302 
L 358.465973 274.53082 
L 359.231967 285.923708 
L 359.614965 288.052802 
L 359.997963 289.45765 
L 360.38096 270.702181 
L 360.763958 287.886257 
L 361.146955 282.3861 
L 361.529952 279.665744 
L 361.91295 266.164256 
L 362.678945 288.064831 
L 363.061942 276.904431 
L 363.44494 271.705932 
L 363.827938 289.188589 
L 364.210935 263.700999 
L 364.593932 287.991644 
L 364.97693 279.696963 
L 365.359928 275.65791 
L 365.742925 276.049513 
L 366.125923 286.421526 
L 366.50892 286.69507 
L 366.891917 277.388919 
L 367.274915 280.326574 
L 367.657913 286.360683 
L 368.04091 286.825292 
L 368.423907 254.761034 
L 368.806905 287.921267 
L 369.189903 284.245482 
L 369.5729 287.217136 
L 369.955897 273.671686 
L 370.338895 287.123821 
L 370.721893 290.905029 
L 371.10489 278.601183 
L 371.487887 246.141877 
L 371.870885 284.295715 
L 372.253882 269.474308 
L 372.63688 268.855517 
L 373.019878 288.048818 
L 373.402875 281.446981 
L 373.785872 288.060978 
L 374.16887 286.863665 
L 374.551868 289.416669 
L 374.934865 272.244338 
L 375.317862 280.677353 
L 375.70086 277.118116 
L 376.083858 278.192777 
L 376.466855 287.786209 
L 376.849852 254.641679 
L 377.23285 289.367908 
L 377.615847 284.90233 
L 377.998845 276.203223 
L 378.381843 292.531512 
L 378.76484 280.041266 
L 379.147837 281.249053 
L 379.530835 287.381906 
L 379.913833 282.481704 
L 380.29683 283.432827 
L 380.679827 281.335396 
L 381.062825 293.192482 
L 381.445823 273.04308 
L 381.82882 283.851323 
L 382.211817 285.951221 
L 382.594815 280.209285 
L 382.977813 270.679663 
L 383.36081 288.147012 
L 383.743808 269.383949 
L 384.126805 288.717948 
L 384.509802 278.156999 
L 384.8928 286.896423 
L 385.275798 289.898066 
L 385.658795 281.02482 
L 386.041792 282.089144 
L 386.42479 288.8233 
L 386.807788 288.48776 
L 387.190785 275.680516 
L 387.573782 279.299726 
L 387.95678 271.524504 
L 388.339778 278.054357 
L 388.722775 263.741996 
L 389.105773 267.653905 
L 389.48877 292.143227 
L 390.254765 287.963571 
L 390.637763 291.514523 
L 391.02076 276.456838 
L 391.403757 275.737624 
L 391.786755 294.511795 
L 392.169753 267.36626 
L 392.55275 287.289346 
L 392.935747 285.338679 
L 393.318745 282.69139 
L 394.08474 284.685288 
L 394.467737 275.786523 
L 394.850735 291.439969 
L 395.233732 270.355235 
L 395.61673 286.126957 
L 395.999728 291.53555 
L 396.382725 260.802073 
L 396.765722 284.511518 
L 397.14872 288.434877 
L 397.531718 282.889253 
L 397.914715 287.598228 
L 398.297712 248.396294 
L 398.68071 293.081532 
L 399.446705 280.047039 
L 399.829702 281.46271 
L 400.2127 272.817825 
L 400.978695 288.165297 
L 401.361693 292.486185 
L 401.74469 252.892429 
L 402.127687 279.888512 
L 402.510685 273.247218 
L 402.893683 275.620492 
L 403.27668 281.291837 
L 404.042675 287.460578 
L 404.425673 237.364697 
L 404.80867 290.785556 
L 405.191667 278.709865 
L 405.574665 289.61266 
L 405.957663 279.615687 
L 406.34066 285.202396 
L 406.723658 286.160551 
L 407.106655 279.599513 
L 407.489652 282.044841 
L 407.87265 290.869609 
L 408.255648 280.363921 
L 408.638645 284.252918 
L 409.021642 284.857831 
L 409.40464 280.722107 
L 409.787638 251.819686 
L 410.170635 294.258301 
L 410.553632 290.112006 
L 410.93663 272.144726 
L 411.319628 292.290824 
L 411.702625 284.863436 
L 412.085622 269.347396 
L 412.46862 282.282152 
L 412.851617 285.708893 
L 413.234615 285.930898 
L 413.617613 289.973051 
L 414.00061 289.38437 
L 414.383607 276.2883 
L 414.766605 279.832695 
L 415.149603 290.621767 
L 415.5326 250.934719 
L 415.915597 288.766266 
L 416.298595 290.064576 
L 416.681593 284.196439 
L 417.06459 287.695932 
L 417.447587 286.595786 
L 417.830585 275.561174 
L 418.213582 285.826096 
L 418.59658 274.362153 
L 418.979578 289.941749 
L 419.362575 268.56801 
L 419.745572 283.810256 
L 420.12857 289.053593 
L 420.511568 273.772518 
L 420.894565 279.152591 
L 421.277562 273.770069 
L 421.66056 287.682661 
L 422.043558 289.501933 
L 422.426555 288.238222 
L 422.809552 285.255738 
L 423.19255 283.553516 
L 423.575547 289.985547 
L 423.958545 290.559941 
L 424.341543 288.006646 
L 424.72454 278.587421 
L 425.107537 278.205431 
L 425.490535 275.755891 
L 426.25653 291.956693 
L 426.639527 291.068851 
L 427.022525 291.111529 
L 427.405523 280.119251 
L 427.78852 293.579389 
L 428.171517 282.859157 
L 428.554515 292.151719 
L 428.937513 281.35964 
L 429.703508 286.927439 
L 430.086505 275.940472 
L 430.469502 289.764945 
L 430.469502 289.764945 
" clip-path="url(#pe00ed2f57a)" style="fill: none; stroke: #ff7f0e; stroke-opacity: 0.7; stroke-width: 1.5; stroke-linecap: square"/>
   </g>
   <g id="patch_3">
    <path d="M 47.855 303.64 
L 47.855 14.76 
" style="fill: none; stroke: #000000; stroke-width: 0.8; stroke-linejoin: miter; stroke-linecap: square"/>
   </g>
   <g id="patch_4">
    <path d="M 430.8525 303.64 
L 430.8525 14.76 
" style="fill: none; stroke: #000000; stroke-width: 0.8; stroke-linejoin: miter; stroke-linecap: square"/>
   </g>
   <g id="patch_5">
    <path d="M 47.855 303.64 
L 430.8525 303.64 
" style="fill: none; stroke: #000000; stroke-width: 0.8; stroke-linejoin: miter; stroke-linecap: square"/>
   </g>
   <g id="patch_6">
    <path d="M 47.855 14.76 
L 430.8525 14.76 
" style="fill: none; stroke: #000000; stroke-width: 0.8; stroke-linejoin: miter; stroke-linecap: square"/>
   </g>
   <g id="legend_1">
    <g id="patch_7">
     <path d="M 343.391562 52.11625 
L 423.8525 52.11625 
Q 425.8525 52.11625 425.8525 50.11625 
L 425.8525 21.76 
Q 425.8525 19.76 423.8525 19.76 
L 343.391562 19.76 
Q 341.391562 19.76 341.391562 21.76 
L 341.391562 50.11625 
Q 341.391562 52.11625 343.391562 52.11625 
z
" style="fill: #ffffff; opacity: 0.8; stroke: #cccccc; stroke-linejoin: miter"/>
    </g>
    <g id="line2d_33">
     <path d="M 345.391562 27.858437 
L 355.391562 27.858437 
L 365.391562 27.858437 
" style="fill: none; stroke: #1f77b4; stroke-opacity: 0.7; stroke-width: 1.5; stroke-linecap: square"/>
    </g>
    <g id="text_18">
     <!-- Train MSE -->
     <g transform="translate(373.391562 31.358437) scale(0.1 -0.1)">
      <defs>
       <path id="DejaVuSans-54" d="M -19 4666 
L 3928 4666 
L 3928 4134 
L 2272 4134 
L 2272 0 
L 1638 0 
L 1638 4134 
L -19 4134 
L -19 4666 
z
" transform="scale(0.015625)"/>
       <path id="DejaVuSans-72" d="M 2631 2963 
Q 2534 3019 2420 3045 
Q 2306 3072 2169 3072 
Q 1681 3072 1420 2755 
Q 1159 2438 1159 1844 
L 1159 0 
L 581 0 
L 581 3500 
L 1159 3500 
L 1159 2956 
Q 1341 3275 1631 3429 
Q 1922 3584 2338 3584 
Q 2397 3584 2469 3576 
Q 2541 3569 2628 3553 
L 2631 2963 
z
" transform="scale(0.015625)"/>
       <path id="DejaVuSans-61" d="M 2194 1759 
Q 1497 1759 1228 1600 
Q 959 1441 959 1056 
Q 959 750 1161 570 
Q 1363 391 1709 391 
Q 2188 391 2477 730 
Q 2766 1069 2766 1631 
L 2766 1759 
L 2194 1759 
z
M 3341 1997 
L 3341 0 
L 2766 0 
L 2766 531 
Q 2569 213 2275 61 
Q 1981 -91 1556 -91 
Q 1019 -91 701 211 
Q 384 513 384 1019 
Q 384 1609 779 1909 
Q 1175 2209 1959 2209 
L 2766 2209 
L 2766 2266 
Q 2766 2663 2505 2880 
Q 2244 3097 1772 3097 
Q 1472 3097 1187 3025 
Q 903 2953 641 2809 
L 641 3341 
Q 956 3463 1253 3523 
Q 1550 3584 1831 3584 
Q 2591 3584 2966 3190 
Q 3341 2797 3341 1997 
z
" transform="scale(0.015625)"/>
       <path id="DejaVuSans-69" d="M 603 3500 
L 1178 3500 
L 1178 0 
L 603 0 
L 603 3500 
z
M 603 4863 
L 1178 4863 
L 1178 4134 
L 603 4134 
L 603 4863 
z
" transform="scale(0.015625)"/>
       <path id="DejaVuSans-6e" d="M 3513 2113 
L 3513 0 
L 2938 0 
L 2938 2094 
Q 2938 2591 2744 2837 
Q 2550 3084 2163 3084 
Q 1697 3084 1428 2787 
Q 1159 2491 1159 1978 
L 1159 0 
L 581 0 
L 581 3500 
L 1159 3500 
L 1159 2956 
Q 1366 3272 1645 3428 
Q 1925 3584 2291 3584 
Q 2894 3584 3203 3211 
Q 3513 2838 3513 2113 
z
" transform="scale(0.015625)"/>
       <path id="DejaVuSans-20" transform="scale(0.015625)"/>
      </defs>
      <use xlink:href="#DejaVuSans-54"/>
      <use xlink:href="#DejaVuSans-72" transform="translate(46.333984 0)"/>
      <use xlink:href="#DejaVuSans-61" transform="translate(87.447266 0)"/>
      <use xlink:href="#DejaVuSans-69" transform="translate(148.726562 0)"/>
      <use xlink:href="#DejaVuSans-6e" transform="translate(176.509766 0)"/>
      <use xlink:href="#DejaVuSans-20" transform="translate(239.888672 0)"/>
      <use xlink:href="#DejaVuSans-4d" transform="translate(271.675781 0)"/>
      <use xlink:href="#DejaVuSans-53" transform="translate(357.955078 0)"/>
      <use xlink:href="#DejaVuSans-45" transform="translate(421.431641 0)"/>
     </g>
    </g>
    <g id="line2d_34">
     <path d="M 345.391562 42.536563 
L 355.391562 42.536563 
L 365.391562 42.536563 
" style="fill: none; stroke: #ff7f0e; stroke-opacity: 0.7; stroke-width: 1.5; stroke-linecap: square"/>
    </g>
    <g id="text_19">
     <!-- Val MSE -->
     <g transform="translate(373.391562 46.036563) scale(0.1 -0.1)">
      <defs>
       <path id="DejaVuSans-56" d="M 1831 0 
L 50 4666 
L 709 4666 
L 2188 738 
L 3669 4666 
L 4325 4666 
L 2547 0 
L 1831 0 
z
" transform="scale(0.015625)"/>
       <path id="DejaVuSans-6c" d="M 603 4863 
L 1178 4863 
L 1178 0 
L 603 0 
L 603 4863 
z
" transform="scale(0.015625)"/>
      </defs>
      <use xlink:href="#DejaVuSans-56"/>
      <use xlink:href="#DejaVuSans-61" transform="translate(60.658203 0)"/>
      <use xlink:href="#DejaVuSans-6c" transform="translate(121.9375 0)"/>
      <use xlink:href="#DejaVuSans-20" transform="translate(149.720703 0)"/>
      <use xlink:href="#DejaVuSans-4d" transform="translate(181.507812 0)"/>
      <use xlink:href="#DejaVuSans-53" transform="translate(267.787109 0)"/>
      <use xlink:href="#DejaVuSans-45" transform="translate(331.263672 0)"/>
     </g>
    </g>
   </g>
  </g>
 </g>
 <defs>
  <clipPath id="pe00ed2f57a">
   <rect x="47.855" y="14.76" width="382.9975" height="288.88"/>
  </clipPath>
 </defs>
</svg>
