<?xml version="1.0" encoding="utf-8" standalone="no"?>
<!DOCTYPE svg PUBLIC "-//W3C//DTD SVG 1.1//EN"
  "http://www.w3.org/Graphics/SVG/1.1/DTD/svg11.dtd">
<svg xmlns:xlink="http://www.w3.org/1999/xlink" width="460.8pt" height="345.6pt" viewBox="0 0 460.8 345.6" xmlns="http://www.w3.org/2000/svg" version="1.1">
 <metadata>
  <rdf:RDF xmlns:dc="http://purl.org/dc/elements/1.1/" xmlns:cc="http://creativecommons.org/ns#" xmlns:rdf="http://www.w3.org/1999/02/22-rdf-syntax-ns#">
   <cc:Work>
    <dc:type rdf:resource="http://purl.org/dc/dcmitype/StillImage"/>
    <dc:date>2025-11-20T17:36:49.227978</dc:date>
    <dc:format>image/svg+xml</dc:format>
    <dc:creator>
     <cc:Agent>
      <dc:title>Matplotlib v3.10.7, https://matplotlib.org/</dc:title>
     </cc:Agent>
    </dc:creator>
   </cc:Work>
  </rdf:RDF>
 </metadata>
 <defs>
  <style type="text/css">*{stroke-linejoin: round; stroke-linecap: butt}</style>
 </defs>
 <g id="figure_1">
  <g id="patch_1">
   <path d="M 0 345.6 
L 460.8 345.6 
L 460.8 0 
L 0 0 
z
" style="fill: #ffffff"/>
  </g>
  <g id="axes_1">
   <g id="patch_2">
    <path d="M 57.6 307.584 
L 414.72 307.584 
L 414.72 41.472 
L 57.6 41.472 
z
" style="fill: #ffffff"/>
   </g>
   <g id="patch_3">
    <path d="M 73.832727 307.584 
L 80.325823 307.584 
L 80.325823 305.938286 
L 73.832727 305.938286 
z
" clip-path="url(#p901e9a85dc)" style="fill: #1f77b4"/>
   </g>
   <g id="patch_4">
    <path d="M 80.325823 307.584 
L 86.81891 307.584 
L 86.81891 305.938286 
L 80.325823 305.938286 
z
" clip-path="url(#p901e9a85dc)" style="fill: #1f77b4"/>
   </g>
   <g id="patch_5">
    <path d="M 86.81891 307.584 
L 93.311996 307.584 
L 93.311996 304.292571 
L 86.81891 304.292571 
z
" clip-path="url(#p901e9a85dc)" style="fill: #1f77b4"/>
   </g>
   <g id="patch_6">
    <path d="M 93.311996 307.584 
L 99.805092 307.584 
L 99.805092 302.646857 
L 93.311996 302.646857 
z
" clip-path="url(#p901e9a85dc)" style="fill: #1f77b4"/>
   </g>
   <g id="patch_7">
    <path d="M 99.805092 307.584 
L 106.298188 307.584 
L 106.298188 299.355429 
L 99.805092 299.355429 
z
" clip-path="url(#p901e9a85dc)" style="fill: #1f77b4"/>
   </g>
   <g id="patch_8">
    <path d="M 106.298188 307.584 
L 112.791275 307.584 
L 112.791275 297.709714 
L 106.298188 297.709714 
z
" clip-path="url(#p901e9a85dc)" style="fill: #1f77b4"/>
   </g>
   <g id="patch_9">
    <path d="M 112.791275 307.584 
L 119.284362 307.584 
L 119.284362 296.064 
L 112.791275 296.064 
z
" clip-path="url(#p901e9a85dc)" style="fill: #1f77b4"/>
   </g>
   <g id="patch_10">
    <path d="M 119.284362 307.584 
L 125.777458 307.584 
L 125.777458 264.795429 
L 119.284362 264.795429 
z
" clip-path="url(#p901e9a85dc)" style="fill: #1f77b4"/>
   </g>
   <g id="patch_11">
    <path d="M 125.777458 307.584 
L 132.270549 307.584 
L 132.270549 273.024 
L 125.777458 273.024 
z
" clip-path="url(#p901e9a85dc)" style="fill: #1f77b4"/>
   </g>
   <g id="patch_12">
    <path d="M 132.270549 307.584 
L 138.76364 307.584 
L 138.76364 254.921143 
L 132.270549 254.921143 
z
" clip-path="url(#p901e9a85dc)" style="fill: #1f77b4"/>
   </g>
   <g id="patch_13">
    <path d="M 138.76364 307.584 
L 145.256731 307.584 
L 145.256731 241.755429 
L 138.76364 241.755429 
z
" clip-path="url(#p901e9a85dc)" style="fill: #1f77b4"/>
   </g>
   <g id="patch_14">
    <path d="M 145.256731 307.584 
L 151.749823 307.584 
L 151.749823 212.132571 
L 145.256731 212.132571 
z
" clip-path="url(#p901e9a85dc)" style="fill: #1f77b4"/>
   </g>
   <g id="patch_15">
    <path d="M 151.749823 307.584 
L 158.242909 307.584 
L 158.242909 182.509714 
L 151.749823 182.509714 
z
" clip-path="url(#p901e9a85dc)" style="fill: #1f77b4"/>
   </g>
   <g id="patch_16">
    <path d="M 158.242909 307.584 
L 164.736005 307.584 
L 164.736005 156.178286 
L 158.242909 156.178286 
z
" clip-path="url(#p901e9a85dc)" style="fill: #1f77b4"/>
   </g>
   <g id="patch_17">
    <path d="M 164.736005 307.584 
L 171.229101 307.584 
L 171.229101 138.075429 
L 164.736005 138.075429 
z
" clip-path="url(#p901e9a85dc)" style="fill: #1f77b4"/>
   </g>
   <g id="patch_18">
    <path d="M 171.229101 307.584 
L 177.722188 307.584 
L 177.722188 54.144 
L 171.229101 54.144 
z
" clip-path="url(#p901e9a85dc)" style="fill: #1f77b4"/>
   </g>
   <g id="patch_19">
    <path d="M 177.722188 307.584 
L 184.215274 307.584 
L 184.215274 82.121143 
L 177.722188 82.121143 
z
" clip-path="url(#p901e9a85dc)" style="fill: #1f77b4"/>
   </g>
   <g id="patch_20">
    <path d="M 184.215274 307.584 
L 190.70837 307.584 
L 190.70837 57.435429 
L 184.215274 57.435429 
z
" clip-path="url(#p901e9a85dc)" style="fill: #1f77b4"/>
   </g>
   <g id="patch_21">
    <path d="M 190.70837 307.584 
L 197.201466 307.584 
L 197.201466 75.538286 
L 190.70837 75.538286 
z
" clip-path="url(#p901e9a85dc)" style="fill: #1f77b4"/>
   </g>
   <g id="patch_22">
    <path d="M 197.201466 307.584 
L 203.694553 307.584 
L 203.694553 59.081143 
L 197.201466 59.081143 
z
" clip-path="url(#p901e9a85dc)" style="fill: #1f77b4"/>
   </g>
   <g id="patch_23">
    <path d="M 203.694553 307.584 
L 210.18764 307.584 
L 210.18764 60.726857 
L 203.694553 60.726857 
z
" clip-path="url(#p901e9a85dc)" style="fill: #1f77b4"/>
   </g>
   <g id="patch_24">
    <path d="M 210.18764 307.584 
L 216.680735 307.584 
L 216.680735 106.806857 
L 210.18764 106.806857 
z
" clip-path="url(#p901e9a85dc)" style="fill: #1f77b4"/>
   </g>
   <g id="patch_25">
    <path d="M 216.680735 307.584 
L 223.173831 307.584 
L 223.173831 164.406857 
L 216.680735 164.406857 
z
" clip-path="url(#p901e9a85dc)" style="fill: #1f77b4"/>
   </g>
   <g id="patch_26">
    <path d="M 223.173831 307.584 
L 229.666918 307.584 
L 229.666918 159.469714 
L 223.173831 159.469714 
z
" clip-path="url(#p901e9a85dc)" style="fill: #1f77b4"/>
   </g>
   <g id="patch_27">
    <path d="M 229.666918 307.584 
L 236.160005 307.584 
L 236.160005 177.572571 
L 229.666918 177.572571 
z
" clip-path="url(#p901e9a85dc)" style="fill: #1f77b4"/>
   </g>
   <g id="patch_28">
    <path d="M 236.160005 307.584 
L 242.653091 307.584 
L 242.653091 210.486857 
L 236.160005 210.486857 
z
" clip-path="url(#p901e9a85dc)" style="fill: #1f77b4"/>
   </g>
   <g id="patch_29">
    <path d="M 242.653091 307.584 
L 249.146196 307.584 
L 249.146196 233.526857 
L 242.653091 233.526857 
z
" clip-path="url(#p901e9a85dc)" style="fill: #1f77b4"/>
   </g>
   <g id="patch_30">
    <path d="M 249.146196 307.584 
L 255.639283 307.584 
L 255.639283 223.652571 
L 249.146196 223.652571 
z
" clip-path="url(#p901e9a85dc)" style="fill: #1f77b4"/>
   </g>
   <g id="patch_31">
    <path d="M 255.639283 307.584 
L 262.13237 307.584 
L 262.13237 259.858286 
L 255.639283 259.858286 
z
" clip-path="url(#p901e9a85dc)" style="fill: #1f77b4"/>
   </g>
   <g id="patch_32">
    <path d="M 262.13237 307.584 
L 268.625475 307.584 
L 268.625475 269.732571 
L 262.13237 269.732571 
z
" clip-path="url(#p901e9a85dc)" style="fill: #1f77b4"/>
   </g>
   <g id="patch_33">
    <path d="M 268.625475 307.584 
L 275.118562 307.584 
L 275.118562 276.315429 
L 268.625475 276.315429 
z
" clip-path="url(#p901e9a85dc)" style="fill: #1f77b4"/>
   </g>
   <g id="patch_34">
    <path d="M 275.118562 307.584 
L 281.611648 307.584 
L 281.611648 276.315429 
L 275.118562 276.315429 
z
" clip-path="url(#p901e9a85dc)" style="fill: #1f77b4"/>
   </g>
   <g id="patch_35">
    <path d="M 281.611648 307.584 
L 288.104735 307.584 
L 288.104735 284.544 
L 281.611648 284.544 
z
" clip-path="url(#p901e9a85dc)" style="fill: #1f77b4"/>
   </g>
   <g id="patch_36">
    <path d="M 288.104735 307.584 
L 294.597822 307.584 
L 294.597822 294.418286 
L 288.104735 294.418286 
z
" clip-path="url(#p901e9a85dc)" style="fill: #1f77b4"/>
   </g>
   <g id="patch_37">
    <path d="M 294.597822 307.584 
L 301.090927 307.584 
L 301.090927 287.835429 
L 294.597822 287.835429 
z
" clip-path="url(#p901e9a85dc)" style="fill: #1f77b4"/>
   </g>
   <g id="patch_38">
    <path d="M 301.090927 307.584 
L 307.584013 307.584 
L 307.584013 301.001143 
L 301.090927 301.001143 
z
" clip-path="url(#p901e9a85dc)" style="fill: #1f77b4"/>
   </g>
   <g id="patch_39">
    <path d="M 307.584013 307.584 
L 314.0771 307.584 
L 314.0771 289.481143 
L 307.584013 289.481143 
z
" clip-path="url(#p901e9a85dc)" style="fill: #1f77b4"/>
   </g>
   <g id="patch_40">
    <path d="M 314.0771 307.584 
L 320.570205 307.584 
L 320.570205 299.355429 
L 314.0771 299.355429 
z
" clip-path="url(#p901e9a85dc)" style="fill: #1f77b4"/>
   </g>
   <g id="patch_41">
    <path d="M 320.570205 307.584 
L 327.063292 307.584 
L 327.063292 302.646857 
L 320.570205 302.646857 
z
" clip-path="url(#p901e9a85dc)" style="fill: #1f77b4"/>
   </g>
   <g id="patch_42">
    <path d="M 327.063292 307.584 
L 333.556378 307.584 
L 333.556378 302.646857 
L 327.063292 302.646857 
z
" clip-path="url(#p901e9a85dc)" style="fill: #1f77b4"/>
   </g>
   <g id="patch_43">
    <path d="M 333.556378 307.584 
L 340.049465 307.584 
L 340.049465 305.938286 
L 333.556378 305.938286 
z
" clip-path="url(#p901e9a85dc)" style="fill: #1f77b4"/>
   </g>
   <g id="patch_44">
    <path d="M 340.049465 307.584 
L 346.542552 307.584 
L 346.542552 305.938286 
L 340.049465 305.938286 
z
" clip-path="url(#p901e9a85dc)" style="fill: #1f77b4"/>
   </g>
   <g id="patch_45">
    <path d="M 346.542552 307.584 
L 353.035657 307.584 
L 353.035657 304.292571 
L 346.542552 304.292571 
z
" clip-path="url(#p901e9a85dc)" style="fill: #1f77b4"/>
   </g>
   <g id="patch_46">
    <path d="M 353.035657 307.584 
L 359.528753 307.584 
L 359.528753 305.938286 
L 353.035657 305.938286 
z
" clip-path="url(#p901e9a85dc)" style="fill: #1f77b4"/>
   </g>
   <g id="patch_47">
    <path d="M 359.528753 307.584 
L 366.021821 307.584 
L 366.021821 307.584 
L 359.528753 307.584 
z
" clip-path="url(#p901e9a85dc)" style="fill: #1f77b4"/>
   </g>
   <g id="patch_48">
    <path d="M 366.021821 307.584 
L 372.514926 307.584 
L 372.514926 305.938286 
L 366.021821 305.938286 
z
" clip-path="url(#p901e9a85dc)" style="fill: #1f77b4"/>
   </g>
   <g id="patch_49">
    <path d="M 372.514926 307.584 
L 379.008031 307.584 
L 379.008031 307.584 
L 372.514926 307.584 
z
" clip-path="url(#p901e9a85dc)" style="fill: #1f77b4"/>
   </g>
   <g id="patch_50">
    <path d="M 379.008031 307.584 
L 385.501099 307.584 
L 385.501099 307.584 
L 379.008031 307.584 
z
" clip-path="url(#p901e9a85dc)" style="fill: #1f77b4"/>
   </g>
   <g id="patch_51">
    <path d="M 385.501099 307.584 
L 391.994205 307.584 
L 391.994205 307.584 
L 385.501099 307.584 
z
" clip-path="url(#p901e9a85dc)" style="fill: #1f77b4"/>
   </g>
   <g id="patch_52">
    <path d="M 391.994205 307.584 
L 398.487273 307.584 
L 398.487273 305.938286 
L 391.994205 305.938286 
z
" clip-path="url(#p901e9a85dc)" style="fill: #1f77b4"/>
   </g>
   <g id="matplotlib.axis_1">
    <g id="xtick_1">
     <g id="line2d_1">
      <path d="M 77.65845 307.584 
L 77.65845 41.472 
" clip-path="url(#p901e9a85dc)" style="fill: none; stroke: #b0b0b0; stroke-width: 0.8; stroke-linecap: square"/>
     </g>
     <g id="line2d_2">
      <defs>
       <path id="m98f5ba7fbd" d="M 0 0 
L 0 3.5 
" style="stroke: #000000; stroke-width: 0.8"/>
      </defs>
      <g>
       <use xlink:href="#m98f5ba7fbd" x="77.65845" y="307.584" style="stroke: #000000; stroke-width: 0.8"/>
      </g>
     </g>
     <g id="text_1">
      <!-- −0.4 -->
      <g transform="translate(65.517044 322.182437) scale(0.1 -0.1)">
       <defs>
        <path id="DejaVuSans-2212" d="M 678 2272 
L 4684 2272 
L 4684 1741 
L 678 1741 
L 678 2272 
z
" transform="scale(0.015625)"/>
        <path id="DejaVuSans-30" d="M 2034 4250 
Q 1547 4250 1301 3770 
Q 1056 3291 1056 2328 
Q 1056 1369 1301 889 
Q 1547 409 2034 409 
Q 2525 409 2770 889 
Q 3016 1369 3016 2328 
Q 3016 3291 2770 3770 
Q 2525 4250 2034 4250 
z
M 2034 4750 
Q 2819 4750 3233 4129 
Q 3647 3509 3647 2328 
Q 3647 1150 3233 529 
Q 2819 -91 2034 -91 
Q 1250 -91 836 529 
Q 422 1150 422 2328 
Q 422 3509 836 4129 
Q 1250 4750 2034 4750 
z
" transform="scale(0.015625)"/>
        <path id="DejaVuSans-2e" d="M 684 794 
L 1344 794 
L 1344 0 
L 684 0 
L 684 794 
z
" transform="scale(0.015625)"/>
        <path id="DejaVuSans-34" d="M 2419 4116 
L 825 1625 
L 2419 1625 
L 2419 4116 
z
M 2253 4666 
L 3047 4666 
L 3047 1625 
L 3713 1625 
L 3713 1100 
L 3047 1100 
L 3047 0 
L 2419 0 
L 2419 1100 
L 313 1100 
L 313 1709 
L 2253 4666 
z
" transform="scale(0.015625)"/>
       </defs>
       <use xlink:href="#DejaVuSans-2212"/>
       <use xlink:href="#DejaVuSans-30" transform="translate(83.789062 0)"/>
       <use xlink:href="#DejaVuSans-2e" transform="translate(147.412109 0)"/>
       <use xlink:href="#DejaVuSans-34" transform="translate(179.199219 0)"/>
      </g>
     </g>
    </g>
    <g id="xtick_2">
     <g id="line2d_3">
      <path d="M 139.971817 307.584 
L 139.971817 41.472 
" clip-path="url(#p901e9a85dc)" style="fill: none; stroke: #b0b0b0; stroke-width: 0.8; stroke-linecap: square"/>
     </g>
     <g id="line2d_4">
      <g>
       <use xlink:href="#m98f5ba7fbd" x="139.971817" y="307.584" style="stroke: #000000; stroke-width: 0.8"/>
      </g>
     </g>
     <g id="text_2">
      <!-- −0.2 -->
      <g transform="translate(127.830411 322.182437) scale(0.1 -0.1)">
       <defs>
        <path id="DejaVuSans-32" d="M 1228 531 
L 3431 531 
L 3431 0 
L 469 0 
L 469 531 
Q 828 903 1448 1529 
Q 2069 2156 2228 2338 
Q 2531 2678 2651 2914 
Q 2772 3150 2772 3378 
Q 2772 3750 2511 3984 
Q 2250 4219 1831 4219 
Q 1534 4219 1204 4116 
Q 875 4013 500 3803 
L 500 4441 
Q 881 4594 1212 4672 
Q 1544 4750 1819 4750 
Q 2544 4750 2975 4387 
Q 3406 4025 3406 3419 
Q 3406 3131 3298 2873 
Q 3191 2616 2906 2266 
Q 2828 2175 2409 1742 
Q 1991 1309 1228 531 
z
" transform="scale(0.015625)"/>
       </defs>
       <use xlink:href="#DejaVuSans-2212"/>
       <use xlink:href="#DejaVuSans-30" transform="translate(83.789062 0)"/>
       <use xlink:href="#DejaVuSans-2e" transform="translate(147.412109 0)"/>
       <use xlink:href="#DejaVuSans-32" transform="translate(179.199219 0)"/>
      </g>
     </g>
    </g>
    <g id="xtick_3">
     <g id="line2d_5">
      <path d="M 202.285185 307.584 
L 202.285185 41.472 
" clip-path="url(#p901e9a85dc)" style="fill: none; stroke: #b0b0b0; stroke-width: 0.8; stroke-linecap: square"/>
     </g>
     <g id="line2d_6">
      <g>
       <use xlink:href="#m98f5ba7fbd" x="202.285185" y="307.584" style="stroke: #000000; stroke-width: 0.8"/>
      </g>
     </g>
     <g id="text_3">
      <!-- 0.0 -->
      <g transform="translate(194.333622 322.182437) scale(0.1 -0.1)">
       <use xlink:href="#DejaVuSans-30"/>
       <use xlink:href="#DejaVuSans-2e" transform="translate(63.623047 0)"/>
       <use xlink:href="#DejaVuSans-30" transform="translate(95.410156 0)"/>
      </g>
     </g>
    </g>
    <g id="xtick_4">
     <g id="line2d_7">
      <path d="M 264.598552 307.584 
L 264.598552 41.472 
" clip-path="url(#p901e9a85dc)" style="fill: none; stroke: #b0b0b0; stroke-width: 0.8; stroke-linecap: square"/>
     </g>
     <g id="line2d_8">
      <g>
       <use xlink:href="#m98f5ba7fbd" x="264.598552" y="307.584" style="stroke: #000000; stroke-width: 0.8"/>
      </g>
     </g>
     <g id="text_4">
      <!-- 0.2 -->
      <g transform="translate(256.646989 322.182437) scale(0.1 -0.1)">
       <use xlink:href="#DejaVuSans-30"/>
       <use xlink:href="#DejaVuSans-2e" transform="translate(63.623047 0)"/>
       <use xlink:href="#DejaVuSans-32" transform="translate(95.410156 0)"/>
      </g>
     </g>
    </g>
    <g id="xtick_5">
     <g id="line2d_9">
      <path d="M 326.911919 307.584 
L 326.911919 41.472 
" clip-path="url(#p901e9a85dc)" style="fill: none; stroke: #b0b0b0; stroke-width: 0.8; stroke-linecap: square"/>
     </g>
     <g id="line2d_10">
      <g>
       <use xlink:href="#m98f5ba7fbd" x="326.911919" y="307.584" style="stroke: #000000; stroke-width: 0.8"/>
      </g>
     </g>
     <g id="text_5">
      <!-- 0.4 -->
      <g transform="translate(318.960357 322.182437) scale(0.1 -0.1)">
       <use xlink:href="#DejaVuSans-30"/>
       <use xlink:href="#DejaVuSans-2e" transform="translate(63.623047 0)"/>
       <use xlink:href="#DejaVuSans-34" transform="translate(95.410156 0)"/>
      </g>
     </g>
    </g>
    <g id="xtick_6">
     <g id="line2d_11">
      <path d="M 389.225286 307.584 
L 389.225286 41.472 
" clip-path="url(#p901e9a85dc)" style="fill: none; stroke: #b0b0b0; stroke-width: 0.8; stroke-linecap: square"/>
     </g>
     <g id="line2d_12">
      <g>
       <use xlink:href="#m98f5ba7fbd" x="389.225286" y="307.584" style="stroke: #000000; stroke-width: 0.8"/>
      </g>
     </g>
     <g id="text_6">
      <!-- 0.6 -->
      <g transform="translate(381.273724 322.182437) scale(0.1 -0.1)">
       <defs>
        <path id="DejaVuSans-36" d="M 2113 2584 
Q 1688 2584 1439 2293 
Q 1191 2003 1191 1497 
Q 1191 994 1439 701 
Q 1688 409 2113 409 
Q 2538 409 2786 701 
Q 3034 994 3034 1497 
Q 3034 2003 2786 2293 
Q 2538 2584 2113 2584 
z
M 3366 4563 
L 3366 3988 
Q 3128 4100 2886 4159 
Q 2644 4219 2406 4219 
Q 1781 4219 1451 3797 
Q 1122 3375 1075 2522 
Q 1259 2794 1537 2939 
Q 1816 3084 2150 3084 
Q 2853 3084 3261 2657 
Q 3669 2231 3669 1497 
Q 3669 778 3244 343 
Q 2819 -91 2113 -91 
Q 1303 -91 875 529 
Q 447 1150 447 2328 
Q 447 3434 972 4092 
Q 1497 4750 2381 4750 
Q 2619 4750 2861 4703 
Q 3103 4656 3366 4563 
z
" transform="scale(0.015625)"/>
       </defs>
       <use xlink:href="#DejaVuSans-30"/>
       <use xlink:href="#DejaVuSans-2e" transform="translate(63.623047 0)"/>
       <use xlink:href="#DejaVuSans-36" transform="translate(95.410156 0)"/>
      </g>
     </g>
    </g>
   </g>
   <g id="matplotlib.axis_2">
    <g id="ytick_1">
     <g id="line2d_13">
      <path d="M 57.6 307.584 
L 414.72 307.584 
" clip-path="url(#p901e9a85dc)" style="fill: none; stroke: #b0b0b0; stroke-width: 0.8; stroke-linecap: square"/>
     </g>
     <g id="line2d_14">
      <defs>
       <path id="mcfb335dae7" d="M 0 0 
L -3.5 0 
" style="stroke: #000000; stroke-width: 0.8"/>
      </defs>
      <g>
       <use xlink:href="#mcfb335dae7" x="57.6" y="307.584" style="stroke: #000000; stroke-width: 0.8"/>
      </g>
     </g>
     <g id="text_7">
      <!-- 0 -->
      <g transform="translate(44.2375 311.383219) scale(0.1 -0.1)">
       <use xlink:href="#DejaVuSans-30"/>
      </g>
     </g>
    </g>
    <g id="ytick_2">
     <g id="line2d_15">
      <path d="M 57.6 274.669714 
L 414.72 274.669714 
" clip-path="url(#p901e9a85dc)" style="fill: none; stroke: #b0b0b0; stroke-width: 0.8; stroke-linecap: square"/>
     </g>
     <g id="line2d_16">
      <g>
       <use xlink:href="#mcfb335dae7" x="57.6" y="274.669714" style="stroke: #000000; stroke-width: 0.8"/>
      </g>
     </g>
     <g id="text_8">
      <!-- 20 -->
      <g transform="translate(37.875 278.468933) scale(0.1 -0.1)">
       <use xlink:href="#DejaVuSans-32"/>
       <use xlink:href="#DejaVuSans-30" transform="translate(63.623047 0)"/>
      </g>
     </g>
    </g>
    <g id="ytick_3">
     <g id="line2d_17">
      <path d="M 57.6 241.755429 
L 414.72 241.755429 
" clip-path="url(#p901e9a85dc)" style="fill: none; stroke: #b0b0b0; stroke-width: 0.8; stroke-linecap: square"/>
     </g>
     <g id="line2d_18">
      <g>
       <use xlink:href="#mcfb335dae7" x="57.6" y="241.755429" style="stroke: #000000; stroke-width: 0.8"/>
      </g>
     </g>
     <g id="text_9">
      <!-- 40 -->
      <g transform="translate(37.875 245.554647) scale(0.1 -0.1)">
       <use xlink:href="#DejaVuSans-34"/>
       <use xlink:href="#DejaVuSans-30" transform="translate(63.623047 0)"/>
      </g>
     </g>
    </g>
    <g id="ytick_4">
     <g id="line2d_19">
      <path d="M 57.6 208.841143 
L 414.72 208.841143 
" clip-path="url(#p901e9a85dc)" style="fill: none; stroke: #b0b0b0; stroke-width: 0.8; stroke-linecap: square"/>
     </g>
     <g id="line2d_20">
      <g>
       <use xlink:href="#mcfb335dae7" x="57.6" y="208.841143" style="stroke: #000000; stroke-width: 0.8"/>
      </g>
     </g>
     <g id="text_10">
      <!-- 60 -->
      <g transform="translate(37.875 212.640362) scale(0.1 -0.1)">
       <use xlink:href="#DejaVuSans-36"/>
       <use xlink:href="#DejaVuSans-30" transform="translate(63.623047 0)"/>
      </g>
     </g>
    </g>
    <g id="ytick_5">
     <g id="line2d_21">
      <path d="M 57.6 175.926857 
L 414.72 175.926857 
" clip-path="url(#p901e9a85dc)" style="fill: none; stroke: #b0b0b0; stroke-width: 0.8; stroke-linecap: square"/>
     </g>
     <g id="line2d_22">
      <g>
       <use xlink:href="#mcfb335dae7" x="57.6" y="175.926857" style="stroke: #000000; stroke-width: 0.8"/>
      </g>
     </g>
     <g id="text_11">
      <!-- 80 -->
      <g transform="translate(37.875 179.726076) scale(0.1 -0.1)">
       <defs>
        <path id="DejaVuSans-38" d="M 2034 2216 
Q 1584 2216 1326 1975 
Q 1069 1734 1069 1313 
Q 1069 891 1326 650 
Q 1584 409 2034 409 
Q 2484 409 2743 651 
Q 3003 894 3003 1313 
Q 3003 1734 2745 1975 
Q 2488 2216 2034 2216 
z
M 1403 2484 
Q 997 2584 770 2862 
Q 544 3141 544 3541 
Q 544 4100 942 4425 
Q 1341 4750 2034 4750 
Q 2731 4750 3128 4425 
Q 3525 4100 3525 3541 
Q 3525 3141 3298 2862 
Q 3072 2584 2669 2484 
Q 3125 2378 3379 2068 
Q 3634 1759 3634 1313 
Q 3634 634 3220 271 
Q 2806 -91 2034 -91 
Q 1263 -91 848 271 
Q 434 634 434 1313 
Q 434 1759 690 2068 
Q 947 2378 1403 2484 
z
M 1172 3481 
Q 1172 3119 1398 2916 
Q 1625 2713 2034 2713 
Q 2441 2713 2670 2916 
Q 2900 3119 2900 3481 
Q 2900 3844 2670 4047 
Q 2441 4250 2034 4250 
Q 1625 4250 1398 4047 
Q 1172 3844 1172 3481 
z
" transform="scale(0.015625)"/>
       </defs>
       <use xlink:href="#DejaVuSans-38"/>
       <use xlink:href="#DejaVuSans-30" transform="translate(63.623047 0)"/>
      </g>
     </g>
    </g>
    <g id="ytick_6">
     <g id="line2d_23">
      <path d="M 57.6 143.012571 
L 414.72 143.012571 
" clip-path="url(#p901e9a85dc)" style="fill: none; stroke: #b0b0b0; stroke-width: 0.8; stroke-linecap: square"/>
     </g>
     <g id="line2d_24">
      <g>
       <use xlink:href="#mcfb335dae7" x="57.6" y="143.012571" style="stroke: #000000; stroke-width: 0.8"/>
      </g>
     </g>
     <g id="text_12">
      <!-- 100 -->
      <g transform="translate(31.5125 146.81179) scale(0.1 -0.1)">
       <defs>
        <path id="DejaVuSans-31" d="M 794 531 
L 1825 531 
L 1825 4091 
L 703 3866 
L 703 4441 
L 1819 4666 
L 2450 4666 
L 2450 531 
L 3481 531 
L 3481 0 
L 794 0 
L 794 531 
z
" transform="scale(0.015625)"/>
       </defs>
       <use xlink:href="#DejaVuSans-31"/>
       <use xlink:href="#DejaVuSans-30" transform="translate(63.623047 0)"/>
       <use xlink:href="#DejaVuSans-30" transform="translate(127.246094 0)"/>
      </g>
     </g>
    </g>
    <g id="ytick_7">
     <g id="line2d_25">
      <path d="M 57.6 110.098286 
L 414.72 110.098286 
" clip-path="url(#p901e9a85dc)" style="fill: none; stroke: #b0b0b0; stroke-width: 0.8; stroke-linecap: square"/>
     </g>
     <g id="line2d_26">
      <g>
       <use xlink:href="#mcfb335dae7" x="57.6" y="110.098286" style="stroke: #000000; stroke-width: 0.8"/>
      </g>
     </g>
     <g id="text_13">
      <!-- 120 -->
      <g transform="translate(31.5125 113.897504) scale(0.1 -0.1)">
       <use xlink:href="#DejaVuSans-31"/>
       <use xlink:href="#DejaVuSans-32" transform="translate(63.623047 0)"/>
       <use xlink:href="#DejaVuSans-30" transform="translate(127.246094 0)"/>
      </g>
     </g>
    </g>
    <g id="ytick_8">
     <g id="line2d_27">
      <path d="M 57.6 77.184 
L 414.72 77.184 
" clip-path="url(#p901e9a85dc)" style="fill: none; stroke: #b0b0b0; stroke-width: 0.8; stroke-linecap: square"/>
     </g>
     <g id="line2d_28">
      <g>
       <use xlink:href="#mcfb335dae7" x="57.6" y="77.184" style="stroke: #000000; stroke-width: 0.8"/>
      </g>
     </g>
     <g id="text_14">
      <!-- 140 -->
      <g transform="translate(31.5125 80.983219) scale(0.1 -0.1)">
       <use xlink:href="#DejaVuSans-31"/>
       <use xlink:href="#DejaVuSans-34" transform="translate(63.623047 0)"/>
       <use xlink:href="#DejaVuSans-30" transform="translate(127.246094 0)"/>
      </g>
     </g>
    </g>
    <g id="ytick_9">
     <g id="line2d_29">
      <path d="M 57.6 44.269714 
L 414.72 44.269714 
" clip-path="url(#p901e9a85dc)" style="fill: none; stroke: #b0b0b0; stroke-width: 0.8; stroke-linecap: square"/>
     </g>
     <g id="line2d_30">
      <g>
       <use xlink:href="#mcfb335dae7" x="57.6" y="44.269714" style="stroke: #000000; stroke-width: 0.8"/>
      </g>
     </g>
     <g id="text_15">
      <!-- 160 -->
      <g transform="translate(31.5125 48.068933) scale(0.1 -0.1)">
       <use xlink:href="#DejaVuSans-31"/>
       <use xlink:href="#DejaVuSans-36" transform="translate(63.623047 0)"/>
       <use xlink:href="#DejaVuSans-30" transform="translate(127.246094 0)"/>
      </g>
     </g>
    </g>
   </g>
   <g id="patch_53">
    <path d="M 57.6 307.584 
L 57.6 41.472 
" style="fill: none; stroke: #000000; stroke-width: 0.8; stroke-linejoin: miter; stroke-linecap: square"/>
   </g>
   <g id="patch_54">
    <path d="M 414.72 307.584 
L 414.72 41.472 
" style="fill: none; stroke: #000000; stroke-width: 0.8; stroke-linejoin: miter; stroke-linecap: square"/>
   </g>
   <g id="patch_55">
    <path d="M 57.6 307.584 
L 414.72 307.584 
" style="fill: none; stroke: #000000; stroke-width: 0.8; stroke-linejoin: miter; stroke-linecap: square"/>
   </g>
   <g id="patch_56">
    <path d="M 57.6 41.472 
L 414.72 41.472 
" style="fill: none; stroke: #000000; stroke-width: 0.8; stroke-linejoin: miter; stroke-linecap: square"/>
   </g>
   <g id="text_16">
    <!-- Residuals -->
    <g transform="translate(207.695625 35.472) scale(0.12 -0.12)">
     <defs>
      <path id="DejaVuSans-52" d="M 2841 2188 
Q 3044 2119 3236 1894 
Q 3428 1669 3622 1275 
L 4263 0 
L 3584 0 
L 2988 1197 
Q 2756 1666 2539 1819 
Q 2322 1972 1947 1972 
L 1259 1972 
L 1259 0 
L 628 0 
L 628 4666 
L 2053 4666 
Q 2853 4666 3247 4331 
Q 3641 3997 3641 3322 
Q 3641 2881 3436 2590 
Q 3231 2300 2841 2188 
z
M 1259 4147 
L 1259 2491 
L 2053 2491 
Q 2509 2491 2742 2702 
Q 2975 2913 2975 3322 
Q 2975 3731 2742 3939 
Q 2509 4147 2053 4147 
L 1259 4147 
z
" transform="scale(0.015625)"/>
      <path id="DejaVuSans-65" d="M 3597 1894 
L 3597 1613 
L 953 1613 
Q 991 1019 1311 708 
Q 1631 397 2203 397 
Q 2534 397 2845 478 
Q 3156 559 3463 722 
L 3463 178 
Q 3153 47 2828 -22 
Q 2503 -91 2169 -91 
Q 1331 -91 842 396 
Q 353 884 353 1716 
Q 353 2575 817 3079 
Q 1281 3584 2069 3584 
Q 2775 3584 3186 3129 
Q 3597 2675 3597 1894 
z
M 3022 2063 
Q 3016 2534 2758 2815 
Q 2500 3097 2075 3097 
Q 1594 3097 1305 2825 
Q 1016 2553 972 2059 
L 3022 2063 
z
" transform="scale(0.015625)"/>
      <path id="DejaVuSans-73" d="M 2834 3397 
L 2834 2853 
Q 2591 2978 2328 3040 
Q 2066 3103 1784 3103 
Q 1356 3103 1142 2972 
Q 928 2841 928 2578 
Q 928 2378 1081 2264 
Q 1234 2150 1697 2047 
L 1894 2003 
Q 2506 1872 2764 1633 
Q 3022 1394 3022 966 
Q 3022 478 2636 193 
Q 2250 -91 1575 -91 
Q 1294 -91 989 -36 
Q 684 19 347 128 
L 347 722 
Q 666 556 975 473 
Q 1284 391 1588 391 
Q 1994 391 2212 530 
Q 2431 669 2431 922 
Q 2431 1156 2273 1281 
Q 2116 1406 1581 1522 
L 1381 1569 
Q 847 1681 609 1914 
Q 372 2147 372 2553 
Q 372 3047 722 3315 
Q 1072 3584 1716 3584 
Q 2034 3584 2315 3537 
Q 2597 3491 2834 3397 
z
" transform="scale(0.015625)"/>
      <path id="DejaVuSans-69" d="M 603 3500 
L 1178 3500 
L 1178 0 
L 603 0 
L 603 3500 
z
M 603 4863 
L 1178 4863 
L 1178 4134 
L 603 4134 
L 603 4863 
z
" transform="scale(0.015625)"/>
      <path id="DejaVuSans-64" d="M 2906 2969 
L 2906 4863 
L 3481 4863 
L 3481 0 
L 2906 0 
L 2906 525 
Q 2725 213 2448 61 
Q 2172 -91 1784 -91 
Q 1150 -91 751 415 
Q 353 922 353 1747 
Q 353 2572 751 3078 
Q 1150 3584 1784 3584 
Q 2172 3584 2448 3432 
Q 2725 3281 2906 2969 
z
M 947 1747 
Q 947 1113 1208 752 
Q 1469 391 1925 391 
Q 2381 391 2643 752 
Q 2906 1113 2906 1747 
Q 2906 2381 2643 2742 
Q 2381 3103 1925 3103 
Q 1469 3103 1208 2742 
Q 947 2381 947 1747 
z
" transform="scale(0.015625)"/>
      <path id="DejaVuSans-75" d="M 544 1381 
L 544 3500 
L 1119 3500 
L 1119 1403 
Q 1119 906 1312 657 
Q 1506 409 1894 409 
Q 2359 409 2629 706 
Q 2900 1003 2900 1516 
L 2900 3500 
L 3475 3500 
L 3475 0 
L 2900 0 
L 2900 538 
Q 2691 219 2414 64 
Q 2138 -91 1772 -91 
Q 1169 -91 856 284 
Q 544 659 544 1381 
z
M 1991 3584 
L 1991 3584 
z
" transform="scale(0.015625)"/>
      <path id="DejaVuSans-61" d="M 2194 1759 
Q 1497 1759 1228 1600 
Q 959 1441 959 1056 
Q 959 750 1161 570 
Q 1363 391 1709 391 
Q 2188 391 2477 730 
Q 2766 1069 2766 1631 
L 2766 1759 
L 2194 1759 
z
M 3341 1997 
L 3341 0 
L 2766 0 
L 2766 531 
Q 2569 213 2275 61 
Q 1981 -91 1556 -91 
Q 1019 -91 701 211 
Q 384 513 384 1019 
Q 384 1609 779 1909 
Q 1175 2209 1959 2209 
L 2766 2209 
L 2766 2266 
Q 2766 2663 2505 2880 
Q 2244 3097 1772 3097 
Q 1472 3097 1187 3025 
Q 903 2953 641 2809 
L 641 3341 
Q 956 3463 1253 3523 
Q 1550 3584 1831 3584 
Q 2591 3584 2966 3190 
Q 3341 2797 3341 1997 
z
" transform="scale(0.015625)"/>
      <path id="DejaVuSans-6c" d="M 603 4863 
L 1178 4863 
L 1178 0 
L 603 0 
L 603 4863 
z
" transform="scale(0.015625)"/>
     </defs>
     <use xlink:href="#DejaVuSans-52"/>
     <use xlink:href="#DejaVuSans-65" transform="translate(64.982422 0)"/>
     <use xlink:href="#DejaVuSans-73" transform="translate(126.505859 0)"/>
     <use xlink:href="#DejaVuSans-69" transform="translate(178.605469 0)"/>
     <use xlink:href="#DejaVuSans-64" transform="translate(206.388672 0)"/>
     <use xlink:href="#DejaVuSans-75" transform="translate(269.865234 0)"/>
     <use xlink:href="#DejaVuSans-61" transform="translate(333.244141 0)"/>
     <use xlink:href="#DejaVuSans-6c" transform="translate(394.523438 0)"/>
     <use xlink:href="#DejaVuSans-73" transform="translate(422.306641 0)"/>
    </g>
   </g>
  </g>
 </g>
 <defs>
  <clipPath id="p901e9a85dc">
   <rect x="57.6" y="41.472" width="357.12" height="266.112"/>
  </clipPath>
 </defs>
</svg>
